<svg xmlns="http://www.w3.org/2000/svg" baseProfile="tiny" viewBox="0 0 160 160" xmlns:v="https://vecta.io/nano"><style><![CDATA[.B{stroke:#7b7378}.C{stroke:#8692a2}.D{fill:#c9ada7}.E{stroke:#d5ccd1}.F{stroke:#3b4359}.G{fill:#e0ebfb}.H{stroke:#8a7e88}.I{fill:#4a4e69}]]></style><g fill="none" stroke-width="2"><path vector-effect="non-scaling-stroke" d="M71.14 39.8l4.61 2.94a.88.87-40.5 0 0 .84.06l7.06-3.34a.67.66-14.1 0 0 .38-.63q-.06-1.45-.37-1.96" class="B"/><path vector-effect="non-scaling-stroke" d="M83.66 36.87q-.72-9.92 3.77-17.95.16-.31-.17-.38-8.26-1.84-16.2.65a1.23 1.22-19.1 0 0-.78 1.6q1.41 3.69 1.51 7.66c.09 3.4-2.45 6.78-3.79 9.96q-.21.51.25.83 1.26.85 2.89.56" class="C"/><path vector-effect="non-scaling-stroke" d="M83.66 36.87q-6.74.39-12.52 2.93" class="E"/><path vector-effect="non-scaling-stroke" d="M109.17 23.87q-8.31-3.69-17.3-5.13a1.38 1.38 0 0 0-1.5.83l-2.84 6.65q-.28.66.44.64c6.21-.14 15.94 1.16 21.25-2.28q.63-.41-.05-.71M26.11 70.78c4.29-20.6 14.47-37.97 32.55-49.23a.18.18 0 0 0-.16-.32q-26.72 9.24-39.52 33.96c-3.2 6.17.68 12.94 6.29 15.98q.68.37.84-.39m24.46-38.1c1.95 6.2 7.43 10.46 13.87 6.9q.4-.22.46-.67.7-4.65 3.92-8.21a.77.76 61.5 0 0 .19-.66l-1.48-8.25q-.12-.69-.76-.4-8.8 3.96-15.97 10.43-.39.35-.23.86m77.35 3.86q-6.65-5.9-14.39-10.27a.82.8 41.4 0 0-.88.05c-7.18 5.15-16.54 3.64-24.78 3.71a1.76 1.76 0 0 0-1.73 1.95l.56 5.11a.64.63-11.6 0 0 .82.54c13.18-4.15 27.03-5.43 40.17-.7q1.14.41.23-.39" class="C"/><path vector-effect="non-scaling-stroke" d="M40.06 57.6q1.64 5.69 5.88 10.43a.65.65 0 0 0 1.01-.05q10.25-14.12 25.3-22.94a.59.58 45.2 0 0 0-1.01c-2.8-1.66-5.16-1.76-8.58-1q-2.86.64-5.3.78" class="B"/><path vector-effect="non-scaling-stroke" d="M58.37 43.81c-5.5-1.13-7.59-4.4-9.92-8.85q-.26-.51-.7-.15-10.86 8.7-7.69 22.79" class="C"/><path vector-effect="non-scaling-stroke" d="M58.37 43.81Q48.23 49.73 40.06 57.6" class="E"/><path vector-effect="non-scaling-stroke" d="M139.95 56.64l2.65.98q.6.22.39-.39-5-13.99-19.98-18.17-8.89-2.48-17.43-1.25" class="C"/><path vector-effect="non-scaling-stroke" d="M105.58 37.81q-2.89-.48-7.84.81a.76.76 0 0 0-.48 1.1q3.1 5.86 9.6 8.39 15.49 6.03 33.09 8.53" class="B"/><path vector-effect="non-scaling-stroke" d="M105.58 37.81q20.56 4.97 34.37 18.83" class="E"/><path vector-effect="non-scaling-stroke" d="M87.01 68.36q1.83 1.67 4.98 1.61 9.32-.16 18 2.68a.42.42 0 0 0 .44-.68l-5.13-5.46" class="F"/><path vector-effect="non-scaling-stroke" d="M105.3 66.51q-4.5-7.25-.71-15.33a.57.56 23.1 0 0-.31-.76q-7.44-2.93-10.09-10.43-.21-.61-.83-.43-16.28 4.7-29.59 15.17-.48.38.13.45c8.7 1.02 17.85 3.22 21.44 12.3q.22.57.57.81.66.46 1.1.07" class="B"/><path vector-effect="non-scaling-stroke" d="M105.3 66.51q-9.18-.23-18.29 1.85" class="H"/><path vector-effect="non-scaling-stroke" d="M30.03 69.15q-2.01 7.53-2.26 16.27c-.08 3.01 5.04 6.37 7.59 8.11q.49.34.62-.25 2.39-11.3 8.51-21.09a1.02 1.01-53.4 0 0-.19-1.31q-4.59-4.01-6.76-10.6" class="B"/><path vector-effect="non-scaling-stroke" d="M37.54 60.28q-1.22-3.87-1.04-8.34a.21.21 0 0 0-.4-.11q-3.92 7.86-6.07 17.32" class="C"/><path vector-effect="non-scaling-stroke" d="M37.54 60.28l-7.51 8.87" class="E"/><path vector-effect="non-scaling-stroke" d="M111.16 67.22c2.81 4.56 5.12 7.98 9.8 11.01q6.57 4.25 11.66 10.09a.45.45 0 0 0 .79-.25q.66-7.61-.28-15.14" class="F"/><path vector-effect="non-scaling-stroke" d="M133.13 72.93c-.71-3.75-1.95-9.48-5.36-11.69q-9.68-6.26-19.83-8.95-.54-.15-.73.38-3.4 9.51 3.95 14.55" class="B"/><path vector-effect="non-scaling-stroke" d="M133.13 72.93q-.74.47-1.09.31-9.6-4.6-20.88-6.02" class="H"/><path vector-effect="non-scaling-stroke" d="M144.78 61.81q-7.73-2.76-15.89-3.93a.21.2-28.2 0 0-.12.39c4.6 2.14 12.15 6.24 14.18 11.16q2.93 7.11 6.46 13.97a.3.3 0 0 0 .57-.16q-.67-10.72-4.49-20.73a1.17 1.16 89.4 0 0-.71-.7m-62.02 6.95c-2.12-8.64-15.23-10.91-22.56-10.03q-.48.05-.81.39-9.23 9.27-15.77 20.59a.35.35 0 0 0 .45.49q7.67-3.58 15.75-.77.58.2 1.1-.14 9.95-6.52 21.42-9.8.56-.16.42-.73m-62.15 31.38l3.8.81q.56.12.54-.44l-.52-18.27" class="B"/><path vector-effect="non-scaling-stroke" d="M24.43 82.24l1.06-7.12q.07-.5-.39-.7-7.21-3.14-9.76-10.51a.33.33 0 0 0-.62 0q-4.31 12.43-4.02 25.73c.12 5.62 4.84 9.01 9.91 10.5" class="C"/><path vector-effect="non-scaling-stroke" d="M24.43 82.24c-2.8 6.01-3.18 10.53-3.82 17.9" class="E"/><path vector-effect="non-scaling-stroke" d="M136.8 75.62l-.59 16.92a.92.79-61.4 0 0 .08.37l5.65 11.12q.28.54.73.14 5.86-5.17 7.53-12.86a1.64 1.63 36.8 0 0-.17-1.14l-5.16-9.49" class="F"/><path vector-effect="non-scaling-stroke" d="M144.87 80.68c-2.66-6.19-3.44-11.89-9.8-15.11q-.69-.36-.52.4l2.25 9.65" class="B"/><path vector-effect="non-scaling-stroke" d="M144.87 80.68l-8.07-5.06" class="H"/><path vector-effect="non-scaling-stroke" d="M80.28 86.48c16.63-4.41 27.88 8.03 31.19 22.94q.11.51.63.62l3.55.78q.71.15.7-.58-.09-9.79 3.19-18.97.82-2.29.06-9.45-.05-.47-.41-.78-1.89-1.59-3.77-2.5-20.41-9.84-42.76-2.14a.75.75 0 0 0-.34 1.19l7.2 8.65q.31.36.76.24m-11.4-7.5a1.4 1.4 0 0 0-1.69-.19q-17.24 10.22-19.96 30.22a.36.36 0 0 0 .67.23c6.93-11.71 23.64-9.97 34.8-7.23a.75.75 0 0 0 .88-1.01q-4.93-12.64-14.7-22.02m-29.37 40.51c-.41 5.3 5.54 16.53 8.06 21.42a.27.27 0 0 0 .5-.17c-1.62-8.82-4.16-19.44-3.8-27.48.3-6.78 2.49-12.8 3.42-19.57" class="F"/><path vector-effect="non-scaling-stroke" d="M47.69 93.69l9.57-11.24q.41-.48-.21-.64-7.93-2.04-13.77 2.85c-7.19 6.03-5.69 26.88-3.77 34.83" class="B"/><path vector-effect="non-scaling-stroke" d="M47.69 93.69q-7.85 11.12-8.18 25.8" class="H"/><path vector-effect="non-scaling-stroke" d="M123.99 83.97a.44.44 0 0 0-.74.33c.05 3.17 0 5.9-1.01 9.11q-2.59 8.32-2.49 16.99a.56.55 90 0 0 .54.55q9.64.19 18.2-4.04.6-.3.37-.93-4.68-12.87-14.87-22.01m-16.22 23.79c-3.21-11.37-12.62-21.75-25.79-18.87q-.48.11-.29.57l5.6 12.98q.17.39.57.52l19.01 5.69q1.25.37.9-.89" class="F"/><path vector-effect="non-scaling-stroke" d="M42.07 137.98a.27.26 26.3 0 0 .42-.14q.08-.32-.12-.72-8.16-16.43-7.56-34.69c.17-4.9-1.99-7.98-6.24-9.99q-.49-.23-.48.31.58 22.83 11.46 42.65c.59 1.08 1.58 1.87 2.52 2.58m-10.34-10.15q-4.05-11.13-5.9-22.67a.83.82-89 0 0-.65-.68l-4.24-.79" class="B"/><path vector-effect="non-scaling-stroke" d="M20.94 103.69q-4.78-1.35-8.4-4.11a.4.39-78.2 0 0-.62.41q4.59 19.51 20.59 31.53 1.21.91.76-.53-.49-1.62-1.54-3.16" class="C"/><path vector-effect="non-scaling-stroke" d="M20.94 103.69q1.53 14.07 10.79 24.14" class="E"/></g><path fill="#2c3848" d="M51.85 150.04C29.12 138.7 8.87 123.42 5.58 96.18-2.77 27.03 80.83-16.08 132.11 32.64q20.84 19.8 23.56 49.92c1.48 16.52-6.38 27.2-21.89 32.15-17.42 5.55-35.15-3.21-51.03-6.97-13.58-3.21-32.87-5.09-31.55 15.52q.73 11.34 3.99 22.27.54 1.82.21 2.96a2.52 2.52 0 0 1-3.55 1.55zM71.14 39.8l4.61 2.94a.88.87-40.5 0 0 .84.06l7.06-3.34a.67.66-14.1 0 0 .38-.63q-.06-1.45-.37-1.96-.72-9.92 3.77-17.95.16-.31-.17-.38-8.26-1.84-16.2.65a1.23 1.22-19.1 0 0-.78 1.6q1.41 3.69 1.51 7.66c.09 3.4-2.45 6.78-3.79 9.96q-.21.51.25.83 1.26.85 2.89.56zm38.03-15.93q-8.31-3.69-17.3-5.13a1.38 1.38 0 0 0-1.5.83l-2.84 6.65q-.28.66.44.64c6.21-.14 15.94 1.16 21.25-2.28q.63-.41-.05-.71zM26.11 70.78c4.29-20.6 14.47-37.97 32.55-49.23a.18.18 0 0 0-.16-.32q-26.72 9.24-39.52 33.96c-3.2 6.17.68 12.94 6.29 15.98q.68.37.84-.39zm24.46-38.1c1.95 6.2 7.43 10.46 13.87 6.9q.4-.22.46-.67.7-4.65 3.92-8.21a.77.76 61.5 0 0 .19-.66l-1.48-8.25q-.12-.69-.76-.4-8.8 3.96-15.97 10.43-.39.35-.23.86zm77.35 3.86q-6.65-5.9-14.39-10.27a.82.8 41.4 0 0-.88.05c-7.18 5.15-16.54 3.64-24.78 3.71a1.76 1.76 0 0 0-1.73 1.95l.56 5.11a.64.63-11.6 0 0 .82.54c13.18-4.15 27.03-5.43 40.17-.7q1.14.41.23-.39zM40.06 57.6q1.64 5.69 5.88 10.43a.65.65 0 0 0 1.01-.05q10.25-14.12 25.3-22.94a.59.58 45.2 0 0 0-1.01c-2.8-1.66-5.16-1.76-8.58-1q-2.86.64-5.3.78c-5.5-1.13-7.59-4.4-9.92-8.85q-.26-.51-.7-.15-10.86 8.7-7.69 22.79zm99.89-.96l2.65.98q.6.22.39-.39-5-13.99-19.98-18.17-8.89-2.48-17.43-1.25-2.89-.48-7.84.81a.76.76 0 0 0-.48 1.1q3.1 5.86 9.6 8.39 15.49 6.03 33.09 8.53zM87.01 68.36q1.83 1.67 4.98 1.61 9.32-.16 18 2.68a.42.42 0 0 0 .44-.68l-5.13-5.46q-4.5-7.25-.71-15.33a.57.56 23.1 0 0-.31-.76q-7.44-2.93-10.09-10.43-.21-.61-.83-.43-16.28 4.7-29.59 15.17-.48.38.13.45c8.7 1.02 17.85 3.22 21.44 12.3q.22.57.57.81.66.46 1.1.07zm-56.98.79q-2.01 7.53-2.26 16.27c-.08 3.01 5.04 6.37 7.59 8.11q.49.34.62-.25 2.39-11.3 8.51-21.09a1.02 1.01-53.4 0 0-.19-1.31q-4.59-4.01-6.76-10.6-1.22-3.87-1.04-8.34a.21.21 0 0 0-.4-.11q-3.92 7.86-6.07 17.32zm81.13-1.93c2.81 4.56 5.12 7.98 9.8 11.01q6.57 4.25 11.66 10.09a.45.45 0 0 0 .79-.25q.66-7.61-.28-15.14c-.71-3.75-1.95-9.48-5.36-11.69q-9.68-6.26-19.83-8.95-.54-.15-.73.38-3.4 9.51 3.95 14.55zm33.62-5.41q-7.73-2.76-15.89-3.93a.21.2-28.2 0 0-.12.39c4.6 2.14 12.15 6.24 14.18 11.16q2.93 7.11 6.46 13.97a.3.3 0 0 0 .57-.16q-.67-10.72-4.49-20.73a1.17 1.16 89.4 0 0-.71-.7zm-62.02 6.95c-2.12-8.64-15.23-10.91-22.56-10.03q-.48.05-.81.39-9.23 9.27-15.77 20.59a.35.35 0 0 0 .45.49q7.67-3.58 15.75-.77.58.2 1.1-.14 9.95-6.52 21.42-9.8.56-.16.42-.73zm-62.15 31.38l3.8.81q.56.12.54-.44l-.52-18.27 1.06-7.12q.07-.5-.39-.7-7.21-3.14-9.76-10.51a.33.33 0 0 0-.62 0q-4.31 12.43-4.02 25.73c.12 5.62 4.84 9.01 9.91 10.5zM136.8 75.62l-.59 16.92a.92.79-61.4 0 0 .08.37l5.65 11.12q.28.54.73.14 5.86-5.17 7.53-12.86a1.64 1.63 36.8 0 0-.17-1.14l-5.16-9.49c-2.66-6.19-3.44-11.89-9.8-15.11q-.69-.36-.52.4l2.25 9.65zM80.28 86.48c16.63-4.41 27.88 8.03 31.19 22.94q.11.51.63.62l3.55.78q.71.15.7-.58-.09-9.79 3.19-18.97.82-2.29.06-9.45-.05-.47-.41-.78-1.89-1.59-3.77-2.5-20.41-9.84-42.76-2.14a.75.75 0 0 0-.34 1.19l7.2 8.65q.31.36.76.24zm-11.4-7.5a1.4 1.4 0 0 0-1.69-.19q-17.24 10.22-19.96 30.22a.36.36 0 0 0 .67.23c6.93-11.71 23.64-9.97 34.8-7.23a.75.75 0 0 0 .88-1.01q-4.93-12.64-14.7-22.02zm-29.37 40.51c-.41 5.3 5.54 16.53 8.06 21.42a.27.27 0 0 0 .5-.17c-1.62-8.82-4.16-19.44-3.8-27.48.3-6.78 2.49-12.8 3.42-19.57l9.57-11.24q.41-.48-.21-.64-7.93-2.04-13.77 2.85c-7.19 6.03-5.69 26.88-3.77 34.83zm84.48-35.52a.44.44 0 0 0-.74.33c.05 3.17 0 5.9-1.01 9.11q-2.59 8.32-2.49 16.99a.56.55 90 0 0 .54.55q9.64.19 18.2-4.04.6-.3.37-.93-4.68-12.87-14.87-22.01zm-16.22 23.79c-3.21-11.37-12.62-21.75-25.79-18.87q-.48.11-.29.57l5.6 12.98q.17.39.57.52l19.01 5.69q1.25.37.9-.89zm-65.7 30.22a.27.26 26.3 0 0 .42-.14q.08-.32-.12-.72-8.16-16.43-7.56-34.69c.17-4.9-1.99-7.98-6.24-9.99q-.49-.23-.48.31.58 22.83 11.46 42.65c.59 1.08 1.58 1.87 2.52 2.58zm-10.34-10.15q-4.05-11.13-5.9-22.67a.83.82-89 0 0-.65-.68l-4.24-.79q-4.78-1.35-8.4-4.11a.4.39-78.2 0 0-.62.41q4.59 19.51 20.59 31.53 1.21.91.76-.53-.49-1.62-1.54-3.16z"/><path d="M83.66 36.87q-6.74.39-12.52 2.93-1.63.29-2.89-.56-.46-.32-.25-.83c1.34-3.18 3.88-6.56 3.79-9.96q-.1-3.97-1.51-7.66a1.23 1.22-19.1 0 1 .78-1.6q7.94-2.49 16.2-.65.33.07.17.38-4.49 8.03-3.77 17.95zm25.51-13q.68.3.05.71c-5.31 3.44-15.04 2.14-21.25 2.28q-.72.02-.44-.64l2.84-6.65a1.38 1.38 0 0 1 1.5-.83q8.99 1.44 17.3 5.13zm-50.51-2.32C40.58 32.81 30.4 50.18 26.11 70.78q-.16.76-.84.39c-5.61-3.04-9.49-9.81-6.29-15.98q12.8-24.72 39.52-33.96a.18.18 0 0 1 .16.32zm5.78 18.03c-6.44 3.56-11.92-.7-13.87-6.9q-.16-.51.23-.86 7.17-6.47 15.97-10.43.64-.29.76.4l1.48 8.25a.77.76 61.5 0 1-.19.66q-3.22 3.56-3.92 8.21-.06.45-.46.67zm63.48-3.04q.91.8-.23.39c-13.14-4.73-26.99-3.45-40.17.7a.64.63-11.6 0 1-.82-.54l-.56-5.11a1.76 1.76 0 0 1 1.73-1.95c8.24-.07 17.6 1.44 24.78-3.71a.82.8 41.4 0 1 .88-.05q7.74 4.37 14.39 10.27zm-69.55 7.27Q48.23 49.73 40.06 57.6q-3.17-14.09 7.69-22.79.44-.36.7.15c2.33 4.45 4.42 7.72 9.92 8.85z" class="G"/><path d="M83.66 36.87q.31.51.37 1.96a.67.66-14.1 0 1-.38.63l-7.06 3.34a.88.87-40.5 0 1-.84-.06l-4.61-2.94q5.78-2.54 12.52-2.93zm21.92.94q20.56 4.97 34.37 18.83-17.6-2.5-33.09-8.53-6.5-2.53-9.6-8.39a.76.76 0 0 1 .48-1.1q4.95-1.29 7.84-.81z" class="D"/><path d="M105.58 37.81q8.54-1.23 17.43 1.25 14.98 4.18 19.98 18.17.21.61-.39.39l-2.65-.98q-13.81-13.86-34.37-18.83z" class="G"/><path d="M105.3 66.51q-9.18-.23-18.29 1.85-.44.39-1.1-.07-.35-.24-.57-.81C81.75 58.4 72.6 56.2 63.9 55.18q-.61-.07-.13-.45 13.31-10.47 29.59-15.17.62-.18.83.43 2.65 7.5 10.09 10.43a.57.56 23.1 0 1 .31.76q-3.79 8.08.71 15.33zM40.06 57.6q8.17-7.87 18.31-13.79 2.44-.14 5.3-.78c3.42-.76 5.78-.66 8.58 1a.59.58 45.2 0 1 0 1.01q-15.05 8.82-25.3 22.94a.65.65 0 0 1-1.01.05q-4.24-4.74-5.88-10.43z" class="D"/><path d="M37.54 60.28l-7.51 8.87q2.15-9.46 6.07-17.32a.21.21 0 0 1 .4.11q-.18 4.47 1.04 8.34z" class="G"/><path d="M133.13 72.93q-.74.47-1.09.31-9.6-4.6-20.88-6.02-7.35-5.04-3.95-14.55.19-.53.73-.38 10.15 2.69 19.83 8.95c3.41 2.21 4.65 7.94 5.36 11.69zm11.65-11.12a1.17 1.16 89.4 0 1 .71.7q3.82 10.01 4.49 20.73a.3.3 0 0 1-.57.16q-3.53-6.86-6.46-13.97c-2.03-4.92-9.58-9.02-14.18-11.16a.21.2-28.2 0 1 .12-.39q8.16 1.17 15.89 3.93zM60.2 58.73c7.33-.88 20.44 1.39 22.56 10.03q.14.57-.42.73-11.47 3.28-21.42 9.8-.52.34-1.1.14-8.08-2.81-15.75.77a.35.35 0 0 1-.45-.49q6.54-11.32 15.77-20.59.33-.34.81-.39zm-22.66 1.55q2.17 6.59 6.76 10.6a1.02 1.01-53.4 0 1 .19 1.31q-6.12 9.79-8.51 21.09-.13.59-.62.25c-2.55-1.74-7.67-5.1-7.59-8.11q.25-8.74 2.26-16.27l7.51-8.87z" class="D"/><path d="M24.43 82.24c-2.8 6.01-3.18 10.53-3.82 17.9-5.07-1.49-9.79-4.88-9.91-10.5q-.29-13.3 4.02-25.73a.33.33 0 0 1 .62 0q2.55 7.37 9.76 10.51.46.2.39.7l-1.06 7.12z" class="G"/><path d="M144.87 80.68l-8.07-5.06-2.25-9.65q-.17-.76.52-.4c6.36 3.22 7.14 8.92 9.8 15.11z" class="D"/><path d="M105.3 66.51l5.13 5.46a.42.42 0 0 1-.44.68q-8.68-2.84-18-2.68-3.15.06-4.98-1.61 9.11-2.08 18.29-1.85zm5.86.71q11.28 1.42 20.88 6.02.35.16 1.09-.31.94 7.53.28 15.14a.45.45 0 0 1-.79.25q-5.09-5.84-11.66-10.09c-4.68-3.03-6.99-6.45-9.8-11.01zm.31 42.2c-3.31-14.91-14.56-27.35-31.19-22.94q-.45.12-.76-.24l-7.2-8.65a.75.75 0 0 1 .34-1.19q22.35-7.7 42.76 2.14 1.88.91 3.77 2.5.36.31.41.78.76 7.16-.06 9.45-3.28 9.18-3.19 18.97.01.73-.7.58l-3.55-.78q-.52-.11-.63-.62zm25.33-33.8l8.07 5.06 5.16 9.49a1.64 1.63 36.8 0 1 .17 1.14q-1.67 7.69-7.53 12.86-.45.4-.73-.14l-5.65-11.12a.92.79-61.4 0 1-.08-.37l.59-16.92zm-67.92 3.36q9.77 9.38 14.7 22.02a.75.75 0 0 1-.88 1.01c-11.16-2.74-27.87-4.48-34.8 7.23a.36.36 0 0 1-.67-.23q2.72-20 19.96-30.22a1.4 1.4 0 0 1 1.69.19z" class="I"/><path d="M47.69 93.69q-7.85 11.12-8.18 25.8c-1.92-7.95-3.42-28.8 3.77-34.83q5.84-4.89 13.77-2.85.62.16.21.64l-9.57 11.24zM24.43 82.24l.52 18.27q.02.56-.54.44l-3.8-.81c.64-7.37 1.02-11.89 3.82-17.9z" class="D"/><path d="M123.99 83.97q10.19 9.14 14.87 22.01.23.63-.37.93-8.56 4.23-18.2 4.04a.56.55 90 0 1-.54-.55q-.1-8.67 2.49-16.99c1.01-3.21 1.06-5.94 1.01-9.11a.44.44 0 0 1 .74-.33zm-42.01 4.92c13.17-2.88 22.58 7.5 25.79 18.87q.35 1.26-.9.89l-19.01-5.69q-.4-.13-.57-.52l-5.6-12.98q-.19-.46.29-.57z" class="I"/><path d="M42.07 137.98c-.94-.71-1.93-1.5-2.52-2.58q-10.88-19.82-11.46-42.65-.01-.54.48-.31c4.25 2.01 6.41 5.09 6.24 9.99q-.6 18.26 7.56 34.69.2.4.12.72a.27.26 26.3 0 1-.42.14z" class="D"/><path d="M47.69 93.69c-.93 6.77-3.12 12.79-3.42 19.57-.36 8.04 2.18 18.66 3.8 27.48a.27.27 0 0 1-.5.17c-2.52-4.89-8.47-16.12-8.06-21.42q.33-14.68 8.18-25.8z" class="I"/><path d="M20.94 103.69q1.53 14.07 10.79 24.14 1.05 1.54 1.54 3.16.45 1.44-.76.53-16-12.02-20.59-31.53a.4.39-78.2 0 1 .62-.41q3.62 2.76 8.4 4.11z" class="G"/><path d="M20.94 103.69l4.24.79a.83.82-89 0 1 .65.68q1.85 11.54 5.9 22.67-9.26-10.07-10.79-24.14z" class="D"/></svg>
