<svg xmlns="http://www.w3.org/2000/svg" viewBox="0 0 631 221" xmlns:v="https://vecta.io/nano"><path vector-effect="non-scaling-stroke" d="M595.26 22.82q1.18-1.49.77.37-2.44 11.18-8.09 20.49-.6.99-.03 1.6a1.39 1.38-48.3 0 0 2.15-.13c4.64-6.55 6.91-13.21 8.96-20.79q.14-.5.58-.22c2.91 1.85 7.32 4.77 10.9 4.33q1.44-.18 1.63-1.34a1.56 1.56 0 0 0-1.35-1.81c-6.77-.85-10.05-4.3-11.56-10.57q-.25-1.01-1.36.01a.81.73-8.3 0 0-.15.18q-4.82 7.71-12.62 12.36a1.22 1.22 0 0 0-.12 2.01l.42.32q1.11.85 2.29.09 4.37-2.8 7.58-6.9M581.4 53.48l-.19-.2q-.85-.9-1.73-.03-9.3 9.3-19.74 17.31a1.12 1.11 51.5 0 0-.18 1.59l.34.41a1.12 1.11-38.1 0 0 1.52.18q6.79-5.02 15.11-12.47 3.01-2.7 4.96-5.45a1.06 1.05-49 0 0-.09-1.34m-32.36 26.342a1.41 1.41 0 0 0-1.967-.329L531.165 90.84a1.41 1.41 0 0 0-.329 1.967l.023.032a1.41 1.41 0 0 0 1.967.329l15.908-11.347a1.41 1.41 0 0 0 .329-1.967l-.023-.032m-28.945 19.995a1.4 1.4 0 0 0-1.892-.582L495.19 111.42a1.4 1.4 0 0 0-.582 1.892l.037.071a1.4 1.4 0 0 0 1.892.582l23.013-12.185a1.4 1.4 0 0 0 .582-1.892l-.037-.071m-37.899 19.388a1.33 1.33 0 0 0-1.764-.652l-15.099 6.945a1.33 1.33 0 0 0-.653 1.764l.025.055a1.33 1.33 0 0 0 1.764.653l15.099-6.945a1.33 1.33 0 0 0 .653-1.764l-.025-.055M342.16 144.74l3.07-3.87a1.4 1.39-44.3 0 0 .03-1.69l-.26-.36a.82.81-42.1 0 0-1.26-.06l-4.12 4.56a.88.88 0 0 1-1.11.16c-4.26-2.67-6.91-7.66-4.9-12.69 1.36-3.4 3.76-8.77 8.12-8.01q6.34 1.11 6 7.79a1.03 1.02-67.3 0 0 .32.79q.61.57 1.3.26.59-.26.81-1.12c.99-4.06-1.77-8.12-5.46-9.63-6.86-2.81-11.88 2.73-13.67 8.86-1.87 6.39.24 11.88 5.5 15.71a.57.57 0 0 1 .01.91q-1.27.98-2.6 2.12-.49.42-.56.81-.11.62.44 1.15a1.04 1.02 48.5 0 0 1.32.09l3.81-2.78a1.8 1.79-50.5 0 1 1.82-.18q4.18 1.93 8.72 2.6a.6.59 2.8 0 0 .68-.61l-.01-.29q-.03-1-.97-1.33l-6.81-2.42q-.64-.23-.22-.77m110.702-12.412a1.34 1.34 0 0 0-1.724-.786l-18.321 6.85a1.34 1.34 0 0 0-.786 1.724l.028.075a1.34 1.34 0 0 0 1.724.786l18.321-6.85a1.34 1.34 0 0 0 .786-1.724l-.028-.075m-35.426 12.215a1.13 1.13 0 0 0-1.333-.882l-22.048 4.486a1.13 1.13 0 0 0-.882 1.333l.032.157a1.13 1.13 0 0 0 1.333.882l22.048-4.486a1.13 1.13 0 0 0 .882-1.333l-.032-.157m-36.212 5.813a.88.88 0 0 0-.898-.861l-15.857.332a.88.88 0 0 0-.861.898l.007.36a.88.88 0 0 0 .898.861l15.857-.332a.88.88 0 0 0 .861-.898l-.007-.36m-57.838 6.994a1.09 1.09 0 0 0-1.492-.386L309.78 164.1a1.09 1.09 0 0 0-.386 1.492l.081.138a1.09 1.09 0 0 0 1.492.386l12.114-7.136a1.09 1.09 0 0 0 .386-1.492l-.081-.138m-27.032 13.62a1.14 1.14 0 0 0-1.44-.724l-20.223 6.688a1.14 1.14 0 0 0-.724 1.44l.019.057a1.14 1.14 0 0 0 1.44.724l20.223-6.688a1.14 1.14 0 0 0 .724-1.44l-.019-.057m-36.227 10.889a1.07 1.07 0 0 0-1.279-.809l-32.095 7.233a1.07 1.07 0 0 0-.809 1.279l.009.039a1.07 1.07 0 0 0 1.279.809l32.095-7.233a1.07 1.07 0 0 0 .809-1.279l-.009-.039m-49.719 10.512a.96.96 0 0 0-1.08-.823l-30.919 4.18a.96.96 0 0 0-.823 1.08l.005.04a.96.96 0 0 0 1.08.823l30.919-4.18a.96.96 0 0 0 .823-1.08l-.005-.04m-45.909 5.63a.73.73 0 0 0-.788-.666l-27.822 2.336a.73.73 0 0 0-.666.788l.018.219a.73.73 0 0 0 .788.666l27.822-2.336a.73.73 0 0 0 .666-.788l-.018-.219m-123.76 4.826a.27.27 0 0 0-.254-.285l-26.057-1.502a.27.27 0 0 0-.285.254l-.023.399a.27.27 0 0 0 .254.285l26.057 1.502a.27.27 0 0 0 .285-.254l.023-.399m78.972-1.509a.33.33 0 0 0-.346-.313l-20.773 1.052a.33.33 0 0 0-.313.346l.031.619a.33.33 0 0 0 .346.313l20.773-1.052a.33.33 0 0 0 .313-.346l-.031-.619m-37.272 1.966a.53.53 0 0 0-.535-.524l-23.019.241a.53.53 0 0 0-.524.536v.02a.53.53 0 0 0 .535.524l23.019-.241a.53.53 0 0 0 .524-.536v-.02" fill="none" stroke="#d7d7d7" stroke-width="2"/><path fill="#fff" d="M0 0h631v221H0V0zm595.26 22.82q1.18-1.49.77.37-2.44 11.18-8.09 20.49-.6.99-.03 1.6a1.39 1.38-48.3 0 0 2.15-.13c4.64-6.55 6.91-13.21 8.96-20.79q.14-.5.58-.22c2.91 1.85 7.32 4.77 10.9 4.33q1.44-.18 1.63-1.34a1.56 1.56 0 0 0-1.35-1.81c-6.77-.85-10.05-4.3-11.56-10.57q-.25-1.01-1.36.01a.81.73-8.3 0 0-.15.18q-4.82 7.71-12.62 12.36a1.22 1.22 0 0 0-.12 2.01l.42.32q1.11.85 2.29.09 4.37-2.8 7.58-6.9zM581.4 53.48l-.19-.2q-.85-.9-1.73-.03-9.3 9.3-19.74 17.31a1.12 1.11 51.5 0 0-.18 1.59l.34.41a1.12 1.11-38.1 0 0 1.52.18q6.79-5.02 15.11-12.47 3.01-2.7 4.96-5.45a1.06 1.05-49 0 0-.09-1.34zm-32.36 26.342a1.41 1.41 0 0 0-1.967-.329l-15.908 11.347a1.41 1.41 0 0 0-.329 1.967l.023.032a1.41 1.41 0 0 0 1.967.329l15.908-11.347a1.41 1.41 0 0 0 .329-1.967l-.023-.032zm-28.945 19.996a1.4 1.4 0 0 0-1.892-.582L495.19 111.42a1.4 1.4 0 0 0-.582 1.892l.037.071a1.4 1.4 0 0 0 1.892.582l23.013-12.185a1.4 1.4 0 0 0 .582-1.892l-.037-.071zm-37.9 19.387a1.33 1.33 0 0 0-1.764-.652l-15.099 6.945a1.33 1.33 0 0 0-.653 1.764l.025.055a1.33 1.33 0 0 0 1.764.653l15.099-6.945a1.33 1.33 0 0 0 .653-1.764l-.025-.055zM342.16 144.74l3.07-3.87a1.4 1.39-44.3 0 0 .03-1.69l-.26-.36a.82.81-42.1 0 0-1.26-.06l-4.12 4.56a.88.88 0 0 1-1.11.16c-4.26-2.67-6.91-7.66-4.9-12.69 1.36-3.4 3.76-8.77 8.12-8.01q6.34 1.11 6 7.79a1.03 1.02-67.3 0 0 .32.79q.61.57 1.3.26.59-.26.81-1.12c.99-4.06-1.77-8.12-5.46-9.63-6.86-2.81-11.88 2.73-13.67 8.86-1.87 6.39.24 11.88 5.5 15.71a.57.57 0 0 1 .01.91q-1.27.98-2.6 2.12-.49.42-.56.81-.11.62.44 1.15a1.04 1.02 48.5 0 0 1.32.09l3.81-2.78a1.8 1.79-50.5 0 1 1.82-.18q4.18 1.93 8.72 2.6a.6.59 2.8 0 0 .68-.61l-.01-.29q-.03-1-.97-1.33l-6.81-2.42q-.64-.23-.22-.77zm110.702-12.412a1.34 1.34 0 0 0-1.724-.786l-18.321 6.85a1.34 1.34 0 0 0-.786 1.724l.028.075a1.34 1.34 0 0 0 1.724.786l18.321-6.85a1.34 1.34 0 0 0 .786-1.724l-.028-.075zm-35.426 12.215a1.13 1.13 0 0 0-1.333-.882l-22.048 4.486a1.13 1.13 0 0 0-.882 1.333l.032.157a1.13 1.13 0 0 0 1.333.882l22.048-4.486a1.13 1.13 0 0 0 .882-1.333l-.032-.157zm-36.211 5.812a.88.88 0 0 0-.898-.861l-15.857.332a.88.88 0 0 0-.861.898l.007.36a.88.88 0 0 0 .898.861l15.857-.332a.88.88 0 0 0 .861-.898l-.007-.36zm-57.839 6.994a1.09 1.09 0 0 0-1.492-.386l-12.114 7.136a1.09 1.09 0 0 0-.386 1.492l.081.138a1.09 1.09 0 0 0 1.492.386l12.114-7.136a1.09 1.09 0 0 0 .386-1.492l-.081-.138zm-27.031 13.62a1.14 1.14 0 0 0-1.44-.724l-20.223 6.688a1.14 1.14 0 0 0-.724 1.44l.019.057a1.14 1.14 0 0 0 1.44.724l20.223-6.688a1.14 1.14 0 0 0 .724-1.44l-.019-.057zm-36.227 10.889a1.07 1.07 0 0 0-1.279-.809l-32.095 7.233a1.07 1.07 0 0 0-.809 1.279l.009.039a1.07 1.07 0 0 0 1.279.809l32.095-7.233a1.07 1.07 0 0 0 .809-1.279l-.009-.039zm-49.719 10.513a.96.96 0 0 0-1.08-.823l-30.919 4.18a.96.96 0 0 0-.823 1.08l.005.04a.96.96 0 0 0 1.08.823l30.919-4.18a.96.96 0 0 0 .823-1.08l-.005-.04zm-45.909 5.63a.73.73 0 0 0-.788-.666l-27.822 2.336a.73.73 0 0 0-.666.788l.018.219a.73.73 0 0 0 .788.666l27.822-2.336a.73.73 0 0 0 .666-.788l-.018-.219zm-123.76 4.826a.27.27 0 0 0-.254-.285l-26.057-1.502a.27.27 0 0 0-.285.254l-.023.399a.27.27 0 0 0 .254.285l26.057 1.502a.27.27 0 0 0 .285-.254l.023-.399zm78.971-1.51a.33.33 0 0 0-.346-.313l-20.773 1.052a.33.33 0 0 0-.313.346l.031.619a.33.33 0 0 0 .346.313l20.773-1.052a.33.33 0 0 0 .313-.346l-.031-.619zm-37.271 1.966a.53.53 0 0 0-.535-.524l-23.019.241a.53.53 0 0 0-.524.536v.02a.53.53 0 0 0 .535.524l23.019-.241a.53.53 0 0 0 .524-.536v-.02z"/><g fill="#afafae"><path d="M595.26 22.82q-3.21 4.1-7.58 6.9-1.18.76-2.29-.09l-.42-.32a1.22 1.22 0 0 1 .12-2.01q7.8-4.65 12.62-12.36a.81.73-8.3 0 1 .15-.18q1.11-1.02 1.36-.01c1.51 6.27 4.79 9.72 11.56 10.57a1.56 1.56 0 0 1 1.35 1.81q-.19 1.16-1.63 1.34c-3.58.44-7.99-2.48-10.9-4.33q-.44-.28-.58.22c-2.05 7.58-4.32 14.24-8.96 20.79a1.39 1.38-48.3 0 1-2.15.13q-.57-.61.03-1.6 5.65-9.31 8.09-20.49.41-1.86-.77-.37zm-13.77 32q-1.95 2.75-4.96 5.45-8.32 7.45-15.11 12.47a1.12 1.11-38.1 0 1-1.52-.18l-.34-.41a1.12 1.11 51.5 0 1 .18-1.59q10.44-8.01 19.74-17.31.88-.87 1.73.03l.19.2a1.06 1.05-49 0 1 .09 1.34z"/><rect x="-11.18" y="-1.43" transform="matrix(.814116 -.580703 .580703 .814116 539.95 86.33)" width="22.36" height="2.86" rx="1.41"/><rect x="-14.42" y="-1.44" transform="matrix(.883766 -.46793 .46793 .883766 507.37 106.6)" width="28.84" height="2.88" rx="1.4"/><rect x="-9.64" y="-1.36" transform="matrix(.908508 -.417867 .417867 .908508 473.45 123.26)" width="19.28" height="2.72" rx="1.33"/><path d="M342.38 145.51l6.81 2.42q.94.33.97 1.33l.01.29a.6.59 2.8 0 1-.68.61q-4.54-.67-8.72-2.6a1.8 1.79-50.5 0 0-1.82.18l-3.81 2.78a1.04 1.02 48.5 0 1-1.32-.09q-.55-.53-.44-1.15.07-.39.56-.81 1.33-1.14 2.6-2.12a.57.57 0 0 0-.01-.91c-5.26-3.83-7.37-9.32-5.5-15.71 1.79-6.13 6.81-11.67 13.67-8.86 3.69 1.51 6.45 5.57 5.46 9.63q-.22.86-.81 1.12-.69.31-1.3-.26a1.03 1.02-67.3 0 1-.32-.79q.34-6.68-6-7.79c-4.36-.76-6.76 4.61-8.12 8.01-2.01 5.03.64 10.02 4.9 12.69a.88.88 0 0 0 1.11-.16l4.12-4.56a.82.81-42.1 0 1 1.26.06l.26.36a1.4 1.39-44.3 0 1-.03 1.69l-3.07 3.87q-.42.54.22.77z"/><rect x="-11.12" y="-1.38" transform="matrix(.936672 -.350207 .350207 .936672 442.46 136.26)" width="22.24" height="2.76" rx="1.34"/><rect x="-12.38" y="-1.21" transform="matrix(.979925 -.199368 .199368 .979925 405.32 147.09)" width="24.76" height="2.42" rx="1.13"/><rect x="-8.81" y="-1.06" transform="matrix(.999781 -.020942 .020942 .999781 372.42 150.72)" width="17.62" height="2.12" rx=".88"/><rect x="-8.12" y="-1.17" transform="matrix(.861629 -.507538 .507538 .861629 316.43 161.54)" width="16.24" height="2.34" rx="1.09"/><rect x="-11.79" y="-1.17" transform="matrix(.949425 -.313992 .313992 .949425 285.17 174.7)" width="23.58" height="2.34" rx="1.14"/><rect x="-17.52" y="-1.09" transform="matrix(.975535 -.219846 .219846 .975535 243.04 185.73)" width="35.04" height="2.18" rx="1.07"/><rect x="-16.56" y="-.98" transform="matrix(.990983 -.133986 .133986 .990983 194 194.61)" width="33.12" height="1.96" rx=".96"/><rect x="-14.69" y="-.84" transform="matrix(.996493 -.083678 .083678 .996493 149.87 199.34)" width="29.38" height="1.68" rx=".73"/><rect x="-13.32" y="-.47" transform="matrix(.998342 .057564 -.057564 .998342 27.43 202.26)" width="26.64" height=".94" rx=".27"/><rect x="-10.73" y="-.64" transform="matrix(.998719 -.050593 .050593 .998719 109.01 202.17)" width="21.46" height="1.28" rx=".33"/><rect x="-12.04" y="-.54" transform="matrix(.999945 -.010472 .010472 .999945 70.4 203.42)" width="24.08" height="1.08" rx=".53"/></g></svg>