<svg xmlns="http://www.w3.org/2000/svg" width="1920" height="1024" fill="none" xmlns:v="https://vecta.io/nano"><g clip-path="url(#B)"><path fill="#fff" d="M0 0h1920v1024H0z"/><path fill="#f2e9e4" d="M0 0h1920v1024H0z"/><g fill="#c9ada7"><path fill-opacity=".3" d="M0 2h406v393H0zm1514 637h406v385h-406z"/></g><g stroke="#4a4e69" stroke-width="10"><path d="M349 292l-15.498-20.658a10 10 0 0 1 0-12.002l11.452-15.266c2.446-3.259 2.669-7.676.564-11.165l-13.1-21.722a10 10 0 0 1 .462-11.028l12.083-16.696a10 10 0 0 0 .267-11.339l-12.627-19.294a10 10 0 0 1 .027-10.992l13.093-19.794a10 10 0 0 0 .494-10.202l-14.299-26.963a10 10 0 0 1 .734-10.548l11.598-16.026c2.769-3.826 2.483-9.069-.685-12.572l-9.13-10.091c-3.168-3.503-3.454-8.745-.685-12.572L349 2m35 290l-15.498-20.658a10 10 0 0 1 0-12.002l11.452-15.266c2.446-3.259 2.669-7.676.564-11.165l-13.1-21.722a10 10 0 0 1 .462-11.028l12.083-16.696a10 10 0 0 0 .267-11.339l-12.627-19.294a10 10 0 0 1 .027-10.992l13.093-19.794a10 10 0 0 0 .494-10.202l-14.299-26.963a10 10 0 0 1 .734-10.548l11.598-16.026c2.769-3.826 2.483-9.069-.685-12.572l-9.13-10.091c-3.168-3.503-3.454-8.745-.685-12.572L384 2m35 290l-15.498-20.658a10 10 0 0 1 0-12.002l11.452-15.266c2.446-3.259 2.669-7.676.564-11.165l-13.1-21.722a10 10 0 0 1 .462-11.028l12.083-16.696a10 10 0 0 0 .267-11.339l-12.627-19.294a10 10 0 0 1 .027-10.992l13.093-19.794a10 10 0 0 0 .494-10.202l-14.299-26.963a10 10 0 0 1 .734-10.548l11.598-16.026c2.769-3.826 2.483-9.069-.685-12.572l-9.13-10.091c-3.168-3.503-3.454-8.745-.685-12.572L419 2m35 290l-15.498-20.658a10 10 0 0 1 0-12.002l11.452-15.266c2.446-3.259 2.669-7.676.564-11.165l-13.1-21.722a10 10 0 0 1 .462-11.028l12.083-16.696a10 10 0 0 0 .267-11.339l-12.627-19.294a10 10 0 0 1 .027-10.992l13.093-19.794a10 10 0 0 0 .494-10.202l-14.299-26.963a10 10 0 0 1 .734-10.548l11.598-16.026c2.769-3.826 2.483-9.069-.685-12.572l-9.13-10.091c-3.168-3.503-3.454-8.745-.685-12.572L454 2m1005 1022l-15.34-20.03c-2.75-3.58-2.75-8.571 0-12.159l11.15-14.562a10.01 10.01 0 0 0 .58-11.325l-12.85-20.861c-2.14-3.476-1.95-7.904.48-11.188l11.8-15.974c2.51-3.392 2.62-7.993.27-11.5l-12.36-18.497a10.02 10.02 0 0 1 .03-11.153l12.85-19.017c2.08-3.088 2.28-7.081.5-10.359l-14.08-26.008c-1.85-3.412-1.56-7.585.75-10.705l11.3-15.296a10 10 0 0 0-.69-12.729l-8.78-9.498a10 10 0 0 1-.69-12.729L1459 740m35 284l-15.34-20.03c-2.75-3.58-2.75-8.571 0-12.159l11.15-14.562a10.01 10.01 0 0 0 .58-11.325l-12.85-20.861c-2.14-3.476-1.95-7.904.48-11.188l11.8-15.974c2.51-3.392 2.62-7.993.27-11.5l-12.36-18.497a10.02 10.02 0 0 1 .03-11.153l12.85-19.017c2.08-3.088 2.28-7.081.5-10.359l-14.08-26.008c-1.85-3.412-1.56-7.585.75-10.705l11.3-15.296a10 10 0 0 0-.69-12.729l-8.78-9.498a10 10 0 0 1-.69-12.729L1494 740m35 284l-15.34-20.03c-2.75-3.58-2.75-8.571 0-12.159l11.15-14.562a10.01 10.01 0 0 0 .58-11.325l-12.85-20.861c-2.14-3.476-1.95-7.904.48-11.188l11.8-15.974c2.51-3.392 2.62-7.993.27-11.5l-12.36-18.497a10.02 10.02 0 0 1 .03-11.153l12.85-19.017c2.08-3.088 2.28-7.081.5-10.359l-14.08-26.008c-1.85-3.412-1.56-7.585.75-10.705l11.3-15.296a10 10 0 0 0-.69-12.729l-8.78-9.498a10 10 0 0 1-.69-12.729L1529 740m35 284l-15.34-20.03c-2.75-3.58-2.75-8.571 0-12.159l11.15-14.562a10.01 10.01 0 0 0 .58-11.325l-12.85-20.861c-2.14-3.476-1.95-7.904.48-11.188l11.8-15.974c2.51-3.392 2.62-7.993.27-11.5l-12.36-18.497a10.02 10.02 0 0 1 .03-11.153l12.85-19.017c2.08-3.088 2.28-7.081.5-10.359l-14.08-26.008c-1.85-3.412-1.56-7.585.75-10.705l11.3-15.296a10 10 0 0 0-.69-12.729l-8.78-9.498a10 10 0 0 1-.69-12.729L1564 740"/></g><path fill="#22223b" d="M1451 124h50v50h-50z"/><g filter="url(#A)"><path fill="#fff" d="M503 690h50v50h-50z"/></g><path fill="#22223b" d="M153 948h419v76H153z"/></g><defs><filter id="A" x="502" y="690" width="58" height="58" filterUnits="userSpaceOnUse" color-interpolation-filters="sRGB"><feFlood flood-opacity="0" result="A"/><feColorMatrix in="SourceAlpha" values="0 0 0 0 0 0 0 0 0 0 0 0 0 0 0 0 0 0 127 0" result="B"/><feOffset dx="3" dy="4"/><feGaussianBlur stdDeviation="2"/><feComposite in2="B" operator="out"/><feColorMatrix values="0 0 0 0 0 0 0 0 0 0 0 0 0 0 0 0 0 0 0.4 0"/><feBlend in2="A"/><feBlend in="SourceGraphic"/></filter><clipPath id="B"><path fill="#fff" d="M0 0h1920v1024H0z"/></clipPath></defs></svg>