<svg xmlns="http://www.w3.org/2000/svg" viewBox="0 0 366 400" xmlns:v="https://vecta.io/nano"><g fill="none" stroke-width="2"><path stroke="#c0846e" vector-effect="non-scaling-stroke" d="M143.52 47.89c-15.07 4.31-32.02 1.08-46.61-3.52q-.53-.17-.58.39c-.52 5.76-1.1 11.44-4.39 16.4q-.28.42-.14.91.97 3.34 1.97 6.65.79 2.61-1.49 3.14c-4.41 1.03-6.02-2.63-7.93-5.65"/><path stroke="#472c27" vector-effect="non-scaling-stroke" d="M145.03 60.89q-5.26-2.33-12.78-.89c-5.37 1.02-6.85 7.36-1.25 9.51"/><path stroke="#c1a49f" vector-effect="non-scaling-stroke" d="M131 69.51l-1.74 1.07q-.48.29-.89-.07-2.98-2.61-5.45.36-.33.4-.77.12c-2.35-1.48-4.68-1.47-5.69 1.56q-.18.52-.7.69-1.67.57-2.84 1.89a1.52 1.5 52.9 0 0-.22 1.66l.16.35q.28.57-.28.86c-2.4 1.27-4.83 4.02-2.64 6.67a1.36 1.34-64.8 0 1 .3.85c0 2.8-1.15 5.78 1.65 7.46q.41.25.52.72.95 4.08 4.9 2.85.49-.15.86.21 1.98 1.97 4.58 2.12"/><path stroke="#472c27" vector-effect="non-scaling-stroke" d="M133.3 100.81c-9.33 8.57-23.28 7.71-32.65-.15"/><path vector-effect="non-scaling-stroke" d="M173.98 207.81q.75-.45.57-1.31-4.65-21.4-9.1-42.6-.11-.55-.67-.67l-.48-.11q-.73-.16-.58.58l9.32 43.35m-89.08 1.17q-.31-.85-.96-.87-3.56-.1-6.55-1.23-.34-.12-.33-.48l1.34-46.61a.41.4-84.2 0 0-.33-.41l-.28-.06q-1.01-.19-1.04.83l-1.16 46.49a1.67 1.66-78.8 0 0 1.07 1.6q3.59 1.35 7.61 1.5" stroke="#525052"/><path vector-effect="non-scaling-stroke" d="M60.96 320.85q-.66.04-1.22-.46m83.01-251.92l-10.71 1.09" stroke="#472c27"/><path stroke="#7b7979" vector-effect="non-scaling-stroke" d="M132.04 69.56q-.61-.2-1.04-.05"/><path vector-effect="non-scaling-stroke" d="M32.42 334.29l2.36 2.45q.19.19.34-.03l.16-.22a.04.03-68.9 0 0-.01-.04q-2.31-1.5-1.97-4.17m267.85-182.12q-6.38-11.95-15.17-22.49" stroke="#472c27"/><path stroke="#c1a49f" vector-effect="non-scaling-stroke" d="M139.35 73.73q-1.98-1.89-4.11-2.58c-1.24-.4-2.04-1.12-3.2-1.59"/><path stroke="#472c27" vector-effect="non-scaling-stroke" d="M125.763 64.972a4.49 4.49 0 0 0-4.115-4.836l-8.971-.722a4.49 4.49 0 0 0-4.836 4.115l-.043.538a4.49 4.49 0 0 0 4.115 4.836l8.971.722a4.49 4.49 0 0 0 4.836-4.116l.043-.538"/><path vector-effect="non-scaling-stroke" d="M117.35 67.26l.31-5.43a.58.58 0 0 0-.55-.61l-4.04-.23a3.63 2.97 3.3 0 0-3.79 2.75l-.04.66a3.63 2.97 3.3 0 0 3.45 3.18l4.04.23a.58.58 0 0 0 .62-.55m20.52.25l-.37-6.11a.25.25 0 0 0-.27-.23l-4.77.29a3.53 2.67-3.5 0 0-3.36 2.88l.08 1.28a3.53 2.67-3.5 0 0 3.68 2.45l4.77-.29a.25.25 0 0 0 .24-.27m-6.82 7.67c-2.83 3.12-5.88 2.01-8.59-.22q-.3-.24-.46.11l-.16.36q-.11.23.07.42 4.37 4.62 9.47.71a.93.91-24.3 0 0 .34-.87l-.06-.34a.35.35 0 0 0-.61-.17" stroke="#7b7979"/></g><path fill="#f2b08f" d="M143.52 47.89c-15.07 4.31-32.02 1.08-46.61-3.52q-.53-.17-.58.39c-.52 5.76-1.1 11.44-4.39 16.4q-.28.42-.14.91.97 3.34 1.97 6.65.79 2.61-1.49 3.14c-4.41 1.03-6.02-2.63-7.93-5.65-4.56-8.89-5.63-20.87.5-29.39 7.63-10.62 20.32-14.72 32.9-15.25 7.36-.32 45.08.06 37.74 16.58q-3.32 7.45-11.97 9.74z"/><path fill="#8d574d" d="M143.52 47.89q2.42 6.37 1.51 13-5.26-2.33-12.78-.89c-5.37 1.02-6.85 7.36-1.25 9.51l-1.74 1.07q-.48.29-.89-.07-2.98-2.61-5.45.36-.33.4-.77.12c-2.35-1.48-4.68-1.47-5.69 1.56q-.18.52-.7.69-1.67.57-2.84 1.89a1.52 1.5 52.9 0 0-.22 1.66l.16.35q.28.57-.28.86c-2.4 1.27-4.83 4.02-2.64 6.67a1.36 1.34-64.8 0 1 .3.85c0 2.8-1.15 5.78 1.65 7.46q.41.25.52.72.95 4.08 4.9 2.85.49-.15.86.21 1.98 1.97 4.58 2.12-.47 1.11.5 1.14 4.69.15 10.05.79c-9.33 8.57-23.28 7.71-32.65-.15l7.31-.43q.45-.02.48-.48l.73-13.58a1.59 1.59 0 0 0-1.29-1.65q-8.87-1.65-15.79-7.41a1.04 1.04 0 0 0-1.35.01q-5.18 4.46-10.84 1.58c-8.04-4.09-2.94-12.42 4.45-12.49 1.91 3.02 3.52 6.68 7.93 5.65q2.28-.53 1.49-3.14-1-3.31-1.97-6.65-.14-.49.14-.91c3.29-4.96 3.87-10.64 4.39-16.4q.05-.56.58-.39c14.59 4.6 31.54 7.83 46.61 3.52zm-17.757 17.082a4.49 4.49 0 0 0-4.115-4.836l-8.971-.722a4.49 4.49 0 0 0-4.836 4.115l-.043.538a4.49 4.49 0 0 0 4.115 4.836l8.971.722a4.49 4.49 0 0 0 4.836-4.116l.043-.538z"/><path d="M125.719 65.51a4.49 4.49 0 0 1-4.836 4.116l-8.971-.722a4.49 4.49 0 0 1-4.115-4.836l.043-.538a4.49 4.49 0 0 1 4.836-4.115l8.971.722a4.49 4.49 0 0 1 4.115 4.836l-.043.538zm-8.369 1.75l.31-5.43a.58.58 0 0 0-.55-.61l-4.04-.23a3.63 2.97 3.3 0 0-3.79 2.75l-.04.66a3.63 2.97 3.3 0 0 3.45 3.18l4.04.23a.58.58 0 0 0 .62-.55zm27.68-6.37q2.02 5.59-2.28 7.58l-10.71 1.09q-.61-.2-1.04-.05c-5.6-2.15-4.12-8.49 1.25-9.51q7.52-1.44 12.78.89zm-7.16 6.62l-.37-6.11a.25.25 0 0 0-.27-.23l-4.77.29a3.53 2.67-3.5 0 0-3.36 2.88l.08 1.28a3.53 2.67-3.5 0 0 3.68 2.45l4.77-.29a.25.25 0 0 0 .24-.27z" fill="#010101"/><path d="M117.35 67.26a.58.58 0 0 1-.62.55l-4.04-.23a3.63 2.97 3.3 0 1-3.45-3.18l.04-.66a3.63 2.97 3.3 0 1 3.79-2.75l4.04.23a.58.58 0 0 1 .55.61l-.31 5.43zm20.52.25a.25.25 0 0 1-.24.27l-4.77.29a3.53 2.67-3.5 0 1-3.68-2.45l-.08-1.28a3.53 2.67-3.5 0 1 3.36-2.88l4.77-.29a.25.25 0 0 1 .27.23l.37 6.11z" fill="#f4f0f0"/><path fill="#8d574d" d="M142.75 68.47l-3.4 5.26q-1.98-1.89-4.11-2.58c-1.24-.4-2.04-1.12-3.2-1.59l10.71-1.09z"/><path fill="#f4f0f0" d="M131 69.51q.43-.15 1.04.05c1.16.47 1.96 1.19 3.2 1.59q2.13.69 4.11 2.58 1.14-.41.9 1.76a.86.83-72.5 0 0 .42.83q1.02.59 1.31 1.73.12.46-.04.9l-.55 1.47q-.17.46.23.76c2.15 1.63-.27 4.02-1.72 5.25q-.45.39.03.74.59.43.82 1.12.18.53-.14 1-1.33 1.94-3.55 2.78a.53.53 0 0 0-.29.74c1.45 2.82-1.43 3.33-3.46 3.87q-.46.13-.63.57c-1.25 3.31-4.99 2.31-7.2.72q-.39-.28-.81-.06l-1.92.97q-2.6-.15-4.58-2.12-.37-.36-.86-.21-3.95 1.23-4.9-2.85-.11-.47-.52-.72c-2.8-1.68-1.65-4.66-1.65-7.46a1.36 1.34-64.8 0 0-.3-.85c-2.19-2.65.24-5.4 2.64-6.67q.56-.29.28-.86l-.16-.35a1.52 1.5 52.9 0 1 .22-1.66q1.17-1.32 2.84-1.89.52-.17.7-.69c1.01-3.03 3.34-3.04 5.69-1.56q.44.28.77-.12 2.47-2.97 5.45-.36.41.36.89.07l1.74-1.07zm.05 5.67c-2.83 3.12-5.88 2.01-8.59-.22q-.3-.24-.46.11l-.16.36q-.11.23.07.42 4.37 4.62 9.47.71a.93.91-24.3 0 0 .34-.87l-.06-.34a.35.35 0 0 0-.61-.17z"/><path fill="#010101" d="M122.46 74.96c2.71 2.23 5.76 3.34 8.59.22a.35.35 0 0 1 .61.17l.06.34a.93.91-24.3 0 1-.34.87q-5.1 3.91-9.47-.71-.18-.19-.07-.42l.16-.36q.16-.35.46-.11z"/><path fill="#8d574d" d="M301.15 150.16q-6.38-11.95-15.17-22.49c1.81-12.05 11.65-19.05 22.69-23.01q4.59-1.65 7.95.8.42.3.89.1 10.71-4.64 21.38-9.21c2.59-1.11 6.3-.13 5.26 3.39-1.26 4.25-5.34 7.14-9.07 9.1q-.5.26-.11.68 3.16 3.42 2 8.11a1.01 1.01 0 0 0 .24.93q3.21 3.49 1.28 7.97-.2.48.12.9c6.59 8.52-6.97 15.38-13.63 15.91-2.32.18-4.36-.03-6.52 1-5.66 2.69-10.96 5.02-17.31 5.82z"/><path fill="#010101" d="M100.65 100.66c9.37 7.86 23.32 8.72 32.65.15q25.98.11 43.35 17.98c14.78 15.19 23.78 38.5 26.74 59.26a.31.31 0 0 0 .53.17q10.86-11.33 21.69-22.61c9.21-9.59 32.52-31.44 46.59-19.96q.4.32.83.05l12.95-8.03q8.79 10.54 15.17 22.49l-11.1 7.77q-.41.29-.21.76c5.64 12.92-6.63 23.47-15.14 30.71q-24.11 20.52-53.18 33.42c-7.79 3.45-16.43 6.19-25.26 5.88-11.9-.4-20.4-9.18-22.28-20.89q.75-.45.57-1.31-4.65-21.4-9.1-42.6-.11-.55-.67-.67l-.48-.11q-.73-.16-.58.58l9.32 43.35q-11.21 1.07-14.54 1.17-37.27 1.05-74.54 0-.31-.85-.96-.87-3.56-.1-6.55-1.23-.34-.12-.33-.48l1.34-46.61a.41.4-84.2 0 0-.33-.41l-.28-.06q-1.01-.19-1.04.83l-1.16 46.49a1.67 1.66-78.8 0 0 1.07 1.6q3.59 1.35 7.61 1.5 1.11 24.52 1.88 49.02c.39 12.54.12 31.16-6.77 44.39q-3.13 6.01-9.89 6.58-.5.04-.55.54l-1.17 10.95a.7.7 0 0 1-.73.63l-5.14-.24q-.66.04-1.22-.46l-18.76-3.78a.77.77 0 0 1-.61-.87l1.51-9.52q.09-.53-.43-.65c-10.55-2.45-12-12.44-12.1-21.57-.48-47.11 5.25-96.52 18.51-141.95 2.42-8.27 7.31-22.03 15.02-28.87 9.53-8.45 24.91-11.72 37.77-12.52z"/><path d="M83.96 208.22q-.52.17-.63.76-4.02-.15-7.61-1.5a1.67 1.66-78.8 0 1-1.07-1.6l1.16-46.49q.03-1.02 1.04-.83l.28.06a.41.4-84.2 0 1 .33.41l-1.34 46.61q-.01.36.33.48 2.99 1.13 6.55 1.23.65.02.96.87zm90.02-.41q-.51-.55-.94-.76l-9.32-43.35q-.15-.74.58-.58l.48.11q.56.12.67.67 4.45 21.2 9.1 42.6.18.86-.57 1.31z" fill="#a39ea2"/><path fill="#8d574d" d="M59.74 320.39q.56.5 1.22.46l5.08.63q.69.08.51.75c-4.94 17.91-10.11 35.66-14.18 53.79a.74.74 0 0 1-.63.56q-5.69.7-6.71-4.67c-.11-.58.11-1.48.04-2.17q-.11-1.03-.59-.11c-2.21 4.25-7.24 11.93-10.46 3.49q-.29-.77-.86-.17c-3.27 3.43-7.48.11-6.14-4.22a.43.43 0 0 0-.52-.54c-5.54 1.48-6.35-3.97-5.74-7.94q.53-3.49 3.51-9.98 3.62-7.9 8.15-15.98l2.36 2.45q.19.19.34-.03l.16-.22a.04.03-68.9 0 0-.01-.04q-2.31-1.5-1.97-4.17 1.67-7.93 6.14-14.42a1.68 1.67 24 0 1 1.77-.67c5.65 1.37 12.58 3.43 18.53 3.2z"/><path fill="#010101" d="M33.3 332.28q-.34 2.67 1.97 4.17a.04.03-68.9 0 1 .01.04l-.16.22q-.15.22-.34.03l-2.36-2.45q-.08-1.46.88-2.01z"/></svg>