<?xml version="1.0" encoding="UTF-8" standalone="no"?>
<!DOCTYPE svg PUBLIC "-//W3C//DTD SVG 1.1//EN" "http://www.w3.org/Graphics/SVG/1.1/DTD/svg11.dtd">
<svg xmlns="http://www.w3.org/2000/svg" version="1.1" viewBox="0.00 0.00 400.00 294.00">
<g stroke-width="2.00" fill="none" stroke-linecap="butt">
<path stroke="#18352d" vector-effect="non-scaling-stroke" d="
  M 178.13 94.90
  Q 172.72 96.11 166.96 94.27"
/>
<path stroke="#7b7b6c" vector-effect="non-scaling-stroke" d="
  M 166.96 94.27
  L 163.89 94.06"
/>
<path stroke="#18352d" vector-effect="non-scaling-stroke" d="
  M 163.89 94.06
  Q 158.85 93.37 154.62 91.27"
/>
<path stroke="#644841" vector-effect="non-scaling-stroke" d="
  M 163.89 94.06
  Q 159.22 98.74 152.26 99.40"
/>
<path stroke="#3d6059" vector-effect="non-scaling-stroke" d="
  M 196.09 140.38
  Q 197.52 143.38 197.75 146.44
  Q 197.81 147.26 198.38 146.67
  L 204.13 140.71"
/>
<path stroke="#644841" vector-effect="non-scaling-stroke" d="
  M 230.25 127.03
  L 236.41 135.85"
/>
<path stroke="#3d6059" vector-effect="non-scaling-stroke" d="
  M 232.10 140.63
  Q 232.73 144.46 229.17 147.94
  Q 219.40 157.47 206.90 163.35"
/>
<path stroke="#18352d" vector-effect="non-scaling-stroke" d="
  M 206.90 163.35
  L 204.21 164.50
  Q 201.68 165.58 204.33 165.88
  Q 204.65 165.91 206.23 167.01"
/>
<path stroke="#3d6059" vector-effect="non-scaling-stroke" d="
  M 206.23 167.01
  C 214.76 170.99 235.34 184.88 227.61 196.85
  Q 225.99 199.35 223.58 201.07
  C 214.71 207.37 205.49 212.59 194.82 215.10"
/>
<path stroke="#18352d" vector-effect="non-scaling-stroke" d="
  M 194.82 215.10
  Q 194.74 213.87 193.25 214.26
  Q 187.90 215.66 182.22 217.29"
/>
<path stroke="#3d6059" vector-effect="non-scaling-stroke" d="
  M 182.22 217.29
  L 157.46 221.20"
/>
<path stroke="#807b78" vector-effect="non-scaling-stroke" d="
  M 157.46 221.20
  Q 156.09 221.11 155.16 221.38"
/>
<path stroke="#644841" vector-effect="non-scaling-stroke" d="
  M 155.16 221.38
  L 149.92 205.72"
/>
<path stroke="#675956" vector-effect="non-scaling-stroke" d="
  M 149.92 205.72
  L 168.50 201.38"
/>
<path stroke="#3d6059" vector-effect="non-scaling-stroke" d="
  M 168.50 201.38
  C 175.38 199.24 183.54 197.77 190.89 195.07
  C 192.52 194.47 194.60 194.37 196.43 193.31
  Q 196.62 193.19 196.51 192.99
  L 196.38 192.76
  Q 196.24 192.52 195.98 192.64
  Q 193.96 193.66 191.73 193.70
  Q 176.44 193.98 161.15 194.48
  C 157.68 194.59 153.51 195.33 149.62 195.35
  Q 148.71 195.36 148.43 195.79
  A 0.61 0.60 22.5 0 0 148.82 196.71
  L 166.62 200.66"
/>
<path stroke="#675956" vector-effect="non-scaling-stroke" d="
  M 166.62 200.66
  L 149.64 204.98"
/>
<path stroke="#644841" vector-effect="non-scaling-stroke" d="
  M 149.64 204.98
  L 144.24 206.39
  Q 143.38 206.61 143.77 205.81
  L 144.57 204.18
  A 0.95 0.94 -72.1 0 0 143.88 202.83
  L 134.54 201.26
  Q 133.98 201.16 133.66 201.62
  Q 131.82 204.26 131.28 207.43
  Q 131.20 207.89 130.85 208.21
  C 129.65 209.29 128.21 213.51 127.91 214.40"
/>
<path stroke="#3d6059" vector-effect="non-scaling-stroke" d="
  M 127.91 214.40
  C 120.74 211.50 112.41 206.80 108.43 200.39"
/>
<path stroke="#807b78" vector-effect="non-scaling-stroke" d="
  M 108.43 200.39
  L 106.45 196.20"
/>
<path stroke="#274e47" vector-effect="non-scaling-stroke" d="
  M 106.45 196.20
  L 106.31 190.65"
/>
<path stroke="#807b78" vector-effect="non-scaling-stroke" d="
  M 106.31 190.65
  Q 108.87 183.82 112.56 180.81
  Q 115.78 178.20 118.21 175.79"
/>
<path stroke="#274e47" vector-effect="non-scaling-stroke" d="
  M 118.21 175.79
  Q 121.29 174.51 123.25 172.72"
/>
<path stroke="#3d6059" vector-effect="non-scaling-stroke" d="
  M 123.25 172.72
  L 130.28 168.95
  Q 130.73 168.71 130.78 168.20
  Q 131.66 160.45 132.83 152.76
  Q 133.36 149.30 134.30 147.35
  Q 134.47 146.99 134.20 146.69
  Q 133.79 146.23 134.05 145.53
  Q 134.83 143.43 134.85 141.33"
/>
<path stroke="#644841" vector-effect="non-scaling-stroke" d="
  M 166.96 94.27
  Q 170.46 97.63 175.00 99.22
  C 177.19 99.98 181.09 98.32 182.01 101.69
  Q 182.30 102.74 181.68 103.57
  C 180.31 105.38 179.05 104.70 177.16 104.66
  Q 176.64 104.65 176.32 105.06
  Q 173.20 108.96 168.29 109.85
  A 0.57 0.56 -8.8 0 0 167.83 110.47
  L 168.36 115.62
  Q 168.41 116.15 168.94 116.22
  Q 169.54 116.30 170.19 116.18
  Q 170.40 116.14 170.40 116.35
  L 170.41 116.75
  A 0.62 0.62 0.0 0 1 170.01 117.33
  Q 168.31 117.95 165.70 119.70
  Q 164.78 120.31 164.26 119.34
  Q 164.03 118.92 163.56 118.87
  Q 160.61 118.58 158.60 117.38
  Q 158.12 117.09 158.30 116.38
  Q 158.40 116.01 158.79 116.03
  L 161.39 116.22
  Q 162.31 116.29 162.35 115.36
  L 162.58 110.78
  Q 162.62 109.98 161.84 109.79
  Q 157.12 108.61 154.04 104.92
  Q 153.73 104.54 153.24 104.62
  L 151.94 104.83"
/>
<path stroke="#bcdad0" vector-effect="non-scaling-stroke" d="
  M 188.22 221.20
  L 157.46 221.20"
/>
<path stroke="#e6d3cc" vector-effect="non-scaling-stroke" d="
  M 272.07 221.33
  L 277.26 238.49
  A 1.63 1.63 0.0 0 0 279.26 239.59
  Q 281.82 238.89 281.35 236.38
  C 280.45 231.51 280.16 226.41 279.45 221.39"
/>
<path stroke="#f1e5da" vector-effect="non-scaling-stroke" d="
  M 128.41 265.31
  L 120.51 249.54"
/>
<path stroke="#e6d3cc" vector-effect="non-scaling-stroke" d="
  M 120.51 249.54
  C 125.89 248.52 141.63 244.97 142.30 238.17
  C 142.78 233.31 133.85 229.92 129.96 228.38"
/>
<path stroke="#a6c8bd" vector-effect="non-scaling-stroke" d="
  M 106.45 196.20
  L 76.54 182.35"
/>
<path stroke="#97afa3" vector-effect="non-scaling-stroke" d="
  M 195.40 221.35
  L 195.53 223.99
  Q 195.56 224.50 195.08 224.67
  Q 192.92 225.44 191.26 224.21
  Q 189.84 223.15 188.22 221.20"
/>
<path stroke="#549485" vector-effect="non-scaling-stroke" d="
  M 188.22 221.20
  Q 186.24 218.80 182.22 217.29"
/>
<path stroke="#63ad9f" vector-effect="non-scaling-stroke" d="
  M 76.24 178.78
  Q 76.80 180.84 76.54 182.35"
/>
<path stroke="#bcdad0" vector-effect="non-scaling-stroke" d="
  M 76.54 182.35
  L 77.41 189.68"
/>
<path stroke="#63ad9f" vector-effect="non-scaling-stroke" d="
  M 77.41 189.68
  L 78.15 193.61"
/>
<path stroke="#bcdad0" vector-effect="non-scaling-stroke" d="
  M 78.15 193.61
  Q 77.54 197.68 78.71 200.51
  Q 80.90 205.79 87.25 204.74
  Q 91.86 203.98 97.12 202.70"
/>
<path stroke="#63ad9f" vector-effect="non-scaling-stroke" d="
  M 97.12 202.70
  Q 97.81 203.06 99.06 202.47
  Q 99.52 202.25 100.03 202.28
  Q 102.06 202.42 102.43 201.59"
/>
<path stroke="#bcdad0" vector-effect="non-scaling-stroke" d="
  M 102.43 201.59
  Q 105.32 201.68 108.43 200.39"
/>
<path stroke="#9fa799" vector-effect="non-scaling-stroke" d="
  M 127.91 214.40
  L 126.35 218.85"
/>
<path stroke="#549485" vector-effect="non-scaling-stroke" d="
  M 126.35 218.85
  L 124.68 221.41"
/>
<path stroke="#bcdad0" vector-effect="non-scaling-stroke" d="
  M 124.68 221.41
  L 86.98 221.47"
/>
<path stroke="#a3b8ae" vector-effect="non-scaling-stroke" d="
  M 86.98 221.47
  L 79.48 221.48"
/>
<path stroke="#8a998d" vector-effect="non-scaling-stroke" d="
  M 292.83 194.46
  C 286.20 196.12 282.31 201.19 284.29 208.09"
/>
<path stroke="#738075" vector-effect="non-scaling-stroke" d="
  M 284.29 208.09
  Q 280.22 212.27 280.99 217.70
  Q 281.23 219.38 281.65 219.63
  Q 283.46 220.72 284.19 218.78
  L 286.59 212.37"
/>
<path stroke="#8a998d" vector-effect="non-scaling-stroke" d="
  M 286.59 212.37
  C 289.13 215.05 292.44 216.83 292.39 221.00"
/>
<path stroke="#bcdad0" vector-effect="non-scaling-stroke" d="
  M 292.39 221.00
  L 279.45 221.39"
/>
<path stroke="#a3b8ae" vector-effect="non-scaling-stroke" d="
  M 279.45 221.39
  L 272.07 221.33"
/>
<path stroke="#bcdad0" vector-effect="non-scaling-stroke" d="
  M 272.07 221.33
  L 195.40 221.35"
/>
<path stroke="#549485" vector-effect="non-scaling-stroke" d="
  M 195.40 221.35
  L 194.82 215.10"
/>
<path stroke="#549485" vector-effect="non-scaling-stroke" d="
  M 206.23 167.01
  C 206.57 166.09 207.44 165.55 207.31 164.61
  Q 207.23 164.07 206.90 163.35"
/>
<path stroke="#b18174" vector-effect="non-scaling-stroke" d="
  M 249.46 119.63
  L 240.60 123.78
  A 1.49 1.32 71.3 0 0 239.90 125.44
  Q 239.92 125.51 240.11 125.58
  Q 240.27 125.64 240.36 125.50
  C 241.64 123.43 246.25 121.86 248.49 120.54
  Q 248.79 120.36 249.15 120.35
  Q 249.36 120.34 249.56 120.27"
/>
<path stroke="#caa095" vector-effect="non-scaling-stroke" d="
  M 149.92 205.72
  Q 150.21 205.48 149.64 204.98"
/>
<path stroke="#63ad9f" vector-effect="non-scaling-stroke" d="
  M 123.25 172.72
  L 123.81 168.43"
/>
<path stroke="#bcdad0" vector-effect="non-scaling-stroke" d="
  M 123.81 168.43
  L 123.54 165.57"
/>
<path stroke="#549485" vector-effect="non-scaling-stroke" d="
  M 123.54 165.57
  Q 124.36 167.22 124.81 164.60
  Q 124.89 164.16 124.69 163.90
  Q 124.42 163.53 123.98 163.59
  Q 123.43 163.66 123.38 164.22
  L 123.34 164.75"
/>
<path stroke="#bcdad0" vector-effect="non-scaling-stroke" d="
  M 123.34 164.75
  L 122.53 160.29"
/>
<path stroke="#63ad9f" vector-effect="non-scaling-stroke" d="
  M 122.53 160.29
  Q 122.76 159.55 122.17 158.62
  Q 121.91 158.21 122.03 157.73
  Q 122.28 156.75 121.53 156.49"
/>
<path stroke="#bcdad0" vector-effect="non-scaling-stroke" d="
  M 121.53 156.49
  Q 120.14 153.24 116.49 153.10"
/>
<path stroke="#63ad9f" vector-effect="non-scaling-stroke" d="
  M 116.49 153.10
  L 111.98 153.78"
/>
<path stroke="#bcdad0" vector-effect="non-scaling-stroke" d="
  M 111.98 153.78
  Q 106.70 153.77 103.21 155.86"
/>
<path stroke="#63ad9f" vector-effect="non-scaling-stroke" d="
  M 103.21 155.86
  Q 103.14 154.74 101.71 155.86
  Q 101.30 156.18 100.85 155.93
  Q 100.63 155.81 100.46 155.57"
/>
<path stroke="#a3b8ae" vector-effect="non-scaling-stroke" d="
  M 168.50 201.38
  Q 167.74 200.78 166.62 200.66"
/>
<path stroke="#a6c8bd" vector-effect="non-scaling-stroke" d="
  M 102.43 201.59
  L 77.41 189.68"
/>
<path stroke="#97afa3" vector-effect="non-scaling-stroke" d="
  M 123.34 164.75
  Q 123.49 165.08 123.54 165.57"
/>
<path stroke="#a6c8bd" vector-effect="non-scaling-stroke" d="
  M 123.81 168.43
  Q 120.18 171.72 118.21 175.79"
/>
<path stroke="#a6c8bd" vector-effect="non-scaling-stroke" d="
  M 106.31 190.65
  L 104.89 191.58
  A 0.97 0.94 -48.3 0 1 103.97 191.65
  L 76.24 178.78"
/>
<path stroke="#bcdad0" vector-effect="non-scaling-stroke" d="
  M 76.24 178.78
  Q 75.29 176.61 75.11 173.09
  Q 75.09 172.56 75.60 172.48
  Q 75.94 172.42 76.18 172.53"
/>
<path stroke="#e3c2b7" vector-effect="non-scaling-stroke" d="
  M 155.16 221.38
  Q 144.16 222.33 140.37 223.87
  Q 137.98 224.83 135.59 225.57"
/>
<path stroke="#7b7b6c" vector-effect="non-scaling-stroke" d="
  M 135.59 225.57
  Q 135.41 224.10 135.78 223.08"
/>
<path stroke="#b18174" vector-effect="non-scaling-stroke" d="
  M 135.78 223.08
  L 138.72 215.66
  Q 138.78 215.50 138.63 215.44
  L 138.36 215.32
  Q 138.00 215.17 137.82 215.52
  Q 136.04 218.98 135.48 222.84"
/>
<path stroke="#7b7b6c" vector-effect="non-scaling-stroke" d="
  M 135.48 222.84
  Q 134.59 224.79 133.04 224.96
  Q 132.52 225.01 132.33 224.53
  L 131.85 223.37"
/>
<path stroke="#b18174" vector-effect="non-scaling-stroke" d="
  M 131.85 223.37
  L 135.71 216.61
  A 0.57 0.56 31.2 0 0 135.52 215.86
  L 135.24 215.69
  Q 135.01 215.55 134.90 215.79
  L 131.41 223.16"
/>
<path stroke="#7b7b6c" vector-effect="non-scaling-stroke" d="
  M 131.41 223.16
  Q 131.58 223.18 131.47 223.42
  Q 131.40 223.57 131.24 223.63
  Q 129.36 224.38 128.78 222.67
  Q 128.64 222.25 128.82 221.84
  L 132.02 214.95
  Q 132.08 214.83 131.96 214.75
  L 131.96 214.75
  Q 131.75 214.62 131.58 214.85
  Q 129.65 217.54 128.92 220.80
  A 1.13 1.13 0.0 0 1 126.91 221.22
  Q 126.30 220.38 126.35 218.85"
/>
<path stroke="#656e60" vector-effect="non-scaling-stroke" d="
  M 131.41 223.16
  L 131.85 223.37"
/>
<path stroke="#656e60" vector-effect="non-scaling-stroke" d="
  M 135.48 222.84
  Q 135.63 222.96 135.78 223.08"
/>
<path stroke="#97afa3" vector-effect="non-scaling-stroke" d="
  M 135.59 225.57
  L 129.96 228.38"
/>
<path stroke="#7e8d81" vector-effect="non-scaling-stroke" d="
  M 129.96 228.38
  Q 128.24 229.07 125.74 230.19
  Q 123.71 231.09 121.15 230.03"
/>
<path stroke="#916c59" vector-effect="non-scaling-stroke" d="
  M 121.15 230.03
  Q 121.22 229.51 120.74 229.22"
/>
<path stroke="#7e8d81" vector-effect="non-scaling-stroke" d="
  M 120.74 229.22
  Q 120.31 227.93 121.58 226.49"
/>
<path stroke="#97afa3" vector-effect="non-scaling-stroke" d="
  M 121.58 226.49
  L 124.68 221.41"
/>
<path stroke="#845a50" vector-effect="non-scaling-stroke" d="
  M 304.15 196.72
  C 302.09 201.53 299.93 209.55 301.86 214.55
  A 1.10 1.10 0.0 0 0 303.61 214.97
  C 306.11 212.75 307.98 206.18 309.17 202.84"
/>
<path stroke="#cdb4ab" vector-effect="non-scaling-stroke" d="
  M 310.94 205.95
  Q 310.83 205.90 310.69 205.97
  Q 310.60 206.00 310.61 206.10
  Q 310.84 207.40 311.62 208.26"
/>
<path stroke="#bfa497" vector-effect="non-scaling-stroke" d="
  M 327.97 210.02
  C 321.34 213.66 328.82 226.37 335.32 220.57
  Q 339.71 216.65 340.13 211.94"
/>
<path stroke="#cdb4ab" vector-effect="non-scaling-stroke" d="
  M 350.02 240.13
  Q 348.83 240.81 349.38 242.15"
/>
<path stroke="#cdb4ab" vector-effect="non-scaling-stroke" d="
  M 348.55 246.90
  Q 346.45 248.87 344.64 247.39
  A 1.00 0.98 22.3 0 1 344.28 246.55
  L 344.47 244.04
  Q 344.51 243.53 344.04 243.33
  L 343.26 242.98
  Q 342.82 242.79 343.11 242.39
  Q 343.31 242.12 343.71 242.10
  Q 344.22 242.06 344.36 241.58
  Q 344.67 240.55 343.88 239.93"
/>
<path stroke="#cdb4ab" vector-effect="non-scaling-stroke" d="
  M 342.95 239.93
  Q 342.43 239.89 342.35 240.37
  Q 341.90 243.03 342.06 246.32
  Q 342.13 247.74 340.70 247.78
  L 339.82 247.79
  Q 338.52 247.82 338.44 246.52
  L 337.95 238.32"
/>
<path stroke="#cdb4ab" vector-effect="non-scaling-stroke" d="
  M 332.00 233.50
  Q 321.30 236.02 309.98 236.83
  Q 309.48 236.86 309.43 237.36
  Q 308.84 242.45 308.34 247.55
  Q 308.25 248.44 307.90 248.85
  Q 307.29 249.55 306.28 249.15
  A 1.48 1.48 0.0 0 1 305.39 248.10
  Q 304.35 243.41 303.18 239.01
  Q 302.94 238.08 302.30 237.73
  A 0.67 0.67 0.0 0 0 301.31 238.28
  Q 301.01 243.38 300.31 248.48
  Q 300.21 249.17 298.73 249.32
  A 1.48 1.47 82.0 0 1 297.13 248.10
  L 292.39 221.00"
/>
<path stroke="#845a50" vector-effect="non-scaling-stroke" d="
  M 286.59 212.37
  Q 285.17 210.78 284.29 208.09"
/>
<path stroke="#f1e5da" vector-effect="non-scaling-stroke" d="
  M 123.60 265.31
  L 114.02 250.58"
/>
<path stroke="#e6d3cc" vector-effect="non-scaling-stroke" d="
  M 86.98 221.47
  Q 86.29 222.34 86.60 223.05
  Q 86.82 223.53 87.35 223.52
  Q 99.23 223.22 111.00 224.74
  C 111.97 224.86 112.75 225.38 113.70 225.39
  Q 117.61 225.46 121.58 226.49"
/>
<path stroke="#e09182" vector-effect="non-scaling-stroke" d="
  M 120.74 229.22
  Q 118.92 228.06 116.82 228.41
  A 0.38 0.38 0.0 0 1 116.38 228.05
  Q 116.37 227.85 116.37 227.65
  A 0.65 0.65 0.0 0 0 115.72 226.99
  L 115.27 227.00
  Q 114.88 227.00 114.86 227.39
  Q 114.81 228.84 113.55 229.17
  A 0.36 0.36 0.0 0 1 113.10 228.77
  Q 113.24 227.81 113.80 227.05
  Q 114.21 226.50 113.54 226.38
  Q 110.62 225.87 109.23 228.45
  Q 108.85 229.17 108.25 229.01
  Q 107.55 228.83 107.95 228.23
  L 108.69 227.11
  Q 109.21 226.33 108.29 226.51
  C 107.32 226.70 106.82 227.34 106.79 228.37
  C 106.72 230.58 106.47 235.86 108.76 236.96
  Q 112.87 238.95 115.92 235.71
  Q 116.26 235.36 116.74 235.23
  Q 120.61 234.19 121.15 230.03"
/>
<path stroke="#d8c3b8" vector-effect="non-scaling-stroke" d="
  M 120.51 249.54
  L 114.02 250.58"
/>
<path stroke="#e6d3cc" vector-effect="non-scaling-stroke" d="
  M 114.02 250.58
  Q 88.96 254.11 63.59 250.58"
/>
<path stroke="#d8c3b8" vector-effect="non-scaling-stroke" d="
  M 63.59 250.58
  L 56.98 249.50"
/>
<path stroke="#e6d3cc" vector-effect="non-scaling-stroke" d="
  M 56.98 249.50
  L 51.95 248.44"
/>
<path stroke="#e6d3cc" vector-effect="non-scaling-stroke" d="
  M 69.06 224.39
  Q 76.50 224.05 78.50 223.77
  Q 80.15 223.55 79.40 222.58"
/>
<path stroke="#a6c8bd" vector-effect="non-scaling-stroke" d="
  M 97.12 202.70
  L 78.15 193.61"
/>
<path stroke="#a6c8bd" vector-effect="non-scaling-stroke" d="
  M 122.53 160.29
  L 103.26 184.60
  Q 102.93 185.01 102.45 184.79
  L 76.18 172.53"
/>
<path stroke="#63ad9f" vector-effect="non-scaling-stroke" d="
  M 76.18 172.53
  Q 76.13 172.15 74.87 172.18"
/>
<path stroke="#a6c8bd" vector-effect="non-scaling-stroke" d="
  M 88.53 158.21
  L 97.42 162.43
  Q 97.90 162.66 98.23 162.24
  L 103.21 155.86"
/>
<path stroke="#a6c8bd" vector-effect="non-scaling-stroke" d="
  M 116.49 153.10
  L 101.04 172.81
  Q 100.73 173.22 100.26 173.00
  L 76.53 161.82"
/>
<path stroke="#a6c8bd" vector-effect="non-scaling-stroke" d="
  M 80.03 160.00
  L 99.10 168.88
  A 0.96 0.95 31.4 0 0 100.24 168.61
  L 111.98 153.78"
/>
<path stroke="#a6c8bd" vector-effect="non-scaling-stroke" d="
  M 121.53 156.49
  L 102.51 180.43
  A 1.05 1.04 31.8 0 1 101.26 180.72
  L 74.79 168.44"
/>
<path stroke="#a6c8bd" vector-effect="non-scaling-stroke" d="
  M 93.77 157.18
  Q 95.12 158.09 96.52 158.46
  Q 97.03 158.60 97.45 158.26
  Q 98.30 157.58 98.72 156.23"
/>
<path stroke="#f1e5da" vector-effect="non-scaling-stroke" d="
  M 63.59 250.58
  Q 59.27 256.48 55.31 263.31
  Q 54.99 263.87 54.19 264.26
  Q 53.75 264.48 53.86 264.96
  Q 53.92 265.22 54.19 265.29"
/>
<path stroke="#f1e5da" vector-effect="non-scaling-stroke" d="
  M 56.98 249.50
  L 49.07 265.38"
/>
<path stroke="#3e8272" vector-effect="non-scaling-stroke" d="
  M 169.1757 86.4516
  A 1.00 0.76 -44.3 0 0 167.9292 86.6061
  A 1.00 0.76 -44.3 0 0 167.7443 87.8484
  A 1.00 0.76 -44.3 0 0 168.9908 87.6939
  A 1.00 0.76 -44.3 0 0 169.1757 86.4516"
/>
<path stroke="#dd7f6d" vector-effect="non-scaling-stroke" d="
  M 164.69 101.26
  A 1.31 1.29 -72.9 0 0 163.45 101.93
  C 161.22 106.00 168.68 107.49 167.22 102.25
  Q 167.08 101.73 167.44 101.33
  C 168.76 99.84 169.84 100.87 171.19 101.48
  Q 171.85 101.78 171.42 101.20
  C 169.42 98.47 167.12 101.45 164.69 101.26"
/>
<path stroke="#644841" vector-effect="non-scaling-stroke" d="
  M 162.76 101.29
  C 161.98 99.55 158.74 100.37 157.70 101.30
  Q 157.21 101.74 157.85 101.58
  Q 158.60 101.41 159.23 100.94
  Q 159.64 100.64 160.14 100.65
  Q 161.44 100.68 162.46 101.52
  Q 163.11 102.06 162.76 101.29"
/>
<path stroke="#644841" vector-effect="non-scaling-stroke" d="
  M 161.32 105.92
  L 160.30 105.34
  A 0.18 0.18 0.0 0 0 160.08 105.62
  Q 160.99 106.59 162.31 106.75
  Q 162.87 106.81 162.44 106.46
  Q 162.16 106.22 161.82 106.13
  Q 161.56 106.06 161.32 105.92"
/>
<path stroke="#675956" vector-effect="non-scaling-stroke" d="
  M 181.2900 120.1665
  A 0.99 0.61 64.9 0 0 181.4224 119.0112
  A 0.99 0.61 64.9 0 0 180.4500 118.3735
  A 0.99 0.61 64.9 0 0 180.3176 119.5288
  A 0.99 0.61 64.9 0 0 181.2900 120.1665"
/>
<path stroke="#675956" vector-effect="non-scaling-stroke" d="
  M 153.6183 124.3835
  A 1.72 0.61 46.3 0 0 152.8710 122.7186
  A 1.72 0.61 46.3 0 0 151.2417 121.8965
  A 1.72 0.61 46.3 0 0 151.9890 123.5614
  A 1.72 0.61 46.3 0 0 153.6183 124.3835"
/>
<path stroke="#675956" vector-effect="non-scaling-stroke" d="
  M 171.31 128.05
  Q 171.28 129.24 172.00 130.19
  A 0.41 0.41 0.0 0 0 172.74 129.98
  Q 172.83 129.01 172.76 128.08
  Q 172.73 127.69 172.52 127.45
  Q 172.07 126.95 171.51 127.57
  A 0.74 0.73 68.3 0 0 171.31 128.05"
/>
<path stroke="#675956" vector-effect="non-scaling-stroke" d="
  M 154.30 131.21
  A 0.74 0.72 9.7 0 0 154.63 131.66
  Q 155.22 131.99 155.32 131.23
  Q 155.50 129.92 155.11 128.76
  A 0.43 0.43 0.0 0 0 154.28 128.82
  Q 154.04 130.02 154.30 131.21"
/>
<path stroke="#675956" vector-effect="non-scaling-stroke" d="
  M 182.9280 132.6876
  A 1.47 0.77 -16.7 0 0 181.2987 132.3725
  A 1.47 0.77 -16.7 0 0 180.1120 133.5324
  A 1.47 0.77 -16.7 0 0 181.7413 133.8475
  A 1.47 0.77 -16.7 0 0 182.9280 132.6876"
/>
<path stroke="#675956" vector-effect="non-scaling-stroke" d="
  M 165.78 132.55
  L 163.50 133.47
  A 0.50 0.49 -12.1 0 0 163.18 133.96
  Q 163.19 134.12 163.21 134.28
  A 0.49 0.49 0.0 0 0 163.79 134.73
  Q 165.47 134.39 166.05 132.81
  A 0.21 0.20 -0.8 0 0 165.78 132.55"
/>
<path stroke="#675956" vector-effect="non-scaling-stroke" d="
  M 225.79 132.54
  Q 224.53 133.01 223.55 133.45
  Q 223.27 133.57 223.18 133.78
  Q 223.07 134.05 223.17 134.30
  Q 223.39 134.85 223.97 134.70
  Q 225.55 134.30 226.04 132.78
  A 0.19 0.19 0.0 0 0 225.79 132.54"
/>
<path stroke="#675956" vector-effect="non-scaling-stroke" d="
  M 145.31 135.87
  Q 146.84 136.21 147.73 135.11
  A 0.61 0.61 0.0 0 0 147.30 134.12
  Q 145.86 134.02 145.02 135.02
  Q 144.47 135.68 145.31 135.87"
/>
<path stroke="#675956" vector-effect="non-scaling-stroke" d="
  M 190.30 137.01
  Q 190.72 137.84 191.13 137.01
  Q 191.66 135.92 190.87 134.63
  Q 190.62 134.23 190.15 134.28
  Q 189.94 134.30 189.79 134.42
  Q 189.52 134.64 189.61 135.13
  Q 189.73 135.88 190.30 137.01"
/>
<path stroke="#675956" vector-effect="non-scaling-stroke" d="
  M 138.82 135.79
  Q 138.66 135.56 138.32 135.56
  Q 137.80 135.55 138.04 136.02
  Q 138.76 137.43 140.25 137.92
  A 0.37 0.37 0.0 0 0 140.72 137.46
  Q 140.39 136.35 139.22 136.07
  Q 138.96 136.01 138.82 135.79"
/>
<path stroke="#675956" vector-effect="non-scaling-stroke" d="
  M 146.99 152.46
  L 145.64 151.63
  Q 145.10 151.29 145.12 151.93
  Q 145.14 152.97 145.52 153.94
  Q 145.71 154.41 146.21 154.42
  Q 146.45 154.43 146.69 154.53
  A 0.77 0.76 10.5 0 1 147.16 155.20
  L 147.25 157.86
  Q 147.27 158.47 147.86 158.61
  L 151.03 159.37
  A 0.29 0.28 6.6 0 0 151.38 159.10
  L 151.38 158.68
  A 0.58 0.57 8.1 0 0 150.96 158.13
  L 149.18 157.58
  Q 148.71 157.44 148.71 156.95
  L 148.80 140.74
  Q 148.80 139.98 149.53 140.18
  Q 150.79 140.53 152.05 139.63
  A 0.68 0.68 0.0 0 0 151.44 138.44
  Q 150.44 138.77 149.69 139.51
  Q 149.35 139.85 148.95 139.57
  Q 148.67 139.38 148.35 139.34
  Q 147.67 139.24 147.65 139.94
  L 147.36 152.27
  Q 147.35 152.69 146.99 152.46"
/>
<path stroke="#675956" vector-effect="non-scaling-stroke" d="
  M 174.11 140.17
  Q 175.81 139.86 175.86 139.82
  Q 178.12 138.33 175.41 138.29
  Q 174.32 138.28 173.76 139.76
  Q 173.57 140.28 174.11 140.17"
/>
<path stroke="#675956" vector-effect="non-scaling-stroke" d="
  M 211.33 139.95
  Q 212.25 139.84 212.69 139.09
  A 0.50 0.50 0.0 0 0 212.22 138.33
  Q 210.56 138.46 209.46 139.71
  A 0.42 0.42 0.0 0 0 209.71 140.40
  Q 210.33 140.50 210.83 140.14
  Q 211.06 139.98 211.33 139.95"
/>
<path stroke="#675956" vector-effect="non-scaling-stroke" d="
  M 184.74 148.46
  Q 184.67 145.95 183.70 143.25
  Q 183.29 142.13 183.99 141.31
  Q 184.30 140.95 184.17 140.50
  Q 183.91 139.59 183.63 139.21
  Q 182.50 137.63 182.48 139.51
  Q 182.44 143.87 183.76 148.06
  Q 183.92 148.58 183.68 149.06
  Q 183.20 150.04 183.97 150.84
  Q 184.36 151.25 184.48 151.80
  L 185.66 156.95
  A 1.41 1.41 0.0 0 1 184.09 158.66
  Q 182.71 158.46 181.65 158.84
  Q 181.36 158.94 181.66 158.93
  L 186.38 158.70
  A 0.59 0.59 0.0 0 0 186.93 157.98
  L 185.48 151.42
  Q 185.35 150.84 185.90 150.63
  Q 186.28 150.48 186.50 150.16
  A 0.49 0.49 0.0 0 0 186.24 149.40
  L 185.23 149.10
  Q 184.75 148.96 184.74 148.46"
/>
<path stroke="#675956" vector-effect="non-scaling-stroke" d="
  M 160.1895 143.7444
  A 1.74 0.87 85.4 0 0 160.9172 141.9402
  A 1.74 0.87 85.4 0 0 159.9105 140.2756
  A 1.74 0.87 85.4 0 0 159.1828 142.0798
  A 1.74 0.87 85.4 0 0 160.1895 143.7444"
/>
<path stroke="#675956" vector-effect="non-scaling-stroke" d="
  M 220.1232 143.6968
  A 1.69 0.77 86.5 0 0 220.7886 141.9630
  A 1.69 0.77 86.5 0 0 219.9168 140.3232
  A 1.69 0.77 86.5 0 0 219.2514 142.0570
  A 1.69 0.77 86.5 0 0 220.1232 143.6968"
/>
<path stroke="#675956" vector-effect="non-scaling-stroke" d="
  M 170.4079 143.9902
  A 1.84 0.60 33.3 0 0 169.1994 142.4785
  A 1.84 0.60 33.3 0 0 167.3321 141.9698
  A 1.84 0.60 33.3 0 0 168.5406 143.4815
  A 1.84 0.60 33.3 0 0 170.4079 143.9902"
/>
<path stroke="#675956" vector-effect="non-scaling-stroke" d="
  M 228.03 142.02
  L 227.67 141.83
  A 0.21 0.21 0.0 0 0 227.38 142.08
  Q 227.95 143.70 229.26 143.89
  Q 230.86 144.13 229.84 142.87
  Q 229.51 142.47 228.62 142.24
  Q 228.31 142.16 228.03 142.02"
/>
<path stroke="#675956" vector-effect="non-scaling-stroke" d="
  M 153.3672 147.8745
  A 1.45 0.89 74.1 0 0 153.8259 146.2362
  A 1.45 0.89 74.1 0 0 152.5728 145.0855
  A 1.45 0.89 74.1 0 0 152.1141 146.7238
  A 1.45 0.89 74.1 0 0 153.3672 147.8745"
/>
<path stroke="#675956" vector-effect="non-scaling-stroke" d="
  M 213.3015 147.8708
  A 1.42 0.83 76.5 0 0 213.7771 146.2962
  A 1.42 0.83 76.5 0 0 212.6385 145.1092
  A 1.42 0.83 76.5 0 0 212.1629 146.6838
  A 1.42 0.83 76.5 0 0 213.3015 147.8708"
/>
<path stroke="#675956" vector-effect="non-scaling-stroke" d="
  M 176.76 145.50
  L 177.42 147.52
  Q 177.57 147.99 178.07 147.91
  Q 178.32 147.86 178.49 147.52
  Q 178.71 147.06 178.59 146.56
  L 178.41 145.77
  Q 178.34 145.47 178.03 145.41
  L 177.00 145.23
  Q 176.65 145.16 176.76 145.50"
/>
<path stroke="#675956" vector-effect="non-scaling-stroke" d="
  M 143.58 146.36
  Q 143.16 146.27 143.07 147.03
  A 0.78 0.78 0.0 0 0 143.84 147.89
  L 145.17 147.91
  A 0.87 0.86 77.0 0 0 145.95 146.65
  Q 145.42 145.62 144.02 146.30
  Q 143.81 146.40 143.58 146.36"
/>
<path stroke="#675956" vector-effect="non-scaling-stroke" d="
  M 206.3780 146.9679
  A 1.68 0.85 -2.8 0 0 204.6585 146.2010
  A 1.68 0.85 -2.8 0 0 203.0220 147.1321
  A 1.68 0.85 -2.8 0 0 204.7415 147.8990
  A 1.68 0.85 -2.8 0 0 206.3780 146.9679"
/>
<path stroke="#675956" vector-effect="non-scaling-stroke" d="
  M 194.8223 146.7000
  A 1.75 0.60 -42.4 0 0 193.1254 147.4369
  A 1.75 0.60 -42.4 0 0 192.2377 149.0600
  A 1.75 0.60 -42.4 0 0 193.9346 148.3231
  A 1.75 0.60 -42.4 0 0 194.8223 146.7000"
/>
<path stroke="#675956" vector-effect="non-scaling-stroke" d="
  M 137.62 149.86
  L 138.42 152.51
  A 0.52 0.52 0.0 0 0 139.43 152.41
  Q 139.59 150.66 138.36 149.42
  A 0.44 0.44 0.0 0 0 137.62 149.86"
/>
<path stroke="#675956" vector-effect="non-scaling-stroke" d="
  M 197.85 151.04
  Q 198.11 151.91 198.63 152.63
  Q 198.67 152.68 198.74 152.69
  Q 198.99 152.73 199.21 152.61
  A 0.48 0.48 0.0 0 0 199.45 152.12
  Q 199.21 150.60 198.61 149.74
  Q 197.69 148.42 197.66 150.03
  Q 197.66 150.41 197.85 151.04"
/>
<path stroke="#675956" vector-effect="non-scaling-stroke" d="
  M 205.36 152.49
  Q 205.25 154.01 206.51 154.65
  Q 207.17 154.98 207.06 154.24
  Q 206.91 153.19 206.69 152.18
  Q 206.62 151.84 206.41 151.65
  Q 206.04 151.32 205.79 151.49
  A 1.45 0.82 83.8 0 0 205.36 152.49"
/>
<path stroke="#675956" vector-effect="non-scaling-stroke" d="
  M 164.46 152.71
  C 163.54 152.83 162.24 153.73 161.81 154.54
  Q 161.30 155.50 162.37 155.30
  Q 163.95 155.00 164.62 152.90
  Q 164.68 152.68 164.46 152.71"
/>
<path stroke="#675956" vector-effect="non-scaling-stroke" d="
  M 175.8855 153.0584
  A 1.66 0.75 -4.2 0 0 174.1751 152.4320
  A 1.66 0.75 -4.2 0 0 172.5745 153.3016
  A 1.66 0.75 -4.2 0 0 174.2849 153.9280
  A 1.66 0.75 -4.2 0 0 175.8855 153.0584"
/>
<path stroke="#675956" vector-effect="non-scaling-stroke" d="
  M 192.04 155.13
  Q 190.58 155.23 189.51 156.14
  A 0.33 0.32 27.9 0 0 189.69 156.71
  Q 191.42 156.92 192.31 155.60
  Q 192.66 155.08 192.04 155.13"
/>
<path stroke="#675956" vector-effect="non-scaling-stroke" d="
  M 156.0095 156.1695
  A 1.51 0.86 1.5 0 0 154.5225 155.2703
  A 1.51 0.86 1.5 0 0 152.9905 156.0905
  A 1.51 0.86 1.5 0 0 154.4775 156.9897
  A 1.51 0.86 1.5 0 0 156.0095 156.1695"
/>
<path stroke="#675956" vector-effect="non-scaling-stroke" d="
  M 168.3620 158.8156
  A 1.64 0.75 80.1 0 0 168.8188 157.0711
  A 1.64 0.75 80.1 0 0 167.7980 155.5844
  A 1.64 0.75 80.1 0 0 167.3412 157.3289
  A 1.64 0.75 80.1 0 0 168.3620 158.8156"
/>
<path stroke="#675956" vector-effect="non-scaling-stroke" d="
  M 213.94 156.85
  Q 214.56 157.10 215.15 156.84
  Q 217.00 156.03 215.07 155.43
  Q 214.58 155.28 214.04 155.41
  Q 211.69 155.97 213.94 156.85"
/>
<path stroke="#274e47" vector-effect="non-scaling-stroke" d="
  M 186.83 159.80
  Q 186.36 160.21 186.49 160.82
  A 0.45 0.45 0.0 0 0 187.34 160.91
  Q 187.53 160.48 187.45 160.03
  A 0.39 0.38 65.0 0 0 186.83 159.80"
/>
<path stroke="#675956" vector-effect="non-scaling-stroke" d="
  M 143.67 162.84
  L 143.58 162.52
  A 0.39 0.39 0.0 0 0 143.11 162.24
  Q 141.45 162.66 140.80 163.68
  Q 140.14 164.72 141.31 164.32
  L 143.25 163.64
  Q 143.83 163.44 143.67 162.84"
/>
<path stroke="#675956" vector-effect="non-scaling-stroke" d="
  M 201.03 164.27
  Q 202.61 164.05 203.09 163.65
  Q 204.96 162.11 202.56 162.39
  Q 201.56 162.51 200.71 163.74
  Q 200.27 164.38 201.03 164.27"
/>
<path stroke="#675956" vector-effect="non-scaling-stroke" d="
  M 142.2562 169.8050
  A 1.71 0.71 82.4 0 0 142.7338 168.0161
  A 1.71 0.71 82.4 0 0 141.8038 166.4150
  A 1.71 0.71 82.4 0 0 141.3262 168.2039
  A 1.71 0.71 82.4 0 0 142.2562 169.8050"
/>
<path stroke="#675956" vector-effect="non-scaling-stroke" d="
  M 135.25 174.75
  Q 136.19 174.67 136.49 173.84
  A 0.43 0.43 0.0 0 0 136.03 173.26
  Q 134.45 173.45 133.46 174.69
  Q 133.05 175.21 133.70 175.09
  C 134.29 174.98 134.57 174.81 135.25 174.75"
/>
<path stroke="#675956" vector-effect="non-scaling-stroke" d="
  M 131.0022 184.1929
  A 1.61 0.66 72.2 0 0 131.1384 182.4582
  A 1.61 0.66 72.2 0 0 130.0178 181.1271
  A 1.61 0.66 72.2 0 0 129.8816 182.8618
  A 1.61 0.66 72.2 0 0 131.0022 184.1929"
/>
<path stroke="#675956" vector-effect="non-scaling-stroke" d="
  M 147.7217 181.5110
  A 1.51 0.71 -17.3 0 0 146.0689 181.2821
  A 1.51 0.71 -17.3 0 0 144.8383 182.4090
  A 1.51 0.71 -17.3 0 0 146.4911 182.6379
  A 1.51 0.71 -17.3 0 0 147.7217 181.5110"
/>
<path stroke="#675956" vector-effect="non-scaling-stroke" d="
  M 139.17 182.84
  L 138.52 182.47
  A 0.37 0.37 0.0 0 0 138.02 182.97
  Q 138.70 184.23 140.01 184.78
  A 0.52 0.52 0.0 0 0 140.72 184.20
  Q 140.55 183.30 139.55 183.00
  Q 139.35 182.94 139.17 182.84"
/>
<path stroke="#675956" vector-effect="non-scaling-stroke" d="
  M 151.00 186.74
  Q 151.41 186.63 151.72 186.28
  A 0.49 0.48 -68.0 0 0 151.38 185.47
  Q 150.07 185.43 149.51 186.66
  Q 149.36 187.00 149.73 186.97
  Q 149.87 186.95 150.00 186.95
  Q 150.25 186.94 151.00 186.74"
/>
<path stroke="#675956" vector-effect="non-scaling-stroke" d="
  M 146.4184 193.8458
  A 1.70 0.82 -2.5 0 0 144.6842 193.1008
  A 1.70 0.82 -2.5 0 0 143.0216 193.9942
  A 1.70 0.82 -2.5 0 0 144.7558 194.7392
  A 1.70 0.82 -2.5 0 0 146.4184 193.8458"
/>
<path stroke="#675956" vector-effect="non-scaling-stroke" d="
  M 134.7664 193.6344
  A 1.60 0.70 -39.4 0 0 133.0857 194.1091
  A 1.60 0.70 -39.4 0 0 132.2936 195.6656
  A 1.60 0.70 -39.4 0 0 133.9743 195.1909
  A 1.60 0.70 -39.4 0 0 134.7664 193.6344"
/>
<path stroke="#675956" vector-effect="non-scaling-stroke" d="
  M 139.1983 199.4563
  A 1.72 0.66 70.0 0 0 139.2302 197.6143
  A 1.72 0.66 70.0 0 0 138.0217 196.2237
  A 1.72 0.66 70.0 0 0 137.9898 198.0657
  A 1.72 0.66 70.0 0 0 139.1983 199.4563"
/>
<path stroke="#b18174" vector-effect="non-scaling-stroke" d="
  M 238.28 127.28
  C 238.45 123.88 238.58 122.84 241.73 121.18
  A 1.33 0.82 -41.2 0 0 242.32 119.25
  Q 242.16 119.20 242.04 119.15
  Q 241.87 119.08 241.81 119.25
  C 241.50 120.06 241.20 120.67 240.42 121.16
  C 237.63 122.87 237.85 124.15 237.74 127.05
  A 0.25 0.25 0.0 0 0 237.98 127.31
  L 238.23 127.32
  Q 238.28 127.32 238.28 127.28"
/>
<path stroke="#9a675c" vector-effect="non-scaling-stroke" d="
  M 248.81 123.92
  Q 245.32 125.82 241.52 127.01
  Q 241.29 127.08 241.38 127.30
  L 241.60 127.85
  A 0.25 0.24 65.9 0 0 241.93 127.98
  L 248.90 124.55
  Q 249.15 124.43 249.00 124.19
  L 248.82 123.92
  Q 248.82 123.91 248.81 123.92"
/>
<path stroke="#b18174" vector-effect="non-scaling-stroke" d="
  M 249.63 127.40
  Q 246.61 129.16 243.82 130.01
  Q 243.12 130.22 242.66 130.01
  Q 242.09 129.75 241.83 129.11
  A 0.25 0.25 0.0 0 0 241.35 129.24
  Q 241.50 130.23 242.34 130.79
  Q 242.72 131.04 243.16 130.90
  C 245.40 130.17 248.17 129.47 249.84 127.66
  A 0.17 0.17 0.0 0 0 249.63 127.40"
/>
<path stroke="#549485" vector-effect="non-scaling-stroke" d="
  M 236.50 164.65
  A 1.81 1.81 0.0 0 0 234.69 162.84
  A 1.81 1.81 0.0 0 0 232.88 164.65
  A 1.81 1.81 0.0 0 0 234.69 166.46
  A 1.81 1.81 0.0 0 0 236.50 164.65"
/>
<path stroke="#b69886" vector-effect="non-scaling-stroke" d="
  M 267.62 167.64
  Q 257.08 166.27 246.50 165.29
  C 242.58 164.92 239.46 165.51 237.60 168.97
  Q 236.55 170.91 236.64 175.70
  Q 236.77 183.42 236.67 191.14
  Q 236.65 193.33 237.46 194.68
  C 239.27 197.67 241.46 198.45 245.16 198.89
  Q 254.17 199.96 263.20 200.91
  Q 268.27 201.45 270.63 200.24
  Q 274.70 198.15 274.85 192.50
  Q 275.05 184.84 274.86 177.18
  C 274.73 171.82 273.13 168.36 267.62 167.64"
/>
<path stroke="#63ad9f" vector-effect="non-scaling-stroke" d="
  M 236.5701 193.2206
  A 0.48 0.48 0.0 0 0 236.0960 192.7347
  L 230.4164 192.6653
  A 0.48 0.48 0.0 0 0 229.9306 193.1394
  L 229.9299 193.1994
  A 0.48 0.48 0.0 0 0 230.4040 193.6853
  L 236.0836 193.7547
  A 0.48 0.48 0.0 0 0 236.5694 193.2806
  L 236.5701 193.2206"
/>
<path stroke="#aecabb" vector-effect="non-scaling-stroke" d="
  M 114.9988 220.6137
  A 1.65 0.50 43.4 0 0 114.1435 219.1167
  A 1.65 0.50 43.4 0 0 112.6012 218.3463
  A 1.65 0.50 43.4 0 0 113.4565 219.8433
  A 1.65 0.50 43.4 0 0 114.9988 220.6137"
/>
<path stroke="#4e3a35" vector-effect="non-scaling-stroke" d="
  M 295.6076 199.9200
  A 1.37 1.00 108.4 0 0 296.9889 198.9356
  A 1.37 1.00 108.4 0 0 296.4724 197.3200
  A 1.37 1.00 108.4 0 0 295.0911 198.3044
  A 1.37 1.00 108.4 0 0 295.6076 199.9200"
/>
<path stroke="#4e3a35" vector-effect="non-scaling-stroke" d="
  M 288.37 200.35
  Q 288.74 200.21 288.93 199.89
  Q 289.29 199.33 288.69 199.03
  Q 288.00 198.68 287.30 199.00
  A 0.61 0.61 0.0 0 0 287.03 199.88
  Q 287.69 200.93 286.96 201.79
  C 286.73 202.07 286.32 202.15 286.00 202.38
  Q 285.56 202.69 286.09 202.58
  Q 287.50 202.28 287.79 201.02
  Q 287.90 200.53 288.37 200.35"
/>
<path stroke="#bfa497" vector-effect="non-scaling-stroke" d="
  M 314.16 227.07
  C 314.23 229.16 317.66 231.65 319.51 230.32
  C 324.01 227.08 319.87 219.57 314.45 226.20
  Q 314.14 226.58 314.16 227.07"
/>
<path stroke="#e6d3cc" vector-effect="non-scaling-stroke" d="
  M 53.18 240.15
  Q 53.87 242.27 53.55 245.04"
/>
<path stroke="#d8c3b8" vector-effect="non-scaling-stroke" d="
  M 53.55 245.04
  L 71.32 245.82
  A 1.53 1.49 -59.0 0 0 72.23 245.58
  L 89.84 234.44"
/>
<path stroke="#e6d3cc" vector-effect="non-scaling-stroke" d="
  M 89.84 234.44
  L 89.76 229.07"
/>
<path stroke="#d8c3b8" vector-effect="non-scaling-stroke" d="
  M 89.76 229.07
  L 73.78 228.37
  Q 72.27 228.30 70.99 229.10
  L 53.18 240.15"
/>
<path stroke="#f1e5da" vector-effect="non-scaling-stroke" d="
  M 89.76 229.07
  Q 81.54 234.76 73.49 239.69
  Q 71.74 240.76 69.71 240.79
  Q 61.82 240.90 53.18 240.15"
/>
<path stroke="#f1e5da" vector-effect="non-scaling-stroke" d="
  M 89.84 234.44
  C 89.20 234.14 88.73 233.93 88.08 234.33
  Q 82.02 238.06 75.99 241.82
  C 73.63 243.29 73.00 244.89 69.73 244.73
  Q 61.82 244.32 53.55 245.04"
/>
<path stroke="#e09182" vector-effect="non-scaling-stroke" d="
  M 117.25 229.83
  Q 116.50 230.48 116.42 231.47
  L 116.27 233.47
  A 0.53 0.52 82.7 0 0 116.96 234.01
  Q 118.91 233.33 119.63 231.37
  A 1.46 1.46 0.0 0 0 118.85 229.54
  Q 118.02 229.16 117.25 229.83"
/>
</g>
<rect fill="#e3d4c5" x="-0.31" y="-4.42" transform="translate(199.26,26.03) rotate(0.3)" width="0.62" height="8.84" rx="0.29"/>
<path fill="#e3d4c5" d="
  M 200.37 32.39
  Q 200.36 32.83 200.53 33.01
  Q 202.11 34.62 203.71 36.18
  A 0.28 0.27 -49.1 0 1 203.73 36.55
  L 203.51 36.83
  Q 203.45 36.90 203.38 36.83
  L 200.64 34.07
  A 1.83 1.82 45.6 0 0 198.06 34.04
  L 195.07 36.96
  Q 195.01 37.01 194.96 36.95
  L 194.76 36.75
  Q 194.62 36.60 194.76 36.45
  L 197.61 33.50
  Q 197.93 33.16 197.94 32.70
  C 197.98 29.96 195.67 30.03 194.87 28.04
  A 0.26 0.25 11.9 0 1 195.29 27.77
  L 197.79 30.25
  A 2.16 2.16 0.0 0 0 200.81 30.27
  L 203.44 27.75
  A 0.33 0.33 0.0 0 1 203.92 27.77
  L 204.10 27.98
  Q 204.10 27.99 204.09 27.99
  Q 202.58 29.51 201.48 30.54
  Q 199.70 32.19 202.13 32.01
  Q 205.58 31.74 209.91 31.98
  Q 209.93 31.98 209.93 32.00
  L 209.92 32.30
  Q 209.92 32.50 209.72 32.50
  C 206.99 32.51 203.22 32.92 200.63 32.20
  Q 200.38 32.13 200.37 32.39
  Z"
/>
<rect fill="#e3d4c5" x="-4.36" y="-0.31" transform="translate(192.96,32.20) rotate(0.1)" width="8.72" height="0.62" rx="0.29"/>
<rect fill="#e3d4c5" x="-0.29" y="-4.40" transform="translate(199.27,38.69) rotate(0.2)" width="0.58" height="8.80" rx="0.27"/>
<rect fill="#cdb1aa" x="-0.25" y="-7.08" transform="translate(251.42,80.67) rotate(0.6)" width="0.50" height="14.16" rx="0.24"/>
<path fill="#cdb1aa" d="
  M 252.57 89.13
  A 0.21 0.21 0.0 0 0 252.72 89.49
  L 267.59 89.48
  Q 267.82 89.48 267.83 89.71
  L 267.83 89.98
  Q 267.83 90.00 267.81 90.00
  L 253.75 90.13
  Q 252.27 90.14 253.32 91.19
  L 258.38 96.23
  Q 258.50 96.35 258.36 96.46
  L 258.13 96.63
  Q 257.95 96.77 257.78 96.60
  L 252.63 91.39
  A 1.58 1.58 0.0 0 0 250.40 91.38
  L 245.11 96.64
  A 0.27 0.27 0.0 0 1 244.75 96.66
  L 244.52 96.48
  A 0.10 0.10 0.0 0 1 244.51 96.33
  L 250.28 90.50
  A 0.50 0.50 0.0 0 0 249.74 89.68
  L 249.02 89.96
  Q 248.53 90.14 248.01 90.14
  L 235.20 90.12
  A 0.11 0.10 -90.0 0 1 235.10 90.01
  L 235.10 89.75
  Q 235.10 89.49 235.36 89.49
  L 249.21 89.45
  Q 250.64 89.45 249.64 88.43
  L 244.55 83.29
  Q 244.40 83.14 244.56 83.00
  L 244.78 82.81
  Q 244.86 82.74 244.94 82.82
  L 250.15 87.96
  A 1.89 1.89 0.0 0 0 252.81 87.96
  L 257.94 82.86
  Q 258.01 82.80 258.12 82.87
  L 258.35 83.01
  Q 258.59 83.16 258.39 83.36
  L 252.57 89.13
  Z"
/>
<path fill="#2f6858" d="
  M 178.13 94.90
  Q 172.72 96.11 166.96 94.27
  L 163.89 94.06
  Q 158.85 93.37 154.62 91.27
  L 152.74 89.54
  A 1.46 1.45 -46.8 0 1 152.68 87.47
  Q 153.81 86.29 155.75 85.76
  C 163.67 83.60 177.88 80.46 182.46 89.98
  C 183.88 92.94 180.96 94.51 178.13 94.90
  Z
  M 169.1757 86.4516
  A 1.00 0.76 -44.3 0 0 167.9292 86.6061
  A 1.00 0.76 -44.3 0 0 167.7443 87.8484
  A 1.00 0.76 -44.3 0 0 168.9908 87.6939
  A 1.00 0.76 -44.3 0 0 169.1757 86.4516
  Z"
/>
<ellipse fill="#4d9b8c" cx="0.00" cy="0.00" transform="translate(168.46,87.15) rotate(-44.3)" rx="1.00" ry="0.76"/>
<path fill="#010101" d="
  M 154.62 91.27
  Q 158.85 93.37 163.89 94.06
  Q 159.22 98.74 152.26 99.40
  Q 152.41 94.99 154.62 91.27
  Z"
/>
<rect fill="#c68e80" x="-0.32" y="-7.15" transform="translate(251.43,98.99) rotate(0.3)" width="0.64" height="14.30" rx="0.26"/>
<path fill="#c68e80" d="
  M 166.96 94.27
  Q 170.46 97.63 175.00 99.22
  C 177.19 99.98 181.09 98.32 182.01 101.69
  Q 182.30 102.74 181.68 103.57
  C 180.31 105.38 179.05 104.70 177.16 104.66
  Q 176.64 104.65 176.32 105.06
  Q 173.20 108.96 168.29 109.85
  A 0.57 0.56 -8.8 0 0 167.83 110.47
  L 168.36 115.62
  Q 168.41 116.15 168.94 116.22
  Q 169.54 116.30 170.19 116.18
  Q 170.40 116.14 170.40 116.35
  L 170.41 116.75
  A 0.62 0.62 0.0 0 1 170.01 117.33
  Q 168.31 117.95 165.70 119.70
  Q 164.78 120.31 164.26 119.34
  Q 164.03 118.92 163.56 118.87
  Q 160.61 118.58 158.60 117.38
  Q 158.12 117.09 158.30 116.38
  Q 158.40 116.01 158.79 116.03
  L 161.39 116.22
  Q 162.31 116.29 162.35 115.36
  L 162.58 110.78
  Q 162.62 109.98 161.84 109.79
  Q 157.12 108.61 154.04 104.92
  Q 153.73 104.54 153.24 104.62
  L 151.94 104.83
  C 147.08 104.54 147.81 99.87 152.26 99.40
  Q 159.22 98.74 163.89 94.06
  L 166.96 94.27
  Z
  M 164.69 101.26
  A 1.31 1.29 -72.9 0 0 163.45 101.93
  C 161.22 106.00 168.68 107.49 167.22 102.25
  Q 167.08 101.73 167.44 101.33
  C 168.76 99.84 169.84 100.87 171.19 101.48
  Q 171.85 101.78 171.42 101.20
  C 169.42 98.47 167.12 101.45 164.69 101.26
  Z
  M 162.76 101.29
  C 161.98 99.55 158.74 100.37 157.70 101.30
  Q 157.21 101.74 157.85 101.58
  Q 158.60 101.41 159.23 100.94
  Q 159.64 100.64 160.14 100.65
  Q 161.44 100.68 162.46 101.52
  Q 163.11 102.06 162.76 101.29
  Z
  M 161.32 105.92
  L 160.30 105.34
  A 0.18 0.18 0.0 0 0 160.08 105.62
  Q 160.99 106.59 162.31 106.75
  Q 162.87 106.81 162.44 106.46
  Q 162.16 106.22 161.82 106.13
  Q 161.56 106.06 161.32 105.92
  Z"
/>
<path fill="#010101" d="
  M 166.96 94.27
  Q 172.72 96.11 178.13 94.90
  C 179.99 97.74 181.84 98.37 184.45 99.64
  C 195.53 105.02 187.28 120.12 191.23 122.73
  C 194.19 124.69 196.93 124.56 198.10 129.20
  Q 199.12 133.22 196.09 140.38
  Q 197.52 143.38 197.75 146.44
  Q 197.81 147.26 198.38 146.67
  L 204.13 140.71
  C 208.23 136.29 217.90 125.62 224.85 129.93
  Q 225.28 130.20 225.71 129.93
  L 230.25 127.03
  L 236.41 135.85
  Q 231.26 138.29 232.10 140.63
  Q 232.73 144.46 229.17 147.94
  Q 219.40 157.47 206.90 163.35
  L 204.21 164.50
  Q 201.68 165.58 204.33 165.88
  Q 204.65 165.91 206.23 167.01
  C 214.76 170.99 235.34 184.88 227.61 196.85
  Q 225.99 199.35 223.58 201.07
  C 214.71 207.37 205.49 212.59 194.82 215.10
  Q 194.74 213.87 193.25 214.26
  Q 187.90 215.66 182.22 217.29
  L 157.46 221.20
  Q 156.09 221.11 155.16 221.38
  L 149.92 205.72
  L 168.50 201.38
  C 175.38 199.24 183.54 197.77 190.89 195.07
  C 192.52 194.47 194.60 194.37 196.43 193.31
  Q 196.62 193.19 196.51 192.99
  L 196.38 192.76
  Q 196.24 192.52 195.98 192.64
  Q 193.96 193.66 191.73 193.70
  Q 176.44 193.98 161.15 194.48
  C 157.68 194.59 153.51 195.33 149.62 195.35
  Q 148.71 195.36 148.43 195.79
  A 0.61 0.60 22.5 0 0 148.82 196.71
  L 166.62 200.66
  L 149.64 204.98
  L 144.24 206.39
  Q 143.38 206.61 143.77 205.81
  L 144.57 204.18
  A 0.95 0.94 -72.1 0 0 143.88 202.83
  L 134.54 201.26
  Q 133.98 201.16 133.66 201.62
  Q 131.82 204.26 131.28 207.43
  Q 131.20 207.89 130.85 208.21
  C 129.65 209.29 128.21 213.51 127.91 214.40
  C 120.74 211.50 112.41 206.80 108.43 200.39
  L 106.45 196.20
  L 106.31 190.65
  Q 108.87 183.82 112.56 180.81
  Q 115.78 178.20 118.21 175.79
  Q 121.29 174.51 123.25 172.72
  L 130.28 168.95
  Q 130.73 168.71 130.78 168.20
  Q 131.66 160.45 132.83 152.76
  Q 133.36 149.30 134.30 147.35
  Q 134.47 146.99 134.20 146.69
  Q 133.79 146.23 134.05 145.53
  Q 134.83 143.43 134.85 141.33
  C 137.04 131.93 139.12 120.50 150.06 117.78
  A 0.63 0.63 0.0 0 0 150.54 117.11
  C 150.17 112.87 151.45 109.03 151.94 104.83
  L 153.24 104.62
  Q 153.73 104.54 154.04 104.92
  Q 157.12 108.61 161.84 109.79
  Q 162.62 109.98 162.58 110.78
  L 162.35 115.36
  Q 162.31 116.29 161.39 116.22
  L 158.79 116.03
  Q 158.40 116.01 158.30 116.38
  Q 158.12 117.09 158.60 117.38
  Q 160.61 118.58 163.56 118.87
  Q 164.03 118.92 164.26 119.34
  Q 164.78 120.31 165.70 119.70
  Q 168.31 117.95 170.01 117.33
  A 0.62 0.62 0.0 0 0 170.41 116.75
  L 170.40 116.35
  Q 170.40 116.14 170.19 116.18
  Q 169.54 116.30 168.94 116.22
  Q 168.41 116.15 168.36 115.62
  L 167.83 110.47
  A 0.57 0.56 -8.8 0 1 168.29 109.85
  Q 173.20 108.96 176.32 105.06
  Q 176.64 104.65 177.16 104.66
  C 179.05 104.70 180.31 105.38 181.68 103.57
  Q 182.30 102.74 182.01 101.69
  C 181.09 98.32 177.19 99.98 175.00 99.22
  Q 170.46 97.63 166.96 94.27
  Z
  M 181.2900 120.1665
  A 0.99 0.61 64.9 0 0 181.4224 119.0112
  A 0.99 0.61 64.9 0 0 180.4500 118.3735
  A 0.99 0.61 64.9 0 0 180.3176 119.5288
  A 0.99 0.61 64.9 0 0 181.2900 120.1665
  Z
  M 153.6183 124.3835
  A 1.72 0.61 46.3 0 0 152.8710 122.7186
  A 1.72 0.61 46.3 0 0 151.2417 121.8965
  A 1.72 0.61 46.3 0 0 151.9890 123.5614
  A 1.72 0.61 46.3 0 0 153.6183 124.3835
  Z
  M 171.31 128.05
  Q 171.28 129.24 172.00 130.19
  A 0.41 0.41 0.0 0 0 172.74 129.98
  Q 172.83 129.01 172.76 128.08
  Q 172.73 127.69 172.52 127.45
  Q 172.07 126.95 171.51 127.57
  A 0.74 0.73 68.3 0 0 171.31 128.05
  Z
  M 154.30 131.21
  A 0.74 0.72 9.7 0 0 154.63 131.66
  Q 155.22 131.99 155.32 131.23
  Q 155.50 129.92 155.11 128.76
  A 0.43 0.43 0.0 0 0 154.28 128.82
  Q 154.04 130.02 154.30 131.21
  Z
  M 182.9280 132.6876
  A 1.47 0.77 -16.7 0 0 181.2987 132.3725
  A 1.47 0.77 -16.7 0 0 180.1120 133.5324
  A 1.47 0.77 -16.7 0 0 181.7413 133.8475
  A 1.47 0.77 -16.7 0 0 182.9280 132.6876
  Z
  M 165.78 132.55
  L 163.50 133.47
  A 0.50 0.49 -12.1 0 0 163.18 133.96
  Q 163.19 134.12 163.21 134.28
  A 0.49 0.49 0.0 0 0 163.79 134.73
  Q 165.47 134.39 166.05 132.81
  A 0.21 0.20 -0.8 0 0 165.78 132.55
  Z
  M 225.79 132.54
  Q 224.53 133.01 223.55 133.45
  Q 223.27 133.57 223.18 133.78
  Q 223.07 134.05 223.17 134.30
  Q 223.39 134.85 223.97 134.70
  Q 225.55 134.30 226.04 132.78
  A 0.19 0.19 0.0 0 0 225.79 132.54
  Z
  M 145.31 135.87
  Q 146.84 136.21 147.73 135.11
  A 0.61 0.61 0.0 0 0 147.30 134.12
  Q 145.86 134.02 145.02 135.02
  Q 144.47 135.68 145.31 135.87
  Z
  M 190.30 137.01
  Q 190.72 137.84 191.13 137.01
  Q 191.66 135.92 190.87 134.63
  Q 190.62 134.23 190.15 134.28
  Q 189.94 134.30 189.79 134.42
  Q 189.52 134.64 189.61 135.13
  Q 189.73 135.88 190.30 137.01
  Z
  M 138.82 135.79
  Q 138.66 135.56 138.32 135.56
  Q 137.80 135.55 138.04 136.02
  Q 138.76 137.43 140.25 137.92
  A 0.37 0.37 0.0 0 0 140.72 137.46
  Q 140.39 136.35 139.22 136.07
  Q 138.96 136.01 138.82 135.79
  Z
  M 146.99 152.46
  L 145.64 151.63
  Q 145.10 151.29 145.12 151.93
  Q 145.14 152.97 145.52 153.94
  Q 145.71 154.41 146.21 154.42
  Q 146.45 154.43 146.69 154.53
  A 0.77 0.76 10.5 0 1 147.16 155.20
  L 147.25 157.86
  Q 147.27 158.47 147.86 158.61
  L 151.03 159.37
  A 0.29 0.28 6.6 0 0 151.38 159.10
  L 151.38 158.68
  A 0.58 0.57 8.1 0 0 150.96 158.13
  L 149.18 157.58
  Q 148.71 157.44 148.71 156.95
  L 148.80 140.74
  Q 148.80 139.98 149.53 140.18
  Q 150.79 140.53 152.05 139.63
  A 0.68 0.68 0.0 0 0 151.44 138.44
  Q 150.44 138.77 149.69 139.51
  Q 149.35 139.85 148.95 139.57
  Q 148.67 139.38 148.35 139.34
  Q 147.67 139.24 147.65 139.94
  L 147.36 152.27
  Q 147.35 152.69 146.99 152.46
  Z
  M 174.11 140.17
  Q 175.81 139.86 175.86 139.82
  Q 178.12 138.33 175.41 138.29
  Q 174.32 138.28 173.76 139.76
  Q 173.57 140.28 174.11 140.17
  Z
  M 211.33 139.95
  Q 212.25 139.84 212.69 139.09
  A 0.50 0.50 0.0 0 0 212.22 138.33
  Q 210.56 138.46 209.46 139.71
  A 0.42 0.42 0.0 0 0 209.71 140.40
  Q 210.33 140.50 210.83 140.14
  Q 211.06 139.98 211.33 139.95
  Z
  M 184.74 148.46
  Q 184.67 145.95 183.70 143.25
  Q 183.29 142.13 183.99 141.31
  Q 184.30 140.95 184.17 140.50
  Q 183.91 139.59 183.63 139.21
  Q 182.50 137.63 182.48 139.51
  Q 182.44 143.87 183.76 148.06
  Q 183.92 148.58 183.68 149.06
  Q 183.20 150.04 183.97 150.84
  Q 184.36 151.25 184.48 151.80
  L 185.66 156.95
  A 1.41 1.41 0.0 0 1 184.09 158.66
  Q 182.71 158.46 181.65 158.84
  Q 181.36 158.94 181.66 158.93
  L 186.38 158.70
  A 0.59 0.59 0.0 0 0 186.93 157.98
  L 185.48 151.42
  Q 185.35 150.84 185.90 150.63
  Q 186.28 150.48 186.50 150.16
  A 0.49 0.49 0.0 0 0 186.24 149.40
  L 185.23 149.10
  Q 184.75 148.96 184.74 148.46
  Z
  M 160.1895 143.7444
  A 1.74 0.87 85.4 0 0 160.9172 141.9402
  A 1.74 0.87 85.4 0 0 159.9105 140.2756
  A 1.74 0.87 85.4 0 0 159.1828 142.0798
  A 1.74 0.87 85.4 0 0 160.1895 143.7444
  Z
  M 220.1232 143.6968
  A 1.69 0.77 86.5 0 0 220.7886 141.9630
  A 1.69 0.77 86.5 0 0 219.9168 140.3232
  A 1.69 0.77 86.5 0 0 219.2514 142.0570
  A 1.69 0.77 86.5 0 0 220.1232 143.6968
  Z
  M 170.4079 143.9902
  A 1.84 0.60 33.3 0 0 169.1994 142.4785
  A 1.84 0.60 33.3 0 0 167.3321 141.9698
  A 1.84 0.60 33.3 0 0 168.5406 143.4815
  A 1.84 0.60 33.3 0 0 170.4079 143.9902
  Z
  M 228.03 142.02
  L 227.67 141.83
  A 0.21 0.21 0.0 0 0 227.38 142.08
  Q 227.95 143.70 229.26 143.89
  Q 230.86 144.13 229.84 142.87
  Q 229.51 142.47 228.62 142.24
  Q 228.31 142.16 228.03 142.02
  Z
  M 153.3672 147.8745
  A 1.45 0.89 74.1 0 0 153.8259 146.2362
  A 1.45 0.89 74.1 0 0 152.5728 145.0855
  A 1.45 0.89 74.1 0 0 152.1141 146.7238
  A 1.45 0.89 74.1 0 0 153.3672 147.8745
  Z
  M 213.3015 147.8708
  A 1.42 0.83 76.5 0 0 213.7771 146.2962
  A 1.42 0.83 76.5 0 0 212.6385 145.1092
  A 1.42 0.83 76.5 0 0 212.1629 146.6838
  A 1.42 0.83 76.5 0 0 213.3015 147.8708
  Z
  M 176.76 145.50
  L 177.42 147.52
  Q 177.57 147.99 178.07 147.91
  Q 178.32 147.86 178.49 147.52
  Q 178.71 147.06 178.59 146.56
  L 178.41 145.77
  Q 178.34 145.47 178.03 145.41
  L 177.00 145.23
  Q 176.65 145.16 176.76 145.50
  Z
  M 143.58 146.36
  Q 143.16 146.27 143.07 147.03
  A 0.78 0.78 0.0 0 0 143.84 147.89
  L 145.17 147.91
  A 0.87 0.86 77.0 0 0 145.95 146.65
  Q 145.42 145.62 144.02 146.30
  Q 143.81 146.40 143.58 146.36
  Z
  M 206.3780 146.9679
  A 1.68 0.85 -2.8 0 0 204.6585 146.2010
  A 1.68 0.85 -2.8 0 0 203.0220 147.1321
  A 1.68 0.85 -2.8 0 0 204.7415 147.8990
  A 1.68 0.85 -2.8 0 0 206.3780 146.9679
  Z
  M 194.8223 146.7000
  A 1.75 0.60 -42.4 0 0 193.1254 147.4369
  A 1.75 0.60 -42.4 0 0 192.2377 149.0600
  A 1.75 0.60 -42.4 0 0 193.9346 148.3231
  A 1.75 0.60 -42.4 0 0 194.8223 146.7000
  Z
  M 137.62 149.86
  L 138.42 152.51
  A 0.52 0.52 0.0 0 0 139.43 152.41
  Q 139.59 150.66 138.36 149.42
  A 0.44 0.44 0.0 0 0 137.62 149.86
  Z
  M 197.85 151.04
  Q 198.11 151.91 198.63 152.63
  Q 198.67 152.68 198.74 152.69
  Q 198.99 152.73 199.21 152.61
  A 0.48 0.48 0.0 0 0 199.45 152.12
  Q 199.21 150.60 198.61 149.74
  Q 197.69 148.42 197.66 150.03
  Q 197.66 150.41 197.85 151.04
  Z
  M 205.36 152.49
  Q 205.25 154.01 206.51 154.65
  Q 207.17 154.98 207.06 154.24
  Q 206.91 153.19 206.69 152.18
  Q 206.62 151.84 206.41 151.65
  Q 206.04 151.32 205.79 151.49
  A 1.45 0.82 83.8 0 0 205.36 152.49
  Z
  M 164.46 152.71
  C 163.54 152.83 162.24 153.73 161.81 154.54
  Q 161.30 155.50 162.37 155.30
  Q 163.95 155.00 164.62 152.90
  Q 164.68 152.68 164.46 152.71
  Z
  M 175.8855 153.0584
  A 1.66 0.75 -4.2 0 0 174.1751 152.4320
  A 1.66 0.75 -4.2 0 0 172.5745 153.3016
  A 1.66 0.75 -4.2 0 0 174.2849 153.9280
  A 1.66 0.75 -4.2 0 0 175.8855 153.0584
  Z
  M 192.04 155.13
  Q 190.58 155.23 189.51 156.14
  A 0.33 0.32 27.9 0 0 189.69 156.71
  Q 191.42 156.92 192.31 155.60
  Q 192.66 155.08 192.04 155.13
  Z
  M 156.0095 156.1695
  A 1.51 0.86 1.5 0 0 154.5225 155.2703
  A 1.51 0.86 1.5 0 0 152.9905 156.0905
  A 1.51 0.86 1.5 0 0 154.4775 156.9897
  A 1.51 0.86 1.5 0 0 156.0095 156.1695
  Z
  M 168.3620 158.8156
  A 1.64 0.75 80.1 0 0 168.8188 157.0711
  A 1.64 0.75 80.1 0 0 167.7980 155.5844
  A 1.64 0.75 80.1 0 0 167.3412 157.3289
  A 1.64 0.75 80.1 0 0 168.3620 158.8156
  Z
  M 213.94 156.85
  Q 214.56 157.10 215.15 156.84
  Q 217.00 156.03 215.07 155.43
  Q 214.58 155.28 214.04 155.41
  Q 211.69 155.97 213.94 156.85
  Z
  M 186.83 159.80
  Q 186.36 160.21 186.49 160.82
  A 0.45 0.45 0.0 0 0 187.34 160.91
  Q 187.53 160.48 187.45 160.03
  A 0.39 0.38 65.0 0 0 186.83 159.80
  Z
  M 143.67 162.84
  L 143.58 162.52
  A 0.39 0.39 0.0 0 0 143.11 162.24
  Q 141.45 162.66 140.80 163.68
  Q 140.14 164.72 141.31 164.32
  L 143.25 163.64
  Q 143.83 163.44 143.67 162.84
  Z
  M 201.03 164.27
  Q 202.61 164.05 203.09 163.65
  Q 204.96 162.11 202.56 162.39
  Q 201.56 162.51 200.71 163.74
  Q 200.27 164.38 201.03 164.27
  Z
  M 142.2562 169.8050
  A 1.71 0.71 82.4 0 0 142.7338 168.0161
  A 1.71 0.71 82.4 0 0 141.8038 166.4150
  A 1.71 0.71 82.4 0 0 141.3262 168.2039
  A 1.71 0.71 82.4 0 0 142.2562 169.8050
  Z
  M 135.25 174.75
  Q 136.19 174.67 136.49 173.84
  A 0.43 0.43 0.0 0 0 136.03 173.26
  Q 134.45 173.45 133.46 174.69
  Q 133.05 175.21 133.70 175.09
  C 134.29 174.98 134.57 174.81 135.25 174.75
  Z
  M 131.0022 184.1929
  A 1.61 0.66 72.2 0 0 131.1384 182.4582
  A 1.61 0.66 72.2 0 0 130.0178 181.1271
  A 1.61 0.66 72.2 0 0 129.8816 182.8618
  A 1.61 0.66 72.2 0 0 131.0022 184.1929
  Z
  M 147.7217 181.5110
  A 1.51 0.71 -17.3 0 0 146.0689 181.2821
  A 1.51 0.71 -17.3 0 0 144.8383 182.4090
  A 1.51 0.71 -17.3 0 0 146.4911 182.6379
  A 1.51 0.71 -17.3 0 0 147.7217 181.5110
  Z
  M 139.17 182.84
  L 138.52 182.47
  A 0.37 0.37 0.0 0 0 138.02 182.97
  Q 138.70 184.23 140.01 184.78
  A 0.52 0.52 0.0 0 0 140.72 184.20
  Q 140.55 183.30 139.55 183.00
  Q 139.35 182.94 139.17 182.84
  Z
  M 151.00 186.74
  Q 151.41 186.63 151.72 186.28
  A 0.49 0.48 -68.0 0 0 151.38 185.47
  Q 150.07 185.43 149.51 186.66
  Q 149.36 187.00 149.73 186.97
  Q 149.87 186.95 150.00 186.95
  Q 150.25 186.94 151.00 186.74
  Z
  M 146.4184 193.8458
  A 1.70 0.82 -2.5 0 0 144.6842 193.1008
  A 1.70 0.82 -2.5 0 0 143.0216 193.9942
  A 1.70 0.82 -2.5 0 0 144.7558 194.7392
  A 1.70 0.82 -2.5 0 0 146.4184 193.8458
  Z
  M 134.7664 193.6344
  A 1.60 0.70 -39.4 0 0 133.0857 194.1091
  A 1.60 0.70 -39.4 0 0 132.2936 195.6656
  A 1.60 0.70 -39.4 0 0 133.9743 195.1909
  A 1.60 0.70 -39.4 0 0 134.7664 193.6344
  Z
  M 139.1983 199.4563
  A 1.72 0.66 70.0 0 0 139.2302 197.6143
  A 1.72 0.66 70.0 0 0 138.0217 196.2237
  A 1.72 0.66 70.0 0 0 137.9898 198.0657
  A 1.72 0.66 70.0 0 0 139.1983 199.4563
  Z"
/>
<path fill="#f3705a" d="
  M 164.69 101.26
  C 167.12 101.45 169.42 98.47 171.42 101.20
  Q 171.85 101.78 171.19 101.48
  C 169.84 100.87 168.76 99.84 167.44 101.33
  Q 167.08 101.73 167.22 102.25
  C 168.68 107.49 161.22 106.00 163.45 101.93
  A 1.31 1.29 -72.9 0 1 164.69 101.26
  Z"
/>
<path fill="#010101" d="
  M 162.46 101.52
  Q 161.44 100.68 160.14 100.65
  Q 159.64 100.64 159.23 100.94
  Q 158.60 101.41 157.85 101.58
  Q 157.21 101.74 157.70 101.30
  C 158.74 100.37 161.98 99.55 162.76 101.29
  Q 163.11 102.06 162.46 101.52
  Z"
/>
<path fill="#010101" d="
  M 161.82 106.13
  Q 162.16 106.22 162.44 106.46
  Q 162.87 106.81 162.31 106.75
  Q 160.99 106.59 160.08 105.62
  A 0.18 0.18 0.0 0 1 160.30 105.34
  L 161.32 105.92
  Q 161.56 106.06 161.82 106.13
  Z"
/>
<path fill="#c68e80" d="
  M 249.46 119.63
  L 240.60 123.78
  A 1.49 1.32 71.3 0 0 239.90 125.44
  Q 239.92 125.51 240.11 125.58
  Q 240.27 125.64 240.36 125.50
  C 241.64 123.43 246.25 121.86 248.49 120.54
  Q 248.79 120.36 249.15 120.35
  Q 249.36 120.34 249.56 120.27
  Q 249.91 120.46 250.20 120.95
  A 1.59 1.54 -56.3 0 1 250.39 121.99
  Q 250.18 123.34 251.00 124.44
  A 1.24 1.21 34.4 0 1 251.20 125.44
  L 251.01 126.26
  Q 250.87 126.83 251.18 127.33
  C 253.48 131.07 246.66 133.37 244.05 133.20
  A 1.62 1.60 -57.8 0 0 243.15 133.41
  Q 239.86 135.25 236.41 135.85
  L 230.25 127.03
  Q 231.53 121.83 237.29 118.84
  Q 240.22 117.33 242.47 118.06
  Q 242.97 118.22 243.45 118.02
  L 251.35 114.62
  A 1.31 1.29 44.0 0 1 252.32 114.61
  Q 253.81 115.22 252.80 116.77
  Q 251.56 118.67 249.46 119.63
  Z
  M 238.28 127.28
  C 238.45 123.88 238.58 122.84 241.73 121.18
  A 1.33 0.82 -41.2 0 0 242.32 119.25
  Q 242.16 119.20 242.04 119.15
  Q 241.87 119.08 241.81 119.25
  C 241.50 120.06 241.20 120.67 240.42 121.16
  C 237.63 122.87 237.85 124.15 237.74 127.05
  A 0.25 0.25 0.0 0 0 237.98 127.31
  L 238.23 127.32
  Q 238.28 127.32 238.28 127.28
  Z
  M 248.81 123.92
  Q 245.32 125.82 241.52 127.01
  Q 241.29 127.08 241.38 127.30
  L 241.60 127.85
  A 0.25 0.24 65.9 0 0 241.93 127.98
  L 248.90 124.55
  Q 249.15 124.43 249.00 124.19
  L 248.82 123.92
  Q 248.82 123.91 248.81 123.92
  Z
  M 249.63 127.40
  Q 246.61 129.16 243.82 130.01
  Q 243.12 130.22 242.66 130.01
  Q 242.09 129.75 241.83 129.11
  A 0.25 0.25 0.0 0 0 241.35 129.24
  Q 241.50 130.23 242.34 130.79
  Q 242.72 131.04 243.16 130.90
  C 245.40 130.17 248.17 129.47 249.84 127.66
  A 0.17 0.17 0.0 0 0 249.63 127.40
  Z"
/>
<ellipse fill="#cdb1aa" cx="0.00" cy="0.00" transform="translate(180.87,119.27) rotate(64.9)" rx="0.99" ry="0.61"/>
<path fill="#9b7368" d="
  M 241.73 121.18
  C 238.58 122.84 238.45 123.88 238.28 127.28
  Q 238.28 127.32 238.23 127.32
  L 237.98 127.31
  A 0.25 0.25 0.0 0 1 237.74 127.05
  C 237.85 124.15 237.63 122.87 240.42 121.16
  C 241.20 120.67 241.50 120.06 241.81 119.25
  Q 241.87 119.08 242.04 119.15
  Q 242.16 119.20 242.32 119.25
  A 1.33 0.82 -41.2 0 1 241.73 121.18
  Z"
/>
<path fill="#9b7368" d="
  M 249.46 119.63
  Q 249.64 120.03 249.56 120.27
  Q 249.36 120.34 249.15 120.35
  Q 248.79 120.36 248.49 120.54
  C 246.25 121.86 241.64 123.43 240.36 125.50
  Q 240.27 125.64 240.11 125.58
  Q 239.92 125.51 239.90 125.44
  A 1.49 1.32 71.3 0 1 240.60 123.78
  L 249.46 119.63
  Z"
/>
<ellipse fill="#cdb1aa" cx="0.00" cy="0.00" transform="translate(152.43,123.14) rotate(46.3)" rx="1.72" ry="0.61"/>
<path fill="#6d4038" d="
  M 248.81 123.92
  Q 248.82 123.91 248.82 123.92
  L 249.00 124.19
  Q 249.15 124.43 248.90 124.55
  L 241.93 127.98
  A 0.25 0.24 65.9 0 1 241.60 127.85
  L 241.38 127.30
  Q 241.29 127.08 241.52 127.01
  Q 245.32 125.82 248.81 123.92
  Z"
/>
<path fill="#cdb1aa" d="
  M 171.31 128.05
  A 0.74 0.73 68.3 0 1 171.51 127.57
  Q 172.07 126.95 172.52 127.45
  Q 172.73 127.69 172.76 128.08
  Q 172.83 129.01 172.74 129.98
  A 0.41 0.41 0.0 0 1 172.00 130.19
  Q 171.28 129.24 171.31 128.05
  Z"
/>
<path fill="#9b7368" d="
  M 249.63 127.40
  A 0.17 0.17 0.0 0 1 249.84 127.66
  C 248.17 129.47 245.40 130.17 243.16 130.90
  Q 242.72 131.04 242.34 130.79
  Q 241.50 130.23 241.35 129.24
  A 0.25 0.25 0.0 0 1 241.83 129.11
  Q 242.09 129.75 242.66 130.01
  Q 243.12 130.22 243.82 130.01
  Q 246.61 129.16 249.63 127.40
  Z"
/>
<path fill="#cdb1aa" d="
  M 154.30 131.21
  Q 154.04 130.02 154.28 128.82
  A 0.43 0.43 0.0 0 1 155.11 128.76
  Q 155.50 129.92 155.32 131.23
  Q 155.22 131.99 154.63 131.66
  A 0.74 0.72 9.7 0 1 154.30 131.21
  Z"
/>
<ellipse fill="#cdb1aa" cx="0.00" cy="0.00" transform="translate(181.52,133.11) rotate(-16.7)" rx="1.47" ry="0.77"/>
<path fill="#cdb1aa" d="
  M 165.78 132.55
  A 0.21 0.20 -0.8 0 1 166.05 132.81
  Q 165.47 134.39 163.79 134.73
  A 0.49 0.49 0.0 0 1 163.21 134.28
  Q 163.19 134.12 163.18 133.96
  A 0.50 0.49 -12.1 0 1 163.50 133.47
  L 165.78 132.55
  Z"
/>
<path fill="#cdb1aa" d="
  M 225.79 132.54
  A 0.19 0.19 0.0 0 1 226.04 132.78
  Q 225.55 134.30 223.97 134.70
  Q 223.39 134.85 223.17 134.30
  Q 223.07 134.05 223.18 133.78
  Q 223.27 133.57 223.55 133.45
  Q 224.53 133.01 225.79 132.54
  Z"
/>
<path fill="#cdb1aa" d="
  M 145.31 135.87
  Q 144.47 135.68 145.02 135.02
  Q 145.86 134.02 147.30 134.12
  A 0.61 0.61 0.0 0 1 147.73 135.11
  Q 146.84 136.21 145.31 135.87
  Z"
/>
<path fill="#cdb1aa" d="
  M 190.30 137.01
  Q 189.73 135.88 189.61 135.13
  Q 189.52 134.64 189.79 134.42
  Q 189.94 134.30 190.15 134.28
  Q 190.62 134.23 190.87 134.63
  Q 191.66 135.92 191.13 137.01
  Q 190.72 137.84 190.30 137.01
  Z"
/>
<path fill="#cdb1aa" d="
  M 139.22 136.07
  Q 140.39 136.35 140.72 137.46
  A 0.37 0.37 0.0 0 1 140.25 137.92
  Q 138.76 137.43 138.04 136.02
  Q 137.80 135.55 138.32 135.56
  Q 138.66 135.56 138.82 135.79
  Q 138.96 136.01 139.22 136.07
  Z"
/>
<path fill="#cdb1aa" d="
  M 147.36 152.27
  L 147.65 139.94
  Q 147.67 139.24 148.35 139.34
  Q 148.67 139.38 148.95 139.57
  Q 149.35 139.85 149.69 139.51
  Q 150.44 138.77 151.44 138.44
  A 0.68 0.68 0.0 0 1 152.05 139.63
  Q 150.79 140.53 149.53 140.18
  Q 148.80 139.98 148.80 140.74
  L 148.71 156.95
  Q 148.71 157.44 149.18 157.58
  L 150.96 158.13
  A 0.58 0.57 8.1 0 1 151.38 158.68
  L 151.38 159.10
  A 0.29 0.28 6.6 0 1 151.03 159.37
  L 147.86 158.61
  Q 147.27 158.47 147.25 157.86
  L 147.16 155.20
  A 0.77 0.76 10.5 0 0 146.69 154.53
  Q 146.45 154.43 146.21 154.42
  Q 145.71 154.41 145.52 153.94
  Q 145.14 152.97 145.12 151.93
  Q 145.10 151.29 145.64 151.63
  L 146.99 152.46
  Q 147.35 152.69 147.36 152.27
  Z"
/>
<path fill="#cdb1aa" d="
  M 174.11 140.17
  Q 173.57 140.28 173.76 139.76
  Q 174.32 138.28 175.41 138.29
  Q 178.12 138.33 175.86 139.82
  Q 175.81 139.86 174.11 140.17
  Z"
/>
<path fill="#cdb1aa" d="
  M 210.83 140.14
  Q 210.33 140.50 209.71 140.40
  A 0.42 0.42 0.0 0 1 209.46 139.71
  Q 210.56 138.46 212.22 138.33
  A 0.50 0.50 0.0 0 1 212.69 139.09
  Q 212.25 139.84 211.33 139.95
  Q 211.06 139.98 210.83 140.14
  Z"
/>
<path fill="#cdb1aa" d="
  M 185.23 149.10
  L 186.24 149.40
  A 0.49 0.49 0.0 0 1 186.50 150.16
  Q 186.28 150.48 185.90 150.63
  Q 185.35 150.84 185.48 151.42
  L 186.93 157.98
  A 0.59 0.59 0.0 0 1 186.38 158.70
  L 181.66 158.93
  Q 181.36 158.94 181.65 158.84
  Q 182.71 158.46 184.09 158.66
  A 1.41 1.41 0.0 0 0 185.66 156.95
  L 184.48 151.80
  Q 184.36 151.25 183.97 150.84
  Q 183.20 150.04 183.68 149.06
  Q 183.92 148.58 183.76 148.06
  Q 182.44 143.87 182.48 139.51
  Q 182.50 137.63 183.63 139.21
  Q 183.91 139.59 184.17 140.50
  Q 184.30 140.95 183.99 141.31
  Q 183.29 142.13 183.70 143.25
  Q 184.67 145.95 184.74 148.46
  Q 184.75 148.96 185.23 149.10
  Z"
/>
<ellipse fill="#cdb1aa" cx="0.00" cy="0.00" transform="translate(160.05,142.01) rotate(85.4)" rx="1.74" ry="0.87"/>
<ellipse fill="#cdb1aa" cx="0.00" cy="0.00" transform="translate(220.02,142.01) rotate(86.5)" rx="1.69" ry="0.77"/>
<path fill="#78bfb1" d="
  M 196.09 140.38
  L 204.13 140.71
  L 198.38 146.67
  Q 197.81 147.26 197.75 146.44
  Q 197.52 143.38 196.09 140.38
  Z"
/>
<path fill="#78bfb1" d="
  M 232.10 140.63
  Q 243.46 140.86 254.50 140.69
  C 260.74 140.59 260.48 152.18 260.94 156.54
  A 1.16 1.13 -79.6 0 0 261.53 157.42
  Q 275.27 164.86 289.13 172.37
  C 290.90 173.33 291.46 175.03 291.66 177.12
  Q 292.46 185.57 292.83 194.46
  C 286.20 196.12 282.31 201.19 284.29 208.09
  Q 280.22 212.27 280.99 217.70
  Q 281.23 219.38 281.65 219.63
  Q 283.46 220.72 284.19 218.78
  L 286.59 212.37
  C 289.13 215.05 292.44 216.83 292.39 221.00
  L 279.45 221.39
  L 272.07 221.33
  L 195.40 221.35
  L 194.82 215.10
  C 205.49 212.59 214.71 207.37 223.58 201.07
  Q 225.99 199.35 227.61 196.85
  C 235.34 184.88 214.76 170.99 206.23 167.01
  C 206.57 166.09 207.44 165.55 207.31 164.61
  Q 207.23 164.07 206.90 163.35
  Q 219.40 157.47 229.17 147.94
  Q 232.73 144.46 232.10 140.63
  Z
  M 236.50 164.65
  A 1.81 1.81 0.0 0 0 234.69 162.84
  A 1.81 1.81 0.0 0 0 232.88 164.65
  A 1.81 1.81 0.0 0 0 234.69 166.46
  A 1.81 1.81 0.0 0 0 236.50 164.65
  Z
  M 267.62 167.64
  Q 257.08 166.27 246.50 165.29
  C 242.58 164.92 239.46 165.51 237.60 168.97
  Q 236.55 170.91 236.64 175.70
  Q 236.77 183.42 236.67 191.14
  Q 236.65 193.33 237.46 194.68
  C 239.27 197.67 241.46 198.45 245.16 198.89
  Q 254.17 199.96 263.20 200.91
  Q 268.27 201.45 270.63 200.24
  Q 274.70 198.15 274.85 192.50
  Q 275.05 184.84 274.86 177.18
  C 274.73 171.82 273.13 168.36 267.62 167.64
  Z
  M 236.5701 193.2206
  A 0.48 0.48 0.0 0 0 236.0960 192.7347
  L 230.4164 192.6653
  A 0.48 0.48 0.0 0 0 229.9306 193.1394
  L 229.9299 193.1994
  A 0.48 0.48 0.0 0 0 230.4040 193.6853
  L 236.0836 193.7547
  A 0.48 0.48 0.0 0 0 236.5694 193.2806
  L 236.5701 193.2206
  Z"
/>
<path fill="#78bfb1" d="
  M 134.85 141.33
  Q 134.83 143.43 134.05 145.53
  Q 133.79 146.23 134.20 146.69
  Q 134.47 146.99 134.30 147.35
  Q 133.36 149.30 132.83 152.76
  Q 131.66 160.45 130.78 168.20
  Q 130.73 168.71 130.28 168.95
  L 123.25 172.72
  L 123.81 168.43
  L 123.54 165.57
  Q 124.36 167.22 124.81 164.60
  Q 124.89 164.16 124.69 163.90
  Q 124.42 163.53 123.98 163.59
  Q 123.43 163.66 123.38 164.22
  L 123.34 164.75
  L 122.53 160.29
  Q 122.76 159.55 122.17 158.62
  Q 121.91 158.21 122.03 157.73
  Q 122.28 156.75 121.53 156.49
  Q 120.14 153.24 116.49 153.10
  L 111.98 153.78
  Q 106.70 153.77 103.21 155.86
  Q 103.14 154.74 101.71 155.86
  Q 101.30 156.18 100.85 155.93
  Q 100.63 155.81 100.46 155.57
  Q 101.05 151.69 101.61 147.83
  C 102.18 143.78 103.39 141.39 107.75 141.46
  Q 113.99 141.54 134.85 141.33
  Z"
/>
<ellipse fill="#cdb1aa" cx="0.00" cy="0.00" transform="translate(168.87,142.98) rotate(33.3)" rx="1.84" ry="0.60"/>
<path fill="#cdb1aa" d="
  M 228.62 142.24
  Q 229.51 142.47 229.84 142.87
  Q 230.86 144.13 229.26 143.89
  Q 227.95 143.70 227.38 142.08
  A 0.21 0.21 0.0 0 1 227.67 141.83
  L 228.03 142.02
  Q 228.31 142.16 228.62 142.24
  Z"
/>
<ellipse fill="#cdb1aa" cx="0.00" cy="0.00" transform="translate(152.97,146.48) rotate(74.1)" rx="1.45" ry="0.89"/>
<ellipse fill="#cdb1aa" cx="0.00" cy="0.00" transform="translate(212.97,146.49) rotate(76.5)" rx="1.42" ry="0.83"/>
<path fill="#cdb1aa" d="
  M 176.76 145.50
  Q 176.65 145.16 177.00 145.23
  L 178.03 145.41
  Q 178.34 145.47 178.41 145.77
  L 178.59 146.56
  Q 178.71 147.06 178.49 147.52
  Q 178.32 147.86 178.07 147.91
  Q 177.57 147.99 177.42 147.52
  L 176.76 145.50
  Z"
/>
<path fill="#cdb1aa" d="
  M 144.02 146.30
  Q 145.42 145.62 145.95 146.65
  A 0.87 0.86 77.0 0 1 145.17 147.91
  L 143.84 147.89
  A 0.78 0.78 0.0 0 1 143.07 147.03
  Q 143.16 146.27 143.58 146.36
  Q 143.81 146.40 144.02 146.30
  Z"
/>
<ellipse fill="#cdb1aa" cx="0.00" cy="0.00" transform="translate(204.70,147.05) rotate(-2.8)" rx="1.68" ry="0.85"/>
<ellipse fill="#cdb1aa" cx="0.00" cy="0.00" transform="translate(193.53,147.88) rotate(-42.4)" rx="1.75" ry="0.60"/>
<path fill="#cdb1aa" d="
  M 137.62 149.86
  A 0.44 0.44 0.0 0 1 138.36 149.42
  Q 139.59 150.66 139.43 152.41
  A 0.52 0.52 0.0 0 1 138.42 152.51
  L 137.62 149.86
  Z"
/>
<path fill="#cdb1aa" d="
  M 197.85 151.04
  Q 197.66 150.41 197.66 150.03
  Q 197.69 148.42 198.61 149.74
  Q 199.21 150.60 199.45 152.12
  A 0.48 0.48 0.0 0 1 199.21 152.61
  Q 198.99 152.73 198.74 152.69
  Q 198.67 152.68 198.63 152.63
  Q 198.11 151.91 197.85 151.04
  Z"
/>
<path fill="#cdb1aa" d="
  M 205.36 152.49
  A 1.45 0.82 83.8 0 1 205.79 151.49
  Q 206.04 151.32 206.41 151.65
  Q 206.62 151.84 206.69 152.18
  Q 206.91 153.19 207.06 154.24
  Q 207.17 154.98 206.51 154.65
  Q 205.25 154.01 205.36 152.49
  Z"
/>
<path fill="#cdb1aa" d="
  M 161.81 154.54
  C 162.24 153.73 163.54 152.83 164.46 152.71
  Q 164.68 152.68 164.62 152.90
  Q 163.95 155.00 162.37 155.30
  Q 161.30 155.50 161.81 154.54
  Z"
/>
<ellipse fill="#cdb1aa" cx="0.00" cy="0.00" transform="translate(174.23,153.18) rotate(-4.2)" rx="1.66" ry="0.75"/>
<path fill="#4d9b8c" d="
  M 116.49 153.10
  L 101.04 172.81
  Q 100.73 173.22 100.26 173.00
  L 76.53 161.82
  Q 78.66 159.65 80.03 160.00
  L 99.10 168.88
  A 0.96 0.95 31.4 0 0 100.24 168.61
  L 111.98 153.78
  L 116.49 153.10
  Z"
/>
<path fill="#fff5ee" d="
  M 121.53 156.49
  L 102.51 180.43
  A 1.05 1.04 31.8 0 1 101.26 180.72
  L 74.79 168.44
  Q 74.07 164.68 76.53 161.82
  L 100.26 173.00
  Q 100.73 173.22 101.04 172.81
  L 116.49 153.10
  Q 120.14 153.24 121.53 156.49
  Z"
/>
<path fill="#fff5ee" d="
  M 111.98 153.78
  L 100.24 168.61
  A 0.96 0.95 31.4 0 1 99.10 168.88
  L 80.03 160.00
  L 88.53 158.21
  L 97.42 162.43
  Q 97.90 162.66 98.23 162.24
  L 103.21 155.86
  Q 106.70 153.77 111.98 153.78
  Z"
/>
<path fill="#cdb1aa" d="
  M 192.04 155.13
  Q 192.66 155.08 192.31 155.60
  Q 191.42 156.92 189.69 156.71
  A 0.33 0.32 27.9 0 1 189.51 156.14
  Q 190.58 155.23 192.04 155.13
  Z"
/>
<path fill="#4d9b8c" d="
  M 103.21 155.86
  L 98.23 162.24
  Q 97.90 162.66 97.42 162.43
  L 88.53 158.21
  L 93.77 157.18
  Q 95.12 158.09 96.52 158.46
  Q 97.03 158.60 97.45 158.26
  Q 98.30 157.58 98.72 156.23
  Q 99.89 156.06 100.46 155.57
  Q 100.63 155.81 100.85 155.93
  Q 101.30 156.18 101.71 155.86
  Q 103.14 154.74 103.21 155.86
  Z"
/>
<ellipse fill="#cdb1aa" cx="0.00" cy="0.00" transform="translate(154.50,156.13) rotate(1.5)" rx="1.51" ry="0.86"/>
<ellipse fill="#cdb1aa" cx="0.00" cy="0.00" transform="translate(168.08,157.20) rotate(80.1)" rx="1.64" ry="0.75"/>
<path fill="#cdb1aa" d="
  M 213.94 156.85
  Q 211.69 155.97 214.04 155.41
  Q 214.58 155.28 215.07 155.43
  Q 217.00 156.03 215.15 156.84
  Q 214.56 157.10 213.94 156.85
  Z"
/>
<path fill="#fff5ee" d="
  M 98.72 156.23
  Q 98.30 157.58 97.45 158.26
  Q 97.03 158.60 96.52 158.46
  Q 95.12 158.09 93.77 157.18
  L 98.72 156.23
  Z"
/>
<path fill="#4d9b8c" d="
  M 121.53 156.49
  Q 122.28 156.75 122.03 157.73
  Q 121.91 158.21 122.17 158.62
  Q 122.76 159.55 122.53 160.29
  L 103.26 184.60
  Q 102.93 185.01 102.45 184.79
  L 76.18 172.53
  Q 76.13 172.15 74.87 172.18
  L 74.79 168.44
  L 101.26 180.72
  A 1.05 1.04 31.8 0 0 102.51 180.43
  L 121.53 156.49
  Z"
/>
<path fill="#4d9b8c" d="
  M 186.83 159.80
  A 0.39 0.38 65.0 0 1 187.45 160.03
  Q 187.53 160.48 187.34 160.91
  A 0.45 0.45 0.0 0 1 186.49 160.82
  Q 186.36 160.21 186.83 159.80
  Z"
/>
<path fill="#fff5ee" d="
  M 122.53 160.29
  L 123.34 164.75
  Q 123.49 165.08 123.54 165.57
  L 123.81 168.43
  Q 120.18 171.72 118.21 175.79
  Q 115.78 178.20 112.56 180.81
  Q 108.87 183.82 106.31 190.65
  L 104.89 191.58
  A 0.97 0.94 -48.3 0 1 103.97 191.65
  L 76.24 178.78
  Q 75.29 176.61 75.11 173.09
  Q 75.09 172.56 75.60 172.48
  Q 75.94 172.42 76.18 172.53
  L 102.45 184.79
  Q 102.93 185.01 103.26 184.60
  L 122.53 160.29
  Z"
/>
<path fill="#cdb1aa" d="
  M 143.25 163.64
  L 141.31 164.32
  Q 140.14 164.72 140.80 163.68
  Q 141.45 162.66 143.11 162.24
  A 0.39 0.39 0.0 0 1 143.58 162.52
  L 143.67 162.84
  Q 143.83 163.44 143.25 163.64
  Z"
/>
<path fill="#cdb1aa" d="
  M 201.03 164.27
  Q 200.27 164.38 200.71 163.74
  Q 201.56 162.51 202.56 162.39
  Q 204.96 162.11 203.09 163.65
  Q 202.61 164.05 201.03 164.27
  Z"
/>
<circle fill="#2f6858" cx="234.69" cy="164.65" r="1.81"/>
<path fill="#2f6858" d="
  M 206.90 163.35
  Q 207.23 164.07 207.31 164.61
  C 207.44 165.55 206.57 166.09 206.23 167.01
  Q 204.65 165.91 204.33 165.88
  Q 201.68 165.58 204.21 164.50
  L 206.90 163.35
  Z"
/>
<path fill="#2f6858" d="
  M 123.54 165.57
  Q 123.49 165.08 123.34 164.75
  L 123.38 164.22
  Q 123.43 163.66 123.98 163.59
  Q 124.42 163.53 124.69 163.90
  Q 124.89 164.16 124.81 164.60
  Q 124.36 167.22 123.54 165.57
  Z"
/>
<path fill="#f3705a" d="
  M 267.62 167.64
  C 273.13 168.36 274.73 171.82 274.86 177.18
  Q 275.05 184.84 274.85 192.50
  Q 274.70 198.15 270.63 200.24
  Q 268.27 201.45 263.20 200.91
  Q 254.17 199.96 245.16 198.89
  C 241.46 198.45 239.27 197.67 237.46 194.68
  Q 236.65 193.33 236.67 191.14
  Q 236.77 183.42 236.64 175.70
  Q 236.55 170.91 237.60 168.97
  C 239.46 165.51 242.58 164.92 246.50 165.29
  Q 257.08 166.27 267.62 167.64
  Z"
/>
<ellipse fill="#cdb1aa" cx="0.00" cy="0.00" transform="translate(142.03,168.11) rotate(82.4)" rx="1.71" ry="0.71"/>
<path fill="#4d9b8c" d="
  M 123.81 168.43
  L 123.25 172.72
  Q 121.29 174.51 118.21 175.79
  Q 120.18 171.72 123.81 168.43
  Z"
/>
<path fill="#78bfb1" d="
  M 74.87 172.18
  Q 76.13 172.15 76.18 172.53
  Q 75.94 172.42 75.60 172.48
  Q 75.09 172.56 75.11 173.09
  Q 75.29 176.61 76.24 178.78
  Q 76.80 180.84 76.54 182.35
  L 77.41 189.68
  L 78.15 193.61
  Q 77.54 197.68 78.71 200.51
  Q 80.90 205.79 87.25 204.74
  Q 91.86 203.98 97.12 202.70
  Q 97.81 203.06 99.06 202.47
  Q 99.52 202.25 100.03 202.28
  Q 102.06 202.42 102.43 201.59
  Q 105.32 201.68 108.43 200.39
  C 112.41 206.80 120.74 211.50 127.91 214.40
  L 126.35 218.85
  L 124.68 221.41
  L 86.98 221.47
  L 79.48 221.48
  L 68.52 221.46
  A 3.04 3.04 0.0 0 1 65.48 218.38
  Q 65.71 198.67 66.28 178.25
  C 66.38 174.56 71.81 173.09 74.87 172.18
  Z
  M 114.9988 220.6137
  A 1.65 0.50 43.4 0 0 114.1435 219.1167
  A 1.65 0.50 43.4 0 0 112.6012 218.3463
  A 1.65 0.50 43.4 0 0 113.4565 219.8433
  A 1.65 0.50 43.4 0 0 114.9988 220.6137
  Z"
/>
<path fill="#cdb1aa" d="
  M 135.25 174.75
  C 134.57 174.81 134.29 174.98 133.70 175.09
  Q 133.05 175.21 133.46 174.69
  Q 134.45 173.45 136.03 173.26
  A 0.43 0.43 0.0 0 1 136.49 173.84
  Q 136.19 174.67 135.25 174.75
  Z"
/>
<path fill="#4d9b8c" d="
  M 76.24 178.78
  L 103.97 191.65
  A 0.97 0.94 -48.3 0 0 104.89 191.58
  L 106.31 190.65
  L 106.45 196.20
  L 76.54 182.35
  Q 76.80 180.84 76.24 178.78
  Z"
/>
<ellipse fill="#cdb1aa" cx="0.00" cy="0.00" transform="translate(130.51,182.66) rotate(72.2)" rx="1.61" ry="0.66"/>
<ellipse fill="#cdb1aa" cx="0.00" cy="0.00" transform="translate(146.28,181.96) rotate(-17.3)" rx="1.51" ry="0.71"/>
<path fill="#cdb1aa" d="
  M 139.55 183.00
  Q 140.55 183.30 140.72 184.20
  A 0.52 0.52 0.0 0 1 140.01 184.78
  Q 138.70 184.23 138.02 182.97
  A 0.37 0.37 0.0 0 1 138.52 182.47
  L 139.17 182.84
  Q 139.35 182.94 139.55 183.00
  Z"
/>
<path fill="#fff5ee" d="
  M 76.54 182.35
  L 106.45 196.20
  L 108.43 200.39
  Q 105.32 201.68 102.43 201.59
  L 77.41 189.68
  L 76.54 182.35
  Z"
/>
<path fill="#cdb1aa" d="
  M 150.00 186.95
  Q 149.87 186.95 149.73 186.97
  Q 149.36 187.00 149.51 186.66
  Q 150.07 185.43 151.38 185.47
  A 0.49 0.48 -68.0 0 1 151.72 186.28
  Q 151.41 186.63 151.00 186.74
  Q 150.25 186.94 150.00 186.95
  Z"
/>
<path fill="#4d9b8c" d="
  M 77.41 189.68
  L 102.43 201.59
  Q 102.06 202.42 100.03 202.28
  Q 99.52 202.25 99.06 202.47
  Q 97.81 203.06 97.12 202.70
  L 78.15 193.61
  L 77.41 189.68
  Z"
/>
<path fill="#78bfb1" d="
  M 168.50 201.38
  Q 167.74 200.78 166.62 200.66
  L 148.82 196.71
  A 0.61 0.60 22.5 0 1 148.43 195.79
  Q 148.71 195.36 149.62 195.35
  C 153.51 195.33 157.68 194.59 161.15 194.48
  Q 176.44 193.98 191.73 193.70
  Q 193.96 193.66 195.98 192.64
  Q 196.24 192.52 196.38 192.76
  L 196.51 192.99
  Q 196.62 193.19 196.43 193.31
  C 194.60 194.37 192.52 194.47 190.89 195.07
  C 183.54 197.77 175.38 199.24 168.50 201.38
  Z"
/>
<rect fill="#4d9b8c" x="-3.32" y="-0.51" transform="translate(233.25,193.21) rotate(0.7)" width="6.64" height="1.02" rx="0.48"/>
<ellipse fill="#cdb1aa" cx="0.00" cy="0.00" transform="translate(144.72,193.92) rotate(-2.5)" rx="1.70" ry="0.82"/>
<ellipse fill="#cdb1aa" cx="0.00" cy="0.00" transform="translate(133.53,194.65) rotate(-39.4)" rx="1.60" ry="0.70"/>
<path fill="#fff5ee" d="
  M 78.15 193.61
  L 97.12 202.70
  Q 91.86 203.98 87.25 204.74
  Q 80.90 205.79 78.71 200.51
  Q 77.54 197.68 78.15 193.61
  Z"
/>
<path fill="#9b7368" d="
  M 292.83 194.46
  Q 299.28 193.40 304.15 196.72
  C 302.09 201.53 299.93 209.55 301.86 214.55
  A 1.10 1.10 0.0 0 0 303.61 214.97
  C 306.11 212.75 307.98 206.18 309.17 202.84
  L 310.94 205.95
  Q 310.83 205.90 310.69 205.97
  Q 310.60 206.00 310.61 206.10
  Q 310.84 207.40 311.62 208.26
  Q 311.36 208.83 311.67 209.18
  Q 311.89 209.42 312.42 209.43
  Q 320.25 209.59 327.97 210.02
  C 321.34 213.66 328.82 226.37 335.32 220.57
  Q 339.71 216.65 340.13 211.94
  C 343.84 213.91 346.00 217.19 349.64 218.98
  Q 356.30 222.25 364.18 224.38
  A 0.57 0.57 0.0 0 1 364.41 225.35
  L 364.22 225.52
  Q 363.30 226.35 362.05 226.25
  Q 355.78 225.76 349.81 223.71
  Q 349.25 223.52 349.36 224.10
  Q 350.80 231.49 349.54 239.25
  Q 349.45 239.80 350.02 240.13
  Q 348.83 240.81 349.38 242.15
  Q 348.37 244.45 348.55 246.90
  Q 346.45 248.87 344.64 247.39
  A 1.00 0.98 22.3 0 1 344.28 246.55
  L 344.47 244.04
  Q 344.51 243.53 344.04 243.33
  L 343.26 242.98
  Q 342.82 242.79 343.11 242.39
  Q 343.31 242.12 343.71 242.10
  Q 344.22 242.06 344.36 241.58
  Q 344.67 240.55 343.88 239.93
  Q 344.79 238.55 344.01 237.04
  A 0.66 0.66 0.0 0 0 342.83 237.05
  Q 341.91 238.90 342.95 239.93
  Q 342.43 239.89 342.35 240.37
  Q 341.90 243.03 342.06 246.32
  Q 342.13 247.74 340.70 247.78
  L 339.82 247.79
  Q 338.52 247.82 338.44 246.52
  L 337.95 238.32
  L 337.70 233.35
  Q 337.67 232.72 337.04 232.81
  L 332.00 233.50
  Q 321.30 236.02 309.98 236.83
  Q 309.48 236.86 309.43 237.36
  Q 308.84 242.45 308.34 247.55
  Q 308.25 248.44 307.90 248.85
  Q 307.29 249.55 306.28 249.15
  A 1.48 1.48 0.0 0 1 305.39 248.10
  Q 304.35 243.41 303.18 239.01
  Q 302.94 238.08 302.30 237.73
  A 0.67 0.67 0.0 0 0 301.31 238.28
  Q 301.01 243.38 300.31 248.48
  Q 300.21 249.17 298.73 249.32
  A 1.48 1.47 82.0 0 1 297.13 248.10
  L 292.39 221.00
  C 292.44 216.83 289.13 215.05 286.59 212.37
  Q 285.17 210.78 284.29 208.09
  C 282.31 201.19 286.20 196.12 292.83 194.46
  Z
  M 295.6076 199.9200
  A 1.37 1.00 108.4 0 0 296.9889 198.9356
  A 1.37 1.00 108.4 0 0 296.4724 197.3200
  A 1.37 1.00 108.4 0 0 295.0911 198.3044
  A 1.37 1.00 108.4 0 0 295.6076 199.9200
  Z
  M 288.37 200.35
  Q 288.74 200.21 288.93 199.89
  Q 289.29 199.33 288.69 199.03
  Q 288.00 198.68 287.30 199.00
  A 0.61 0.61 0.0 0 0 287.03 199.88
  Q 287.69 200.93 286.96 201.79
  C 286.73 202.07 286.32 202.15 286.00 202.38
  Q 285.56 202.69 286.09 202.58
  Q 287.50 202.28 287.79 201.02
  Q 287.90 200.53 288.37 200.35
  Z
  M 314.16 227.07
  C 314.23 229.16 317.66 231.65 319.51 230.32
  C 324.01 227.08 319.87 219.57 314.45 226.20
  Q 314.14 226.58 314.16 227.07
  Z"
/>
<ellipse fill="#cdb1aa" cx="0.00" cy="0.00" transform="translate(138.61,197.84) rotate(70.0)" rx="1.72" ry="0.66"/>
<path fill="#6d4038" d="
  M 304.15 196.72
  Q 307.68 199.54 309.17 202.84
  C 307.98 206.18 306.11 212.75 303.61 214.97
  A 1.10 1.10 0.0 0 1 301.86 214.55
  C 299.93 209.55 302.09 201.53 304.15 196.72
  Z"
/>
<ellipse fill="#010101" cx="0.00" cy="0.00" transform="translate(296.04,198.62) rotate(108.4)" rx="1.37" ry="1.00"/>
<path fill="#010101" d="
  M 287.79 201.02
  Q 287.50 202.28 286.09 202.58
  Q 285.56 202.69 286.00 202.38
  C 286.32 202.15 286.73 202.07 286.96 201.79
  Q 287.69 200.93 287.03 199.88
  A 0.61 0.61 0.0 0 1 287.30 199.00
  Q 288.00 198.68 288.69 199.03
  Q 289.29 199.33 288.93 199.89
  Q 288.74 200.21 288.37 200.35
  Q 287.90 200.53 287.79 201.02
  Z"
/>
<path fill="#cdb1aa" d="
  M 166.62 200.66
  Q 167.74 200.78 168.50 201.38
  L 149.92 205.72
  Q 150.21 205.48 149.64 204.98
  L 166.62 200.66
  Z"
/>
<path fill="#c68e80" d="
  M 149.64 204.98
  Q 150.21 205.48 149.92 205.72
  L 155.16 221.38
  Q 144.16 222.33 140.37 223.87
  Q 137.98 224.83 135.59 225.57
  Q 135.41 224.10 135.78 223.08
  L 138.72 215.66
  Q 138.78 215.50 138.63 215.44
  L 138.36 215.32
  Q 138.00 215.17 137.82 215.52
  Q 136.04 218.98 135.48 222.84
  Q 134.59 224.79 133.04 224.96
  Q 132.52 225.01 132.33 224.53
  L 131.85 223.37
  L 135.71 216.61
  A 0.57 0.56 31.2 0 0 135.52 215.86
  L 135.24 215.69
  Q 135.01 215.55 134.90 215.79
  L 131.41 223.16
  Q 131.58 223.18 131.47 223.42
  Q 131.40 223.57 131.24 223.63
  Q 129.36 224.38 128.78 222.67
  Q 128.64 222.25 128.82 221.84
  L 132.02 214.95
  Q 132.08 214.83 131.96 214.75
  L 131.96 214.75
  Q 131.75 214.62 131.58 214.85
  Q 129.65 217.54 128.92 220.80
  A 1.13 1.13 0.0 0 1 126.91 221.22
  Q 126.30 220.38 126.35 218.85
  L 127.91 214.40
  C 128.21 213.51 129.65 209.29 130.85 208.21
  Q 131.20 207.89 131.28 207.43
  Q 131.82 204.26 133.66 201.62
  Q 133.98 201.16 134.54 201.26
  L 143.88 202.83
  A 0.95 0.94 -72.1 0 1 144.57 204.18
  L 143.77 205.81
  Q 143.38 206.61 144.24 206.39
  L 149.64 204.98
  Z"
/>
<path fill="#fff5ee" d="
  M 310.94 205.95
  Q 311.43 206.05 311.80 206.30
  Q 312.24 206.59 312.25 207.05
  Q 312.26 207.67 311.62 208.26
  Q 310.84 207.40 310.61 206.10
  Q 310.60 206.00 310.69 205.97
  Q 310.83 205.90 310.94 205.95
  Z"
/>
<path fill="#6d4038" d="
  M 284.29 208.09
  Q 285.17 210.78 286.59 212.37
  L 284.19 218.78
  Q 283.46 220.72 281.65 219.63
  Q 281.23 219.38 280.99 217.70
  Q 280.22 212.27 284.29 208.09
  Z"
/>
<path fill="#e3d4c5" d="
  M 327.97 210.02
  Q 334.28 210.08 340.13 211.94
  Q 339.71 216.65 335.32 220.57
  C 328.82 226.37 321.34 213.66 327.97 210.02
  Z"
/>
<path fill="#2f6858" d="
  M 194.82 215.10
  L 195.40 221.35
  L 195.53 223.99
  Q 195.56 224.50 195.08 224.67
  Q 192.92 225.44 191.26 224.21
  Q 189.84 223.15 188.22 221.20
  Q 186.24 218.80 182.22 217.29
  Q 187.90 215.66 193.25 214.26
  Q 194.74 213.87 194.82 215.10
  Z"
/>
<path fill="#2f6858" d="
  M 131.41 223.16
  L 131.85 223.37
  L 132.33 224.53
  Q 132.52 225.01 133.04 224.96
  Q 134.59 224.79 135.48 222.84
  Q 135.63 222.96 135.78 223.08
  Q 135.41 224.10 135.59 225.57
  L 129.96 228.38
  Q 128.24 229.07 125.74 230.19
  Q 123.71 231.09 121.15 230.03
  Q 121.22 229.51 120.74 229.22
  Q 120.31 227.93 121.58 226.49
  L 124.68 221.41
  L 126.35 218.85
  Q 126.30 220.38 126.91 221.22
  A 1.13 1.13 0.0 0 0 128.92 220.80
  Q 129.65 217.54 131.58 214.85
  Q 131.75 214.62 131.96 214.75
  L 131.96 214.75
  Q 132.08 214.83 132.02 214.95
  L 128.82 221.84
  Q 128.64 222.25 128.78 222.67
  Q 129.36 224.38 131.24 223.63
  Q 131.40 223.57 131.47 223.42
  Q 131.58 223.18 131.41 223.16
  Z"
/>
<path fill="#9b7368" d="
  M 135.78 223.08
  Q 135.63 222.96 135.48 222.84
  Q 136.04 218.98 137.82 215.52
  Q 138.00 215.17 138.36 215.32
  L 138.63 215.44
  Q 138.78 215.50 138.72 215.66
  L 135.78 223.08
  Z"
/>
<path fill="#9b7368" d="
  M 131.85 223.37
  L 131.41 223.16
  L 134.90 215.79
  Q 135.01 215.55 135.24 215.69
  L 135.52 215.86
  A 0.57 0.56 31.2 0 1 135.71 216.61
  L 131.85 223.37
  Z"
/>
<path fill="#78bfb1" d="
  M 182.22 217.29
  Q 186.24 218.80 188.22 221.20
  L 157.46 221.20
  L 182.22 217.29
  Z"
/>
<ellipse fill="#e3d4c5" cx="0.00" cy="0.00" transform="translate(113.80,219.48) rotate(43.4)" rx="1.65" ry="0.50"/>
<path fill="#fff5ee" d="
  M 188.22 221.20
  Q 189.84 223.15 191.26 224.21
  Q 192.92 225.44 195.08 224.67
  Q 195.56 224.50 195.53 223.99
  L 195.40 221.35
  L 272.07 221.33
  L 277.26 238.49
  A 1.63 1.63 0.0 0 0 279.26 239.59
  Q 281.82 238.89 281.35 236.38
  C 280.45 231.51 280.16 226.41 279.45 221.39
  L 292.39 221.00
  L 297.13 248.10
  A 1.48 1.47 82.0 0 0 298.73 249.32
  Q 300.21 249.17 300.31 248.48
  Q 301.01 243.38 301.31 238.28
  A 0.67 0.67 0.0 0 1 302.30 237.73
  Q 302.94 238.08 303.18 239.01
  Q 304.35 243.41 305.39 248.10
  A 1.48 1.48 0.0 0 0 306.28 249.15
  Q 307.29 249.55 307.90 248.85
  Q 308.25 248.44 308.34 247.55
  Q 308.84 242.45 309.43 237.36
  Q 309.48 236.86 309.98 236.83
  Q 321.30 236.02 332.00 233.50
  L 337.95 238.32
  L 338.44 246.52
  Q 338.52 247.82 339.82 247.79
  L 340.70 247.78
  Q 342.13 247.74 342.06 246.32
  Q 341.90 243.03 342.35 240.37
  Q 342.43 239.89 342.95 239.93
  Q 343.40 240.02 343.88 239.93
  Q 344.67 240.55 344.36 241.58
  Q 344.22 242.06 343.71 242.10
  Q 343.31 242.12 343.11 242.39
  Q 342.82 242.79 343.26 242.98
  L 344.04 243.33
  Q 344.51 243.53 344.47 244.04
  L 344.28 246.55
  A 1.00 0.98 22.3 0 0 344.64 247.39
  Q 346.45 248.87 348.55 246.90
  L 354.82 251.89
  A 1.50 1.47 64.0 0 0 355.75 252.22
  L 368.82 252.26
  A 0.99 0.99 0.0 0 1 369.80 253.32
  L 369.76 253.79
  A 0.80 0.79 -87.7 0 1 368.96 254.54
  L 359.27 254.39
  Q 357.85 254.37 358.96 255.25
  L 368.32 262.70
  Q 368.85 263.12 369.53 263.13
  L 379.37 263.28
  A 0.65 0.64 -88.7 0 1 380.00 263.95
  L 379.98 264.34
  Q 379.94 265.32 378.96 265.32
  L 128.41 265.31
  L 120.51 249.54
  C 125.89 248.52 141.63 244.97 142.30 238.17
  C 142.78 233.31 133.85 229.92 129.96 228.38
  L 135.59 225.57
  Q 137.98 224.83 140.37 223.87
  Q 144.16 222.33 155.16 221.38
  Q 156.09 221.11 157.46 221.20
  L 188.22 221.20
  Z"
/>
<path fill="#cdb1aa" d="
  M 86.98 221.47
  Q 86.29 222.34 86.60 223.05
  Q 86.82 223.53 87.35 223.52
  Q 99.23 223.22 111.00 224.74
  C 111.97 224.86 112.75 225.38 113.70 225.39
  Q 117.61 225.46 121.58 226.49
  Q 120.31 227.93 120.74 229.22
  Q 118.92 228.06 116.82 228.41
  A 0.38 0.38 0.0 0 1 116.38 228.05
  Q 116.37 227.85 116.37 227.65
  A 0.65 0.65 0.0 0 0 115.72 226.99
  L 115.27 227.00
  Q 114.88 227.00 114.86 227.39
  Q 114.81 228.84 113.55 229.17
  A 0.36 0.36 0.0 0 1 113.10 228.77
  Q 113.24 227.81 113.80 227.05
  Q 114.21 226.50 113.54 226.38
  Q 110.62 225.87 109.23 228.45
  Q 108.85 229.17 108.25 229.01
  Q 107.55 228.83 107.95 228.23
  L 108.69 227.11
  Q 109.21 226.33 108.29 226.51
  C 107.32 226.70 106.82 227.34 106.79 228.37
  C 106.72 230.58 106.47 235.86 108.76 236.96
  Q 112.87 238.95 115.92 235.71
  Q 116.26 235.36 116.74 235.23
  Q 120.61 234.19 121.15 230.03
  Q 123.71 231.09 125.74 230.19
  Q 128.24 229.07 129.96 228.38
  C 133.85 229.92 142.78 233.31 142.30 238.17
  C 141.63 244.97 125.89 248.52 120.51 249.54
  L 114.02 250.58
  Q 88.96 254.11 63.59 250.58
  L 56.98 249.50
  L 51.95 248.44
  C 46.87 246.82 40.28 245.05 36.91 241.34
  C 29.93 233.63 47.95 228.36 52.25 227.34
  Q 60.57 225.36 69.06 224.39
  Q 76.50 224.05 78.50 223.77
  Q 80.15 223.55 79.40 222.58
  Q 79.96 221.88 79.48 221.48
  L 86.98 221.47
  Z
  M 53.18 240.15
  Q 53.87 242.27 53.55 245.04
  L 71.32 245.82
  A 1.53 1.49 -59.0 0 0 72.23 245.58
  L 89.84 234.44
  L 89.76 229.07
  L 73.78 228.37
  Q 72.27 228.30 70.99 229.10
  L 53.18 240.15
  Z"
/>
<path fill="#fff5ee" d="
  M 124.68 221.41
  L 121.58 226.49
  Q 117.61 225.46 113.70 225.39
  C 112.75 225.38 111.97 224.86 111.00 224.74
  Q 99.23 223.22 87.35 223.52
  Q 86.82 223.53 86.60 223.05
  Q 86.29 222.34 86.98 221.47
  L 124.68 221.41
  Z"
/>
<path fill="#cdb1aa" d="
  M 279.45 221.39
  C 280.16 226.41 280.45 231.51 281.35 236.38
  Q 281.82 238.89 279.26 239.59
  A 1.63 1.63 0.0 0 1 277.26 238.49
  L 272.07 221.33
  L 279.45 221.39
  Z"
/>
<path fill="#fff5ee" d="
  M 79.40 222.58
  Q 80.15 223.55 78.50 223.77
  Q 76.50 224.05 69.06 224.39
  Q 69.15 222.69 70.50 222.72
  Q 74.99 222.83 79.40 222.58
  Z"
/>
<path fill="#e3d4c5" d="
  M 319.51 230.32
  C 317.66 231.65 314.23 229.16 314.16 227.07
  Q 314.14 226.58 314.45 226.20
  C 319.87 219.57 324.01 227.08 319.51 230.32
  Z"
/>
<path fill="#f3705a" d="
  M 120.74 229.22
  Q 121.22 229.51 121.15 230.03
  Q 120.61 234.19 116.74 235.23
  Q 116.26 235.36 115.92 235.71
  Q 112.87 238.95 108.76 236.96
  C 106.47 235.86 106.72 230.58 106.79 228.37
  C 106.82 227.34 107.32 226.70 108.29 226.51
  Q 109.21 226.33 108.69 227.11
  L 107.95 228.23
  Q 107.55 228.83 108.25 229.01
  Q 108.85 229.17 109.23 228.45
  Q 110.62 225.87 113.54 226.38
  Q 114.21 226.50 113.80 227.05
  Q 113.24 227.81 113.10 228.77
  A 0.36 0.36 0.0 0 0 113.55 229.17
  Q 114.81 228.84 114.86 227.39
  Q 114.88 227.00 115.27 227.00
  L 115.72 226.99
  A 0.65 0.65 0.0 0 1 116.37 227.65
  Q 116.37 227.85 116.38 228.05
  A 0.38 0.38 0.0 0 0 116.82 228.41
  Q 118.92 228.06 120.74 229.22
  Z
  M 117.25 229.83
  Q 116.50 230.48 116.42 231.47
  L 116.27 233.47
  A 0.53 0.52 82.7 0 0 116.96 234.01
  Q 118.91 233.33 119.63 231.37
  A 1.46 1.46 0.0 0 0 118.85 229.54
  Q 118.02 229.16 117.25 229.83
  Z"
/>
<path fill="#e3d4c5" d="
  M 89.76 229.07
  Q 81.54 234.76 73.49 239.69
  Q 71.74 240.76 69.71 240.79
  Q 61.82 240.90 53.18 240.15
  L 70.99 229.10
  Q 72.27 228.30 73.78 228.37
  L 89.76 229.07
  Z"
/>
<path fill="#fff5ee" d="
  M 89.76 229.07
  L 89.84 234.44
  C 89.20 234.14 88.73 233.93 88.08 234.33
  Q 82.02 238.06 75.99 241.82
  C 73.63 243.29 73.00 244.89 69.73 244.73
  Q 61.82 244.32 53.55 245.04
  Q 53.87 242.27 53.18 240.15
  Q 61.82 240.90 69.71 240.79
  Q 71.74 240.76 73.49 239.69
  Q 81.54 234.76 89.76 229.07
  Z"
/>
<path fill="#cdb1aa" d="
  M 117.25 229.83
  Q 118.02 229.16 118.85 229.54
  A 1.46 1.46 0.0 0 1 119.63 231.37
  Q 118.91 233.33 116.96 234.01
  A 0.53 0.52 82.7 0 1 116.27 233.47
  L 116.42 231.47
  Q 116.50 230.48 117.25 229.83
  Z"
/>
<path fill="#e3d4c5" d="
  M 89.84 234.44
  L 72.23 245.58
  A 1.53 1.49 -59.0 0 1 71.32 245.82
  L 53.55 245.04
  Q 61.82 244.32 69.73 244.73
  C 73.00 244.89 73.63 243.29 75.99 241.82
  Q 82.02 238.06 88.08 234.33
  C 88.73 233.93 89.20 234.14 89.84 234.44
  Z"
/>
<path fill="#fff5ee" d="
  M 350.02 240.13
  Q 351.86 239.57 352.60 240.51
  A 1.06 1.06 0.0 0 1 351.74 242.22
  L 349.38 242.15
  Q 348.83 240.81 350.02 240.13
  Z"
/>
<path fill="#fff5ee" d="
  M 51.95 248.44
  L 56.98 249.50
  L 49.07 265.38
  L 20.91 265.42
  A 0.75 0.75 0.0 0 1 20.16 264.74
  L 20.11 264.25
  A 0.90 0.90 0.0 0 1 21.00 263.27
  L 35.99 263.07
  A 1.93 1.90 22.6 0 0 37.28 262.55
  L 45.10 255.13
  Q 45.95 254.32 44.77 254.34
  L 31.27 254.54
  A 0.89 0.89 0.0 0 1 30.37 253.60
  L 30.39 253.33
  Q 30.45 252.29 31.49 252.28
  L 47.55 252.17
  A 1.11 1.11 0.0 0 0 48.31 251.87
  L 51.95 248.44
  Z"
/>
<path fill="#e3d4c5" d="
  M 56.98 249.50
  L 63.59 250.58
  Q 59.27 256.48 55.31 263.31
  Q 54.99 263.87 54.19 264.26
  Q 53.75 264.48 53.86 264.96
  Q 53.92 265.22 54.19 265.29
  L 50.83 270.16
  A 1.77 1.77 0.0 0 1 48.64 270.75
  L 48.14 270.52
  A 1.32 1.32 0.0 0 1 47.50 268.77
  L 49.07 265.38
  L 56.98 249.50
  Z"
/>
<path fill="#e3d4c5" d="
  M 120.51 249.54
  L 128.41 265.31
  L 129.82 268.40
  A 1.67 1.67 0.0 0 1 128.43 270.76
  C 126.26 270.93 124.43 267.01 123.60 265.31
  L 114.02 250.58
  L 120.51 249.54
  Z"
/>
<path fill="#fff5ee" d="
  M 63.59 250.58
  Q 88.96 254.11 114.02 250.58
  L 123.60 265.31
  L 54.19 265.29
  Q 53.92 265.22 53.86 264.96
  Q 53.75 264.48 54.19 264.26
  Q 54.99 263.87 55.31 263.31
  Q 59.27 256.48 63.59 250.58
  Z"
/>
</svg>
