<svg xmlns="http://www.w3.org/2000/svg" viewBox="0 0 361 577" xmlns:v="https://vecta.io/nano"><style><![CDATA[.B{fill:#fff}.C{fill:#aab1b7}.D{fill:#e9eef4}.E{stroke:#f4f7fa}.F{stroke:#bac0cb}.G{stroke:#d5e4f3}.H{fill:#aac8e7}.I{stroke:#c5c9d1}.J{stroke:#cad0d6}.K{stroke:#cadbee}.L{stroke:#d5d8db}.M{fill:#8a92a2}]]></style><g fill="none" stroke-width="2"><path vector-effect="non-scaling-stroke" d="M226.22 110.95q-.56-8.61-6.98-11.26-3.14-1.29-12.11-.9-9.94.44-20.24.89a2.18 2.17 77.9 0 1-2.12-1.38c-2.18-5.55-3.05-12.73-10.22-13.77q-2.82-.41-8.94 1.64-20.4 6.85-40.75 13.83-2.75.94-5.55 1.76c-10.31 3.02-25.17-3.1-30.3 9.41a1.29 1.25 89.1 0 1-.64.68q-1.57.74-3.22 1.3-11.84 4.05-23.71 8.04c-6.79 2.28-11.9 5.52-9.18 13.32 9.81 28.07 26.93 72.41 40.12 108.71 1.28 3.54 2.5 6.74 2.73 10.61.34 5.88.11 10.37 5.72 13.64q.44.26.6.75c3.06 9.57 6.6 13.6 17.22 9.88q14.99-5.24 30.12-10.09c4.21-1.35 18.5-2.61 20.72 2.57q.25.59.77.22l1.32-.92a1.04 1.03 34.1 0 1 .86-.16l60.32 16.02c4.59 1.21 8.68 1.41 11.8-2.09q1.62-1.8 3.35-7.72 20-68.47 40.1-136.92c2.48-8.46-2.31-11.52-9.83-13.54q-25.72-6.92-51.43-13.87-.5-.13-.53-.65" class="I"/><path vector-effect="non-scaling-stroke" d="M58.893 171.45a2.76 2.55 11.7 0 0-2.186-3.057 2.76 2.55 11.7 0 0-3.22 1.937 2.76 2.55 11.7 0 0 2.186 3.057 2.76 2.55 11.7 0 0 3.22-1.937m237.847 3.86l-.39-1.19q-.78-2.36-1.77-.08-.9 2.08-3.25 2.08-.13 0-.17.13-.04.14-.11.28a.41.41 0 0 0 .26.6q2.38.63 3.27 2.86.96 2.4 1.46.02.4-1.92 2.21-2.54 2.71-.94 0-1.37l-.71-.12a1.01 1 84.6 0 1-.8-.67M56.919 195.817a8.68 8.28 6.2 0 0-7.735-9.169 8.68 8.28 6.2 0 0-9.523 7.294 8.68 8.28 6.2 0 0 7.735 9.169 8.68 8.28 6.2 0 0 9.523-7.294m224.611 4.803q-.75-.39-.92-.41-2.11-.24-.63 1.28 3.17 3.23 7.05-3.18a.35.35 0 0 0-.23-.53l-.27-.05q-.6-.11-1.06.29l-2.85 2.48a.98.97 38.4 0 1-1.09.12m25.998 19.083a7.46 7.21 6.1 0 0-6.652-7.962 7.46 7.21 6.1 0 0-8.184 6.376 7.46 7.21 6.1 0 0 6.652 7.962 7.46 7.21 6.1 0 0 8.184-6.376M71.87 216.42c-2.08-.73-2.59-.54-3.5-2.7q-1.23-2.96-4.41-1.53-.35.16-.55.49l-1.94 3.21a.82.79 6.4 0 1-.47.36l-2.27.6q-.61.16-.61.79v2.32a.88.88 0 0 0 .92.88q3.54-.12 3.55 3.31a.99.97-81.6 0 0 .69.94q2.11.67 4.16-.27.46-.21.57-.71.38-1.74 1.77-2.88a1.21 1.19 25.1 0 1 .76-.27q.52 0 .91-.23.58-.34.74-1.18.23-1.15.2-2.41-.02-.54-.52-.72" class="E"/><path vector-effect="non-scaling-stroke" d="M171.368 276.266a1 1 0 0 0-1.004-.996l-.34.001a1 1 0 0 0-.996 1.003l.025 7.04a1 1 0 0 0 1.004.997l.34-.001a1 1 0 0 0 .996-1.003l-.025-7.04m-.108 13.663a.83.83 0 0 0-.83-.83h-.46a.83.83 0 0 0-.83.83v7a.83.83 0 0 0 .83.83h.46a.83.83 0 0 0 .83-.83v-7" class="I"/><path stroke="#bbbec6" vector-effect="non-scaling-stroke" d="M170.35 310.43c-.53-1.66 1.04-4.63.84-6.9q-.07-.73-.79-.8l-.47-.05a.63.63 0 0 0-.69.58q-.14 1.78.89 5.71c.49 1.85-.94 3.19-2.88 3.21q-40.05.46-80.1.31-9.75-.04-13.11 1.46-7.21 3.23-7.25 13.06-.21 56.78.16 169.85.02 8.96 1.4 12.08 2.92 6.63 11.65 7.02c14 .61 33.98-.2 50.25-.2l97.49.19q19.26.29 38.51.22c7.48-.03 13.45-5.3 13.4-13.04q-.46-70.8.13-176.05.03-5.2-1.28-7.95-3.26-6.81-11.75-6.75-61.72.41-93.75-.11-2.07-.03-2.65-1.84"/><path vector-effect="non-scaling-stroke" d="M246 550.69c8.21-.24 16.53-1.49 24.74-2.17q3.57-.29 6.41-1.82a1.2 1.2 0 0 0-.16-2.18c-4.64-1.7-7.93-1.9-14.37-2.61-22.91-2.53-45.58-2.97-66.87-3.17q-21.87-.22-43.75-.14c-3.37.02-6.87.48-10.01.48-19.34.01-36.19 1.12-56.17 2.74-5.37.44-10.46 1.62-15.78 2.69a.57.57 0 0 0-.45.59q.03.4-.29.56a.36.35 41.9 0 0 .04.65q3.75 1.4 5.41 1.57 7.93.83 15.85 1.78 7.47.89 15.86 1.21c16.69.63 31.97 1.49 50.27 1.55 15.28.05 30.59.46 45.87-.15q8.94-.35 12.31-.41c11.05-.19 21.86-1.05 30.47-.98q.2 0 .37-.11.11-.07.25-.08" class="E"/><path vector-effect="non-scaling-stroke" d="M162.12 90.19q-16.04 5.66-32.21 11.09-2.43.81.13.71l25.21-1.06q.98-.04 1.56-.81c3.94-5.23 7.8-5.03 14.07-3.38q5.25 1.39 10.68 2.77.64.16.36-.44c-3.24-6.96-2.51-14.2-13.34-10.98q-3.25.97-6.46 2.1m9.12 172.16l.32 3.57a.75.74 5.3 0 0 .54.64q31.84 8.54 63.65 17.15c5.43 1.47 7.58-2.37 8.95-7.1q19.97-68.89 40.24-137.7 1.04-3.53.62-5.39-.74-3.29-4.31-4.24-56.45-15.03-112.87-30.23c-5.69-1.54-8.26.11-9.95 5.82q-19.57 66.03-38.95 132.11c-1.83 6.22-5.29 14.08 2.54 16.16q23.15 6.14 46.36 12.48a.26.26 0 0 0 .33-.21q.25-1.6.84-3.13.25-.65 1.03-.59a.74.72.5 0 1 .66.66m51.98-152.42c-.59-6.14-4.78-8.55-10.59-8.52q-8.83.04-16.42.72-4.08.37-.1 1.36c8.84 2.19 17.6 4.74 26.44 7.02q.75.2.67-.58" class="F"/><path vector-effect="non-scaling-stroke" d="M122.38 217.08l17.69-60.27" class="I"/><path vector-effect="non-scaling-stroke" d="M140.07 156.81l5.91-20.69q.18-.62-.47-.6l-8.06.21a1.06 1.06 0 0 1-1.06-1.29l.12-.51q.24-1.04 1.31-1.04l8.17.05q.42 0 .65-.34 1.72-2.62 1.95-6.61" class="F"/><path stroke="#9aa2ad" vector-effect="non-scaling-stroke" d="M148.59 125.99l2.89-9.11"/><path vector-effect="non-scaling-stroke" d="M151.48 116.88l3.9-12.6q.17-.54-.4-.52-27.49 1.2-54.98 2.47-5.39.25-7.33 4.5-1.04 2.28-.77 7.66l5.8 135.62c.33 6.97 1.94 12.4 9.8 12.19q20.89-.57 41.69-1.64 4.08-.21.12-1.22-12.51-3.19-26.82-7.09c-11.61-3.17-7.95-11.08-5.73-19.59q.22-.86-.67-.81l-8.02.44a.77.77 0 0 1-.81-.73l-.04-.66a.91.91 0 0 1 .88-.95l9.25-.21a.35.35 0 0 0 .32-.25l1.76-6a.18.18 0 0 0-.18-.23l-11.56.51q-.87.04-.92-.83l-.05-.95a.57.56 88 0 1 .55-.6l12.25-.41q.58-.02.74-.58l2.12-7.32" class="F"/><path vector-effect="non-scaling-stroke" d="M151.48 116.88l-14.97.38q-1.29.03-1.23 1.32l.36 7.14a.82.82 0 0 0 .85.78l12.1-.51" class="J"/><path vector-effect="non-scaling-stroke" d="M140.07 156.81l-37.64 1.31q-1.88.06-1.67 1.93.81 7.38 1.03 14.69l1.63 39.95a1.82 1.82 0 0 0 2.07 1.72q8.81-1.24 16.89.67" class="E"/><path vector-effect="non-scaling-stroke" d="M92.47 193.04l-1.44-27.71" class="I"/><path vector-effect="non-scaling-stroke" d="M91.03 165.33l-.51-8.76" class="F"/><path stroke="#9aadc5" vector-effect="non-scaling-stroke" d="M90.52 156.57l-.64-8.37"/><path vector-effect="non-scaling-stroke" d="M89.88 148.2l-.65-12.69" class="I"/><path stroke="#9aadc5" vector-effect="non-scaling-stroke" d="M89.23 135.51l-.13-8.27"/><path vector-effect="non-scaling-stroke" d="M89.1 127.24l-.54-11.25a.53.53 0 0 0-.7-.48q-13.49 4.47-26.97 8.71c-4.28 1.35-7.53 4.54-5.77 9.32q15.24 41.42 30.21 82.94 3.84 10.65 8 21.17c.26.63.22 1.69.61 2.39q.28.5.4-.06.49-2.31.33-3.73-.79-7.26-1.18-22.25-.02-.79-.84-3.37-.16-.5-.01-1 .66-2.19.44-4.46a1 1 0 0 0-1.15-.89q-.91.14-2.04 0-.84-.1-.63-.93a.64.63 5.4 0 1 .59-.48l2.21-.11a.87.87 0 0 0 .83-.92l-.42-8.8" class="F"/><path vector-effect="non-scaling-stroke" d="M89.1 127.24q-12.21-1.35-17.77 8.09c-3.63 6.15-1.42 14.2 3.88 18.49q6.76 5.48 15.31 2.75" class="K"/><path vector-effect="non-scaling-stroke" d="M91.03 165.33l-13.1 4.1a1.58 1.57 71.3 0 0-1.01 2.05l8.88 24.12a1.63 1.63 0 0 0 2.12.95q.77-.3 1.39.01.49.25.96-.02 2.11-1.16 2.2-3.5" class="E"/><path vector-effect="non-scaling-stroke" d="M89.23 135.51q-.83-2.34-2.72-1.5-.46.21-.93.05l-1.63-.53q-.59-.19-1 .28l-4.48 5.18a1.48 1.48 0 0 0-.22 1.6l4.63 9.65a1.94 1.93 74.7 0 0 1.9 1.09q3.25-.27 5.1-3.13" class="G"/><path vector-effect="non-scaling-stroke" d="M136.5 267.8l-31.07 1.37a.5.5 0 0 0-.45.65c1.97 5.8 5.03 8.12 11.23 5.96q10.24-3.57 20.99-6.87.68-.21.4-.86-.12-.3-1.1-.25" class="F"/><path vector-effect="non-scaling-stroke" d="M194.15 127.262a15.83 15.19-.1 0 0-15.857-15.162 15.83 15.19-.1 0 0-15.803 15.218 15.83 15.19-.1 0 0 15.856 15.162 15.83 15.19-.1 0 0 15.804-15.218" class="K"/><path vector-effect="non-scaling-stroke" d="M256.68 148.08a1.1 1.1 0 0 0 1.33-.71l2.1-6.38a1.1 1.1 0 0 0-.75-1.41l-55.99-15.02a1.1 1.1 0 0 0-1.34.75l-1.93 6.57a1.1 1.1 0 0 0 .77 1.37l55.81 14.83m2.467 8.62a1.35 1.35 0 0 0-.955-1.653l-59.115-15.84a1.35 1.35 0 0 0-1.654.955l-.01.039a1.35 1.35 0 0 0 .955 1.653l59.115 15.84a1.35 1.35 0 0 0 1.653-.955l.01-.039" class="J"/><path vector-effect="non-scaling-stroke" d="M155.32 145.41a1.14 1.14 0 0 0-1.39.78l-18.24 62.04a1.14 1.14 0 0 0 .8 1.42l110.24 29.5a1.14 1.14 0 0 0 1.39-.78l18.15-61.97a1.14 1.14 0 0 0-.8-1.42l-110.15-29.57" class="E"/><path vector-effect="non-scaling-stroke" d="M243.694 252.103a.92.92 0 0 0-.65-1.127l-108.995-29.205a.92.92 0 0 0-1.127.65l-.036.135a.92.92 0 0 0 .65 1.127l108.995 29.205a.92.92 0 0 0 1.127-.65l.036-.135" class="J"/><path vector-effect="non-scaling-stroke" d="M170.16 230.43a2.88 1.27 90 0 0 1.27-2.88 2.88 1.27 90 0 0-1.27-2.88 2.88 1.27 90 0 0-1.27 2.88 2.88 1.27 90 0 0 1.27 2.88" class="F"/><path vector-effect="non-scaling-stroke" d="M168.52 237.68a.35.34-79 0 1-.43.29l-36.29-9.66q-.57-.16-.76.4l-.14.41q-.34 1.04.72 1.33l36.07 9.72q.52.14.68.65l.89 2.85a.68.68 0 0 0 1 .38q.91-.55 1.34-1.51.53-1.18 1.78-.84l59.54 16.02A.86.86 0 0 0 234 257l.05-.35q.16-1.1-.91-1.38l-60.5-16.11a.82.81 1.9 0 1-.59-.62l-.68-3.07q-.37-1.68-1.75-.66-.79.57-1.1 2.87m2.69 19.38a.44.44 0 0 0 .33-.43l-.03-7.78a.44.44 0 0 1 .56-.43l59.45 16.11a.44.44 0 0 0 .55-.34l.27-1.37a.44.44 0 0 0-.32-.51L129.69 235a.44.44 0 0 0-.53.28l-.4 1.13a.44.44 0 0 0 .31.57l39.77 10.65a.44.44 0 0 1 .33.44l-.29 9.01a.44.44 0 0 0 .55.44l1.78-.46" class="J"/><path vector-effect="non-scaling-stroke" d="M131.16 128.515a15.84 15.12-.2 0 0-15.893-15.065 15.84 15.12-.2 0 0-15.787 15.175 15.84 15.12-.2 0 0 15.893 15.065 15.84 15.12-.2 0 0 15.787-15.175" class="K"/><path vector-effect="non-scaling-stroke" d="M184.78 121.35c-2.24-.43-2.13-2.9-5-2.01q-2.8.87-5.39 1.51a1.4 1.4 0 0 0-1.04 1.11l-1.92 10.38a2.26 2.26 0 0 0 1.75 2.62c2.77.58 6.05-.7 8.64-1.38a2.68 2.66-1.6 0 0 1.95-2.05l1.8-9.02a1 .99 11 0 0-.79-1.16" class="G"/><g class="K"><path vector-effect="non-scaling-stroke" d="M115.24 129.57l1.14.18q.55.08.64.63l.34 1.94q.13.69.83.62l6.47-.71a.7.69 84.9 0 0 .62-.75l-.64-8.99a1.96 1.95 84.6 0 0-2.17-1.8q-4.65.54-9.29.91-2.36.19-2.56 1.83a1.65 1.65 0 0 1-1.93 1.43q-2.98-.54-3.03.88-.16 4.76.09 9.35a1.55 1.55 0 0 0 1.77 1.44q3.66-.52 7.58-.42 1.02.03 1.49-.26.84-.5.62-1.6-.11-.58-.69-.68l-1.72-.31q-.56-.1-.8-.61-.5-1.01-.18-2.16a1.27 1.27 0 0 1 1.42-.92"/><path vector-effect="non-scaling-stroke" d="M122.391 124.645a1.33 1.33 0 0 0-1.422-1.231l-.698.05a1.33 1.33 0 0 0-1.231 1.422l.309 4.309a1.33 1.33 0 0 0 1.422 1.231l.698-.05a1.33 1.33 0 0 0 1.232-1.422l-.309-4.309m-5.56.463a1.37 1.37 0 0 0-1.341-1.398l-.84-.018a1.37 1.37 0 0 0-1.398 1.341l-.025 1.2a1.37 1.37 0 0 0 1.341 1.398l.84.018a1.37 1.37 0 0 0 1.398-1.341l.025-1.2m-7.812 8.692l2.01-.15a.74.74 0 0 0 .69-.79l-.03-.42a2.84 1.56 85.8 0 0-1.77-2.72l-.38.03a2.84 1.56 85.8 0 0-1.34 2.95l.03.41a.74.74 0 0 0 .79.69"/></g><path vector-effect="non-scaling-stroke" d="M84.43 134.89l-4.3 3.84a.13.13 0 0 0-.01.18l.01.01a2.88 1.68-41.7 0 0 3.27-.66l.19-.18a2.88 1.68-41.7 0 0 1.04-3.17h-.01a.13.13 0 0 0-.19-.02" class="G"/><path vector-effect="non-scaling-stroke" d="M54.583 193.545a6.37 6.07-11 0 0-7.411-4.743 6.37 6.07-11 0 0-5.095 7.174 6.37 6.07-11 0 0 7.411 4.743 6.37 6.07-11 0 0 5.095-7.174m250.564 24.815a5.21 5.03-5.4 0 0-5.66-4.517 5.21 5.03-5.4 0 0-4.714 5.498 5.21 5.03-5.4 0 0 5.66 4.517 5.21 5.03-5.4 0 0 4.714-5.498" class="E"/><path stroke="#b0b6c1" vector-effect="non-scaling-stroke" d="M178.08 316.55q.45 1.23-.51 2.13l-7.1 6.67a.64.64 0 0 1-.89-.02l-6.73-6.73q-.87-.88-.57-2.08l.11-.46a.67.67 0 0 1 1.11-.32l4.44 4.28a.71.71 0 0 0 1.2-.49l.12-4.24q.02-.72-.7-.71-42.86.39-85.92.03c-11.21-.1-13.34 4.81-13.33 15.49q.07 84.25-.12 168.52-.02 7.17 1.48 10.01 2.8 5.33 10.09 5.28l59.98.21q61.5-.17 122.99-.21 6.44 0 9.08-1.35 4.86-2.48 5.16-8.79c.41-8.77-.67-20.25-.59-29.7q.49-53.16.06-106.32l.18-43.12c-.08-7.58-6.67-10.05-13.12-10q-36.92.29-92.83-.08-.48 0-.47.48l.08 4.46a.69.68-22.9 0 0 1.17.47l4.24-4.2a.73.73 0 0 1 1.2.26l.19.53"/><path vector-effect="non-scaling-stroke" d="M257.18 340.37a7.91 7.91 0 0 0-7.91-7.91H97.17a7.91 7.91 0 0 0-7.91 7.91v11a7.91 7.91 0 0 0 7.91 7.91h152.1a7.91 7.91 0 0 0 7.91-7.91v-11m-.02 36.49a8.11 8.11 0 0 0-8.11-8.11H97.39a8.11 8.11 0 0 0-8.11 8.11v10.7a8.11 8.11 0 0 0 8.11 8.11h151.66a8.11 8.11 0 0 0 8.11-8.11v-10.7m0 34.984a7.67 7.67 0 0 0-7.683-7.657l-152.54.266a7.67 7.67 0 0 0-7.657 7.683l.02 11.24a7.67 7.67 0 0 0 7.683 7.657l152.54-.266a7.67 7.67 0 0 0 7.657-7.683l-.02-11.24" class="E"/><path vector-effect="non-scaling-stroke" d="M112.695 344.803a7.45 7.13-6.3 0 0-8.187-6.269 7.45 7.13-6.3 0 0-6.623 7.904 7.45 7.13-6.3 0 0 8.187 6.269 7.45 7.13-6.3 0 0 6.623-7.904" class="G"/><path vector-effect="non-scaling-stroke" d="M200.44 342.93a1.46 1.46 0 0 0-1.46-1.46h-77.66a1.46 1.46 0 0 0-1.46 1.46v.02a1.46 1.46 0 0 0 1.46 1.46h77.66a1.46 1.46 0 0 0 1.46-1.46v-.02m-28.82 5.906a1.32 1.32 0 0 0-1.322-1.318l-47.92.084a1.32 1.32 0 0 0-1.318 1.322v.06a1.32 1.32 0 0 0 1.322 1.318l47.92-.084a1.32 1.32 0 0 0 1.318-1.322v-.06" class="L"/><path vector-effect="non-scaling-stroke" d="M104.268 349.473a3.96 3.08 105.1 0 0 4.005-3.021 3.96 3.08 105.1 0 0-1.942-4.626 3.96 3.08 105.1 0 0-4.005 3.021 3.96 3.08 105.1 0 0 1.942 4.626m9.65 31.996a7.49 7.17-3.3 0 0-7.89-6.727 7.49 7.17-3.3 0 0-7.065 7.589 7.49 7.17-3.3 0 0 7.89 6.727 7.49 7.17-3.3 0 0 7.065-7.589" class="G"/><path vector-effect="non-scaling-stroke" d="M201.64 379.21a1.44 1.44 0 0 0-1.437-1.442l-77.7-.136a1.44 1.44 0 0 0-1.442 1.438v.04a1.44 1.44 0 0 0 1.438 1.443l77.7.136a1.44 1.44 0 0 0 1.443-1.437v-.04m-41.493 5.699a1.29 1.29 0 0 0-1.297-1.283l-35.399.185a1.29 1.29 0 0 0-1.283 1.297l.001.2a1.29 1.29 0 0 0 1.297 1.283l35.399-.185a1.29 1.29 0 0 0 1.283-1.297l-.001-.2" class="L"/><path vector-effect="non-scaling-stroke" d="M105.246 385.981a3.91 3.04 106.4 0 0 4.02-2.893 3.91 3.04 106.4 0 0-1.812-4.609 3.91 3.04 106.4 0 0-4.02 2.893 3.91 3.04 106.4 0 0 1.812 4.609m7.778 31.07a7.45 7.19-2.3 0 0-7.733-6.885 7.45 7.19-2.3 0 0-7.156 7.483 7.45 7.19-2.3 0 0 7.733 6.885 7.45 7.19-2.3 0 0 7.156-7.483" class="G"/><path vector-effect="non-scaling-stroke" d="M182.59 413.464a1.38 1.38 0 0 0-1.378-1.382l-59.58-.104a1.38 1.38 0 0 0-1.382 1.378v.26a1.38 1.38 0 0 0 1.378 1.382l59.58.104a1.38 1.38 0 0 0 1.382-1.378v-.26m17.729 5.617a.96.96 0 0 0-.963-.957l-77.839.272a.96.96 0 0 0-.957.963l.002.7a.96.96 0 0 0 .963.957l77.839-.272a.96.96 0 0 0 .957-.963l-.002-.7" class="L"/><path vector-effect="non-scaling-stroke" d="M104.609 421.533a4 3 103.9 0 0 3.873-3.162 4 3 103.9 0 0-1.951-4.604 4 3 103.9 0 0-3.873 3.162 4 3 103.9 0 0 1.951 4.604" class="G"/></g><path d="M0 0h361v577H0V0zm226.22 110.95q-.56-8.61-6.98-11.26-3.14-1.29-12.11-.9-9.94.44-20.24.89a2.18 2.17 77.9 0 1-2.12-1.38c-2.18-5.55-3.05-12.73-10.22-13.77q-2.82-.41-8.94 1.64-20.4 6.85-40.75 13.83-2.75.94-5.55 1.76c-10.31 3.02-25.17-3.1-30.3 9.41a1.29 1.25 89.1 0 1-.64.68q-1.57.74-3.22 1.3-11.84 4.05-23.71 8.04c-6.79 2.28-11.9 5.52-9.18 13.32 9.81 28.07 26.93 72.41 40.12 108.71 1.28 3.54 2.5 6.74 2.73 10.61.34 5.88.11 10.37 5.72 13.64q.44.26.6.75c3.06 9.57 6.6 13.6 17.22 9.88q14.99-5.24 30.12-10.09c4.21-1.35 18.5-2.61 20.72 2.57q.25.59.77.22l1.32-.92a1.04 1.03 34.1 0 1 .86-.16l60.32 16.02c4.59 1.21 8.68 1.41 11.8-2.09q1.62-1.8 3.35-7.72 20-68.47 40.1-136.92c2.48-8.46-2.31-11.52-9.83-13.54q-25.72-6.92-51.43-13.87-.5-.13-.53-.65zm-167.327 60.5a2.76 2.55 11.7 0 0-2.186-3.057 2.76 2.55 11.7 0 0-3.22 1.937 2.76 2.55 11.7 0 0 2.186 3.057 2.76 2.55 11.7 0 0 3.22-1.937zm237.847 3.86l-.39-1.19q-.78-2.36-1.77-.08-.9 2.08-3.25 2.08-.13 0-.17.13-.04.14-.11.28a.41.41 0 0 0 .26.6q2.38.63 3.27 2.86.96 2.4 1.46.02.4-1.92 2.21-2.54 2.71-.94 0-1.37l-.71-.12a1.01 1 84.6 0 1-.8-.67zM56.919 195.817a8.68 8.28 6.2 0 0-7.735-9.169 8.68 8.28 6.2 0 0-9.523 7.294 8.68 8.28 6.2 0 0 7.735 9.169 8.68 8.28 6.2 0 0 9.523-7.294zm224.611 4.803q-.75-.39-.92-.41-2.11-.24-.63 1.28 3.17 3.23 7.05-3.18a.35.35 0 0 0-.23-.53l-.27-.05q-.6-.11-1.06.29l-2.85 2.48a.98.97 38.4 0 1-1.09.12zm25.998 19.083a7.46 7.21 6.1 0 0-6.652-7.962 7.46 7.21 6.1 0 0-8.184 6.376 7.46 7.21 6.1 0 0 6.652 7.962 7.46 7.21 6.1 0 0 8.184-6.376zM71.87 216.42c-2.08-.73-2.59-.54-3.5-2.7q-1.23-2.96-4.41-1.53-.35.16-.55.49l-1.94 3.21a.82.79 6.4 0 1-.47.36l-2.27.6q-.61.16-.61.79v2.32a.88.88 0 0 0 .92.88q3.54-.12 3.55 3.31a.99.97-81.6 0 0 .69.94q2.11.67 4.16-.27.46-.21.57-.71.38-1.74 1.77-2.88a1.21 1.19 25.1 0 1 .76-.27q.52 0 .91-.23.58-.34.74-1.18.23-1.15.2-2.41-.02-.54-.52-.72zm99.498 59.846a1 1 0 0 0-1.004-.996l-.34.001a1 1 0 0 0-.996 1.003l.025 7.04a1 1 0 0 0 1.004.997l.34-.001a1 1 0 0 0 .996-1.003l-.025-7.04zm-.108 13.664a.83.83 0 0 0-.83-.83h-.46a.83.83 0 0 0-.83.83v7a.83.83 0 0 0 .83.83h.46a.83.83 0 0 0 .83-.83v-7zm-.91 20.5c-.53-1.66 1.04-4.63.84-6.9q-.07-.73-.79-.8l-.47-.05a.63.63 0 0 0-.69.58q-.14 1.78.89 5.71c.49 1.85-.94 3.19-2.88 3.21q-40.05.46-80.1.31-9.75-.04-13.11 1.46-7.21 3.23-7.25 13.06-.21 56.78.16 169.85.02 8.96 1.4 12.08 2.92 6.63 11.65 7.02c14 .61 33.98-.2 50.25-.2l97.49.19q19.26.29 38.51.22c7.48-.03 13.45-5.3 13.4-13.04q-.46-70.8.13-176.05.03-5.2-1.28-7.95-3.26-6.81-11.75-6.75-61.72.41-93.75-.11-2.07-.03-2.65-1.84zM246 550.69c8.21-.24 16.53-1.49 24.74-2.17q3.57-.29 6.41-1.82a1.2 1.2 0 0 0-.16-2.18c-4.64-1.7-7.93-1.9-14.37-2.61-22.91-2.53-45.58-2.97-66.87-3.17q-21.87-.22-43.75-.14c-3.37.02-6.87.48-10.01.48-19.34.01-36.19 1.12-56.17 2.74-5.37.44-10.46 1.62-15.78 2.69a.57.57 0 0 0-.45.59q.03.4-.29.56a.36.35 41.9 0 0 .04.65q3.75 1.4 5.41 1.57 7.93.83 15.85 1.78 7.47.89 15.86 1.21c16.69.63 31.97 1.49 50.27 1.55 15.28.05 30.59.46 45.87-.15q8.94-.35 12.31-.41c11.05-.19 21.86-1.05 30.47-.98q.2 0 .37-.11.11-.07.25-.08z" class="B"/><path d="M226.75 111.6q25.71 6.95 51.43 13.87c7.52 2.02 12.31 5.08 9.83 13.54q-20.1 68.45-40.1 136.92-1.73 5.92-3.35 7.72c-3.12 3.5-7.21 3.3-11.8 2.09l-60.32-16.02a1.04 1.03 34.1 0 0-.86.16l-1.32.92q-.52.37-.77-.22c-2.22-5.18-16.51-3.92-20.72-2.57q-15.13 4.85-30.12 10.09c-10.62 3.72-14.16-.31-17.22-9.88q-.16-.49-.6-.75c-5.61-3.27-5.38-7.76-5.72-13.64-.23-3.87-1.45-7.07-2.73-10.61L52.26 134.51c-2.72-7.8 2.39-11.04 9.18-13.32q11.87-3.99 23.71-8.04 1.65-.56 3.22-1.3a1.29 1.25 89.1 0 0 .64-.68c5.13-12.51 19.99-6.39 30.3-9.41q2.8-.82 5.55-1.76 20.35-6.98 40.75-13.83 6.12-2.05 8.94-1.64c7.17 1.04 8.04 8.22 10.22 13.77a2.18 2.17 77.9 0 0 2.12 1.38q10.3-.45 20.24-.89 8.97-.39 12.11.9 6.42 2.65 6.98 11.26.03.52.53.65zm-64.63-21.41q-16.04 5.66-32.21 11.09-2.43.81.13.71l25.21-1.06q.98-.04 1.56-.81c3.94-5.23 7.8-5.03 14.07-3.38q5.25 1.39 10.68 2.77.64.16.36-.44c-3.24-6.96-2.51-14.2-13.34-10.98q-3.25.97-6.46 2.1zm9.12 172.16l.32 3.57a.75.74 5.3 0 0 .54.64q31.84 8.54 63.65 17.15c5.43 1.47 7.58-2.37 8.95-7.1q19.97-68.89 40.24-137.7 1.04-3.53.62-5.39-.74-3.29-4.31-4.24-56.45-15.03-112.87-30.23c-5.69-1.54-8.26.11-9.95 5.82q-19.57 66.03-38.95 132.11c-1.83 6.22-5.29 14.08 2.54 16.16q23.15 6.14 46.36 12.48a.26.26 0 0 0 .33-.21q.25-1.6.84-3.13.25-.65 1.03-.59a.74.72.5 0 1 .66.66zm51.98-152.42c-.59-6.14-4.78-8.55-10.59-8.52q-8.83.04-16.42.72-4.08.37-.1 1.36c8.84 2.19 17.6 4.74 26.44 7.02q.75.2.67-.58zM122.38 217.08l17.69-60.27 5.91-20.69q.18-.62-.47-.6l-8.06.21a1.06 1.06 0 0 1-1.06-1.29l.12-.51q.24-1.04 1.31-1.04l8.17.05q.42 0 .65-.34 1.72-2.62 1.95-6.61l2.89-9.11 3.9-12.6q.17-.54-.4-.52-27.49 1.2-54.98 2.47-5.39.25-7.33 4.5-1.04 2.28-.77 7.66l5.8 135.62c.33 6.97 1.94 12.4 9.8 12.19q20.89-.57 41.69-1.64 4.08-.21.12-1.22-12.51-3.19-26.82-7.09c-11.61-3.17-7.95-11.08-5.73-19.59q.22-.86-.67-.81l-8.02.44a.77.77 0 0 1-.81-.73l-.04-.66a.91.91 0 0 1 .88-.95l9.25-.21a.35.35 0 0 0 .32-.25l1.76-6a.18.18 0 0 0-.18-.23l-11.56.51q-.87.04-.92-.83l-.05-.95a.57.56 88 0 1 .55-.6l12.25-.41q.58-.02.74-.58l2.12-7.32zm-29.91-24.04l-1.44-27.71-.51-8.76-.64-8.37-.65-12.69-.13-8.27-.54-11.25a.53.53 0 0 0-.7-.48q-13.49 4.47-26.97 8.71c-4.28 1.35-7.53 4.54-5.77 9.32q15.24 41.42 30.21 82.94 3.84 10.65 8 21.17c.26.63.22 1.69.61 2.39q.28.5.4-.06.49-2.31.33-3.73-.79-7.26-1.18-22.25-.02-.79-.84-3.37-.16-.5-.01-1 .66-2.19.44-4.46a1 1 0 0 0-1.15-.89q-.91.14-2.04 0-.84-.1-.63-.93a.64.63 5.4 0 1 .59-.48l2.21-.11a.87.87 0 0 0 .83-.92l-.42-8.8zm44.03 74.76l-31.07 1.37a.5.5 0 0 0-.45.65c1.97 5.8 5.03 8.12 11.23 5.96q10.24-3.57 20.99-6.87.68-.21.4-.86-.12-.3-1.1-.25z" class="M"/><g class="D"><path d="M162.12 90.19q3.21-1.13 6.46-2.1c10.83-3.22 10.1 4.02 13.34 10.98q.28.6-.36.44-5.43-1.38-10.68-2.77c-6.27-1.65-10.13-1.85-14.07 3.38q-.58.77-1.56.81l-25.21 1.06q-2.56.1-.13-.71 16.17-5.43 32.21-11.09zm9.12 172.16a.74.72.5 0 0-.66-.66q-.78-.06-1.03.59-.59 1.53-.84 3.13a.26.26 0 0 1-.33.21q-23.21-6.34-46.36-12.48c-7.83-2.08-4.37-9.94-2.54-16.16q19.38-66.08 38.95-132.11c1.69-5.71 4.26-7.36 9.95-5.82q56.42 15.2 112.87 30.23 3.57.95 4.31 4.24.42 1.86-.62 5.39-20.27 68.81-40.24 137.7c-1.37 4.73-3.52 8.57-8.95 7.1q-31.81-8.61-63.65-17.15a.75.74 5.3 0 1-.54-.64l-.32-3.57zm22.91-135.088a15.83 15.19-.1 0 0-15.857-15.162 15.83 15.19-.1 0 0-15.803 15.218 15.83 15.19-.1 0 0 15.856 15.162 15.83 15.19-.1 0 0 15.804-15.218zm62.53 20.818a1.1 1.1 0 0 0 1.33-.71l2.1-6.38a1.1 1.1 0 0 0-.75-1.41l-55.99-15.02a1.1 1.1 0 0 0-1.34.75l-1.93 6.57a1.1 1.1 0 0 0 .77 1.37l55.81 14.83zm2.466 8.62a1.35 1.35 0 0 0-.955-1.653l-59.115-15.84a1.35 1.35 0 0 0-1.654.955l-.01.039a1.35 1.35 0 0 0 .955 1.653l59.115 15.84a1.35 1.35 0 0 0 1.653-.955l.01-.039zM155.32 145.41a1.14 1.14 0 0 0-1.39.78l-18.24 62.04a1.14 1.14 0 0 0 .8 1.42l110.24 29.5a1.14 1.14 0 0 0 1.39-.78l18.15-61.97a1.14 1.14 0 0 0-.8-1.42l-110.15-29.57zm88.374 106.693a.92.92 0 0 0-.65-1.127l-108.995-29.205a.92.92 0 0 0-1.127.65l-.036.135a.92.92 0 0 0 .65 1.127l108.995 29.205a.92.92 0 0 0 1.127-.65l.036-.135zM170.16 230.43a2.88 1.27 90 0 0 1.27-2.88 2.88 1.27 90 0 0-1.27-2.88 2.88 1.27 90 0 0-1.27 2.88 2.88 1.27 90 0 0 1.27 2.88zm-1.64 7.25a.35.34-79 0 1-.43.29l-36.29-9.66q-.57-.16-.76.4l-.14.41q-.34 1.04.72 1.33l36.07 9.72q.52.14.68.65l.89 2.85a.68.68 0 0 0 1 .38q.91-.55 1.34-1.51.53-1.18 1.78-.84l59.54 16.02A.86.86 0 0 0 234 257l.05-.35q.16-1.1-.91-1.38l-60.5-16.11a.82.81 1.9 0 1-.59-.62l-.68-3.07q-.37-1.68-1.75-.66-.79.57-1.1 2.87zm2.69 19.38a.44.44 0 0 0 .33-.43l-.03-7.78a.44.44 0 0 1 .56-.43l59.45 16.11a.44.44 0 0 0 .55-.34l.27-1.37a.44.44 0 0 0-.32-.51L129.69 235a.44.44 0 0 0-.53.28l-.4 1.13a.44.44 0 0 0 .31.57l39.77 10.65a.44.44 0 0 1 .33.44l-.29 9.01a.44.44 0 0 0 .55.44l1.78-.46zm41.42-155.65c5.81-.03 10 2.38 10.59 8.52q.08.78-.67.58l-26.44-7.02q-3.98-.99.1-1.36 7.59-.68 16.42-.72z"/><path d="M151.48 116.88l-14.97.38q-1.29.03-1.23 1.32l.36 7.14a.82.82 0 0 0 .85.78l12.1-.51q-.23 3.99-1.95 6.61-.23.34-.65.34l-8.17-.05q-1.07 0-1.31 1.04l-.12.51a1.06 1.06 0 0 0 1.06 1.29l8.06-.21q.65-.02.47.6l-5.91 20.69-37.64 1.31q-1.88.06-1.67 1.93.81 7.38 1.03 14.69l1.63 39.95a1.82 1.82 0 0 0 2.07 1.72q8.81-1.24 16.89.67l-2.12 7.32q-.16.56-.74.58l-12.25.41a.57.56 88 0 0-.55.6l.05.95q.05.87.92.83l11.56-.51a.18.18 0 0 1 .18.23l-1.76 6a.35.35 0 0 1-.32.25l-9.25.21a.91.91 0 0 0-.88.95l.04.66a.77.77 0 0 0 .81.73l8.02-.44q.89-.05.67.81c-2.22 8.51-5.88 16.42 5.73 19.59q14.31 3.9 26.82 7.09 3.96 1.01-.12 1.22-20.8 1.07-41.69 1.64c-7.86.21-9.47-5.22-9.8-12.19l-5.8-135.62q-.27-5.38.77-7.66 1.94-4.25 7.33-4.5 27.49-1.27 54.98-2.47.57-.02.4.52l-3.9 12.6zm-20.32 11.635a15.84 15.12-.2 0 0-15.893-15.065 15.84 15.12-.2 0 0-15.787 15.175 15.84 15.12-.2 0 0 15.893 15.065 15.84 15.12-.2 0 0 15.787-15.175z"/></g><path d="M194.15 127.262a15.83 15.19-.1 0 1-15.804 15.218 15.83 15.19-.1 0 1-15.856-15.162 15.83 15.19-.1 0 1 15.803-15.218 15.83 15.19-.1 0 1 15.857 15.162zm-9.37-5.912c-2.24-.43-2.13-2.9-5-2.01q-2.8.87-5.39 1.51a1.4 1.4 0 0 0-1.04 1.11l-1.92 10.38a2.26 2.26 0 0 0 1.75 2.62c2.77.58 6.05-.7 8.64-1.38a2.68 2.66-1.6 0 0 1.95-2.05l1.8-9.02a1 .99 11 0 0-.79-1.16zm-53.62 7.165a15.84 15.12-.2 0 1-15.787 15.175 15.84 15.12-.2 0 1-15.893-15.065 15.84 15.12-.2 0 1 15.787-15.175 15.84 15.12-.2 0 1 15.893 15.065zm-15.92 1.055l1.14.18q.55.08.64.63l.34 1.94q.13.69.83.62l6.47-.71a.7.69 84.9 0 0 .62-.75l-.64-8.99a1.96 1.95 84.6 0 0-2.17-1.8q-4.65.54-9.29.91-2.36.19-2.56 1.83a1.65 1.65 0 0 1-1.93 1.43q-2.98-.54-3.03.88-.16 4.76.09 9.35a1.55 1.55 0 0 0 1.77 1.44q3.66-.52 7.58-.42 1.02.03 1.49-.26.84-.5.62-1.6-.11-.58-.69-.68l-1.72-.31q-.56-.1-.8-.61-.5-1.01-.18-2.16a1.27 1.27 0 0 1 1.42-.92z" class="H"/><path d="M89.1 127.24q-12.21-1.35-17.77 8.09c-3.63 6.15-1.42 14.2 3.88 18.49q6.76 5.48 15.31 2.75l.51 8.76-13.1 4.1a1.58 1.57 71.3 0 0-1.01 2.05l8.88 24.12a1.63 1.63 0 0 0 2.12.95q.77-.3 1.39.01.49.25.96-.02 2.11-1.16 2.2-3.5l.42 8.8a.87.87 0 0 1-.83.92l-2.21.11a.64.63 5.4 0 0-.59.48q-.21.83.63.93 1.13.14 2.04 0a1 1 0 0 1 1.15.89q.22 2.27-.44 4.46-.15.5.01 1 .82 2.58.84 3.37.39 14.99 1.18 22.25.16 1.42-.33 3.73-.12.56-.4.06c-.39-.7-.35-1.76-.61-2.39q-4.16-10.52-8-21.17-14.97-41.52-30.21-82.94c-1.76-4.78 1.49-7.97 5.77-9.32q13.48-4.24 26.97-8.71a.53.53 0 0 1 .7.48l.54 11.25z" class="D"/><path d="M151.48 116.88l-2.89 9.11-12.1.51a.82.82 0 0 1-.85-.78l-.36-7.14q-.06-1.29 1.23-1.32l14.97-.38z" class="C"/><path d="M179.78 119.34c2.87-.89 2.76 1.58 5 2.01a1 .99 11 0 1 .79 1.16l-1.8 9.02a2.68 2.66-1.6 0 1-1.95 2.05c-2.59.68-5.87 1.96-8.64 1.38a2.26 2.26 0 0 1-1.75-2.62l1.92-10.38a1.4 1.4 0 0 1 1.04-1.11q2.59-.64 5.39-1.51z" class="B"/><path d="M115.24 129.57a1.27 1.27 0 0 0-1.42.92q-.32 1.15.18 2.16.24.51.8.61l1.72.31q.58.1.69.68.22 1.1-.62 1.6-.47.29-1.49.26-3.92-.1-7.58.42a1.55 1.55 0 0 1-1.77-1.44q-.25-4.59-.09-9.35.05-1.42 3.03-.88a1.65 1.65 0 0 0 1.93-1.43q.2-1.64 2.56-1.83 4.64-.37 9.29-.91a1.96 1.95 84.6 0 1 2.17 1.8l.64 8.99a.7.69 84.9 0 1-.62.75l-6.47.71q-.7.07-.83-.62l-.34-1.94q-.09-.55-.64-.63l-1.14-.18zm7.151-4.925a1.33 1.33 0 0 0-1.422-1.231l-.698.05a1.33 1.33 0 0 0-1.231 1.422l.309 4.309a1.33 1.33 0 0 0 1.422 1.231l.698-.05a1.33 1.33 0 0 0 1.232-1.422l-.309-4.309zm-5.559.462a1.37 1.37 0 0 0-1.341-1.398l-.84-.018a1.37 1.37 0 0 0-1.398 1.341l-.025 1.2a1.37 1.37 0 0 0 1.341 1.398l.84.018a1.37 1.37 0 0 0 1.398-1.341l.025-1.2zm-7.812 8.692l2.01-.15a.74.74 0 0 0 .69-.79l-.03-.42a2.84 1.56 85.8 0 0-1.77-2.72l-.38.03a2.84 1.56 85.8 0 0-1.34 2.95l.03.41a.74.74 0 0 0 .79.69z" class="D"/><g class="H"><rect x="-1.68" y="-3.49" transform="matrix(.997441 -.071497 .071497 .997441 120.87 126.92)" width="3.36" height="6.98" rx="1.33"/><rect x="-1.79" y="-1.97" transform="matrix(.999781 .020942 -.020942 .999781 115.03 125.67)" width="3.58" height="3.94" rx="1.37"/></g><path d="M256.68 148.08l-55.81-14.83a1.1 1.1 0 0 1-.77-1.37l1.93-6.57a1.1 1.1 0 0 1 1.34-.75l55.99 15.02a1.1 1.1 0 0 1 .75 1.41l-2.1 6.38a1.1 1.1 0 0 1-1.33.71z" class="C"/><path d="M89.1 127.24l.13 8.27q-.83-2.34-2.72-1.5-.46.21-.93.05l-1.63-.53q-.59-.19-1 .28l-4.48 5.18a1.48 1.48 0 0 0-.22 1.6l4.63 9.65a1.94 1.93 74.7 0 0 1.9 1.09q3.25-.27 5.1-3.13l.64 8.37q-8.55 2.73-15.31-2.75c-5.3-4.29-7.51-12.34-3.88-18.49q5.56-9.44 17.77-8.09zm19.92 6.56a.74.74 0 0 1-.79-.69l-.03-.41a2.84 1.56 85.8 0 1 1.34-2.95l.38-.03a2.84 1.56 85.8 0 1 1.77 2.72l.03.42a.74.74 0 0 1-.69.79l-2.01.15z" class="H"/><path d="M89.23 135.51l.65 12.69q-1.85 2.86-5.1 3.13a1.94 1.93 74.7 0 1-1.9-1.09l-4.63-9.65a1.48 1.48 0 0 1 .22-1.6l4.48-5.18q.41-.47 1-.28l1.63.53q.47.16.93-.05 1.89-.84 2.72 1.5zm-4.8-.62l-4.3 3.84a.13.13 0 0 0-.01.18l.01.01a2.88 1.68-41.7 0 0 3.27-.66l.19-.18a2.88 1.68-41.7 0 0 1.04-3.17h-.01a.13.13 0 0 0-.19-.02z" class="B"/><path d="M84.43 134.89a.13.13 0 0 1 .19.02h.01a2.88 1.68-41.7 0 1-1.04 3.17l-.19.18a2.88 1.68-41.7 0 1-3.27.66l-.01-.01a.13.13 0 0 1 .01-.18l4.3-3.84z" class="H"/><rect x="-31.95" y="-1.37" transform="matrix(.965926 .258819 -.258819 .965926 228.28 148.45)" width="63.9" height="2.74" rx="1.35" class="C"/><path d="M155.32 145.41l110.15 29.57a1.14 1.14 0 0 1 .8 1.42l-18.15 61.97a1.14 1.14 0 0 1-1.39.78l-110.24-29.5a1.14 1.14 0 0 1-.8-1.42l18.24-62.04a1.14 1.14 0 0 1 1.39-.78zm-15.25 11.4l-17.69 60.27q-8.08-1.91-16.89-.67a1.82 1.82 0 0 1-2.07-1.72l-1.63-39.95q-.22-7.31-1.03-14.69-.21-1.87 1.67-1.93l37.64-1.31zm-49.04 8.52l1.44 27.71q-.09 2.34-2.2 3.5-.47.27-.96.02-.62-.31-1.39-.01a1.63 1.63 0 0 1-2.12-.95l-8.88-24.12a1.58 1.57 71.3 0 1 1.01-2.05l13.1-4.1z" class="B"/><g class="D"><ellipse cx="0" cy="0" transform="matrix(.979223 .202787 -.202787 .979223 56.19 170.89)" rx="2.76" ry="2.55"/><path d="M297.54 175.98l.71.12q2.71.43 0 1.37-1.81.62-2.21 2.54-.5 2.38-1.46-.02-.89-2.23-3.27-2.86a.41.41 0 0 1-.26-.6q.07-.14.11-.28.04-.13.17-.13 2.35 0 3.25-2.08.99-2.28 1.77.08l.39 1.19a1.01 1 84.6 0 0 .8.67zM56.919 195.817a8.68 8.28 6.2 0 1-9.523 7.294 8.68 8.28 6.2 0 1-7.735-9.169 8.68 8.28 6.2 0 1 9.523-7.294 8.68 8.28 6.2 0 1 7.735 9.169zm-2.336-2.273a6.37 6.07-11 0 0-7.411-4.743 6.37 6.07-11 0 0-5.095 7.174 6.37 6.07-11 0 0 7.411 4.743 6.37 6.07-11 0 0 5.095-7.174z"/></g><ellipse cx="0" cy="0" transform="matrix(.981627 -.190809 .190809 .981627 48.33 194.76)" rx="6.37" ry="6.07" class="B"/><path d="M282.62 200.5l2.85-2.48q.46-.4 1.06-.29l.27.05a.35.35 0 0 1 .23.53q-3.88 6.41-7.05 3.18-1.48-1.52.63-1.28.17.02.92.41a.98.97 38.4 0 0 1.09-.12zm24.908 19.203a7.46 7.21 6.1 0 1-8.184 6.376 7.46 7.21 6.1 0 1-6.652-7.962 7.46 7.21 6.1 0 1 8.184-6.376 7.46 7.21 6.1 0 1 6.652 7.962zm-2.381-1.343a5.21 5.03-5.4 0 0-5.66-4.517 5.21 5.03-5.4 0 0-4.714 5.498 5.21 5.03-5.4 0 0 5.66 4.517 5.21 5.03-5.4 0 0 4.714-5.498zM68.37 213.72c.91 2.16 1.42 1.97 3.5 2.7q.5.18.52.72.03 1.26-.2 2.41-.16.84-.74 1.18-.39.23-.91.23a1.21 1.19 25.1 0 0-.76.27q-1.39 1.14-1.77 2.88-.11.5-.57.71-2.05.94-4.16.27a.99.97-81.6 0 1-.69-.94q-.01-3.43-3.55-3.31a.88.88 0 0 1-.92-.88v-2.32q0-.63.61-.79l2.27-.6a.82.79 6.4 0 0 .47-.36l1.94-3.21q.2-.33.55-.49 3.18-1.43 4.41 1.53z" class="D"/><ellipse cx="0" cy="0" transform="matrix(.995562 -.094108 .094108 .995562 299.96 218.85)" rx="5.21" ry="5.03" class="B"/><rect x="-57.34" y="-.99" transform="matrix(.965926 .258819 -.258819 .965926 188.29 237.33)" width="114.68" height="1.98" rx=".92" class="C"/><ellipse cx="0" cy="0" transform="matrix(0 1 -1 0 170.16 227.55)" rx="2.88" ry="1.27" class="M"/><path d="M168.52 237.68q.31-2.3 1.1-2.87 1.38-1.02 1.75.66l.68 3.07a.82.81 1.9 0 0 .59.62l60.5 16.11q1.07.28.91 1.38l-.05.35a.86.86 0 0 1-1.08.72l-59.54-16.02q-1.25-.34-1.78.84-.43.96-1.34 1.51a.68.68 0 0 1-1-.38l-.89-2.85q-.16-.51-.68-.65l-36.07-9.72q-1.06-.29-.72-1.33l.14-.41q.19-.56.76-.4l36.29 9.66a.35.34-79 0 0 .43-.29zm2.69 19.38l-1.78.46a.44.44 0 0 1-.55-.44l.29-9.01a.44.44 0 0 0-.33-.44l-39.77-10.65a.44.44 0 0 1-.31-.57l.4-1.13a.44.44 0 0 1 .53-.28l102.33 27.31a.44.44 0 0 1 .32.51l-.27 1.37a.44.44 0 0 1-.55.34l-59.45-16.11a.44.44 0 0 0-.56.43l.03 7.78a.44.44 0 0 1-.33.43z" class="C"/><path d="M105.43 269.17l31.07-1.37q.98-.05 1.1.25.28.65-.4.86-10.75 3.3-20.99 6.87c-6.2 2.16-9.26-.16-11.23-5.96a.5.5 0 0 1 .45-.65z" class="D"/><g class="M"><rect x="-1.17" y="-4.52" transform="matrix(.999994 -.003491 .003491 .999994 170.21 279.79)" width="2.34" height="9.04" rx="1"/><rect x="169.14" y="289.1" width="2.12" height="8.66" rx=".83"/></g><path fill="#777d8d" d="M170.35 310.43q.58 1.81 2.65 1.84 32.03.52 93.75.11 8.49-.06 11.75 6.75 1.31 2.75 1.28 7.95-.59 105.25-.13 176.05c.05 7.74-5.92 13.01-13.4 13.04q-19.25.07-38.51-.22l-97.49-.19c-16.27 0-36.25.81-50.25.2q-8.73-.39-11.65-7.02-1.38-3.12-1.4-12.08-.37-113.07-.16-169.85.04-9.83 7.25-13.06 3.36-1.5 13.11-1.46 40.05.15 80.1-.31c1.94-.02 3.37-1.36 2.88-3.21q-1.03-3.93-.89-5.71a.63.63 0 0 1 .69-.58l.47.05q.72.07.79.8c.2 2.27-1.37 5.24-.84 6.9zm7.73 6.12q.45 1.23-.51 2.13l-7.1 6.67a.64.64 0 0 1-.89-.02l-6.73-6.73q-.87-.88-.57-2.08l.11-.46a.67.67 0 0 1 1.11-.32l4.44 4.28a.71.71 0 0 0 1.2-.49l.12-4.24q.02-.72-.7-.71-42.86.39-85.92.03c-11.21-.1-13.34 4.81-13.33 15.49q.07 84.25-.12 168.52-.02 7.17 1.48 10.01 2.8 5.33 10.09 5.28l59.98.21q61.5-.17 122.99-.21 6.44 0 9.08-1.35 4.86-2.48 5.16-8.79c.41-8.77-.67-20.25-.59-29.7q.49-53.16.06-106.32l.18-43.12c-.08-7.58-6.67-10.05-13.12-10q-36.92.29-92.83-.08-.48 0-.47.48l.08 4.46a.69.68-22.9 0 0 1.17.47l4.24-4.2a.73.73 0 0 1 1.2.26l.19.53z"/><path d="M178.08 316.55l-.19-.53a.73.73 0 0 0-1.2-.26l-4.24 4.2a.69.68-22.9 0 1-1.17-.47l-.08-4.46q-.01-.48.47-.48 55.91.37 92.83.08c6.45-.05 13.04 2.42 13.12 10l-.18 43.12q.43 53.16-.06 106.32c-.08 9.45 1 20.93.59 29.7q-.3 6.31-5.16 8.79-2.64 1.35-9.08 1.35-61.49.04-122.99.21c-19.99.06-39.98-.34-59.98-.21q-7.29.05-10.09-5.28-1.5-2.84-1.48-10.01.19-84.27.12-168.52c-.01-10.68 2.12-15.59 13.33-15.49q43.06.36 85.92-.03.72-.01.7.71l-.12 4.24a.71.71 0 0 1-1.2.49l-4.44-4.28a.67.67 0 0 0-1.11.32l-.11.46q-.3 1.2.57 2.08l6.73 6.73a.64.64 0 0 0 .89.02l7.1-6.67q.96-.9.51-2.13zm79.1 23.82a7.91 7.91 0 0 0-7.91-7.91H97.17a7.91 7.91 0 0 0-7.91 7.91v11a7.91 7.91 0 0 0 7.91 7.91h152.1a7.91 7.91 0 0 0 7.91-7.91v-11zm-.02 36.49a8.11 8.11 0 0 0-8.11-8.11H97.39a8.11 8.11 0 0 0-8.11 8.11v10.7a8.11 8.11 0 0 0 8.11 8.11h151.66a8.11 8.11 0 0 0 8.11-8.11v-10.7zm0 34.983a7.67 7.67 0 0 0-7.683-7.657l-152.54.266a7.67 7.67 0 0 0-7.657 7.683l.02 11.24a7.67 7.67 0 0 0 7.683 7.657l152.54-.266a7.67 7.67 0 0 0 7.657-7.683l-.02-11.24z" class="D"/><path d="M257.18 351.37a7.91 7.91 0 0 1-7.91 7.91H97.17a7.91 7.91 0 0 1-7.91-7.91v-11a7.91 7.91 0 0 1 7.91-7.91h152.1a7.91 7.91 0 0 1 7.91 7.91v11zm-144.485-6.567a7.45 7.13-6.3 0 0-8.187-6.269 7.45 7.13-6.3 0 0-6.623 7.904 7.45 7.13-6.3 0 0 8.187 6.269 7.45 7.13-6.3 0 0 6.623-7.904zm87.745-1.873a1.46 1.46 0 0 0-1.46-1.46h-77.66a1.46 1.46 0 0 0-1.46 1.46v.02a1.46 1.46 0 0 0 1.46 1.46h77.66a1.46 1.46 0 0 0 1.46-1.46v-.02zm-28.82 5.906a1.32 1.32 0 0 0-1.322-1.318l-47.92.084a1.32 1.32 0 0 0-1.318 1.322v.06a1.32 1.32 0 0 0 1.322 1.318l47.92-.084a1.32 1.32 0 0 0 1.318-1.322v-.06z" class="B"/><path d="M112.695 344.803a7.45 7.13-6.3 0 1-6.623 7.904 7.45 7.13-6.3 0 1-8.187-6.269 7.45 7.13-6.3 0 1 6.623-7.904 7.45 7.13-6.3 0 1 8.187 6.269zm-8.427 4.671a3.96 3.08 105.1 0 0 4.005-3.021 3.96 3.08 105.1 0 0-1.942-4.626 3.96 3.08 105.1 0 0-4.005 3.021 3.96 3.08 105.1 0 0 1.942 4.626z" class="H"/><rect x="119.86" y="341.47" width="80.58" height="2.94" rx="1.46" class="C"/><ellipse cx="0" cy="0" transform="matrix(-.260505 .965473 -.965473 -.260505 105.3 345.65)" rx="3.96" ry="3.08" class="B"/><rect x="-25.28" y="-1.35" transform="matrix(.999998 -.001745 .001745 .999998 146.34 348.91)" width="50.56" height="2.7" rx="1.32" class="C"/><path d="M257.16 387.56a8.11 8.11 0 0 1-8.11 8.11H97.39a8.11 8.11 0 0 1-8.11-8.11v-10.7a8.11 8.11 0 0 1 8.11-8.11h151.66a8.11 8.11 0 0 1 8.11 8.11v10.7zm-143.242-6.091a7.49 7.17-3.3 0 0-7.89-6.727 7.49 7.17-3.3 0 0-7.065 7.589 7.49 7.17-3.3 0 0 7.89 6.727 7.49 7.17-3.3 0 0 7.065-7.589zm87.722-2.258a1.44 1.44 0 0 0-1.437-1.442l-77.7-.136a1.44 1.44 0 0 0-1.442 1.438v.04a1.44 1.44 0 0 0 1.438 1.443l77.7.136a1.44 1.44 0 0 0 1.443-1.437v-.04zm-41.491 5.7a1.29 1.29 0 0 0-1.297-1.283l-35.399.185a1.29 1.29 0 0 0-1.283 1.297l.001.2a1.29 1.29 0 0 0 1.297 1.283l35.399-.185a1.29 1.29 0 0 0 1.283-1.297l-.001-.2z" class="B"/><path d="M113.918 381.469a7.49 7.17-3.3 0 1-7.065 7.589 7.49 7.17-3.3 0 1-7.89-6.727 7.49 7.17-3.3 0 1 7.065-7.589 7.49 7.17-3.3 0 1 7.89 6.727zm-8.672 4.512a3.91 3.04 106.4 0 0 4.02-2.893 3.91 3.04 106.4 0 0-1.812-4.609 3.91 3.04 106.4 0 0-4.02 2.893 3.91 3.04 106.4 0 0 1.812 4.609z" class="H"/><rect x="-40.29" y="-1.46" transform="matrix(.999998 .001745 -.001745 .999998 161.35 379.16)" width="80.58" height="2.92" rx="1.44" class="C"/><ellipse cx="0" cy="0" transform="matrix(-.282341 .959314 -.959314 -.282341 106.35 382.23)" rx="3.91" ry="3.04" class="B"/><rect x="-18.99" y="-1.39" transform="matrix(.999986 -.005236 .005236 .999986 141.16 385.11)" width="37.98" height="2.78" rx="1.29" class="C"/><path d="M257.18 423.084a7.67 7.67 0 0 1-7.657 7.683l-152.54.266a7.67 7.67 0 0 1-7.683-7.657l-.02-11.24a7.67 7.67 0 0 1 7.657-7.683l152.54-.266a7.67 7.67 0 0 1 7.683 7.657l.02 11.24zm-144.156-6.033a7.45 7.19-2.3 0 0-7.733-6.885 7.45 7.19-2.3 0 0-7.156 7.483 7.45 7.19-2.3 0 0 7.733 6.885 7.45 7.19-2.3 0 0 7.156-7.483zm69.566-3.587a1.38 1.38 0 0 0-1.378-1.382l-59.58-.104a1.38 1.38 0 0 0-1.382 1.378v.26a1.38 1.38 0 0 0 1.378 1.382l59.58.104a1.38 1.38 0 0 0 1.382-1.378v-.26zm17.728 5.616a.96.96 0 0 0-.963-.957l-77.839.272a.96.96 0 0 0-.957.963l.002.7a.96.96 0 0 0 .963.957l77.839-.272a.96.96 0 0 0 .957-.963l-.002-.7z" class="B"/><path d="M113.024 417.051a7.45 7.19-2.3 0 1-7.156 7.483 7.45 7.19-2.3 0 1-7.733-6.885 7.45 7.19-2.3 0 1 7.156-7.483 7.45 7.19-2.3 0 1 7.733 6.885zm-8.415 4.482a4 3 103.9 0 0 3.873-3.162 4 3 103.9 0 0-1.951-4.604 4 3 103.9 0 0-3.873 3.162 4 3 103.9 0 0 1.951 4.604z" class="H"/><rect x="-31.17" y="-1.51" transform="matrix(.999998 .001745 -.001745 .999998 151.42 413.54)" width="62.34" height="3.02" rx="1.38" class="C"/><ellipse cx="0" cy="0" transform="matrix(-.240228 .970716 -.970716 -.240228 105.57 417.65)" rx="4" ry="3" class="B"/><rect x="-39.88" y="-1.31" transform="matrix(.999994 -.003491 .003491 .999994 160.44 419.57)" width="79.76" height="2.62" rx=".96" class="C"/><path d="M246 550.69q-.14.01-.25.08-.17.11-.37.11c-8.61-.07-19.42.79-30.47.98q-3.37.06-12.31.41c-15.28.61-30.59.2-45.87.15-18.3-.06-33.58-.92-50.27-1.55q-8.39-.32-15.86-1.21-7.92-.95-15.85-1.78-1.66-.17-5.41-1.57a.36.35 41.9 0 1-.04-.65q.32-.16.29-.56a.57.57 0 0 1 .45-.59c5.32-1.07 10.41-2.25 15.78-2.69 19.98-1.62 36.83-2.73 56.17-2.74 3.14 0 6.64-.46 10.01-.48q21.88-.08 43.75.14c21.29.2 43.96.64 66.87 3.17 6.44.71 9.73.91 14.37 2.61a1.2 1.2 0 0 1 .16 2.18q-2.84 1.53-6.41 1.82c-8.21.68-16.53 1.93-24.74 2.17z" class="D"/></svg>