<svg xmlns="http://www.w3.org/2000/svg" viewBox="0 0 253 236" xmlns:v="https://vecta.io/nano"><style><![CDATA[.B{stroke:#88bbe9}.C{stroke:#0d66b8}.D{stroke:#77ade1}.E{fill:#fff}.F{fill:#1176d3}.G{fill:#afbed3}.H{stroke:#eef2f7}.I{stroke:#609ad3}.J{stroke:#e5eaf1}.K{stroke:#5c8ab8}.L{stroke:#bdc9db}.M{stroke:#84abce}.N{fill:#dde4ee}.O{fill:#09569d}.P{stroke:#739dc6}.Q{stroke:#a3b1c7}.R{stroke:#d4dce9}.S{stroke:#6ea5db}.T{stroke:#d7dfe9}.U{fill:#97a4ba}.V{stroke:#507dac}.W{fill:#cad4e3}]]></style><g fill="none" stroke-width="2"><path vector-effect="non-scaling-stroke" d="M169.81 13q-18.48 32.2-30.1 67.33" class="B"/><path vector-effect="non-scaling-stroke" d="M139.71 80.33q-7.41-2.08-26.19-6.65-1.41-.34-1.46-1.42" class="H"/><path vector-effect="non-scaling-stroke" d="M112.06 72.26c10.7-23.22 26.13-44.36 46.7-59.7q1.31-.98-.32-1.13c-5.42-.48-11.26-.78-16.52 1.35-23.78 9.61-43.96 31.7-57.41 53.53" class="B"/><path vector-effect="non-scaling-stroke" d="M84.51 66.31l-21.36-5.62" class="H"/><path vector-effect="non-scaling-stroke" d="M139.85 81.43q.63 3.2.02 2.96" class="P"/><path vector-effect="non-scaling-stroke" d="M112.06 72.26q-1.44.61-1.73 1.61-.47 1.61.69 1.33" class="D"/><path vector-effect="non-scaling-stroke" d="M109.93 75.81q.99-3.17-2.17-3.51" class="C"/><path vector-effect="non-scaling-stroke" d="M107.76 72.3q-.31-1.29-2.6-.63" class="I"/><path vector-effect="non-scaling-stroke" d="M105.16 71.67q-1.22-.11-1.78-.69" class="C"/><path vector-effect="non-scaling-stroke" d="M103.38 70.98l-16.44-3.95" class="I"/><path vector-effect="non-scaling-stroke" d="M86.94 67.03q-.99.18-2.81-.18" class="C"/><path vector-effect="non-scaling-stroke" d="M84.13 66.85q.2.47.38-.54" class="D"/><path vector-effect="non-scaling-stroke" d="M84.13 66.85l-.06 4.91" class="P"/><path vector-effect="non-scaling-stroke" d="M176.86 15.04c.91 24.3-2.48 49.76-6.85 73.44" class="B"/><path vector-effect="non-scaling-stroke" d="M170.01 88.48l-.51 1.03" class="D"/><path vector-effect="non-scaling-stroke" d="M169.5 89.51q-.8-1.42-3.26-2.05c-8.64-2.23-17.53-4.93-26.39-6.03" class="C"/><path vector-effect="non-scaling-stroke" d="M139.85 81.43q.12-.58-.14-1.1" class="D"/><path vector-effect="non-scaling-stroke" d="M169.5 89.51q-1.97 1.59-2.43 3.29" class="P"/><path vector-effect="non-scaling-stroke" d="M152.61 98.86q-1.67-2.58-3.88-2.68" class="V"/><path vector-effect="non-scaling-stroke" d="M103.38 70.98l-16.44-3.95m18.22 4.64q1.17.63 2.6.63" class="K"/><path vector-effect="non-scaling-stroke" d="M198.57 97l2.49 8.82" class="P"/><path vector-effect="non-scaling-stroke" d="M185.32 17.95q8.21 17.73 11.37 36.3 3.37 19.75 2.01 39.76-.06.87-.46 1.72" class="B"/><path vector-effect="non-scaling-stroke" d="M198.24 95.73c-.67.29-2.81-1.52-4.12-1.85q-9.31-2.32-18.62-4.64-2.72-.68-5.49-.76" class="H"/><path stroke="#b1bccf" vector-effect="non-scaling-stroke" d="M135.37 169.89q-2.54 3.25-7.53-1.26"/><path vector-effect="non-scaling-stroke" d="M127.84 168.63q.66.51 1.32 1.02" class="Q"/><path vector-effect="non-scaling-stroke" d="M197.47 24.26q11.59 12.51 17.69 28.54 8.96 23.5 10.63 49.21" class="B"/><path vector-effect="non-scaling-stroke" d="M225.79 102.01q-.77 1.01-.1 1.69" class="D"/><path vector-effect="non-scaling-stroke" d="M224.49 104.04l.25-1.3q.08-.42-.34-.54-14.03-3.87-23.38-6.05-2.2-.51-2.45.85" class="C"/><path vector-effect="non-scaling-stroke" d="M198.57 97l-.33-1.27" class="D"/><path vector-effect="non-scaling-stroke" d="M222.07 107.11q-2.61 1.1-3.97 3.06" class="V"/><path vector-effect="non-scaling-stroke" d="M48.53 135.74q-.11 5.7 1.31 11.13 1.06 4.05 4.57 10.07 5.96 10.23 11.78 20.45.7 1.22 2.01.7l3.18-1.25q1.13-.45.56-1.52l-1.6-3.02a.24.24 0 0 1 .08-.31l.27-.15q.16-.1.27.06l2.45 3.76a.64.63-24.9 0 0 .73.26l.62-.19q.61-.18.12-.59-2.59-2.14-2.82-5.66" class="L"/><path stroke="#6a95c0" vector-effect="non-scaling-stroke" d="M87.31 170.95c3.93 1.75 3.29 5.39-.32 6.73q-2.98 1.1-5.3 1.98-1.32.49.09.48l7.53-.06a2.19 2.19 0 0 0 1.92-1.17l1.43-2.68a1.42 1.41 3.4 0 1 .76-.67l6.84-2.59q1.07-.4.54.61l-2.07 3.97q-.41.79.44.56 3.38-.91 6.48-2.21c1.68-.71 2.23-3.87 2.92-5.47q.22-.49.73-.68l5.93-2.12a.3.3 0 0 1 .39.38l-.53 1.52q-.82 2.32 1.2.9l1.42-.99"/><path vector-effect="non-scaling-stroke" d="M117.71 169.44q4 5.59 7.62 11.73c1.75 2.97 4.47 2.45 6.77.67 2.21-1.7 1.27-3.55-.14-5.54q-2.29-3.26-4.12-7.67" class="L"/><path vector-effect="non-scaling-stroke" d="M135.71 170.33q-.69.25-.66.48a1.65 1.64 2.2 0 0 1.32 1.42c3.86.73 22.83 3.9 23.06 8.92.27 5.92-15.97 4.96-19.53 4.83a1.9 1.83-57 0 0-.95.22c-5.14 2.79-10.77 1.47-16.23 3.08q-9.06 2.66-15.15 7.07c-2.49 1.79-2.78 5.32-5.29 7.32-3.8 3.01-10.1 5.04-14.72 6.37-7.28 2.1-16.01 2.78-24.12 3.56a.34.34 0 0 1-.3-.54q.09-.11.12-.35" class="R"/><path vector-effect="non-scaling-stroke" d="M63.26 212.71q1.92-.89 3.8-1.97 4.59-2.65 5.74-6.35" class="J"/><path vector-effect="non-scaling-stroke" d="M72.8 204.39q2.99-8.28-.57-13.86" class="S"/><path vector-effect="non-scaling-stroke" d="M72.23 190.53l.66-.19q.33-.1.16-.39-.18-.32.2-.5" class="J"/><path vector-effect="non-scaling-stroke" d="M73.25 189.45l8.39 14.68q1.78 3.12 5.08 1.72l1.1-.47q3.6-1.53 1.61-4.91l-10.1-17.18q-.26-.44-.31-.94-.08-.68.11-1.34.19-.66-.44-.37l-9.07 4.21" class="L"/><path vector-effect="non-scaling-stroke" d="M69.62 184.85q-.51.36-2.09-.97-.38-.32-.87-.31l-2.3.05" class="J"/><path vector-effect="non-scaling-stroke" d="M64.36 183.62q.91-.56-1.54-1.51-3.23-1.27-7.85-.16-.45.11-.62.54-.99 2.46-.6 5.03" class="S"/><path vector-effect="non-scaling-stroke" d="M53.75 187.52q.33.62-.02.88-.29.21-.29-.15l-.02-4.69a.45.45 0 0 0-.37-.44q-.88-.18-2.59 1.06" class="J"/><path vector-effect="non-scaling-stroke" d="M50.46 184.18l-2.88-12.78a1.13 1.13 0 0 0-1.28-.87q-.95.16-2.62-.17" class="R"/><path vector-effect="non-scaling-stroke" d="M246.99 107.48q-7.78-2.62-15.59-4.39-1-.23-2.82-.32-2.03-.11-2.79-.76" class="H"/><path vector-effect="non-scaling-stroke" d="M123.15 158.41q1.36 2.01 1.37 3.62 0 1.33-1.85 2.88-2.86 2.4-4.96 4.53" class="K"/><path vector-effect="non-scaling-stroke" d="M87.95 170.58q-.69.79-.64.37" class="C"/><path vector-effect="non-scaling-stroke" d="M87.31 170.95l-9.07 3.21q-.5.17-.9-.17l-5.28-4.51" class="S"/><path vector-effect="non-scaling-stroke" d="M72.06 169.48l-5.2-6.48" class="I"/><path stroke="#548dc7" vector-effect="non-scaling-stroke" d="M66.86 163q-9.55-18.94-20.76-36.25"/><path vector-effect="non-scaling-stroke" d="M42.2 117.44l-2.31-8.37" class="B"/><path vector-effect="non-scaling-stroke" d="M73.25 189.45l-3.63-4.6" class="T"/><path vector-effect="non-scaling-stroke" d="M66.86 163q-8.75-9.4-14.45-21.27c-1.07-2.24-2.47-4.04-3.88-5.99" class="Q"/><path stroke="#b1bccf" vector-effect="non-scaling-stroke" d="M48.53 135.74l-1.62-3.06"/><path vector-effect="non-scaling-stroke" d="M32.04 102.16l-.4 3.02q-.07.5.22.92 1.57 2.24 2.02 3.14.55 1.1 1.55.66.21-.09.41.02.15.09.23.25.26.55.62.07l.53-.7" class="Q"/><path vector-effect="non-scaling-stroke" d="M37.82 109.56q-.78.82-.17 1.8 2.39 3.81 4.55 6.08" class="T"/><path vector-effect="non-scaling-stroke" d="M42.2 117.44q1.12 4.94 3.9 9.31" class="I"/><path vector-effect="non-scaling-stroke" d="M46.1 126.75l.81 5.93" class="Q"/><path vector-effect="non-scaling-stroke" d="M46.91 132.68q-2.77-.9-5.83 1.81" class="L"/><path vector-effect="non-scaling-stroke" d="M41.08 134.49l-3.68-6.37" class="T"/><path vector-effect="non-scaling-stroke" d="M72.23 190.53q-7.95-2.37-15.52-.83-.56.11-.54.68c.04.92.46 1.46 1.4 1.75 7.13 2.26 11.03 6.3 15.23 12.26m-10.68 8.42q-7.49-7.73-9.14-18.47a.52.51-30.7 0 0-.92-.23q-3.46 4.5-3.83 9.52" class="B"/><path vector-effect="non-scaling-stroke" d="M48.23 203.63q-.8.48-.72 1.36.08.78-.45 1.21-.43.36-.8-.07-2.68-3.12-2.79-7.51" class="J"/><path vector-effect="non-scaling-stroke" d="M43.47 198.62q2.77-3.78 6.58-5.77.43-.23.57-.7.55-1.8-1.36-2.59" class="B"/><path vector-effect="non-scaling-stroke" d="M41.08 134.49q.3 1.05.73 2.74.42 1.6-.67 2.05" class="J"/><path vector-effect="non-scaling-stroke" d="M64.36 183.62q-5.02.85-9.36 4.33-.8.64-1.25-.43" class="B"/><path vector-effect="non-scaling-stroke" d="M50.46 184.18l-2.85 2.78q-.35.34-.09.76l.5.81q.26.42.74.35.98-.14 1.82.28.48.24-.02.42-.49.17-1.3-.02" class="H"/><path vector-effect="non-scaling-stroke" d="M49.26 189.56l-2.07-.35" class="D"/><path vector-effect="non-scaling-stroke" d="M47.19 189.21c-.11-1.5-1-2.24-2.55-1.91-5.24 1.11-6.12 3.5-9.32 7.3-2.94 3.51-1.35 8.1 1.63 11.16q5.02 5.15 12.42 5.37" class="R"/><path vector-effect="non-scaling-stroke" d="M49.37 211.13q6.12 3.47 12.71 2.32a.43.43 0 0 0 .36-.37q.04-.27-.32-.27" class="D"/><path vector-effect="non-scaling-stroke" d="M62.12 212.81q.58-.3 1.14-.1" class="H"/><path vector-effect="non-scaling-stroke" d="M85.14 117.98q6.25 15.6 16.56 28.29 1.37 1.68 3.58 3.66" class="B"/><path vector-effect="non-scaling-stroke" d="M118.46 159.61l-6.9 2.64q-.24.09-.5.03-.16-.05-.32-.04" class="C"/><path vector-effect="non-scaling-stroke" d="M110.74 162.24q-.07-.53-.13-.33c-20.87-12.2-33.63-36.52-39.4-59.52" class="B"/><path vector-effect="non-scaling-stroke" d="M94.22 168.39l-6.27 2.19" class="M"/><path vector-effect="non-scaling-stroke" d="M87.95 170.58q-1.32.14-2.31-.73-28.54-25.01-37.28-62.37" class="B"/><path vector-effect="non-scaling-stroke" d="M100.95 165.86l-6.73 2.53" class="C"/><path vector-effect="non-scaling-stroke" d="M94.22 168.39c-18.9-15.13-34.33-38.25-37.81-62.62" class="B"/><path vector-effect="non-scaling-stroke" d="M120.85 158.49l-2.39 1.12" class="K"/><path vector-effect="non-scaling-stroke" d="M118.46 159.61q-8.31-3.64-13.18-9.68" class="I"/><path vector-effect="non-scaling-stroke" d="M105.28 149.93l-20.14-31.95" class="T"/><path vector-effect="non-scaling-stroke" d="M85.14 117.98q-4.33-7.94-6.59-17.32" class="I"/><path vector-effect="non-scaling-stroke" d="M78.55 100.66c2.86-4.79.54-6.25-3.77-5.84q-1.49.14-2.18-.31" class="K"/><path vector-effect="non-scaling-stroke" d="M110.74 162.24l-9.79 3.62" class="M"/><path vector-effect="non-scaling-stroke" d="M100.95 165.86c-19.84-15.08-31.58-37.9-37.12-61.79" class="B"/><path vector-effect="non-scaling-stroke" d="M78.55 100.66l-7.34 1.73" class="C"/><path vector-effect="non-scaling-stroke" d="M71.21 102.39l-7.38 1.68" class="M"/><path vector-effect="non-scaling-stroke" d="M63.83 104.07q-3.59.09-7.42 1.7" class="C"/><path vector-effect="non-scaling-stroke" d="M56.41 105.77l-8.05 1.71" class="M"/><path vector-effect="non-scaling-stroke" d="M48.36 107.48l-8.47 1.59" class="C"/><path vector-effect="non-scaling-stroke" d="M39.89 109.07q-1.65.2-2.07.49" class="M"/><path vector-effect="non-scaling-stroke" d="M37.82 109.56q-.35-.11-.6-.02" class="K"/><path vector-effect="non-scaling-stroke" d="M37.22 109.54q-.84-.13-1.65-1.34-1.4-2.11-2.41-4.36" class="V"/><path vector-effect="non-scaling-stroke" d="M47.19 189.21q-.43.17-1.02.18-.46 0-.7.41-2.38 4.21-2 8.82m4.76 5.01q-.62 4.98 1.14 7.5" class="S"/><path vector-effect="non-scaling-stroke" d="M45.527 138.029a1.61 1.48 66.7 0 0 .722-2.064 1.61 1.48 66.7 0 0-1.996-.893 1.61 1.48 66.7 0 0-.722 2.064 1.61 1.48 66.7 0 0 1.996.893M72.82 180.24a1.49 1.49 0 0 0-2.98 0 1.49 1.49 0 0 0 2.98 0" class="L"/><path vector-effect="non-scaling-stroke" d="M145.8 188.858a3.07 1.71.7 0 0-3.049-1.747 3.07 1.71.7 0 0-3.091 1.672 3.07 1.71.7 0 0 3.049 1.747 3.07 1.71.7 0 0 3.091-1.672m-31.531 11.482a3.37 1.84 1.7 0 0-3.314-1.939 3.37 1.84 1.7 0 0-3.423 1.739 3.37 1.84 1.7 0 0 3.314 1.939 3.37 1.84 1.7 0 0 3.423-1.739" class="R"/></g><path d="M169.81 13q-18.48 32.2-30.1 67.33-7.41-2.08-26.19-6.65-1.41-.34-1.46-1.42c10.7-23.22 26.13-44.36 46.7-59.7q1.31-.98-.32-1.13c-5.42-.48-11.26-.78-16.52 1.35-23.78 9.61-43.96 31.7-57.41 53.53l-21.36-5.62c12.7-21.55 32.36-38.18 56.44-45.57 7.36-2.26 16.12-3.56 21.91-4.82 1.02-.23 2.97.43 4.34.38 5.79-.21 11.47.2 17.26.42q3.98.15 6.71 1.9z" class="E"/><path d="M112.06 72.26q-1.44.61-1.73 1.61-.47 1.61.69 1.33l-1.09.61q.99-3.17-2.17-3.51-.31-1.29-2.6-.63-1.22-.11-1.78-.69l-16.44-3.95q-.99.18-2.81-.18.2.47.38-.54c13.45-21.83 33.63-43.92 57.41-53.53 5.26-2.13 11.1-1.83 16.52-1.35q1.63.15.32 1.13c-20.57 15.34-36 36.48-46.7 59.7zM169.81 13l7.05 2.04c.91 24.3-2.48 49.76-6.85 73.44l-.51 1.03q-.8-1.42-3.26-2.05c-8.64-2.23-17.53-4.93-26.39-6.03q.12-.58-.14-1.1Q151.33 45.2 169.81 13z" class="F"/><path d="M176.86 15.04q5.06.3 8.46 2.91 8.21 17.73 11.37 36.3 3.37 19.75 2.01 39.76-.06.87-.46 1.72c-.67.29-2.81-1.52-4.12-1.85q-9.31-2.32-18.62-4.64-2.72-.68-5.49-.76c4.37-23.68 7.76-49.14 6.85-73.44z" class="E"/><path d="M185.32 17.95q7.03 2.69 12.15 6.31 11.59 12.51 17.69 28.54 8.96 23.5 10.63 49.21-.77 1.01-.1 1.69-.55-.07-1.2.34l.25-1.3q.08-.42-.34-.54-14.03-3.87-23.38-6.05-2.2-.51-2.45.85l-.33-1.27q.4-.85.46-1.72 1.36-20.01-2.01-39.76-3.16-18.57-11.37-36.3z" class="F"/><path d="M197.47 24.26c3.38 2.43 7.2 3.76 10.78 6.46 23.71 17.88 37.44 43.77 39.7 73.3q.19 2.53-.96 3.46-7.78-2.62-15.59-4.39-1-.23-2.82-.32-2.03-.11-2.79-.76-1.67-25.71-10.63-49.21-6.1-16.03-17.69-28.54z" class="E"/><path d="M63.15 60.69l21.36 5.62q-.18 1.01-.38.54l-.06 4.91-.82-1.44a.72.72 0 0 0-1.28.05c-3.6 7.74-14.55 8.26-17.87-.3q-1.65-4.28-.95-9.38z" class="N"/><path d="M103.38 70.98l-16.44-3.95 16.44 3.95z" class="G"/><path d="M84.13 66.85q1.82.36 2.81.18l16.44 3.95q.56.58 1.78.69 1.17.63 2.6.63 3.16.34 2.17 3.51c-7.86 11.26-22.63 9.88-25.86-4.05l.06-4.91z" class="O"/><path d="M107.76 72.3q-1.43 0-2.6-.63 2.29-.66 2.6.63z" class="G"/><path d="M112.06 72.26q.05 1.08 1.46 1.42 18.78 4.57 26.19 6.65.26.52.14 1.1.63 3.2.02 2.96-1.81-.34-4.21 1.32-3.08 2.13-3.11 2.15c-7.26 3.9-16.54 1.59-19.49-6.54q-1.11-3.07-2.04-6.12-1.16.28-.69-1.33.29-1 1.73-1.61z" class="N"/><path d="M139.85 81.43c8.86 1.1 17.75 3.8 26.39 6.03q2.46.63 3.26 2.05-1.97 1.59-2.43 3.29-5.41 5.15-12.98 4.56-.77-.05-1.16.09-1.03.37-.32 1.41-1.67-2.58-3.88-2.68-6.78-3.86-8.86-11.79.61.24-.02-2.96z" class="O"/><path d="M170.01 88.48q2.77.08 5.49.76 9.31 2.32 18.62 4.64c1.31.33 3.45 2.14 4.12 1.85l.33 1.27 2.49 8.82q-2.6-4.09-2.8-8.07a.97.97 0 0 0-1.78-.48c-1.16 1.76-2.31 3.95-4.19 5.11q-5.24 3.22-11.78 1.92c-7.19-1.44-9.53-6.19-10.5-12.94A.6.6 0 0 0 169 91l-1.93 1.8q.46-1.7 2.43-3.29l.51-1.03z" class="N"/><path d="M120.85 158.49l-2.39 1.12q-8.31-3.64-13.18-9.68l-20.14-31.95q-4.33-7.94-6.59-17.32c2.86-4.79.54-6.25-3.77-5.84q-1.49.14-2.18-.31c.78-2.9 4.02-6.13 6.47-2.28q20.98 33 41.78 66.26z" class="G"/><path d="M72.6 94.51q.69.45 2.18.31c4.31-.41 6.63 1.05 3.77 5.84l-7.34 1.73-7.38 1.68q-3.59.09-7.42 1.7l-8.05 1.71-8.47 1.59q-1.65.2-2.07.49-.35-.11-.6-.02-.84-.13-1.65-1.34-1.4-2.11-2.41-4.36 18.8-4.33 37.59-8.1 1.26-.26 1.85-1.23z" class="O"/><path d="M152.61 98.86q-8.54 34.69-17.51 69.45-.18.71.27 1.58-2.54 3.25-7.53-1.26.66.51 1.32 1.02 2.15-4.89 3.44-10.64 2.92-13.04 7.03-28.38c2.79-10.44 5.11-20.43 7.67-30.66q.21-.84.86-1.79.95-1.37.57-2 2.21.1 3.88 2.68z" class="U"/><path d="M224.49 104.04l-2.42 3.07q-2.61 1.1-3.97 3.06-10.67 4.5-17.04-4.35L198.57 97q.25-1.36 2.45-.85 9.35 2.18 23.38 6.05.42.12.34.54l-.25 1.3z" class="O"/><path d="M32.04 102.16l-.4 3.02q-.07.5.22.92 1.57 2.24 2.02 3.14.55 1.1 1.55.66.21-.09.41.02.15.09.23.25.26.55.62.07l.53-.7q.25-.09.6.02-.78.82-.17 1.8 2.39 3.81 4.55 6.08 1.12 4.94 3.9 9.31l.81 5.93q-2.77-.9-5.83 1.81l-3.68-6.37q-.47-.36-.75-1.18-.29-.84-.54-1.25-5.14-8.61-10.07-17.35c-1.95-3.45-2.89-5.7 1.49-7.58q3.32-1.42 4.51 1.4z" class="G"/><path d="M78.55 100.66q2.26 9.38 6.59 17.32 6.25 15.6 16.56 28.29 1.37 1.68 3.58 3.66 4.87 6.04 13.18 9.68l-6.9 2.64q-.24.09-.5.03-.16-.05-.32-.04-.07-.53-.13-.33c-20.87-12.2-33.63-36.52-39.4-59.52l7.34-1.73z" class="F"/><path d="M225.79 102.01q.76.65 2.79.76 1.82.09 2.82.32 7.81 1.77 15.59 4.39c-3.25 5.4-10 12.04-16.34 8.89-4.22-2.1-5.52-6.88-4.62-11.34q.16-.81-.34-1.33-.67-.68.1-1.69z" class="N"/><path d="M32.04 102.16l1.12 1.68q1.01 2.25 2.41 4.36.81 1.21 1.65 1.34l-.53.7q-.36.48-.62-.07-.08-.16-.23-.25-.2-.11-.41-.02-1 .44-1.55-.66-.45-.9-2.02-3.14-.29-.42-.22-.92l.4-3.02z" class="U"/><path d="M71.21 102.39c5.77 23 18.53 47.32 39.4 59.52q.06-.2.13.33l-9.79 3.62c-19.84-15.08-31.58-37.9-37.12-61.79l7.38-1.68z" class="E"/><path d="M63.83 104.07c5.54 23.89 17.28 46.71 37.12 61.79l-6.73 2.53c-18.9-15.13-34.33-38.25-37.81-62.62q3.83-1.61 7.42-1.7z" class="F"/><path d="M56.41 105.77c3.48 24.37 18.91 47.49 37.81 62.62l-6.27 2.19q-1.32.14-2.31-.73-28.54-25.01-37.28-62.37l8.05-1.71z" class="E"/><path d="M222.07 107.11q-1.54 1.84-3.97 3.06 1.36-1.96 3.97-3.06z" class="U"/><path d="M48.36 107.48q8.74 37.36 37.28 62.37.99.87 2.31.73-.69.79-.64.37l-9.07 3.21q-.5.17-.9-.17l-5.28-4.51-5.2-6.48q-9.55-18.94-20.76-36.25-2.78-4.37-3.9-9.31l-2.31-8.37 8.47-1.59z" class="F"/><path d="M39.89 109.07l2.31 8.37q-2.16-2.27-4.55-6.08-.61-.98.17-1.8.42-.29 2.07-.49zm65.39 40.86q-2.21-1.98-3.58-3.66-10.31-12.69-16.56-28.29l20.14 31.95z" class="E"/><path d="M46.1 126.75Q57.31 144.06 66.86 163q-8.75-9.4-14.45-21.27c-1.07-2.24-2.47-4.04-3.88-5.99l-1.62-3.06-.81-5.93z" class="U"/><path d="M37.4 128.12l3.68 6.37q.3 1.05.73 2.74.42 1.6-.67 2.05-3.47-4.88-3.74-11.16z" class="E"/><path d="M46.91 132.68l1.62 3.06q-.11 5.7 1.31 11.13 1.06 4.05 4.57 10.07 5.96 10.23 11.78 20.45.7 1.22 2.01.7l3.18-1.25q1.13-.45.56-1.52l-1.6-3.02a.24.24 0 0 1 .08-.31l.27-.15q.16-.1.27.06l2.45 3.76a.64.63-24.9 0 0 .73.26l.62-.19q.61-.18.12-.59-2.59-2.14-2.82-5.66l5.28 4.51q.4.34.9.17l9.07-3.21c3.93 1.75 3.29 5.39-.32 6.73q-2.98 1.1-5.3 1.98-1.32.49.09.48l7.53-.06a2.19 2.19 0 0 0 1.92-1.17l1.43-2.68a1.42 1.41 3.4 0 1 .76-.67l6.84-2.59q1.07-.4.54.61l-2.07 3.97q-.41.79.44.56 3.38-.91 6.48-2.21c1.68-.71 2.23-3.87 2.92-5.47q.22-.49.73-.68l5.93-2.12a.3.3 0 0 1 .39.38l-.53 1.52q-.82 2.32 1.2.9l1.42-.99q4 5.59 7.62 11.73c1.75 2.97 4.47 2.45 6.77.67 2.21-1.7 1.27-3.55-.14-5.54q-2.29-3.26-4.12-7.67 4.99 4.51 7.53 1.26.35.28.34.44-.69.25-.66.48a1.65 1.64 2.2 0 0 1.32 1.42c3.86.73 22.83 3.9 23.06 8.92.27 5.92-15.97 4.96-19.53 4.83a1.9 1.83-57 0 0-.95.22c-5.14 2.79-10.77 1.47-16.23 3.08q-9.06 2.66-15.15 7.07c-2.49 1.79-2.78 5.32-5.29 7.32-3.8 3.01-10.1 5.04-14.72 6.37-7.28 2.1-16.01 2.78-24.12 3.56a.34.34 0 0 1-.3-.54q.09-.11.12-.35 1.92-.89 3.8-1.97 4.59-2.65 5.74-6.35 2.99-8.28-.57-13.86l.66-.19q.33-.1.16-.39-.18-.32.2-.5l8.39 14.68q1.78 3.12 5.08 1.72l1.1-.47q3.6-1.53 1.61-4.91l-10.1-17.18q-.26-.44-.31-.94-.08-.68.11-1.34.19-.66-.44-.37l-9.07 4.21q-.51.36-2.09-.97-.38-.32-.87-.31l-2.3.05q.91-.56-1.54-1.51-3.23-1.27-7.85-.16-.45.11-.62.54-.99 2.46-.6 5.03.33.62-.02.88-.29.21-.29-.15l-.02-4.69a.45.45 0 0 0-.37-.44q-.88-.18-2.59 1.06l-2.88-12.78a1.13 1.13 0 0 0-1.28-.87q-.95.16-2.62-.17 3.84.35 3.35-2.34-2.36-13.03-4.57-26.02-.14-.86-1.32-2.72 1.09-.45.67-2.05-.43-1.69-.73-2.74 3.06-2.71 5.83-1.81zm-1.383 5.349a1.61 1.48 66.7 0 0 .722-2.064 1.61 1.48 66.7 0 0-1.996-.893 1.61 1.48 66.7 0 0-.722 2.064 1.61 1.48 66.7 0 0 1.996.893zM72.82 180.24a1.49 1.49 0 0 0-2.98 0 1.49 1.49 0 0 0 2.98 0z" class="W"/><g class="G"><ellipse cx="0" cy="0" transform="matrix(.395546 .918446 -.918446 .395546 44.89 136.55)" rx="1.61" ry="1.48"/><path d="M48.53 135.74c1.41 1.95 2.81 3.75 3.88 5.99q5.7 11.87 14.45 21.27l5.2 6.48q.23 3.52 2.82 5.66.49.41-.12.59l-.62.19a.64.63-24.9 0 1-.73-.26l-2.45-3.76q-.11-.16-.27-.06l-.27.15a.24.24 0 0 0-.08.31l1.6 3.02q.57 1.07-.56 1.52l-3.18 1.25q-1.31.52-2.01-.7-5.82-10.22-11.78-20.45-3.51-6.02-4.57-10.07-1.42-5.43-1.31-11.13z"/></g><path d="M120.85 158.49l2.3-.08q1.36 2.01 1.37 3.62 0 1.33-1.85 2.88-2.86 2.4-4.96 4.53l-1.42.99q-2.02 1.42-1.2-.9l.53-1.52a.3.3 0 0 0-.39-.38l-5.93 2.12q-.51.19-.73.68c-.69 1.6-1.24 4.76-2.92 5.47q-3.1 1.3-6.48 2.21-.85.23-.44-.56l2.07-3.97q.53-1.01-.54-.61l-6.84 2.59a1.42 1.41 3.4 0 0-.76.67l-1.43 2.68a2.19 2.19 0 0 1-1.92 1.17l-7.53.06q-1.41.01-.09-.48 2.32-.88 5.3-1.98c3.61-1.34 4.25-4.98.32-6.73q-.05.42.64-.37l6.27-2.19 6.73-2.53 9.79-3.62q.16-.01.32.04.26.06.5-.03l6.9-2.64 2.39-1.12z" class="O"/><path d="M123.15 158.41c2.32-.23 4.45.78 3.78 3.23-.28 1.04-1.21 1.69-1.89 2.63q-.3.42-.05.87 1.2 2.25 4.17 4.51-.66-.51-1.32-1.02 1.83 4.41 4.12 7.67c1.41 1.99 2.35 3.84.14 5.54-2.3 1.78-5.02 2.3-6.77-.67q-3.62-6.14-7.62-11.73 2.1-2.13 4.96-4.53 1.85-1.55 1.85-2.88-.01-1.61-1.37-3.62z" class="G"/><path d="M43.68 170.36q1.67.33 2.62.17a1.13 1.13 0 0 1 1.28.87l2.88 12.78-2.85 2.78q-.35.34-.09.76l.5.81q.26.42.74.35.98-.14 1.82.28.48.24-.02.42-.49.17-1.3-.02l-2.07-.35c-.11-1.5-1-2.24-2.55-1.91-5.24 1.11-6.12 3.5-9.32 7.3-2.94 3.51-1.35 8.1 1.63 11.16q5.02 5.15 12.42 5.37 6.12 3.47 12.71 2.32a.43.43 0 0 0 .36-.37q.04-.27-.32-.27.58-.3 1.14-.1-.03.24-.12.35a.34.34 0 0 0 .3.54c8.11-.78 16.84-1.46 24.12-3.56 4.62-1.33 10.92-3.36 14.72-6.37 2.51-2 2.8-5.53 5.29-7.32q6.09-4.41 15.15-7.07c5.46-1.61 11.09-.29 16.23-3.08a1.9 1.83-57 0 1 .95-.22c3.56.13 19.8 1.09 19.53-4.83-.23-5.02-19.2-8.19-23.06-8.92a1.65 1.64 2.2 0 1-1.32-1.42q-.03-.23.66-.48 5.49.33 7.91 1.07c9.22 2.81 31.64 7.68 33.17 19.67 1.95 15.26-18.21 17.72-28.29 17.39q-15.9-.52-31.37 2.83c-7.94 1.72-15.22 5.97-23.28 7.95-15.18 3.72-36.19 4.28-50.5-3.26q-10.17-5.36-23.36-13.46c-5.39-3.31-14.28-7.34-9.15-15.28 5.25-8.16 16.41-12.58 25.45-15.44q4-1.27 7.39-1.44zm102.12 18.497a3.07 1.71.7 0 0-3.049-1.747 3.07 1.71.7 0 0-3.091 1.672 3.07 1.71.7 0 0 3.049 1.747 3.07 1.71.7 0 0 3.091-1.672zm-31.531 11.483a3.37 1.84 1.7 0 0-3.314-1.939 3.37 1.84 1.7 0 0-3.423 1.739 3.37 1.84 1.7 0 0 3.314 1.939 3.37 1.84 1.7 0 0 3.423-1.739z" class="N"/><g class="G"><circle cx="71.33" cy="180.24" r="1.49"/><path d="M73.25 189.45l-3.63-4.6 9.07-4.21q.63-.29.44.37-.19.66-.11 1.34.05.5.31.94l10.1 17.18q1.99 3.38-1.61 4.91l-1.1.47q-3.3 1.4-5.08-1.72l-8.39-14.68z"/></g><path d="M64.36 183.62q-5.02.85-9.36 4.33-.8.64-1.25-.43-.39-2.57.6-5.03.17-.43.62-.54 4.62-1.11 7.85.16 2.45.95 1.54 1.51z" class="F"/><path d="M53.75 187.52q.45 1.07 1.25.43 4.34-3.48 9.36-4.33l2.3-.05q.49-.01.87.31 1.58 1.33 2.09.97l3.63 4.6q-.38.18-.2.5.17.29-.16.39l-.66.19q-7.95-2.37-15.52-.83-.56.11-.54.68c.04.92.46 1.46 1.4 1.75 7.13 2.26 11.03 6.3 15.23 12.26q-1.15 3.7-5.74 6.35-1.88 1.08-3.8 1.97-.56-.2-1.14.1-7.49-7.73-9.14-18.47a.52.51-30.7 0 0-.92-.23q-3.46 4.5-3.83 9.52-.8.48-.72 1.36.08.78-.45 1.21-.43.36-.8-.07-2.68-3.12-2.79-7.51 2.77-3.78 6.58-5.77.43-.23.57-.7.55-1.8-1.36-2.59.81.19 1.3.02.5-.18.02-.42-.84-.42-1.82-.28-.48.07-.74-.35l-.5-.81q-.26-.42.09-.76l2.85-2.78q1.71-1.24 2.59-1.06a.45.45 0 0 1 .37.44l.02 4.69q0 .36.29.15.35-.26.02-.88z" class="E"/><g class="W"><path d="M47.19 189.21q-.43.17-1.02.18-.46 0-.7.41-2.38 4.21-2 8.82.11 4.39 2.79 7.51.37.43.8.07.53-.43.45-1.21-.08-.88.72-1.36-.62 4.98 1.14 7.5-7.4-.22-12.42-5.37c-2.98-3.06-4.57-7.65-1.63-11.16 3.2-3.8 4.08-6.19 9.32-7.3 1.55-.33 2.44.41 2.55 1.91z"/><ellipse cx="0" cy="0" transform="matrix(.999925 .012217 -.012217 .999925 142.73 188.82)" rx="3.07" ry="1.71"/></g><path d="M47.19 189.21l2.07.35q1.91.79 1.36 2.59-.14.47-.57.7-3.81 1.99-6.58 5.77-.38-4.61 2-8.82.24-.41.7-.41.59-.01 1.02-.18zm25.04 1.32q3.56 5.58.57 13.86c-4.2-5.96-8.1-10-15.23-12.26-.94-.29-1.36-.83-1.4-1.75q-.02-.57.54-.68 7.57-1.54 15.52.83zm-10.11 22.28q.36 0 .32.27a.43.43 0 0 1-.36.37q-6.59 1.15-12.71-2.32-1.76-2.52-1.14-7.5.37-5.02 3.83-9.52a.52.51-30.7 0 1 .92.23q1.65 10.74 9.14 18.47z" class="F"/><ellipse cx="0" cy="0" transform="matrix(.99956 .029666 -.029666 .99956 110.9 200.24)" rx="3.37" ry="1.84" class="W"/></svg>