<svg xmlns="http://www.w3.org/2000/svg" viewBox="0 0 380 400" xmlns:v="https://vecta.io/nano"><style><![CDATA[.B{stroke-width:2}.C{fill:#7c6063}.D{fill:#dadadb}.E{stroke:#ab9d9f}.F{fill:#d5a567}.G{stroke:#a98365}.H{stroke:#b78e66}.I{fill:#f1bc68}]]></style><g fill="none" class="B"><path vector-effect="non-scaling-stroke" d="M346.51 84.4c-.75 1.72.12 3.21.12 4.65 0 1.84.21 3.15-.5 4.99q-.53 1.34-.8 2.81m-3.26 1.35q2.8-3.45 3.56-6.86.27-1.22-.25-3.62c-.4-1.84.18-4.11-1.36-5.45m-2.58-.79q-3.61 2.82-7 5.94c-2.05 1.9-4.27 2.88-6.65 3.91q-1.06.46-.7 1.56l1.09 3.29a.83.83 0 0 0 1.3.39c3.21-2.57 5.48.15 8.06 1.7m-38.3 35.79c-1.78 2.6.59 7.19 0 10.4q-.22 1.15-.54.03-1.49-5.07-.67-10.22.55-3.53.56-3.6c.6-4.94 1.52-7.73 2.14-11.44q.41-2.46.88-3.36c4.37-8.45 17.08-15.08 25.15-18.32q.24-.1.16-.35l-1.31-3.97q-.09-.27-.35-.17-9.14 3.12-17.48 8.08c-3.2 1.89-5.58 4.76-8.19 7.43q-.38.4-.36.95l.03.78a1.09 1.08-19.3 0 1-.44.91c-6.75 4.9-8.59 14.06-11.61 21.3-.52 1.24-1.33 1.86-2.35 2.66a.74.73-29.7 0 0-.24.85l.44 1.15q.2.52 0 1.05l-1.72 4.72q-.19.5-.15 1.04c.28 3.85-1.54 7.48-1.22 9.77 1.05 7.57-.43 14.71-2.03 22.43q-.15.73.5.37l1.16-.62q.31-.17.51.12.1.14.1.33.01.23-.22.53c-.72.93-1.35 1.47-1.86 2.55q-2.48 5.23-3.78 10.91-.11.48-.46.82c-7.34 6.99-12.46 12.01-20.4 15.52-10.56 4.67-22.58 10.37-35.11 10.71a.39.39 0 0 1-.4-.45l.05-.31q.12-.75.88-.85c4.23-.56 9.07-.59 13.01-2.01 5.5-1.99 10.56-4.47 15.92-6.74 8.19-3.48 16.66-7.78 21.53-15.67q2.44-3.95 4.08-7.79c2.54-5.94 3.21-13.58 3.91-20.17q.12-1.07 1.04-3.2.2-.47.1-.96-.91-4.34-.69-8.78a.85.84 85.5 0 0-1.01-.87c-4.5.89-7.39 3.86-11.55 7.68q-.34.31-.49-.13l-.47-1.41q-.15-.46.2-.8l1.09-1.09m26.05-40.41q.68.52 1.45-.63c2.76-4.09 5.94-7.65 8.87-11.68" class="E"/><path vector-effect="non-scaling-stroke" d="M315.99 55.75q.47.33.97.11a.56.56 0 0 0 .22-.86q-1.05-1.36-3.07-.56m17.05-28.5c-.59 2.91-2.92 7.04-2.19 9.81q.28 1.03-.6 1.03a.87.87 0 0 1-.77-.5c-1.14-2.42-3.74-9.16-6.11-10.22a1.22 1.21-45.3 0 0-1 .01c-6.02 2.85-3.05 12.69-.13 16.41q1.47 1.88-.85 1.33c-3.43-.81-5.71-2.73-9.69-2.47a2.28 2.27 89.4 0 0-2.12 2.17c-.27 6.19 5.42 9.19 10.58 10.11q3.5.62.32 2.21c-1.8.89-6.95 3.76-7.68 6.2a1.04 1.04 0 0 0 .19.96c2.85 3.52 7.23-1.07 10.87.24a.86.86 0 0 1 .2 1.51c-2.66 1.87-9.36 7.34-9.72 10.55-.31 2.71 3.09 4.56 5.29 4.07 4.46-1 7.47-6.41 8.68-10.52a.87.86 14.7 0 1 1.02-.59l.25.06a.6.6 0 0 1 .44.76c-1.35 4.22-2.6 6.7-.59 11.64q1.57 3.85 4.92 2.49c4.13-1.67 4.76-10.5 4.56-14.14q-.04-.69.56-1.05l.26-.16a.4.39 69.1 0 1 .59.27q1.04 5.23 6.01 8.22c3.13 1.89 7.77 1.01 8.05-3.34q.27-4.27-1.18-6.93c-1.73-3.16-2.45-7.33-6.06-8.85a.87.86 7.4 0 1-.52-.67q-.08-.57.5-.88a.79.79 0 0 1 .86.06q4.94 3.73 10.29 2.3c4.97-1.33 1.57-6.69-.71-8.72-2.74-2.44-6.75-4.72-10.98-4.47q-2.15.13-.32-1.02c3.66-2.3 8.94-3.93 11.06-8.26a2.13 2.13 0 0 0-1.07-2.88c-4.38-1.9-11.18 2.48-14.1 5.57q-.69.74-1.27.02-.3-.37-.16-.82c.56-1.78-.02-3.2.29-4.99.5-2.94 1.45-8.85-.95-11.16a1.91 1.9 43.6 0 0-2.71.06l-3.73 3.94q-.08.09-.2.07-.13-.01-.23-.09" class="G"/><g class="E"><path vector-effect="non-scaling-stroke" d="M302.89 132.92q-.23 1.28-2.43 2.24a.69.69 0 0 0-.4.79l.05.27a.29.29 0 0 0 .41.2q10.17-5.1 20.6-1.54 2.4.82 4.19.23m8.73 6.91q-.03.33-.23.35a1.05 1.04 66.1 0 1-.9-.35q-2.82-3.25-6.23-4.22-1.5-.43-.3.56 2.99 2.45 6.27 4.9c2.32 1.75 3.15 4.14 4.58 6.56 2.64 4.46 6.68 7.45 11.06 9.92a.84.84 0 0 1 .07 1.41q-3.48 2.44-2.4 6.93.02.05.07.05.13.01.26.01.42-.01.43-.43.1-3.04 1.74-4.54m-12.97 53.92c-2.53.4-3.68 3.69-4.78 5.61m-16.98 11.37q-.51.18-.54.33m-25.2 1.45q-2.15-.73-3.9-2.34c-2.4-2.21-4.76-3.06-6.74.03-4 6.26-9.27 13.15-15.84 16.88-.99.57-1.74 1.36-2.5 2.16q-.35.38.16.49.26.05.59-.15 11.98-7.24 19.85-20.19m-25.36 24.88l4.1-4.15q.11-.12.03-.23h-.01q-.09-.14-.22-.05l-10.74 7.38m-3.62 1.15q-7.79 1.72-15.29 3.85c-3 .85-8.81.14-13.06.29q-2.61.09-5.12-.57c-2.38-.63-4.1-.44-6.41-.48-2.79-.04-6.06-1.18-9.38-.87-3.95.36-8.54-2.61-12.5-3.58-2.85-.7-4.61-1.96-7-3.38-1.57-.94-3.53.34-4.67-1.5q-.24-.37.2-.3.97.14 1.66.85.25.26.46-.03l.17-.24q.07-.11-.04-.17c-7.44-4.28-12.01-7.21-16.17-13.27a.74.73 45.4 0 0-1.21-.01q-.23.33 0 .93.96 2.5 2.7 4.53.35.4.87.35 1.3-.13 1.76 1.14a1.54 1.43-82 0 0 .44.63c3.98 3.3 7.63 6.72 12.62 8.64 3.92 1.51 7.85 3.75 11.5 4.91q9.42 3.02 19.32 3.76c2.1.16 4.06-.94 6.51-.43q.45.09.6.52l.12.33a.45.44-11.6 0 0 .46.3c5.54-.5 11.34-.32 16.76-1.5 3.67-.8 7.09-1.86 10.86-1.37a.99.99 0 0 1 .85.91q.75 10.24 2.4 20.15c1.4 8.4.78 17.31 1 25.77.16 6.34-.55 12.98-.59 19.54-.03 6.04-1.63 11.5-1.9 17.42-.15 3.13-1.03 7.29-1.27 9.23q-.6 4.73-1.14 9.48-.73 6.34-7.79 7.4a.87.86 79.7 0 1-.97-.68q-.12-.59-.37-1.39-.14-.45-.43-.62-.42-.25-.82-.02-.34.2-.47.82-.22 1.07-.51 2.17-.13.51-.66.55-5.83.42-11.7.2-2.66-.09-2.21-2.78a.53.53 0 0 0-.44-.61l-.34-.05q-.73-.1-.84.63l-.21 1.34q-.1.66-.77.7l-.72.03m-7.74-1.2q-.42-2.27 0-4.78 2.72-16.31-2.74-31.74a.36.35 66.3 0 0-.5-.2l-.26.14q-.56.31-.37.92c3.92 12.8 3.88 23.15 1.14 36.18-.41 1.96-1.26 3.04-3.09 3.66-2.75.95-7.4 2.79-10.23 2.11a1.01 1.01 0 0 1-.66-.52l-1.47-2.76a.49.49 0 0 0-.37-.25q-.21-.02-.44-.03-.6-.02-.65.58l-.2 2.73a.8.79-88 0 1-.78.73l-7.11.13a1.77 1.76 84.5 0 1-1.77-1.47q-.27-1.58-1.3-3.19-.24-.39-.53-.49-.46-.16-.95.11-.45.25-.32.75l.88 3.43a.87.87 0 0 1-.96 1.08l-9.87-1.35a.63.62-17.3 0 1-.37-.19q-1.56-1.64-1.73-2.21-5.88-19.6-.79-39.16a.31.31 0 0 0-.33-.38l-.33.04q-.69.09-.92.76c-3.5 10.43-2.88 21.79-.9 32.7q.26 1.44-1.16 1.82-8.09 2.17-16.91 1.18c-4.66-.52-9.94-.43-14.34-1.58q-1.17-.3-4.66-1.84a.84.82-80.4 0 1-.48-.69q-.25-3.26-.12-4.75 1.13-13.7-.81-27.34a.6.59-3.9 0 0-.59-.51h-.35q-.51 0-.45.5c1.08 9.65.27 18.88.31 28.59q.03 5.27-.54 10.51-.04.34-.5.67m-5.31 1.21q-1.26.25-2.35-.66-.38-.32-.82-.08-3.38 1.89-7.27 1.04-.54-.12-.63-.66l-.42-2.56q-.08-.45-.53-.45H94q-1.98-.01-.36 1.22.98.75 1.17 2.07a.81.81 0 0 1-.84.93l-11.45-.47a1.15 1.14 90 0 1-1.08-1.09q-.18-3.84-2.68-4.69-2.14-.74-1.3 1.36l1.14 2.82q.79 1.96-1.11 1.04l-2.08-1.02m-2.61-2.24l-1.7-3.49q-.27-.58.36-.58h.27a.25.23-16.2 0 1 .2.1l.28.35q.35.45.52-.1c.19-.63.08-1.27-.33-1.84q-2.07-2.92-2.16-6.52-.02-.57-.26-1.18c-1.72-4.27-2.48-13.11-1.57-17.59a.48.48 0 0 1 .77-.27l.68.55q.58.47.56-.28-.12-5.33-.84-10.59c-.45-3.35 1.08-5.53 1.17-8.49q.19-6.89 1.7-13.62.51-2.29.13-4.37a.45.45 0 0 0-.62-.34q-6.85 2.93-14.2 2.39c-3.65-.27-9.69-1.78-12.74-3.12-7.88-3.49-18.69-11.93-21.77-21.09q-.16-.47.04-.94.9-2.12.88-4.43"/><path vector-effect="non-scaling-stroke" d="M35.02 294.11q1.46 3.95 3.74 4.86 3.25 1.3 10.64 3.64 7.22 2.3 10.94 2.2 8.18-.22 15.18-6.46m13.61-22.78q2.52-3.1 5.14-5.97c3.9-4.27 9.13-7.14 14.07-10.37a1.43 1.43 0 0 0 .64-1.07q.15-1.5-1.33-1.27-.35.05-.74.35-.76.6-.89.16m1.88-2.03q10.52 3.06 21.61 1.9 3.64-.38 6.24-2.83.37-.34.85-.47 5.97-1.65 10.43-5.74c2.31-2.12 4.24-5.88 7.43-8.31a.5.5 0 0 0 .08-.71l-.17-.21q-.16-.21-.35-.04c-1.64 1.43-3.19 2.08-4.5 3.9q-3.49 4.84-8.46 8.24-.4.27-.89.21c-1.52-.19-3.62 1.57-5.02 2.35a.92.91 67.6 0 1-1.33-.56q-.49-1.79-.39-3.61.24-4.05-.87-.15-.6 2.11-.42 4.47.1 1.27-1.16 1.41l-.51.06q-1.21.13-1.01-1.07l1.14-7.02q.11-.64-.5-.88l-.29-.11a.56.55-71.3 0 0-.73.37l-2.53 9.11q-.08.31-.4.39l-.25.05q-.46.1-.52-.36-.59-4.2.33-8.28.09-.41-.33-.42h-.39a.26.26 0 0 0-.27.24q-.24 2.34-1.31 4.39a.37.37 0 0 1-.63.05l-.29-.4a1.61 1.58 36.8 0 1-.22-1.44l1.02-2.95a.35.34-79.3 0 0-.31-.46l-.45-.02a.83.82 7.5 0 0-.84.64l-1.58 6.89q-.4 1.77-2.2 1.59c-2.63-.25-6.76.14-7.75-3.15a.17.16-51.3 0 0-.32.04q-.01.14-.05.26-.26.75-.5.9-.56.35-1.19-.08-.33-.23-.74-.28-1.19-.16-1.91-.98-.26-.31-.26-.71l-.01-2.57a.241.241 0 0 0-.48-.04l-.37 2.05a.68.67-77.1 0 1-.83.53q-1.41-.36-2.56-1.79-2.54-3.17-5.97-5.29a2.83 2.83 0 0 1-1.28-2.98l1.25-6.11q.01-.03-.03-.05l-.28-.08q-.2-.06-.25.14l-1.46 4.77a.53.52 32.7 0 1-.89.19q-2.66-2.96-3.28-6.72-.65-4.01-.72-5.69-.12-3.23 2.2-5.83.37-.41.06-.86l-.46-.66q-.64-.92-.87.18l-1.92 8.92a.22.21-70.3 0 1-.31.15l-.28-.13q-.62-.32-.69-1.02l-.13-1.3q-.05-.58-.54-.25-1.88 1.26-.6 3.37 1.77 2.92 5.18 9.56m-8.69-15.46q1.01.49 1.52 1.02 1.56 1.63 1.08-.58c-.45-2.06 1.64-3.47-.67-5.82q-.41-.41.12-.64c2.46-1.08 2.42-5.04 2.74-7.33q.18-1.31-.94-1.94a.71.7 32.6 0 0-.93.2c-.86 1.19-.01 2.6.17 3.86q.08.62-.43.99-1.23.9-1.56 2.39a.38.37-45.7 0 1-.73.01c-1.06-4.42-2.96-7.99-3.12-12.71q-.02-.49-.25-.92L72 192.24c-.48-.87-1.52-1.69-2-2.68q-.22-.46-.03-.94 3.02-7.43 7.49-14.06c.97-1.43 1.48-3.19 2.46-4.7 3.66-5.6 5.06-9.58 10.7-13.47q3.89-2.68 8.04-5.01.46-.26.96-.07 1.33.5 2.6-.09.46-.21.97-.19 6.72.37 10.81 1.47c2.21.6 4.32 2.31 6.78 2.97 5.42 1.44 11.18 3.1 16.16 5.69 4.61 2.39 8.58 7.09 13.13 10.35a1.78 1.78 0 0 0 2.74-.95c.88-3.06 3.41-6.72 6.39-8.51q.08-.04.13.03.09.14.18.28a.19.17 49.7 0 1-.01.22q-1.41 1.68-1.73 2.25-1.76 3.14.71.53c2.52-2.65 4.27-6.13 6.96-8.57q7.46-6.78 16.85-12.18 1.7-.98 3.09-1.34.61-.15.7-.77l.12-.78q.07-.49.49-.75l5.74-3.51m27.06-3.04q1.04.59 1.3 1.35.2.56-.39.63-6.08.64-10.66.29-10.32-.81-19.47 3.18a.66.66 0 0 0-.32.92l.13.24a.28.28 0 0 0 .34.14c9.57-3.23 18.13-3.36 28.83-3.14q1.87.04 5.69.77.53.1.49.63-.16 2.22-.45 4.42-.07.5.09.79.21.38.65.53a.62.61-71.7 0 0 .79-.4q.73-2.33.35-4.76a.4.39 8.8 0 1 .57-.41l.44.21a1.24 1.24 0 0 1 .67 1.12l-.07 3.78a.53.52-89.5 0 0 .52.54l.42-.01q.54 0 .58-.54l.32-3.99q.04-.51.56-.55c3.54-.23 8.19 2.6 11.31 4.32a1.48 1.48 0 0 0 .98.17q1.49-.25 2.19.94.3.5.86.7 6.5 2.29 11.63 6.79c1.9 1.67 3.45 4.47 6.11 6.35a.65.65 0 0 0 1.02-.5l.02-.37q.05-.88-.71-1.33-2.27-1.38-3.28-2.91m81.48-1.3q2.46 3.71 6.1 5.26M79.34 218.8q-1.4-6.54-2.73-12.82-.79-3.67-2.79-6.87m-4.32-12.56q1.17-2.45 2.27-4.73c2.05-4.25 4.99-7.39 6.54-12.2q.62-1.92 1.92-3.42 2-2.31 3.58-4.93c1.36-2.28 3.08-3.55 5.03-5.12 2.58-2.08 6.32-3.31 9.07-6.13m8.3-1.25c2.51 2 5.79 1.83 8.29 2.79q10.09 3.87 20.28 7.43 3.34 1.17 6.03 3.46 4.21 3.59 8.79 6.69 1.05.7 1.15-.09"/></g><path vector-effect="non-scaling-stroke" d="M222.18 105.89q.3 2.29-2.65 2.44a.99.99 0 0 0-.73.37l-6.14 7.81q-.31.4-.02.8c1.36 1.94 1.84 5.35 4.09 6.22q.5.19.49.72-.01 2.74.88 5.33a.53.53 0 0 0 .89.19q.57-.59 1.26-.13.41.28.39.76-.07 2.06.24 2.97.23.68.9.61.47-.04.59.41.51 1.87 2.46 2.23a.44.44 0 0 0 .47-.65q-.64-1.14-.6-2.1.03-.78.43-.11l2.21 3.7q.31.52.9.64l3.19.67a.58.57-70.7 0 0 .63-.31q.3-.6-.27-1.22-.38-.42-.23-1.01a.33.33 0 0 1 .59-.1l1.27 1.79q.34.47.89.28l6.77-2.4q.86-.3.16-.89l-3.08-2.6q-.29-.25.07-.39.84-.34 1.37.25 1.02 1.15 2.24 2.15.39.32.86.15 2.03-.75 2.22-2.83.05-.47.48-.65c3.49-1.51 3.32-6.24 3.44-9.91q.02-.69-.49-.24-1.54 1.35-3.48 2.1-.49.19-.63.7c-1.79 6.39-10.8 6.53-12.2 0-.68-3.19 1.19-5.11-.02-8.05q-1.1-2.64-1.55-5.46-.27-1.63-1.86-2.12-1.6-.49-4.16-1.18-1.09-.3-.7-1.07" class="H"/><path vector-effect="non-scaling-stroke" d="M232.4 110.83q-.73 3.01 1.38 3.86" class="G"/><path vector-effect="non-scaling-stroke" d="M237.07 120.07q1.52 1.61 4.31 1.59c1.54-.01 2.64-.87 4.19-1.3q.47-.12.78-.49 1.5-1.72 1.69-2.36.77-2.62.83-5.13" class="H"/><path vector-effect="non-scaling-stroke" d="M250.99 116.87q-.63 5.2-1.14 10.11c-.34 3.22-2.41 4.32-3.39 7.31" class="G"/><path vector-effect="non-scaling-stroke" d="M238.49 139.07q-1.35-.44-2.03.18-.41.38.08.65 5.71 3.14 12.25 4.52m2.64 1.74q-.2 1.34 1.66 1.13M63.12 302.43q1.16.93 2.93-.66m176.54-36.68q-.83 3.86.71 5.62m-1.39 91.25q-.58 1.88-.28 4.14m-124.15 7.62q-.12-.45-.25-.37-1.35.81-1.01 2.85" class="E"/><g class="G"><path vector-effect="non-scaling-stroke" d="M338.22 46.62c-.53-5.16-4.91-7.7-9.29-4.93-5.2 3.28-6.34 20.9.88 22.63 2.11.5 3.85-.54 5.13-2.14 3.43-4.31 3.83-10.31 3.28-15.56"/><path vector-effect="non-scaling-stroke" d="M327.09 52.01c-1.71 3.62-.96 9.58 3.38 11.33q.47.19.96.01c7.03-2.67 7.64-22.46 1.18-21.75-4.47.49-6.44 5.66-5.43 9.52q.12.46-.09.89"/><path vector-effect="non-scaling-stroke" d="M334.267 44.695a.55.55 0 0 0-.062-.775l-.046-.039a.55.55 0 0 0-.775.062l-5.211 6.123a.55.55 0 0 0 .062.775l.046.039a.55.55 0 0 0 .775-.062l5.211-6.123"/></g><path vector-effect="non-scaling-stroke" d="M338.69 87.51l-.08 4.94a.13.13 0 0 0 .13.13h.07a2.46 1.22-89.1 0 0 1.26-2.44v-.28a2.46 1.22-89.1 0 0-1.18-2.48h-.07a.13.13 0 0 0-.13.13m-100.53 156.1c15.25-2.44 29.24-11.51 40.63-21.56q4.57-4.04 6.85-9.08c3.35-7.44 8.2-13.4 9.63-21.72q1.41-8.23 3.55-16.3c2.44-9.2 1.56-16.49-.01-26.76q-.01-.05-.07-.06-.15 0-.29-.03-.25-.06-.28.2-.26 2.61-.1 3.46c1.9 10.48 1.82 21.51-2.63 31.16q-.81 1.77-1.07 4.49-.51 5.23-2.77 11.12c-1.05 2.72-3.04 5.48-4.39 8.36q-.23.49-.74.67l-1.42.5q-.45.15-.65.59-2.33 5.19-6.17 8.58-6 5.28-10.25 10.48c-1.15 1.4-2.32 2.3-3.76 3.23-7.92 5.12-16.42 9.55-25.81 11.22q-.62.11-.68.74l-.03.28q-.05.51.46.43m98.71-32.24q4.99-12.9 5.64-24.45.11-1.83 1.04-3.82c1.66-3.56 1.44-6.74 2.38-10.42q.06-.25-.18-.31l-.28-.08q-.24-.07-.33.17-1.53 4.07-1.97 8.29c-.19 1.86-1.4 2.95-1.35 4.98q.13 5.16-1.56 9.97-.77 2.2-.96 4.21c-.35 3.86-1.87 6.23-3.13 9.43-1.18 3.01-2.32 4.49-4.51 6.59q-.34.32-.14.77a.59.58-25.5 0 0 .8.28q2.97-1.52 4.55-5.61m-85.605-11.316a2.44 1.91 118 0 0 2.832-1.258 2.44 1.91 118 0 0-.541-3.051 2.44 1.91 118 0 0-2.832 1.258 2.44 1.91 118 0 0 .541 3.051m-67.104 12.468a3.08 2.64-29.1 0 0-3.975-.809 3.08 2.64-29.1 0 0-1.407 3.805 3.08 2.64-29.1 0 0 3.975.809 3.08 2.64-29.1 0 0 1.407-3.805M98.67 241.69a.27.27 0 0 0-.45-.01q-.33.53-.01 1.15a.33.33 0 0 0 .61-.04q.19-.54-.15-1.1m133.58 38.56c7.64 3.78 7.32-9.36 7.05-12.93a.75.74-80.4 0 0-.45-.64c-3.25-1.44-9.27 3.52-12.24 5.21a1.23 1.2-51.7 0 1-.92.12q-2-.51-3.66-1.74c-2.83-2.11-10.93-3.97-10.61 2.15q.26 4.94.77 9.92a1.06 1.06 0 0 0 1.49.86q1.35-.6 2.58-1.71 3.63-3.26 7.92-5.01a1.91 1.91 0 0 1 1.77.17q2.97 1.95 6.3 3.6m-110.082 90.885a1.13.5 132.4 0 0 1.131-.497 1.13.5 132.4 0 0 .393-1.172 1.13.5 132.4 0 0-1.131.497 1.13.5 132.4 0 0-.393 1.172M73.94 373.42q-.12.33-.1.71.05.64.46.15.73-.88.83-2.05a.29.29 0 0 0-.54-.16l-.25.47q-.19.34-.4.88" class="E"/><path vector-effect="non-scaling-stroke" d="M241.41 123.53c-3.36-.21-4.53-1.26-6.48-3.86q-.5-.66-.82.1-.22.51.31 1.55.81 1.6.88 2.6a2.16 2.15 82.8 0 0 2.53 1.97q1.04-.19 2.15.07.79.18 1.21-.52l.65-1.1q.45-.75-.43-.81m-21.67-7.08q-.24-.13-.4-.32-.69-.8-.74.25-.08 1.57.69 2.08c1.22.8 2.71-.79 3.38-1.76q1-1.45-.72-1.07-.46.1-1.13.69a.96.95 37.8 0 1-1.08.13m17.69 19.28q.74-1.36-.7-1.72a.55.55 0 0 0-.68.53q.01.8.61 1.33.48.42.77-.14" class="H"/><path vector-effect="non-scaling-stroke" d="M277.1 220.82q1.02-.37 1.33-1.3a.11.11 0 0 0-.17-.12l-3.68 2.78a.381.381 0 0 0 .43.63q.88-.54 1.43-1.45.24-.38.66-.54m-153.499 35.23a1.57 1.38 11 0 0-1.278-1.654 1.57 1.38 11 0 0-1.805 1.055 1.57 1.38 11 0 0 1.278 1.654 1.57 1.38 11 0 0 1.805-1.055m-55.447 81.689a1.58.61 88.4 0 0 .566-1.596 1.58.61 88.4 0 0-.654-1.562 1.58.61 88.4 0 0-.566 1.596 1.58.61 88.4 0 0 .654 1.562" class="E"/></g><path d="M346.51 84.4c-.75 1.72.12 3.21.12 4.65 0 1.84.21 3.15-.5 4.99q-.53 1.34-.8 2.81-1.19 2.25-3.26 1.35 2.8-3.45 3.56-6.86.27-1.22-.25-3.62c-.4-1.84.18-4.11-1.36-5.45l-.62-1.34q-.22-.48-.74-.5-1.29-.06-1.22 1.05-3.61 2.82-7 5.94c-2.05 1.9-4.27 2.88-6.65 3.91q-1.06.46-.7 1.56l1.09 3.29a.83.83 0 0 0 1.3.39c3.21-2.57 5.48.15 8.06 1.7q.08 1.25 2.02 1.02.58-.08.31.45-.55 1.04-1.89.53c-3.31-1.25-4.25-4.34-8.61-2.56a.49.47 69 0 0-.26.61q1.79 4.63 4.23 8.92c2.81 4.95 4.22 7.94 2.98 13.08-1.66 6.91-7.78 5.41-10.21.32q-2.66-5.57-.05-10.87c.76-1.53 2.08-2.36 3.61-1.19a.36.36 0 0 1-.18.64c-.99.09-1.65.68-1.79 1.73-.57 4.35-1.21 8.49 2.2 11.9a2.41 2.4-37.9 0 0 2.93.36c3.48-2.09 1.66-10.1.24-13.01q-2.75-5.63-5.64-11.2-.23-.44-.68-.25-5.49 2.33-9.84 6.43a1.69 1.65-70.6 0 1-.89.44q-1.51.25-2.03.56c-7.96 4.66-11.84 13.14-13.71 22.58-.36 1.8-2.63 2.91-1.04 5.3-1.78 2.6.59 7.19 0 10.4q-.22 1.15-.54.03-1.49-5.07-.67-10.22.55-3.53.56-3.6c.6-4.94 1.52-7.73 2.14-11.44q.41-2.46.88-3.36c4.37-8.45 17.08-15.08 25.15-18.32q.24-.1.16-.35l-1.31-3.97q-.09-.27-.35-.17-9.14 3.12-17.48 8.08c-3.2 1.89-5.58 4.76-8.19 7.43q-.38.4-.36.95l.03.78a1.09 1.08-19.3 0 1-.44.91c-6.75 4.9-8.59 14.06-11.61 21.3-.52 1.24-1.33 1.86-2.35 2.66a.74.73-29.7 0 0-.24.85l.44 1.15q.2.52 0 1.05l-1.72 4.72q-.19.5-.15 1.04c.28 3.85-1.54 7.48-1.22 9.77 1.05 7.57-.43 14.71-2.03 22.43q-.15.73.5.37l1.16-.62q.31-.17.51.12.1.14.1.33.01.23-.22.53c-.72.93-1.35 1.47-1.86 2.55q-2.48 5.23-3.78 10.91-.11.48-.46.82c-7.34 6.99-12.46 12.01-20.4 15.52-10.56 4.67-22.58 10.37-35.11 10.71a.39.39 0 0 1-.4-.45l.05-.31q.12-.75.88-.85c4.23-.56 9.07-.59 13.01-2.01 5.5-1.99 10.56-4.47 15.92-6.74 8.19-3.48 16.66-7.78 21.53-15.67q2.44-3.95 4.08-7.79c2.54-5.94 3.21-13.58 3.91-20.17q.12-1.07 1.04-3.2.2-.47.1-.96-.91-4.34-.69-8.78a.85.84 85.5 0 0-1.01-.87c-4.5.89-7.39 3.86-11.55 7.68q-.34.31-.49-.13l-.47-1.41q-.15-.46.2-.8l1.09-1.09q5.36-3.34 11-6.51 1.89-1.05 2.14-3.61.06-.53.59-.53.57 0 .96-.28.43-.31.43-.83-.01-.73-.69-1.09a.81.8 15.3 0 1-.44-.76c.21-3.45 2.37-5.52 3.34-8.25q3.47-9.73 8.72-18.55.68.52 1.45-.63c2.76-4.09 5.94-7.65 8.87-11.68l20.62-9.68q.48-.23.35-.74-1.48-5.74-1.53-11.7a.74.74 0 0 0-1.14-.62c-3.4 2.19-8.56 4.7-10.93-.51-1.75-3.85 4.13-9.63 6.83-11.54q2.11-1.5-.4-.87-1 .25-1.95.61-.51.2-1.02.01c-2.12-.77-6.39-1.32-4.83-4.78q1.74-3.87 5.78-5.13.29-.1.26-.45.47.33.97.11a.56.56 0 0 0 .22-.86q-1.05-1.36-3.07-.56c-3.62-2.21-6.95-4.82-7.8-8.64-1.58-7.05 6.41-5.49 10.09-4.87q.68.11.47-.55c-1.81-5.6-2.41-12.86 3.87-15.48a1.65 1.64-40.7 0 1 1.5.11q3.27 2.02 3.95 5.76.37 2.01 1.73.48c1.34-1.5.86-3.56 3.24-5.31-.59 2.91-2.92 7.04-2.19 9.81q.28 1.03-.6 1.03a.87.87 0 0 1-.77-.5c-1.14-2.42-3.74-9.16-6.11-10.22a1.22 1.21-45.3 0 0-1 .01c-6.02 2.85-3.05 12.69-.13 16.41q1.47 1.88-.85 1.33c-3.43-.81-5.71-2.73-9.69-2.47a2.28 2.27 89.4 0 0-2.12 2.17c-.27 6.19 5.42 9.19 10.58 10.11q3.5.62.32 2.21c-1.8.89-6.95 3.76-7.68 6.2a1.04 1.04 0 0 0 .19.96c2.85 3.52 7.23-1.07 10.87.24a.86.86 0 0 1 .2 1.51c-2.66 1.87-9.36 7.34-9.72 10.55-.31 2.71 3.09 4.56 5.29 4.07 4.46-1 7.47-6.41 8.68-10.52a.87.86 14.7 0 1 1.02-.59l.25.06a.6.6 0 0 1 .44.76c-1.35 4.22-2.6 6.7-.59 11.64q1.57 3.85 4.92 2.49c4.13-1.67 4.76-10.5 4.56-14.14q-.04-.69.56-1.05l.26-.16a.4.39 69.1 0 1 .59.27q1.04 5.23 6.01 8.22c3.13 1.89 7.77 1.01 8.05-3.34q.27-4.27-1.18-6.93c-1.73-3.16-2.45-7.33-6.06-8.85a.87.86 7.4 0 1-.52-.67q-.08-.57.5-.88a.79.79 0 0 1 .86.06q4.94 3.73 10.29 2.3c4.97-1.33 1.57-6.69-.71-8.72-2.74-2.44-6.75-4.72-10.98-4.47q-2.15.13-.32-1.02c3.66-2.3 8.94-3.93 11.06-8.26a2.13 2.13 0 0 0-1.07-2.88c-4.38-1.9-11.18 2.48-14.1 5.57q-.69.74-1.27.02-.3-.37-.16-.82c.56-1.78-.02-3.2.29-4.99.5-2.94 1.45-8.85-.95-11.16a1.91 1.9 43.6 0 0-2.71.06l-3.73 3.94q-.08.09-.2.07-.13-.01-.23-.09.87-2.96 3.45-4.75c3.75-2.59 6.44 1.76 6.46 4.97q.02 4.28-.91 8.13a1.14 1.14 0 0 0 1.66 1.27c2.75-1.5 7.66-4.32 10.74-4.09q2.28.18 3.27 1.24c4.45 4.77-4.29 9.05-7.15 10.54q-1.89.98.16 1.57c5.8 1.66 11.61 3.6 11.53 10.85-.04 3.83-5.63 5.22-8.38 4.47a.98.98 0 0 0-1.07 1.48c2.54 3.86 4.34 10.52 1.88 14.67-3.55 6.02-10.91 1.97-13.83-2.44a.4.4 0 0 0-.7.06c-1.64 3.81-.78 7.26-4.36 10.3-4.64 3.94-6.27.03-8.71-3.19q-.5-.65-.39.16l1.28 9.43a.44.44 0 0 0 .64.33q7.07-3.62 12.92-9.19c3.6-3.43 5.23.96 6.71 3.31z" class="C"/><path d="M331.16 25.94q-.33.19.15-.66.1.08.23.09.12.02.2-.07l3.73-3.94a1.91 1.9 43.6 0 1 2.71-.06c2.4 2.31 1.45 8.22.95 11.16-.31 1.79.27 3.21-.29 4.99q-.14.45.16.82.58.72 1.27-.02c2.92-3.09 9.72-7.47 14.1-5.57a2.13 2.13 0 0 1 1.07 2.88c-2.12 4.33-7.4 5.96-11.06 8.26q-1.83 1.15.32 1.02c4.23-.25 8.24 2.03 10.98 4.47 2.28 2.03 5.68 7.39.71 8.72q-5.35 1.43-10.29-2.3a.79.79 0 0 0-.86-.06q-.58.31-.5.88a.87.86 7.4 0 0 .52.67c3.61 1.52 4.33 5.69 6.06 8.85q1.45 2.66 1.18 6.93c-.28 4.35-4.92 5.23-8.05 3.34q-4.97-2.99-6.01-8.22a.4.39 69.1 0 0-.59-.27l-.26.16q-.6.36-.56 1.05c.2 3.64-.43 12.47-4.56 14.14q-3.35 1.36-4.92-2.49c-2.01-4.94-.76-7.42.59-11.64a.6.6 0 0 0-.44-.76l-.25-.06a.87.86 14.7 0 0-1.02.59c-1.21 4.11-4.22 9.52-8.68 10.52-2.2.49-5.6-1.36-5.29-4.07.36-3.21 7.06-8.68 9.72-10.55a.86.86 0 0 0-.2-1.51c-3.64-1.31-8.02 3.28-10.87-.24a1.04 1.04 0 0 1-.19-.96c.73-2.44 5.88-5.31 7.68-6.2q3.18-1.59-.32-2.21c-5.16-.92-10.85-3.92-10.58-10.11a2.28 2.27 89.4 0 1 2.12-2.17c3.98-.26 6.26 1.66 9.69 2.47q2.32.55.85-1.33c-2.92-3.72-5.89-13.56.13-16.41a1.22 1.21-45.3 0 1 1-.01c2.37 1.06 4.97 7.8 6.11 10.22a.87.87 0 0 0 .77.5q.88 0 .6-1.03c-.73-2.77 1.6-6.9 2.19-9.81zm7.06 20.68c-.53-5.16-4.91-7.7-9.29-4.93-5.2 3.28-6.34 20.9.88 22.63 2.11.5 3.85-.54 5.13-2.14 3.43-4.31 3.83-10.31 3.28-15.56z" class="F"/><path d="M338.22 46.62c.55 5.25.15 11.25-3.28 15.56-1.28 1.6-3.02 2.64-5.13 2.14-7.22-1.73-6.08-19.35-.88-22.63 4.38-2.77 8.76-.23 9.29 4.93zm-11.13 5.39c-1.71 3.62-.96 9.58 3.38 11.33q.47.19.96.01c7.03-2.67 7.64-22.46 1.18-21.75-4.47.49-6.44 5.66-5.43 9.52q.12.46-.09.89z" class="C"/><path d="M327.18 51.12c-1.01-3.86.96-9.03 5.43-9.52 6.46-.71 5.85 19.08-1.18 21.75q-.49.18-.96-.01c-4.34-1.75-5.09-7.71-3.38-11.33q.21-.43.09-.89zm7.087-6.425a.55.55 0 0 0-.062-.775l-.046-.039a.55.55 0 0 0-.775.062l-5.211 6.123a.55.55 0 0 0 .062.775l.046.039a.55.55 0 0 0 .775-.062l5.211-6.123z" class="F"/><rect x="-.58" y="-4.57" transform="matrix(.761538 .64812 -.64812 .761538 331.22 47.38)" width="1.16" height="9.14" rx=".55" class="C"/><path d="M315.99 55.75l-1.88-1.31q2.02-.8 3.07.56a.56.56 0 0 1-.22.86q-.5.22-.97-.11z" class="F"/><path d="M341.44 81.48l2.58.79c1.54 1.34.96 3.61 1.36 5.45q.52 2.4.25 3.62-.76 3.41-3.56 6.86-1.5.8-4.53.07c-2.58-1.55-4.85-4.27-8.06-1.7a.83.83 0 0 1-1.3-.39l-1.09-3.29q-.36-1.1.7-1.56c2.38-1.03 4.6-2.01 6.65-3.91q3.39-3.12 7-5.94zm-2.75 6.03l-.08 4.94a.13.13 0 0 0 .13.13h.07a2.46 1.22-89.1 0 0 1.26-2.44v-.28a2.46 1.22-89.1 0 0-1.18-2.48h-.07a.13.13 0 0 0-.13.13zm7.82-3.11q4.59 7.12-1.18 12.45.27-1.47.8-2.81c.71-1.84.5-3.15.5-4.99 0-1.44-.87-2.93-.12-4.65z" class="D"/><path d="M338.69 87.51a.13.13 0 0 1 .13-.13h.07a2.46 1.22-89.1 0 1 1.18 2.48v.28a2.46 1.22-89.1 0 1-1.26 2.44h-.07a.13.13 0 0 1-.13-.13l.08-4.94z" class="C"/><path d="M299.24 134.06l3.65-1.14q-.23 1.28-2.43 2.24a.69.69 0 0 0-.4.79l.05.27a.29.29 0 0 0 .41.2q10.17-5.1 20.6-1.54 2.4.82 4.19.23 4.94 2.69 8.73 6.91-.03.33-.23.35a1.05 1.04 66.1 0 1-.9-.35q-2.82-3.25-6.23-4.22-1.5-.43-.3.56 2.99 2.45 6.27 4.9c2.32 1.75 3.15 4.14 4.58 6.56 2.64 4.46 6.68 7.45 11.06 9.92a.84.84 0 0 1 .07 1.41q-3.48 2.44-2.4 6.93.02.05.07.05.13.01.26.01.42-.01.43-.43.1-3.04 1.74-4.54-2.89 18.24-5.91 36.18c-.37 2.16.02 5.03-.4 6.69q-1 3.93-6.66 11.05c-2.53.4-3.68 3.69-4.78 5.61q-7.36 7.61-16.98 11.37-.51.18-.54.33-12.5 4.23-25.2 1.45-2.15-.73-3.9-2.34c-2.4-2.21-4.76-3.06-6.74.03-4 6.26-9.27 13.15-15.84 16.88-.99.57-1.74 1.36-2.5 2.16q-.35.38.16.49.26.05.59-.15 11.98-7.24 19.85-20.19-7.39 17.27-25.36 24.88l4.1-4.15q.11-.12.03-.23h-.01q-.09-.14-.22-.05l-10.74 7.38q-1.59.84-3.62 1.15-7.79 1.72-15.29 3.85c-3 .85-8.81.14-13.06.29q-2.61.09-5.12-.57c-2.38-.63-4.1-.44-6.41-.48-2.79-.04-6.06-1.18-9.38-.87-3.95.36-8.54-2.61-12.5-3.58-2.85-.7-4.61-1.96-7-3.38-1.57-.94-3.53.34-4.67-1.5q-.24-.37.2-.3.97.14 1.66.85.25.26.46-.03l.17-.24q.07-.11-.04-.17c-7.44-4.28-12.01-7.21-16.17-13.27a.74.73 45.4 0 0-1.21-.01q-.23.33 0 .93.96 2.5 2.7 4.53.35.4.87.35 1.3-.13 1.76 1.14a1.54 1.43-82 0 0 .44.63c3.98 3.3 7.63 6.72 12.62 8.64 3.92 1.51 7.85 3.75 11.5 4.91q9.42 3.02 19.32 3.76c2.1.16 4.06-.94 6.51-.43q.45.09.6.52l.12.33a.45.44-11.6 0 0 .46.3c5.54-.5 11.34-.32 16.76-1.5 3.67-.8 7.09-1.86 10.86-1.37a.99.99 0 0 1 .85.91q.75 10.24 2.4 20.15c1.4 8.4.78 17.31 1 25.77.16 6.34-.55 12.98-.59 19.54-.03 6.04-1.63 11.5-1.9 17.42-.15 3.13-1.03 7.29-1.27 9.23q-.6 4.73-1.14 9.48-.73 6.34-7.79 7.4a.87.86 79.7 0 1-.97-.68q-.12-.59-.37-1.39-.14-.45-.43-.62-.42-.25-.82-.02-.34.2-.47.82-.22 1.07-.51 2.17-.13.51-.66.55-5.83.42-11.7.2-2.66-.09-2.21-2.78a.53.53 0 0 0-.44-.61l-.34-.05q-.73-.1-.84.63l-.21 1.34q-.1.66-.77.7l-.72.03q-4.21-1.58-7.74-1.2-.42-2.27 0-4.78 2.72-16.31-2.74-31.74a.36.35 66.3 0 0-.5-.2l-.26.14q-.56.31-.37.92c3.92 12.8 3.88 23.15 1.14 36.18-.41 1.96-1.26 3.04-3.09 3.66-2.75.95-7.4 2.79-10.23 2.11a1.01 1.01 0 0 1-.66-.52l-1.47-2.76a.49.49 0 0 0-.37-.25q-.21-.02-.44-.03-.6-.02-.65.58l-.2 2.73a.8.79-88 0 1-.78.73l-7.11.13a1.77 1.76 84.5 0 1-1.77-1.47q-.27-1.58-1.3-3.19-.24-.39-.53-.49-.46-.16-.95.11-.45.25-.32.75l.88 3.43a.87.87 0 0 1-.96 1.08l-9.87-1.35a.63.62-17.3 0 1-.37-.19q-1.56-1.64-1.73-2.21-5.88-19.6-.79-39.16a.31.31 0 0 0-.33-.38l-.33.04q-.69.09-.92.76c-3.5 10.43-2.88 21.79-.9 32.7q.26 1.44-1.16 1.82-8.09 2.17-16.91 1.18c-4.66-.52-9.94-.43-14.34-1.58q-1.17-.3-4.66-1.84a.84.82-80.4 0 1-.48-.69q-.25-3.26-.12-4.75 1.13-13.7-.81-27.34a.6.59-3.9 0 0-.59-.51h-.35q-.51 0-.45.5c1.08 9.65.27 18.88.31 28.59q.03 5.27-.54 10.51-.04.34-.5.67l-5.31 1.21q-1.26.25-2.35-.66-.38-.32-.82-.08-3.38 1.89-7.27 1.04-.54-.12-.63-.66l-.42-2.56q-.08-.45-.53-.45H94q-1.98-.01-.36 1.22.98.75 1.17 2.07a.81.81 0 0 1-.84.93l-11.45-.47a1.15 1.14 90 0 1-1.08-1.09q-.18-3.84-2.68-4.69-2.14-.74-1.3 1.36l1.14 2.82q.79 1.96-1.11 1.04l-2.08-1.02-2.61-2.24-1.7-3.49q-.27-.58.36-.58h.27a.25.23-16.2 0 1 .2.1l.28.35q.35.45.52-.1c.19-.63.08-1.27-.33-1.84q-2.07-2.92-2.16-6.52-.02-.57-.26-1.18c-1.72-4.27-2.48-13.11-1.57-17.59a.48.48 0 0 1 .77-.27l.68.55q.58.47.56-.28-.12-5.33-.84-10.59c-.45-3.35 1.08-5.53 1.17-8.49q.19-6.89 1.7-13.62.51-2.29.13-4.37a.45.45 0 0 0-.62-.34q-6.85 2.93-14.2 2.39c-3.65-.27-9.69-1.78-12.74-3.12-7.88-3.49-18.69-11.93-21.77-21.09q-.16-.47.04-.94.9-2.12.88-4.43 1.38.15 1.86 1.26 3.43 8.02 8.99 12.61 1.46 3.95 3.74 4.86 3.25 1.3 10.64 3.64 7.22 2.3 10.94 2.2 8.18-.22 15.18-6.46l13.61-22.78q2.52-3.1 5.14-5.97c3.9-4.27 9.13-7.14 14.07-10.37a1.43 1.43 0 0 0 .64-1.07q.15-1.5-1.33-1.27-.35.05-.74.35-.76.6-.89.16 1.3-.97 1.88-2.03 10.52 3.06 21.61 1.9 3.64-.38 6.24-2.83.37-.34.85-.47 5.97-1.65 10.43-5.74c2.31-2.12 4.24-5.88 7.43-8.31a.5.5 0 0 0 .08-.71l-.17-.21q-.16-.21-.35-.04c-1.64 1.43-3.19 2.08-4.5 3.9q-3.49 4.84-8.46 8.24-.4.27-.89.21c-1.52-.19-3.62 1.57-5.02 2.35a.92.91 67.6 0 1-1.33-.56q-.49-1.79-.39-3.61.24-4.05-.87-.15-.6 2.11-.42 4.47.1 1.27-1.16 1.41l-.51.06q-1.21.13-1.01-1.07l1.14-7.02q.11-.64-.5-.88l-.29-.11a.56.55-71.3 0 0-.73.37l-2.53 9.11q-.08.31-.4.39l-.25.05q-.46.1-.52-.36-.59-4.2.33-8.28.09-.41-.33-.42h-.39a.26.26 0 0 0-.27.24q-.24 2.34-1.31 4.39a.37.37 0 0 1-.63.05l-.29-.4a1.61 1.58 36.8 0 1-.22-1.44l1.02-2.95a.35.34-79.3 0 0-.31-.46l-.45-.02a.83.82 7.5 0 0-.84.64l-1.58 6.89q-.4 1.77-2.2 1.59c-2.63-.25-6.76.14-7.75-3.15a.17.16-51.3 0 0-.32.04q-.01.14-.05.26-.26.75-.5.9-.56.35-1.19-.08-.33-.23-.74-.28-1.19-.16-1.91-.98-.26-.31-.26-.71l-.01-2.57a.241.241 0 0 0-.48-.04l-.37 2.05a.68.67-77.1 0 1-.83.53q-1.41-.36-2.56-1.79-2.54-3.17-5.97-5.29a2.83 2.83 0 0 1-1.28-2.98l1.25-6.11q.01-.03-.03-.05l-.28-.08q-.2-.06-.25.14l-1.46 4.77a.53.52 32.7 0 1-.89.19q-2.66-2.96-3.28-6.72-.65-4.01-.72-5.69-.12-3.23 2.2-5.83.37-.41.06-.86l-.46-.66q-.64-.92-.87.18l-1.92 8.92a.22.21-70.3 0 1-.31.15l-.28-.13q-.62-.32-.69-1.02l-.13-1.3q-.05-.58-.54-.25-1.88 1.26-.6 3.37 1.77 2.92 5.18 9.56-4.32-4.21-7.7-8.83-2.22-3.05-.99-6.63 1.01.49 1.52 1.02 1.56 1.63 1.08-.58c-.45-2.06 1.64-3.47-.67-5.82q-.41-.41.12-.64c2.46-1.08 2.42-5.04 2.74-7.33q.18-1.31-.94-1.94a.71.7 32.6 0 0-.93.2c-.86 1.19-.01 2.6.17 3.86q.08.62-.43.99-1.23.9-1.56 2.39a.38.37-45.7 0 1-.73.01c-1.06-4.42-2.96-7.99-3.12-12.71q-.02-.49-.25-.92L72 192.24c-.48-.87-1.52-1.69-2-2.68q-.22-.46-.03-.94 3.02-7.43 7.49-14.06c.97-1.43 1.48-3.19 2.46-4.7 3.66-5.6 5.06-9.58 10.7-13.47q3.89-2.68 8.04-5.01.46-.26.96-.07 1.33.5 2.6-.09.46-.21.97-.19 6.72.37 10.81 1.47c2.21.6 4.32 2.31 6.78 2.97 5.42 1.44 11.18 3.1 16.16 5.69 4.61 2.39 8.58 7.09 13.13 10.35a1.78 1.78 0 0 0 2.74-.95c.88-3.06 3.41-6.72 6.39-8.51q.08-.04.13.03.09.14.18.28a.19.17 49.7 0 1-.01.22q-1.41 1.68-1.73 2.25-1.76 3.14.71.53c2.52-2.65 4.27-6.13 6.96-8.57q7.46-6.78 16.85-12.18 1.7-.98 3.09-1.34.61-.15.7-.77l.12-.78q.07-.49.49-.75l5.74-3.51q13.86-3.57 27.06-3.04 1.04.59 1.3 1.35.2.56-.39.63-6.08.64-10.66.29-10.32-.81-19.47 3.18a.66.66 0 0 0-.32.92l.13.24a.28.28 0 0 0 .34.14c9.57-3.23 18.13-3.36 28.83-3.14q1.87.04 5.69.77.53.1.49.63-.16 2.22-.45 4.42-.07.5.09.79.21.38.65.53a.62.61-71.7 0 0 .79-.4q.73-2.33.35-4.76a.4.39 8.8 0 1 .57-.41l.44.21a1.24 1.24 0 0 1 .67 1.12l-.07 3.78a.53.52-89.5 0 0 .52.54l.42-.01q.54 0 .58-.54l.32-3.99q.04-.51.56-.55c3.54-.23 8.19 2.6 11.31 4.32a1.48 1.48 0 0 0 .98.17q1.49-.25 2.19.94.3.5.86.7 6.5 2.29 11.63 6.79c1.9 1.67 3.45 4.47 6.11 6.35a.65.65 0 0 0 1.02-.5l.02-.37q.05-.88-.71-1.33-2.27-1.38-3.28-2.91 3.17.41 6.58-.45l-1.09 1.09q-.35.34-.2.8l.47 1.41q.15.44.49.13c4.16-3.82 7.05-6.79 11.55-7.68a.85.84 85.5 0 1 1.01.87q-.22 4.44.69 8.78.1.49-.1.96-.92 2.13-1.04 3.2c-.7 6.59-1.37 14.23-3.91 20.17q-1.64 3.84-4.08 7.79c-4.87 7.89-13.34 12.19-21.53 15.67-5.36 2.27-10.42 4.75-15.92 6.74-3.94 1.42-8.78 1.45-13.01 2.01q-.76.1-.88.85l-.05.31a.39.39 0 0 0 .4.45c12.53-.34 24.55-6.04 35.11-10.71 7.94-3.51 13.06-8.53 20.4-15.52q.35-.34.46-.82 1.3-5.68 3.78-10.91c.51-1.08 1.14-1.62 1.86-2.55q.23-.3.22-.53 0-.19-.1-.33-.2-.29-.51-.12l-1.16.62q-.65.36-.5-.37c1.6-7.72 3.08-14.86 2.03-22.43-.32-2.29 1.5-5.92 1.22-9.77q-.04-.54.15-1.04l1.72-4.72q.2-.53 0-1.05l-.44-1.15a.74.73-29.7 0 1 .24-.85c1.02-.8 1.83-1.42 2.35-2.66 3.02-7.24 4.86-16.4 11.61-21.3a1.09 1.08-19.3 0 0 .44-.91l-.03-.78q-.02-.55.36-.95c2.61-2.67 4.99-5.54 8.19-7.43q8.34-4.96 17.48-8.08.26-.1.35.17l1.31 3.97q.08.25-.16.35c-8.07 3.24-20.78 9.87-25.15 18.32q-.47.9-.88 3.36c-.62 3.71-1.54 6.5-2.14 11.44q-.01.07-.56 3.6-.82 5.15.67 10.22.32 1.12.54-.03c.59-3.21-1.78-7.8 0-10.4zm-61.08 109.55c15.25-2.44 29.24-11.51 40.63-21.56q4.57-4.04 6.85-9.08c3.35-7.44 8.2-13.4 9.63-21.72q1.41-8.23 3.55-16.3c2.44-9.2 1.56-16.49-.01-26.76q-.01-.05-.07-.06-.15 0-.29-.03-.25-.06-.28.2-.26 2.61-.1 3.46c1.9 10.48 1.82 21.51-2.63 31.16q-.81 1.77-1.07 4.49-.51 5.23-2.77 11.12c-1.05 2.72-3.04 5.48-4.39 8.36q-.23.49-.74.67l-1.42.5q-.45.15-.65.59-2.33 5.19-6.17 8.58-6 5.28-10.25 10.48c-1.15 1.4-2.32 2.3-3.76 3.23-7.92 5.12-16.42 9.55-25.81 11.22q-.62.11-.68.74l-.03.28q-.05.51.46.43zm98.71-32.24q4.99-12.9 5.64-24.45.11-1.83 1.04-3.82c1.66-3.56 1.44-6.74 2.38-10.42q.06-.25-.18-.31l-.28-.08q-.24-.07-.33.17-1.53 4.07-1.97 8.29c-.19 1.86-1.4 2.95-1.35 4.98q.13 5.16-1.56 9.97-.77 2.2-.96 4.21c-.35 3.86-1.87 6.23-3.13 9.43-1.18 3.01-2.32 4.49-4.51 6.59q-.34.32-.14.77a.59.58-25.5 0 0 .8.28q2.97-1.52 4.55-5.61zm-85.605-11.316a2.44 1.91 118 0 0 2.832-1.258 2.44 1.91 118 0 0-.541-3.051 2.44 1.91 118 0 0-2.832 1.258 2.44 1.91 118 0 0 .541 3.051zm-67.103 12.468a3.08 2.64-29.1 0 0-3.975-.809 3.08 2.64-29.1 0 0-1.407 3.805 3.08 2.64-29.1 0 0 3.975.809 3.08 2.64-29.1 0 0 1.407-3.805zM98.67 241.69a.27.27 0 0 0-.45-.01q-.33.53-.01 1.15a.33.33 0 0 0 .61-.04q.19-.54-.15-1.1zm133.58 38.56c7.64 3.78 7.32-9.36 7.05-12.93a.75.74-80.4 0 0-.45-.64c-3.25-1.44-9.27 3.52-12.24 5.21a1.23 1.2-51.7 0 1-.92.12q-2-.51-3.66-1.74c-2.83-2.11-10.93-3.97-10.61 2.15q.26 4.94.77 9.92a1.06 1.06 0 0 0 1.49.86q1.35-.6 2.58-1.71 3.63-3.26 7.92-5.01a1.91 1.91 0 0 1 1.77.17q2.97 1.95 6.3 3.6zm-110.082 90.885a1.13.5 132.4 0 0 1.131-.497 1.13.5 132.4 0 0 .393-1.172 1.13.5 132.4 0 0-1.131.497 1.13.5 132.4 0 0-.393 1.172zM73.94 373.42q-.12.33-.1.71.05.64.46.15.73-.88.83-2.05a.29.29 0 0 0-.54-.16l-.25.47q-.19.34-.4.88zm230.01-272.27c-2.93 4.03-6.11 7.59-8.87 11.68q-.77 1.15-1.45.63l10.32-12.31z" class="D"/><path d="M222.18 105.89q.3 2.29-2.65 2.44a.99.99 0 0 0-.73.37l-6.14 7.81q-.31.4-.02.8c1.36 1.94 1.84 5.35 4.09 6.22q.5.19.49.72-.01 2.74.88 5.33a.53.53 0 0 0 .89.19q.57-.59 1.26-.13.41.28.39.76-.07 2.06.24 2.97.23.68.9.61.47-.04.59.41.51 1.87 2.46 2.23a.44.44 0 0 0 .47-.65q-.64-1.14-.6-2.1.03-.78.43-.11l2.21 3.7q.31.52.9.64l3.19.67a.58.57-70.7 0 0 .63-.31q.3-.6-.27-1.22-.38-.42-.23-1.01a.33.33 0 0 1 .59-.1l1.27 1.79q.34.47.89.28l6.77-2.4q.86-.3.16-.89l-3.08-2.6q-.29-.25.07-.39.84-.34 1.37.25 1.02 1.15 2.24 2.15.39.32.86.15 2.03-.75 2.22-2.83.05-.47.48-.65c3.49-1.51 3.32-6.24 3.44-9.91q.02-.69-.49-.24-1.54 1.35-3.48 2.1-.49.19-.63.7c-1.79 6.39-10.8 6.53-12.2 0-.68-3.19 1.19-5.11-.02-8.05q-1.1-2.64-1.55-5.46-.27-1.63-1.86-2.12-1.6-.49-4.16-1.18-1.09-.3-.7-1.07 5.73-.35 8.65 5.07-.73 3.01 1.38 3.86l1.87 4.15q.21.46.66.68.58.28.76.55 1.52 1.61 4.31 1.59c1.54-.01 2.64-.87 4.19-1.3q.47-.12.78-.49 1.5-1.72 1.69-2.36.77-2.62.83-5.13-.51-.8.58-.65a1.99 1.98 12.1 0 1 1.64 2.52q-.35 1.2-.1 2.62-.63 5.2-1.14 10.11c-.34 3.22-2.41 4.32-3.39 7.31q-2.73 3.11-7.97 4.78-1.35-.44-2.03.18-.41.38.08.65 5.71 3.14 12.25 4.52 1.49.47 2.64 1.74-.2 1.34 1.66 1.13l7.91 7.03q1.01 1.53 3.28 2.91.76.45.71 1.33l-.02.37a.65.65 0 0 1-1.02.5c-2.66-1.88-4.21-4.68-6.11-6.35q-5.13-4.5-11.63-6.79-.56-.2-.86-.7-.7-1.19-2.19-.94a1.48 1.48 0 0 1-.98-.17c-3.12-1.72-7.77-4.55-11.31-4.32q-.52.04-.56.55l-.32 3.99q-.04.54-.58.54l-.42.01a.53.52-89.5 0 1-.52-.54l.07-3.78a1.24 1.24 0 0 0-.67-1.12l-.44-.21a.4.39 8.8 0 0-.57.41q.38 2.43-.35 4.76a.62.61-71.7 0 1-.79.4q-.44-.15-.65-.53-.16-.29-.09-.79.29-2.2.45-4.42.04-.53-.49-.63-3.82-.73-5.69-.77c-10.7-.22-19.26-.09-28.83 3.14a.28.28 0 0 1-.34-.14l-.13-.24a.66.66 0 0 1 .32-.92q9.15-3.99 19.47-3.18 4.58.35 10.66-.29.59-.07.39-.63-.26-.76-1.3-1.35c-3.1-4.56-5.42-7.34-5.98-13.14a1.01 1.01 0 0 0-.4-.72l-3.14-2.45a1.02 1.02 0 0 1-.13-1.49c3.27-3.58 7.43-9.52 12.34-10.73zm19.23 17.64c-3.36-.21-4.53-1.26-6.48-3.86q-.5-.66-.82.1-.22.51.31 1.55.81 1.6.88 2.6a2.16 2.15 82.8 0 0 2.53 1.97q1.04-.19 2.15.07.79.18 1.21-.52l.65-1.1q.45-.75-.43-.81z" class="C"/><path d="M222.18 105.89l1.57-.13q-.39.77.7 1.07 2.56.69 4.16 1.18 1.59.49 1.86 2.12.45 2.82 1.55 5.46c1.21 2.94-.66 4.86.02 8.05 1.4 6.53 10.41 6.39 12.2 0q.14-.51.63-.7 1.94-.75 3.48-2.1.51-.45.49.24c-.12 3.67.05 8.4-3.44 9.91q-.43.18-.48.65-.19 2.08-2.22 2.83-.47.17-.86-.15-1.22-1-2.24-2.15-.53-.59-1.37-.25-.36.14-.07.39l3.08 2.6q.7.59-.16.89l-6.77 2.4q-.55.19-.89-.28l-1.27-1.79a.33.33 0 0 0-.59.1q-.15.59.23 1.01.57.62.27 1.22a.58.57-70.7 0 1-.63.31l-3.19-.67q-.59-.12-.9-.64l-2.21-3.7q-.4-.67-.43.11-.04.96.6 2.1a.44.44 0 0 1-.47.65q-1.95-.36-2.46-2.23-.12-.45-.59-.41-.67.07-.9-.61-.31-.91-.24-2.97.02-.48-.39-.76-.69-.46-1.26.13a.53.53 0 0 1-.89-.19q-.89-2.59-.88-5.33.01-.53-.49-.72c-2.25-.87-2.73-4.28-4.09-6.22q-.29-.4.02-.8l6.14-7.81a.99.99 0 0 1 .73-.37q2.95-.15 2.65-2.44zm-2.44 10.56q-.24-.13-.4-.32-.69-.8-.74.25-.08 1.57.69 2.08c1.22.8 2.71-.79 3.38-1.76q1-1.45-.72-1.07-.46.1-1.13.69a.96.95 37.8 0 1-1.08.13zm17.69 19.28q.74-1.36-.7-1.72a.55.55 0 0 0-.68.53q.01.8.61 1.33.48.42.77-.14z" class="I"/><path d="M232.4 110.83q.98 1.69 1.38 3.86-2.11-.85-1.38-3.86z" class="F"/><path d="M248.87 112.38q-.06 2.51-.83 5.13-.19.64-1.69 2.36-.31.37-.78.49c-1.55.43-2.65 1.29-4.19 1.3q-2.79.02-4.31-1.59c5.13.88 8.55-1.07 10.41-5.62q.49-1.17 1.39-2.07z" class="I"/><path d="M220.82 116.32q.67-.59 1.13-.69 1.72-.38.72 1.07c-.67.97-2.16 2.56-3.38 1.76q-.77-.51-.69-2.08.05-1.05.74-.25.16.19.4.32a.96.95 37.8 0 0 1.08-.13z" class="C"/><path d="M250.99 116.87q2.74 9.78-4.53 17.42c.98-2.99 3.05-4.09 3.39-7.31q.51-4.91 1.14-10.11z" class="F"/><path d="M234.93 119.67c1.95 2.6 3.12 3.65 6.48 3.86q.88.06.43.81l-.65 1.1q-.42.7-1.21.52-1.11-.26-2.15-.07a2.16 2.15 82.8 0 1-2.53-1.97q-.07-1-.88-2.6-.53-1.04-.31-1.55.32-.76.82-.1z" class="I"/><path d="M325.31 135.11q-1.79.59-4.19-.23-10.43-3.56-20.6 1.54a.29.29 0 0 1-.41-.2l-.05-.27a.69.69 0 0 1 .4-.79q2.2-.96 2.43-2.24 11.67-3.19 22.42 2.19zm-87.88.62q-.29.56-.77.14-.6-.53-.61-1.33a.55.55 0 0 1 .68-.53q1.44.36.7 1.72zm-45 1.73l-5.74 3.51q-.42.26-.49.75l-.12.78q-.09.62-.7.77-1.39.36-3.09 1.34-9.39 5.4-16.85 12.18c-2.69 2.44-4.44 5.92-6.96 8.57q-2.47 2.61-.71-.53.32-.57 1.73-2.25a.19.17 49.7 0 0 .01-.22q-.09-.14-.18-.28-.05-.07-.13-.03c-2.98 1.79-5.51 5.45-6.39 8.51a1.78 1.78 0 0 1-2.74.95c-4.55-3.26-8.52-7.96-13.13-10.35-4.98-2.59-10.74-4.25-16.16-5.69-2.46-.66-4.57-2.37-6.78-2.97q-4.09-1.1-10.81-1.47-.51-.02-.97.19-1.27.59-2.6.09-.5-.19-.96.07-4.15 2.33-8.04 5.01c-5.64 3.89-7.04 7.87-10.7 13.47-.98 1.51-1.49 3.27-2.46 4.7q-4.47 6.63-7.49 14.06-.19.48.03.94c.48.99 1.52 1.81 2 2.68l5.98 10.91q.23.43.25.92c.16 4.72 2.06 8.29 3.12 12.71a.38.37-45.7 0 0 .73-.01q.33-1.49 1.56-2.39.51-.37.43-.99c-.18-1.26-1.03-2.67-.17-3.86a.71.7 32.6 0 1 .93-.2q1.12.63.94 1.94c-.32 2.29-.28 6.25-2.74 7.33q-.53.23-.12.64c2.31 2.35.22 3.76.67 5.82q.48 2.21-1.08.58-.51-.53-1.52-1.02l-1.64-5.82q-1.4-6.54-2.73-12.82-.79-3.67-2.79-6.87-1.45-3.54-4.26-8.36-1.21-2.08-.06-4.2 1.17-2.45 2.27-4.73c2.05-4.25 4.99-7.39 6.54-12.2q.62-1.92 1.92-3.42 2-2.31 3.58-4.93c1.36-2.28 3.08-3.55 5.03-5.12 2.58-2.08 6.32-3.31 9.07-6.13q4.34-1.53 8.3-1.25c2.51 2 5.79 1.83 8.29 2.79q10.09 3.87 20.28 7.43 3.34 1.17 6.03 3.46 4.21 3.59 8.79 6.69 1.05.7 1.15-.09.6.49 1.23-.59c5.51-9.34 14.19-16.32 23.5-22.45q9.04-5.95 16.95-8.55zm141.61 4.56q3.08 3.45 5.62 8.8.89 1.86 2.82 2.2 2.46 3.71 6.1 5.26.69 1.03 2.27 1.38.69.16.14.62-2.4 1.98-2.53 2.89-1.64 1.5-1.74 4.54-.01.42-.43.43-.13 0-.26-.01-.05 0-.07-.05-1.08-4.49 2.4-6.93a.84.84 0 0 0-.07-1.41c-4.38-2.47-8.42-5.46-11.06-9.92-1.43-2.42-2.26-4.81-4.58-6.56q-3.28-2.45-6.27-4.9-1.2-.99.3-.56 3.41.97 6.23 4.22a1.05 1.04 66.1 0 0 .9.35q.2-.02.23-.35z" class="C"/><path d="M238.49 139.07l10.3 5.35q-6.54-1.38-12.25-4.52-.49-.27-.08-.65.68-.62 2.03-.18zm12.94 7.09l1.66 1.13q-1.86.21-1.66-1.13z" class="D"/><path d="M278.79 222.05c-11.39 10.05-25.38 19.12-40.63 21.56q-.51.08-.46-.43l.03-.28q.06-.63.68-.74c9.39-1.67 17.89-6.1 25.81-11.22 1.44-.93 2.61-1.83 3.76-3.23q4.25-5.2 10.25-10.48 3.84-3.39 6.17-8.58.2-.44.65-.59l1.42-.5q.51-.18.74-.67c1.35-2.88 3.34-5.64 4.39-8.36q2.26-5.89 2.77-11.12.26-2.72 1.07-4.49c4.45-9.65 4.53-20.68 2.63-31.16q-.16-.85.1-3.46.03-.26.28-.2.14.03.29.03.06.01.07.06c1.57 10.27 2.45 17.56.01 26.76q-2.14 8.07-3.55 16.3c-1.43 8.32-6.28 14.28-9.63 21.72q-2.28 5.04-6.85 9.08zm-1.69-1.23q1.02-.37 1.33-1.3a.11.11 0 0 0-.17-.12l-3.68 2.78a.38.38 0 0 0 .43.63q.88-.54 1.43-1.45.24-.38.66-.54z" class="C"/><path d="M106.21 148.77c16.72-.75 32.49 9.82 44.54 20.28q-.1.79-1.15.09-4.58-3.1-8.79-6.69-2.69-2.29-6.03-3.46-10.19-3.56-20.28-7.43c-2.5-.96-5.78-.79-8.29-2.79zm-8.3 1.25c-2.75 2.82-6.49 4.05-9.07 6.13-1.95 1.57-3.67 2.84-5.03 5.12q-1.58 2.62-3.58 4.93-1.3 1.5-1.92 3.42c-1.55 4.81-4.49 7.95-6.54 12.2q-1.1 2.28-2.27 4.73c1.36-16.85 11.79-31.84 28.41-36.53zm244.57 3q5.07.4 6.1 5.26-3.64-1.55-6.1-5.26z" class="D"/><g class="C"><path d="M336.87 211.37q-1.58 4.09-4.55 5.61a.59.58-25.5 0 1-.8-.28q-.2-.45.14-.77c2.19-2.1 3.33-3.58 4.51-6.59 1.26-3.2 2.78-5.57 3.13-9.43q.19-2.01.96-4.21 1.69-4.81 1.56-9.97c-.05-2.03 1.16-3.12 1.35-4.98q.44-4.22 1.97-8.29.09-.24.33-.17l.28.08q.24.06.18.31c-.94 3.68-.72 6.86-2.38 10.42q-.93 1.99-1.04 3.82-.65 11.55-5.64 24.45z"/><ellipse cx="0" cy="0" transform="matrix(-.469472 .882948 -.882948 -.469472 252.41 197.9)" rx="2.44" ry="1.91"/></g><path d="M79.34 218.8q-3.49-9.31-5.52-19.69 2 3.2 2.79 6.87 1.33 6.28 2.73 12.82z" class="D"/><g class="C"><ellipse cx="0" cy="0" transform="matrix(.873772 -.486335 .486335 .873772 181.47 214.02)" rx="3.08" ry="2.64"/><path d="M335.49 217.09q-1.26 5.33-5.18 9.05-.34.32-.58-.09-.29-.51.01-1.07.84-1.52.97-2.28c1.1-1.92 2.25-5.21 4.78-5.61z"/></g><path d="M276.44 221.36q-.55.91-1.43 1.45a.38.38 0 0 1-.43-.63l3.68-2.78a.11.11 0 0 1 .17.12q-.31.93-1.33 1.3-.42.16-.66.54z" class="D"/><path d="M107.9 255.37q-1.82-.66-3.59-1.39c-3.66-1.53-6.95-5.78-10.08-8.54q-2.7-2.37-4.56-5.36-3.41-6.64-5.18-9.56-1.28-2.11.6-3.37.49-.33.54.25l.13 1.3q.07.7.69 1.02l.28.13a.22.21-70.3 0 0 .31-.15l1.92-8.92q.23-1.1.87-.18l.46.66q.31.45-.06.86-2.32 2.6-2.2 5.83.07 1.68.72 5.69.62 3.76 3.28 6.72a.53.52 32.7 0 0 .89-.19l1.46-4.77q.05-.2.25-.14l.28.08q.04.02.03.05l-1.25 6.11a2.83 2.83 0 0 0 1.28 2.98q3.43 2.12 5.97 5.29 1.15 1.43 2.56 1.79a.68.67-77.1 0 0 .83-.53l.37-2.05a.241.241 0 0 1 .48.04l.01 2.57q0 .4.26.71.72.82 1.91.98.41.05.74.28.63.43 1.19.08.24-.15.5-.9.04-.12.05-.26a.17.16-51.3 0 1 .32-.04c.99 3.29 5.12 2.9 7.75 3.15q1.8.18 2.2-1.59l1.58-6.89a.83.82 7.5 0 1 .84-.64l.45.02a.35.34-79.3 0 1 .31.46l-1.02 2.95a1.61 1.58 36.8 0 0 .22 1.44l.29.4a.37.37 0 0 0 .63-.05q1.07-2.05 1.31-4.39a.26.26 0 0 1 .27-.24h.39q.42.01.33.42-.92 4.08-.33 8.28.06.46.52.36l.25-.05q.32-.08.4-.39l2.53-9.11a.56.55-71.3 0 1 .73-.37l.29.11q.61.24.5.88l-1.14 7.02q-.2 1.2 1.01 1.07l.51-.06q1.26-.14 1.16-1.41-.18-2.36.42-4.47 1.11-3.9.87.15-.1 1.82.39 3.61a.92.91 67.6 0 0 1.33.56c1.4-.78 3.5-2.54 5.02-2.35q.49.06.89-.21 4.97-3.4 8.46-8.24c1.31-1.82 2.86-2.47 4.5-3.9q.19-.17.35.04l.17.21a.5.5 0 0 1-.08.71c-3.19 2.43-5.12 6.19-7.43 8.31q-4.46 4.09-10.43 5.74-.48.13-.85.47-2.6 2.45-6.24 2.83-11.09 1.16-21.61-1.9zm15.701.68a1.57 1.38 11 0 0-1.278-1.654 1.57 1.38 11 0 0-1.805 1.055 1.57 1.38 11 0 0 1.278 1.654 1.57 1.38 11 0 0 1.805-1.055zm156.009-23.32q-7.87 12.95-19.85 20.19-.33.2-.59.15-.51-.11-.16-.49c.76-.8 1.51-1.59 2.5-2.16 6.57-3.73 11.84-10.62 15.84-16.88 1.98-3.09 4.34-2.24 6.74-.03q1.75 1.61 3.9 2.34 10.25 3.92 20.52 1.74 2.92-.61 4.68-3.19.03-.15.54-.33.46.72 1.24.35c2.24-1.08 4.43-1.89 6.27-3.17q2.86-1.98 5.73-3.45a.44.43 64.3 0 1 .59.21l.17.37q.25.57-.33.79-1.52.56-2.93 1.55c-5.37 3.77-13.12 8.29-19.73 8.93-2.27.23-4.45.63-6.67.38q-9.57-1.12-18.46-7.3zm-180.94 8.96q.34.56.15 1.1a.33.33 0 0 1-.61.04q-.32-.62.01-1.15a.27.27 0 0 1 .45.01zm145.12 20.02q-1.38 2.21-1.2 3.38-.83 3.86.71 5.62 1.93 17.24 3.53 34.93c.2 2.2-.92 3.64-.92 5.36q.02 20.77-1.8 33.37-1.89 13.06-2.2 17.59-.58 1.88-.28 4.14l-.99 2.88a1.1.02 89.3 0 0-.01 1.03c.04 4.35-6.15 6.69-9.36 7.19q-14.11 2.18-28-.94a2.49 2.48-60.2 0 0-2.27.62q-5.73 5.45-14.24 6.12-8.38.65-16.8.51c-4.26-.07-8.31-1.14-12.44-2.11q-.55-.13-.75-.67l-1.6-4.49a1 .99 70.9 0 0-1.25-.62c-10.52 3.5-22.91.74-33.55-1.37-.79-.16-1.92-.8-2.89-.53q-.12-.45-.25-.37-1.35.81-1.01 2.85l-.3 4.24q-.09 1.29-1.37 1.1c-5.48-.81-10.41.21-15.8.32q-13.49.27-23.72-.95c-7.06-.84-10.2-25.61-10.46-30.9q-.32-6.57 1.52-20.08c.9-6.6 2.85-13.26 4.51-19.93a.57.57 0 0 0-.72-.68c-1.91.58-3.65 1.62-5.58 1.93-6.6 1.06-11.44-.22-17.92-2.42-8.54-2.9-15.34-8.38-20.57-15.69q-.88-1.23-2.4-4.3c-1.57-3.17-3.61-6.03-5.17-9.21q-1.27-2.56 1.12-.99.26.17.79 1.31a.39.39 0 0 0 .74-.19l-.13-2.76a.31.3-67.2 0 1 .53-.22q.53.6.49 1.41-.04.62.58.63 1.38.01 1.81 1.42.02 2.31-.88 4.43-.2.47-.04.94c3.08 9.16 13.89 17.6 21.77 21.09 3.05 1.34 9.09 2.85 12.74 3.12q7.35.54 14.2-2.39a.45.45 0 0 1 .62.34q.38 2.08-.13 4.37-1.51 6.73-1.7 13.62c-.09 2.96-1.62 5.14-1.17 8.49q.72 5.26.84 10.59.02.75-.56.28l-.68-.55a.48.48 0 0 0-.77.27c-.91 4.48-.15 13.32 1.57 17.59q.24.61.26 1.18.09 3.6 2.16 6.52c.41.57.52 1.21.33 1.84q-.17.55-.52.1l-.28-.35a.25.23-16.2 0 0-.2-.1h-.27q-.63 0-.36.58l1.7 3.49q.51 3.9 2.61 2.24l2.08 1.02q1.9.92 1.11-1.04l-1.14-2.82q-.84-2.1 1.3-1.36 2.5.85 2.68 4.69a1.15 1.14 90 0 0 1.08 1.09l11.45.47a.81.81 0 0 0 .84-.93q-.19-1.32-1.17-2.07-1.62-1.23.36-1.22h2.46q.45 0 .53.45l.42 2.56q.09.54.63.66 3.89.85 7.27-1.04.44-.24.82.08 1.09.91 2.35.66 2.29 1.2 4.73-.19 1.2-.68.58-1.02.46-.33.5-.67.57-5.24.54-10.51c-.04-9.71.77-18.94-.31-28.59q-.06-.5.45-.5h.35a.6.59-3.9 0 1 .59.51q1.94 13.64.81 27.34-.13 1.49.12 4.75a.84.82-80.4 0 0 .48.69q3.49 1.54 4.66 1.84c4.4 1.15 9.68 1.06 14.34 1.58q8.82.99 16.91-1.18 1.42-.38 1.16-1.82c-1.98-10.91-2.6-22.27.9-32.7q.23-.67.92-.76l.33-.04a.31.31 0 0 1 .33.38q-5.09 19.56.79 39.16.17.57 1.73 2.21a.63.62-17.3 0 0 .37.19l9.87 1.35a.87.87 0 0 0 .96-1.08l-.88-3.43q-.13-.5.32-.75.49-.27.95-.11.29.1.53.49 1.03 1.61 1.3 3.19a1.77 1.76 84.5 0 0 1.77 1.47l7.11-.13a.8.79-88 0 0 .78-.73l.2-2.73q.05-.6.65-.58.23.01.44.03a.49.49 0 0 1 .37.25l1.47 2.76a1.01 1.01 0 0 0 .66.52c2.83.68 7.48-1.16 10.23-2.11 1.83-.62 2.68-1.7 3.09-3.66 2.74-13.03 2.78-23.38-1.14-36.18q-.19-.61.37-.92l.26-.14a.36.35 66.3 0 1 .5.2q5.46 15.43 2.74 31.74-.42 2.51 0 4.78 3.97 2.03 7.74 1.2l.72-.03q.67-.04.77-.7l.21-1.34q.11-.73.84-.63l.34.05a.53.53 0 0 1 .44.61q-.45 2.69 2.21 2.78 5.87.22 11.7-.2.53-.04.66-.55.29-1.1.51-2.17.13-.62.47-.82.4-.23.82.02.29.17.43.62.25.8.37 1.39a.87.86 79.7 0 0 .97.68q7.06-1.06 7.79-7.4.54-4.75 1.14-9.48c.24-1.94 1.12-6.1 1.27-9.23.27-5.92 1.87-11.38 1.9-17.42.04-6.56.75-13.2.59-19.54-.22-8.46.4-17.37-1-25.77q-1.65-9.91-2.4-20.15a.99.99 0 0 0-.85-.91c-3.77-.49-7.19.57-10.86 1.37-5.42 1.18-11.22 1-16.76 1.5a.45.44-11.6 0 1-.46-.3l-.12-.33q-.15-.43-.6-.52c-2.45-.51-4.41.59-6.51.43q-9.9-.74-19.32-3.76c-3.65-1.16-7.58-3.4-11.5-4.91-4.99-1.92-8.64-5.34-12.62-8.64a1.54 1.43-82 0 1-.44-.63q-.46-1.27-1.76-1.14-.52.05-.87-.35-1.74-2.03-2.7-4.53-.23-.6 0-.93a.74.73 45.4 0 1 1.21.01c4.16 6.06 8.73 8.99 16.17 13.27q.11.06.04.17l-.17.24q-.21.29-.46.03-.69-.71-1.66-.85-.44-.07-.2.3c1.14 1.84 3.1.56 4.67 1.5 2.39 1.42 4.15 2.68 7 3.38 3.96.97 8.55 3.94 12.5 3.58 3.32-.31 6.59.83 9.38.87 2.31.04 4.03-.15 6.41.48q2.51.66 5.12.57c4.25-.15 10.06.56 13.06-.29q7.5-2.13 15.29-3.85zM68.154 337.739a1.58.61 88.4 0 0 .566-1.596 1.58.61 88.4 0 0-.654-1.562 1.58.61 88.4 0 0-.566 1.596 1.58.61 88.4 0 0 .654 1.562zM254.25 257.61q-3.2 2.5-6.84 2.95l10.74-7.38q.13-.09.22.05h.01q.08.11-.03.23l-4.1 4.15z" class="C"/><ellipse cx="0" cy="0" transform="matrix(.981627 .190809 -.190809 .981627 122.06 255.75)" rx="1.57" ry="1.38" class="D"/><path d="M89.13 275.57q-2.3-.26-2.98 2.05a1.46 1.44-10 0 1-.54.76c-1.47 1.09-1.92 3.09-2.69 4.2q-5.01 7.25-7.4 15.77-7 6.24-15.18 6.46-3.72.1-10.94-2.2-7.39-2.34-10.64-3.64-2.28-.91-3.74-4.86 5.58 4.36 8.23 5.1c6.69 1.87 12.39 4.76 19.87 3.22q1.16.93 2.93-.66c3.06-1.01 6.56-1.41 7.94-4.85 3.66-9.15 7.25-15.57 12.55-21.55q.9-1.02 1.53-2.06 2.8-4.56 7-7.75 2.97-2.27 5.3-4.27 2.6-2.23 5.65-3.89.13.44.89-.16.39-.3.74-.35 1.48-.23 1.33 1.27a1.43 1.43 0 0 1-.64 1.07c-4.94 3.23-10.17 6.1-14.07 10.37q-2.62 2.87-5.14 5.97z" class="C"/><path d="M242.59 265.09l.71 5.62q-1.54-1.76-.71-5.62z" class="D"/><path d="M239.3 267.32c.27 3.57.59 16.71-7.05 12.93q-3.33-1.65-6.3-3.6a1.91 1.91 0 0 0-1.77-.17q-4.29 1.75-7.92 5.01-1.23 1.11-2.58 1.71a1.06 1.06 0 0 1-1.49-.86q-.51-4.98-.77-9.92c-.32-6.12 7.78-4.26 10.61-2.15q1.66 1.23 3.66 1.74a1.23 1.2-51.7 0 0 .92-.12c2.97-1.69 8.99-6.65 12.24-5.21a.75.74-80.4 0 1 .45.64z" class="C"/><g class="D"><path d="M66.05 301.77q-1.77 1.59-2.93.66l2.93-.66z"/><ellipse cx="0" cy="0" transform="matrix(.027922 .99961 -.99961 .027922 68.11 336.16)" rx="1.58" ry=".61"/><path d="M241.91 361.96q.57 1.97-.28 4.14-.3-2.26.28-4.14z"/></g><g class="C"><ellipse cx="0" cy="0" transform="matrix(-.674302 .738455 -.738455 -.674302 122.93 370.3)" rx="1.13" ry=".5"/><path d="M74.34 372.54l.25-.47a.29.29 0 0 1 .54.16q-.1 1.17-.83 2.05-.41.49-.46-.15-.02-.38.1-.71.21-.54.4-.88z"/></g><path d="M117.48 373.72q-.32 1.32-1.26 2.48-.34-2.04 1.01-2.85.13-.08.25.37z" class="D"/></svg>