<svg xmlns="http://www.w3.org/2000/svg" viewBox="0 0 557 147" xmlns:v="https://vecta.io/nano"><style><![CDATA[.B{stroke:#7b7378}.C{stroke:#8692a2}.D{fill:#c9ada7}.E{stroke:#d5ccd1}.F{fill:#e0ebfb}.G{stroke:#3b4359}.H{fill:#4a4e69}.I{stroke:#8a7e88}]]></style><g fill="none" stroke-width="2"><path vector-effect="non-scaling-stroke" d="M77.15 30.95l4.75 2.97q.44.27.91.06l7.23-3.29q.51-.23.38-.78l-.4-1.76" class="B"/><path vector-effect="non-scaling-stroke" d="M90.02 28.15q-.99-9.86 3.56-17.78.4-.68-.38-.84-8.23-1.7-16.13.8a1.03 1.03 0 0 0-.64 1.39q1.78 4.18 1.65 8.48c-.1 3.1-2.17 5.76-3.66 8.54a1.42 1.42 0 0 0 1.15 2.09l1.58.12" class="C"/><path vector-effect="non-scaling-stroke" d="M90.02 28.15q-6.94.1-12.87 2.8" class="E"/><path vector-effect="non-scaling-stroke" d="M115.5 14.96c-5.37-2.65-11.96-4.38-17.91-5.13q-.59-.07-.81.47l-3.01 7.17q-.29.69.46.66c6.88-.27 14.99 1.05 21.28-2.18a.55.55 0 0 0-.01-.99" class="C"/><path vector-effect="non-scaling-stroke" d="M48.7 19.99q-10.14 5.6-16.45 15.5" class="B"/><path vector-effect="non-scaling-stroke" d="M32.25 35.49q-4.14 4.94-7.04 10.7-1.38 2.75-1.11 5.32.79 7.36 7.63 10.94.49.25.6-.28c3.93-18.29 11.77-33.61 26.5-45.32 1.82-1.45 4.58-2.86 6.69-4.51a.19.18 16 0 0-.18-.32q-8.8 3.07-16.64 7.97" class="C"/><path vector-effect="non-scaling-stroke" d="M32.25 35.49q7.44-8.76 16.45-15.5" class="E"/><path vector-effect="non-scaling-stroke" d="M71.28 30.15c.18-3.25 1.39-4.46 2.76-6.92 1.88-3.39.89-7.12-.53-10.43a.55.54-24.3 0 0-.73-.27q-8.65 4.11-15.9 10.4a.78.78 0 0 0-.21.87c2.47 6.22 7.13 10.56 14.16 7.04q.42-.21.45-.69m63.16-2.49c-4.29-3.76-9.26-6.89-14.52-10.32q-.48-.32-.93.03c-7.77 5.94-16.61 3.02-25.5 3.99a.81.81 0 0 0-.7.65q-.63 3.28.36 6.47a.63.62 72 0 0 .8.41q15.09-5.29 30.85-3.27c3.01.38 6.27 1.56 9.37 2.52q1.27.39.27-.48" class="C"/><path vector-effect="non-scaling-stroke" d="M46.39 48.93q1.54 6.05 6.06 10.37.41.39.74-.07 10.28-14.29 25.52-23.12.48-.28.08-.66-1.89-1.78-4.07-1.85-2.97-.09-10.12 1.53" class="B"/><path vector-effect="non-scaling-stroke" d="M64.6 35.13c-6.27-1.54-7.05-4.71-10.12-9.26q-.29-.43-.66-.07c-6.95 6.63-10.09 13.52-7.43 23.13" class="C"/><path vector-effect="non-scaling-stroke" d="M64.6 35.13q-10.29 5.58-18.21 13.8" class="E"/><path vector-effect="non-scaling-stroke" d="M111.22 28.84q-2.94-.42-7.23.87-.49.15-.38.64c1.81 8.19 17.11 12.26 24.12 13.8q9.97 2.21 20.38 4.5" class="B"/><path vector-effect="non-scaling-stroke" d="M148.11 48.65q.75.21 1.09.14.39-.07.12-.71-1.14-2.77-2.91-5.38" class="C"/><path vector-effect="non-scaling-stroke" d="M146.41 42.7q-3.17-7.95-11.42-10.42" class="B"/><path vector-effect="non-scaling-stroke" d="M134.99 32.28q-10.76-5.12-23.77-3.44" class="C"/><g class="E"><path vector-effect="non-scaling-stroke" d="M134.99 32.28q7.31 4.02 11.42 10.42"/><path vector-effect="non-scaling-stroke" d="M148.11 48.65q-8.35-6.81-10.84-8.62-10.4-7.56-26.05-11.19"/></g><path vector-effect="non-scaling-stroke" d="M95.51 58.87l1.34.34q.3.07.3.38l-.01.38q-.01.51.5.63c3.51.79 7.29.54 10.45 1.17q3.99.79 8.05 1.93 1.04.29.32-.51l-4.94-5.51" class="G"/><path vector-effect="non-scaling-stroke" d="M111.52 57.68q-4.38-7.25-.72-15.37a.58.58 0 0 0-.32-.78q-7.58-3.02-10.12-10.71-.12-.37-.5-.26-16.45 4.68-29.83 15.29-.66.52.18.6c9.5.85 17.72 3.27 21.83 12.72q.23.52.79.38l2.68-.68" class="B"/><path vector-effect="non-scaling-stroke" d="M111.52 57.68q-8.15-.26-16.01 1.19" class="I"/><path vector-effect="non-scaling-stroke" d="M36.16 60.7q-1.93 7.36-1.92 16.31c0 3.03 5.3 6.07 7.5 8.1q.35.33.44-.14 2.32-11.74 8.77-21.8a.75.74 37.2 0 0-.14-.97q-4.9-4.2-6.99-10.79" class="B"/><path vector-effect="non-scaling-stroke" d="M43.82 51.41l-1.06-7.81q-.17-1.27-.73-.11-3.69 7.69-5.87 17.21" class="C"/><path vector-effect="non-scaling-stroke" d="M43.82 51.41l-7.66 9.29" class="E"/><path vector-effect="non-scaling-stroke" d="M117.59 58.48q2 3.35 4.2 6.3 1.41 1.89 3.93 3.46 7.5 4.69 13.26 11.41a.4.39-61 0 0 .69-.2q1.11-7.68-.19-14.66" class="G"/><path vector-effect="non-scaling-stroke" d="M139.48 64.79c-.68-3.91-1.8-10.03-5.21-12.33q-9.21-6.2-20.03-9.1-.52-.14-.71.37-3.75 9.74 4.06 14.75" class="B"/><path vector-effect="non-scaling-stroke" d="M139.48 64.79q-10.54-5.1-21.89-6.31" class="I"/><path vector-effect="non-scaling-stroke" d="M148.37 51.88q-6.61-1.68-13.3-3.08-.07-.02-.03-.08 1.3-1.97-.16.15a.14.13 34.8 0 0 .04.19c6 3.68 12.59 6.17 15.17 13.39q2.24 6.25 5.54 12.12.55.96.52-.14-.2-10.19-3.82-19.59c-.83-2.17-1.86-2.43-3.96-2.96M67.22 70.44c6.84-4.47 13.59-7.57 21.58-9.9q.49-.14.35-.63c-2.26-8.21-13.27-10.65-20.7-10.35-1.46.06-1.61-.47-2.85.78q-9.81 9.97-15.8 20.61a.34.34 0 0 0 .44.47q7.79-3.8 16.03-.87.5.18.95-.11M25.2 90.89q2.68 1.4 5.61 1.2.59-.04.54-.62-.82-11.42.07-22.64" class="B"/><path vector-effect="non-scaling-stroke" d="M31.42 68.83l.31-2.66q.06-.54-.44-.75-7.46-2.99-9.72-10.65-.27-.91-.58-.01-4.87 14.08-3.78 29 .04.52.36.93 3.17 3.91 7.63 6.2" class="C"/><path vector-effect="non-scaling-stroke" d="M31.42 68.83q-3.81 10.35-4.85 21.4-.06.66-1.37.66" class="E"/><path vector-effect="non-scaling-stroke" d="M142.65 66.1q.8 8.78-.16 17.1-.06.47.15.89l5.61 11.16a.38.38 0 0 0 .59.12q6.24-5.28 7.76-13.32a1.46 1.43-54.7 0 0-.16-1.01l-5.28-9.31" class="G"/><path vector-effect="non-scaling-stroke" d="M151.16 71.73q-2.12-4.72-3.72-8.92c-1.23-3.27-3.31-4.74-6.19-6.23q-.62-.32-.48.36l1.88 9.16" class="B"/><path vector-effect="non-scaling-stroke" d="M151.16 71.73l-8.51-5.63" class="I"/><path vector-effect="non-scaling-stroke" d="M86.58 77.53c17.42-3.91 27.69 7.75 31.31 23.2a.75.75 0 0 0 .63.57l3.48.44q.72.09.71-.63-.04-9.37 1.45-13.11 2.83-7.17 1.96-14.49a2.78 2.77 11.9 0 0-1.35-2.07q-22.06-12.92-46.18-3.68a.46.46 0 0 0-.19.73l7.45 8.8q.29.34.73.24m-32.32 22.51q.77-.35 1.27-1.52c2.23-5.23 11.18-7.15 16.73-7.25q8.58-.16 17.13 1.78a.44.43-4.4 0 0 .5-.58q-4.85-12.83-14.64-22.39a1.43 1.42-37.9 0 0-1.73-.21Q56.59 79.89 53.43 99.4q-.18 1.09.83.64m-8.2 13.21q2.65 9.34 7.7 18.91a.38.38 0 0 0 .72-.24c-2.06-12.78-5.82-23.86-2.64-37.51.84-3.59 3.07-7.68 3.89-11.94" class="G"/><path vector-effect="non-scaling-stroke" d="M55.73 82.47l7.91-9.03q.4-.45-.19-.6c-5.31-1.34-11.85-.21-15.25 4.27q-1.82 2.39-2.85 7.66-2.75 14.02.71 28.48" class="B"/><path vector-effect="non-scaling-stroke" d="M55.73 82.47q-10.76 13.11-9.67 30.78" class="I"/><path vector-effect="non-scaling-stroke" d="M128.08 85.53q-2.35 7.78-1.97 15.87a.51.51 0 0 0 .49.49q9.56.48 18.05-3.71a.9.9 0 0 0 .45-1.1q-4.53-12.9-14.72-21.98-.97-.86-.94.44c.09 3.52-.24 6.29-1.36 9.99m-34.19 8.44l19.75 5.88q1.08.32.68-.74c-4.4-11.56-12.02-22.08-25.84-19.38a.91.9-21.3 0 0-.6 1.36q3.55 5.83 5.49 12.36a.77.74 1 0 0 .52.52" class="G"/><path vector-effect="non-scaling-stroke" d="M44.76 118.91q-4.17-12.57-3.51-25.85c.23-4.56-2.6-7.74-6.43-9.71q-.52-.27-.51.32.53 23.42 11.9 43.82.56 1.01 2.09 1.61a.36.36 0 0 0 .46-.46c-1.3-3.3-3.05-6.87-4-9.73m-5.72 1.88q-5.13-11.92-6.89-24.36-.07-.52-.58-.66l-7.59-1.99" class="B"/><path vector-effect="non-scaling-stroke" d="M23.98 93.78l-4.61-2.81q-1.55-.94-1.11.81 4.93 19.63 21.3 31.51.74.54.39-.3l-.91-2.2" class="C"/><path vector-effect="non-scaling-stroke" d="M23.98 93.78l2.69 1.42q.48.25.57.79 2.29 14.06 11.8 24.8" class="E"/></g><path fill="#2c3848" d="M27.5 31.76C57-5.46 112.58-6.67 143.57 28.8q18.63 21.33 18.69 50.71.02 9.46-6.71 17.02c-8.32 9.35-21.86 12.15-33.98 10.86q-4.08-.44-13.45-3.29c-10.89-3.31-26.16-8.21-38.02-7.03-10.17 1.01-12.94 8.83-12.39 17.91q.68 11.22 3.8 22 .43 1.47.25 2.49a2.4 2.39 17.5 0 1-3.38 1.76c-13.12-6.18-27.89-15.7-36.17-27.26C4.49 89.23 9.36 54.63 27.5 31.76zm49.65-.81l4.75 2.97q.44.27.91.06l7.23-3.29q.51-.23.38-.78l-.4-1.76q-.99-9.86 3.56-17.78.4-.68-.38-.84-8.23-1.7-16.13.8a1.03 1.03 0 0 0-.64 1.39q1.78 4.18 1.65 8.48c-.1 3.1-2.17 5.76-3.66 8.54a1.42 1.42 0 0 0 1.15 2.09l1.58.12zm38.35-15.99c-5.37-2.65-11.96-4.38-17.91-5.13q-.59-.07-.81.47l-3.01 7.17q-.29.69.46.66c6.88-.27 14.99 1.05 21.28-2.18a.55.55 0 0 0-.01-.99zm-66.8 5.03q-10.14 5.6-16.45 15.5-4.14 4.94-7.04 10.7-1.38 2.75-1.11 5.32.79 7.36 7.63 10.94.49.25.6-.28c3.93-18.29 11.77-33.61 26.5-45.32 1.82-1.45 4.58-2.86 6.69-4.51a.19.18 16 0 0-.18-.32q-8.8 3.07-16.64 7.97zm22.58 10.16c.18-3.25 1.39-4.46 2.76-6.92 1.88-3.39.89-7.12-.53-10.43a.55.54-24.3 0 0-.73-.27q-8.65 4.11-15.9 10.4a.78.78 0 0 0-.21.87c2.47 6.22 7.13 10.56 14.16 7.04q.42-.21.45-.69zm63.16-2.49c-4.29-3.76-9.26-6.89-14.52-10.32q-.48-.32-.93.03c-7.77 5.94-16.61 3.02-25.5 3.99a.81.81 0 0 0-.7.65q-.63 3.28.36 6.47a.63.62 72 0 0 .8.41q15.09-5.29 30.85-3.27c3.01.38 6.27 1.56 9.37 2.52q1.27.39.27-.48zM46.39 48.93q1.54 6.05 6.06 10.37.41.39.74-.07 10.28-14.29 25.52-23.12.48-.28.08-.66-1.89-1.78-4.07-1.85-2.97-.09-10.12 1.53c-6.27-1.54-7.05-4.71-10.12-9.26q-.29-.43-.66-.07c-6.95 6.63-10.09 13.52-7.43 23.13zm64.83-20.09q-2.94-.42-7.23.87-.49.15-.38.64c1.81 8.19 17.11 12.26 24.12 13.8q9.97 2.21 20.38 4.5.75.21 1.09.14.39-.07.12-.71-1.14-2.77-2.91-5.38-3.17-7.95-11.42-10.42-10.76-5.12-23.77-3.44zM95.51 58.87l1.34.34q.3.07.3.38l-.01.38q-.01.51.5.63c3.51.79 7.29.54 10.45 1.17q3.99.79 8.05 1.93 1.04.29.32-.51l-4.94-5.51q-4.38-7.25-.72-15.37a.58.58 0 0 0-.32-.78q-7.58-3.02-10.12-10.71-.12-.37-.5-.26-16.45 4.68-29.83 15.29-.66.52.18.6c9.5.85 17.72 3.27 21.83 12.72q.23.52.79.38l2.68-.68zM36.16 60.7q-1.93 7.36-1.92 16.31c0 3.03 5.3 6.07 7.5 8.1q.35.33.44-.14 2.32-11.74 8.77-21.8a.75.74 37.2 0 0-.14-.97q-4.9-4.2-6.99-10.79l-1.06-7.81q-.17-1.27-.73-.11-3.69 7.69-5.87 17.21zm81.43-2.22q2 3.35 4.2 6.3 1.41 1.89 3.93 3.46 7.5 4.69 13.26 11.41a.4.39-61 0 0 .69-.2q1.11-7.68-.19-14.66c-.68-3.91-1.8-10.03-5.21-12.33q-9.21-6.2-20.03-9.1-.52-.14-.71.37-3.75 9.74 4.06 14.75zm30.78-6.6q-6.61-1.68-13.3-3.08-.07-.02-.03-.08 1.3-1.97-.16.15a.14.13 34.8 0 0 .04.19c6 3.68 12.59 6.17 15.17 13.39q2.24 6.25 5.54 12.12.55.96.52-.14-.2-10.19-3.82-19.59c-.83-2.17-1.86-2.43-3.96-2.96zM67.22 70.44c6.84-4.47 13.59-7.57 21.58-9.9q.49-.14.35-.63c-2.26-8.21-13.27-10.65-20.7-10.35-1.46.06-1.61-.47-2.85.78q-9.81 9.97-15.8 20.61a.34.34 0 0 0 .44.47q7.79-3.8 16.03-.87.5.18.95-.11zM25.2 90.89q2.68 1.4 5.61 1.2.59-.04.54-.62-.82-11.42.07-22.64l.31-2.66q.06-.54-.44-.75-7.46-2.99-9.72-10.65-.27-.91-.58-.01-4.87 14.08-3.78 29 .04.52.36.93 3.17 3.91 7.63 6.2zM142.65 66.1q.8 8.78-.16 17.1-.06.47.15.89l5.61 11.16a.38.38 0 0 0 .59.12q6.24-5.28 7.76-13.32a1.46 1.43-54.7 0 0-.16-1.01l-5.28-9.31q-2.12-4.72-3.72-8.92c-1.23-3.27-3.31-4.74-6.19-6.23q-.62-.32-.48.36l1.88 9.16zM86.58 77.53c17.42-3.91 27.69 7.75 31.31 23.2a.75.75 0 0 0 .63.57l3.48.44q.72.09.71-.63-.04-9.37 1.45-13.11 2.83-7.17 1.96-14.49a2.78 2.77 11.9 0 0-1.35-2.07q-22.06-12.92-46.18-3.68a.46.46 0 0 0-.19.73l7.45 8.8q.29.34.73.24zm-32.32 22.51q.77-.35 1.27-1.52c2.23-5.23 11.18-7.15 16.73-7.25q8.58-.16 17.13 1.78a.44.43-4.4 0 0 .5-.58q-4.85-12.83-14.64-22.39a1.43 1.42-37.9 0 0-1.73-.21Q56.59 79.89 53.43 99.4q-.18 1.09.83.64zm-8.2 13.21q2.65 9.34 7.7 18.91a.38.38 0 0 0 .72-.24c-2.06-12.78-5.82-23.86-2.64-37.51.84-3.59 3.07-7.68 3.89-11.94l7.91-9.03q.4-.45-.19-.6c-5.31-1.34-11.85-.21-15.25 4.27q-1.82 2.39-2.85 7.66-2.75 14.02.71 28.48zm82.02-27.72q-2.35 7.78-1.97 15.87a.51.51 0 0 0 .49.49q9.56.48 18.05-3.71a.9.9 0 0 0 .45-1.1q-4.53-12.9-14.72-21.98-.97-.86-.94.44c.09 3.52-.24 6.29-1.36 9.99zm-34.19 8.44l19.75 5.88q1.08.32.68-.74c-4.4-11.56-12.02-22.08-25.84-19.38a.91.9-21.3 0 0-.6 1.36q3.55 5.83 5.49 12.36a.77.74 1 0 0 .52.52zm-49.13 24.94q-4.17-12.57-3.51-25.85c.23-4.56-2.6-7.74-6.43-9.71q-.52-.27-.51.32.53 23.42 11.9 43.82.56 1.01 2.09 1.61a.36.36 0 0 0 .46-.46c-1.3-3.3-3.05-6.87-4-9.73zm-5.72 1.88q-5.13-11.92-6.89-24.36-.07-.52-.58-.66l-7.59-1.99-4.61-2.81q-1.55-.94-1.11.81 4.93 19.63 21.3 31.51.74.54.39-.3l-.91-2.2z"/><path d="M90.02 28.15q-6.94.1-12.87 2.8l-1.58-.12a1.42 1.42 0 0 1-1.15-2.09c1.49-2.78 3.56-5.44 3.66-8.54q.13-4.3-1.65-8.48a1.03 1.03 0 0 1 .64-1.39q7.9-2.5 16.13-.8.78.16.38.84-4.55 7.92-3.56 17.78zm7.57-18.32c5.95.75 12.54 2.48 17.91 5.13a.55.55 0 0 1 .01.99c-6.29 3.23-14.4 1.91-21.28 2.18q-.75.03-.46-.66l3.01-7.17q.22-.54.81-.47zM32.25 35.49q7.44-8.76 16.45-15.5 7.84-4.9 16.64-7.97a.19.18 16 0 1 .18.32c-2.11 1.65-4.87 3.06-6.69 4.51-14.73 11.71-22.57 27.03-26.5 45.32q-.11.53-.6.28-6.84-3.58-7.63-10.94-.27-2.57 1.11-5.32 2.9-5.76 7.04-10.7zm41.79-12.26c-1.37 2.46-2.58 3.67-2.76 6.92q-.03.48-.45.69c-7.03 3.52-11.69-.82-14.16-7.04a.78.78 0 0 1 .21-.87q7.25-6.29 15.9-10.4a.55.54-24.3 0 1 .73.27c1.42 3.31 2.41 7.04.53 10.43zm45.88-5.89c5.26 3.43 10.23 6.56 14.52 10.32q1 .87-.27.48c-3.1-.96-6.36-2.14-9.37-2.52q-15.76-2.02-30.85 3.27a.63.62 72 0 1-.8-.41q-.99-3.19-.36-6.47a.81.81 0 0 1 .7-.65c8.89-.97 17.73 1.95 25.5-3.99q.45-.35.93-.03z" class="F"/><path d="M48.7 19.99q-9.01 6.74-16.45 15.5 6.31-9.9 16.45-15.5z" class="D"/><path d="M64.6 35.13q-10.29 5.58-18.21 13.8c-2.66-9.61.48-16.5 7.43-23.13q.37-.36.66.07c3.07 4.55 3.85 7.72 10.12 9.26z" class="F"/><path d="M90.02 28.15l.4 1.76q.13.55-.38.78l-7.23 3.29q-.47.21-.91-.06l-4.75-2.97q5.93-2.7 12.87-2.8z" class="D"/><path d="M134.99 32.28q7.31 4.02 11.42 10.42 1.77 2.61 2.91 5.38.27.64-.12.71-.34.07-1.09-.14-8.35-6.81-10.84-8.62-10.4-7.56-26.05-11.19 13.01-1.68 23.77 3.44z" class="F"/><path d="M111.22 28.84q15.65 3.63 26.05 11.19 2.49 1.81 10.84 8.62-10.41-2.29-20.38-4.5c-7.01-1.54-22.31-5.61-24.12-13.8q-.11-.49.38-.64 4.29-1.29 7.23-.87zm.3 28.84q-8.15-.26-16.01 1.19l-2.68.68q-.56.14-.79-.38c-4.11-9.45-12.33-11.87-21.83-12.72q-.84-.08-.18-.6 13.38-10.61 29.83-15.29.38-.11.5.26 2.54 7.69 10.12 10.71a.58.58 0 0 1 .32.78q-3.66 8.12.72 15.37zm23.47-25.4q8.25 2.47 11.42 10.42-4.11-6.4-11.42-10.42zm-88.6 16.65q7.92-8.22 18.21-13.8 7.15-1.62 10.12-1.53 2.18.07 4.07 1.85.4.38-.08.66-15.24 8.83-25.52 23.12-.33.46-.74.07-4.52-4.32-6.06-10.37z" class="D"/><path d="M43.82 51.41l-7.66 9.29q2.18-9.52 5.87-17.21.56-1.16.73.11l1.06 7.81z" class="F"/><path d="M139.48 64.79q-10.54-5.1-21.89-6.31-7.81-5.01-4.06-14.75.19-.51.71-.37 10.82 2.9 20.03 9.1c3.41 2.3 4.53 8.42 5.21 12.33zm8.89-12.91c2.1.53 3.13.79 3.96 2.96q3.62 9.4 3.82 19.59.03 1.1-.52.14-3.3-5.87-5.54-12.12c-2.58-7.22-9.17-9.71-15.17-13.39a.14.13 34.8 0 1-.04-.19q1.46-2.12.16-.15-.04.06.03.08 6.69 1.4 13.3 3.08zM88.8 60.54c-7.99 2.33-14.74 5.43-21.58 9.9q-.45.29-.95.11-8.24-2.93-16.03.87a.34.34 0 0 1-.44-.47q5.99-10.64 15.8-20.61c1.24-1.25 1.39-.72 2.85-.78 7.43-.3 18.44 2.14 20.7 10.35q.14.49-.35.63z" class="D"/><path d="M355.9 57.61c-12.33-3.72-21.83 6.71-17.32 18.56 3.18 8.36 12.65 10.17 20.09 6 4.88-2.73 6.69 2.65 2.6 4.85-14.05 7.56-30.51-1.68-29.41-18.02.9-13.41 14.02-20.88 26.39-16.53 2.62.93 5.09 4 1.89 5.66-1.73.89-2.74-.07-4.24-.52z" class="H"/><path d="M43.82 51.41Q45.91 58 50.81 62.2a.75.74 37.2 0 1 .14.97q-6.45 10.06-8.77 21.8-.09.47-.44.14c-2.2-2.03-7.5-5.07-7.5-8.1q-.01-8.95 1.92-16.31l7.66-9.29z" class="D"/><path d="M387.43 77q-.18 4.42-.17 8.84c0 1.99-.9 3.07-2.87 3.1a2.46 2.45-.5 0 1-2.51-2.46l.02-31.72a2.77 2.76 89.6 0 1 2.71-2.76c5.09-.1 12.14-.77 16.37 1.14 9.06 4.1 9.21 16.63.81 21.59a.88.87-30.7 0 0-.31 1.21q2.66 4.46 5.11 9.3c1.52 3-2.67 5.45-4.81 2.07q-3.16-4.97-5.72-10.24a1.28 1.28 0 0 0-1.15-.72l-6.85.04a.63.63 0 0 0-.63.61zm-.1-18.22l.02 10.74a1.23 1.23 0 0 0 1.23 1.23l7.5-.01a6.36 6.23 89.9 0 0 6.22-6.37v-.48a6.36 6.23 89.9 0 0-6.24-6.35l-7.5.01a1.23 1.23 0 0 0-1.23 1.23zm149.75-.5q-.21 13.74-.07 27.47.03 3.35-3.11 3.38a2.44 2.44 0 0 1-2.46-2.44l-.08-28.03a1.02 1.02 0 0 0-1-1.01q-3.12-.07-6.39-.18c-4.17-.14-4.2-5.51-.22-5.53q10.38-.04 20.75-.05c4.06 0 4.28 5.39.1 5.43q-3.44.04-6.9.3-.61.05-.62.66zm-338.61.41l.05 8.07a.99.99 0 0 0 .97.99q5.68.14 10.99.06c2.09-.04 4.03.49 3.91 2.91a2.67 2.66.9 0 1-2.62 2.53l-12.23.15a1.06 1.05 89.7 0 0-1.04 1.06l-.01 8.29a.97.96 90 0 0 .96.97q8.15.04 16.3.04c2.73-.01 3.76 5.44-1.7 5.36q-9.18-.13-18.1.1a3.02 3.02 0 0 1-3.1-3.03l.08-31.64a2.57 2.57 0 0 1 2.55-2.56q9.82-.07 18.8-.03c1.96 0 3.71.49 3.83 2.64.1 1.76-1.31 2.88-3.08 2.9q-7.66.11-15.4.03a1.15 1.15 0 0 0-1.16 1.16zm38.02-3.37a3.43 3.43 0 0 1 3.42-3.44l7.16-.02a19.98 18.43-.2 0 1 20.05 18.36v.4a19.98 18.43-.2 0 1-19.91 18.5l-7.17.02a3.43 3.43 0 0 1-3.45-3.42l-.1-30.4zm5.67 3.45l-.08 23.64a1.25 1.25 0 0 0 1.24 1.25l4.74.02a13.41 12.65.2 0 0 13.46-12.61v-.84a13.41 12.65.2 0 0-13.36-12.69l-4.74-.02a1.25 1.25 0 0 0-1.26 1.25zm49.05 16.22c.08 11.63 16.33 11.78 16.58.26q.22-10.47.17-20.69a2.42 2.41-17.3 0 1 1.05-1.99c2.72-1.83 4.44.25 4.48 2.96q.12 9.2-.03 18.38-.08 4.76-1.35 7.48c-4.97 10.57-20.83 9.98-25.26-.56q-1.09-2.59-1.12-8.3-.05-9.27-.01-18.53c.01-2.48 5.53-3.37 5.49 1.72q-.07 9.64 0 19.27zm157.84 4.35l-12.94-.07a1.52 1.52 0 0 0-1.46 1.06c-.65 2.03-2.44 8.24-4.48 9.22-1.61.77-3.41-.17-3.69-2-.3-1.98.67-3.31 1.33-4.96q9.08-22.74 11.88-29.11.59-1.35 2.56-1.48c2.1-.13 2.96.95 3.71 2.87q5.91 15.11 12.13 30.09 1.3 3.13-1.21 4.58a2.39 2.39 0 0 1-3.44-1.21l-3.09-8.08a1.41 1.4 79.9 0 0-1.3-.91zm-11.24-6.78a.95.95 0 0 0 .87 1.31l7.65.05a.95.95 0 0 0 .89-1.3l-3.75-9.46a.95.95 0 0 0-1.77-.02l-3.89 9.42zm45.47-4.95q5.39.59 10.81.28c2.25-.13 4.64.34 4.18 3.11q-.3 1.82-2.65 1.94-5.99.33-11.76.43a1.32 1.32 0 0 0-1.3 1.3l-.17 11.99a2.59 2.59 0 0 1-2.58 2.55c-1.99 0-2.89-1.44-2.92-3.34q-.28-15.55-.07-30.82a3.11 3.11 0 0 1 3.1-3.07q9.33-.01 19.08-.02 3.15 0 3.02 3.15a2.56 2.55 1.2 0 1-2.56 2.45l-15.63.01a1.35 1.34-90 0 0-1.34 1.35l.04 7.85a.85.84-87 0 0 .75.84z" class="H"/><path d="M31.42 68.83q-3.81 10.35-4.85 21.4-.06.66-1.37.66-4.46-2.29-7.63-6.2-.32-.41-.36-.93-1.09-14.92 3.78-29 .31-.9.58.01 2.26 7.66 9.72 10.65.5.21.44.75l-.31 2.66z" class="F"/><path d="M151.16 71.73l-8.51-5.63-1.88-9.16q-.14-.68.48-.36c2.88 1.49 4.96 2.96 6.19 6.23q1.6 4.2 3.72 8.92z" class="D"/><path d="M111.52 57.68l4.94 5.51q.72.8-.32.51-4.06-1.14-8.05-1.93c-3.16-.63-6.94-.38-10.45-1.17q-.51-.12-.5-.63l.01-.38q0-.31-.3-.38l-1.34-.34q7.86-1.45 16.01-1.19zm6.07.8q11.35 1.21 21.89 6.31 1.3 6.98.19 14.66a.4.39-61 0 1-.69.2q-5.76-6.72-13.26-11.41-2.52-1.57-3.93-3.46-2.2-2.95-4.2-6.3zm.3 42.25c-3.62-15.45-13.89-27.11-31.31-23.2q-.44.1-.73-.24l-7.45-8.8a.46.46 0 0 1 .19-.73q24.12-9.24 46.18 3.68a2.78 2.77 11.9 0 1 1.35 2.07q.87 7.32-1.96 14.49-1.49 3.74-1.45 13.11.01.72-.71.63l-3.48-.44a.75.75 0 0 1-.63-.57zm24.76-34.63l8.51 5.63 5.28 9.31a1.46 1.43-54.7 0 1 .16 1.01q-1.52 8.04-7.76 13.32a.38.38 0 0 1-.59-.12l-5.61-11.16q-.21-.42-.15-.89.96-8.32.16-17.1z" class="H"/><path d="M31.42 68.83q-.89 11.22-.07 22.64.05.58-.54.62-2.93.2-5.61-1.2 1.31 0 1.37-.66 1.04-11.05 4.85-21.4z" class="D"/><path d="M54.26 100.04q-1.01.45-.83-.64 3.16-19.51 20.09-29.53a1.43 1.42-37.9 0 1 1.73.21q9.79 9.56 14.64 22.39a.44.43-4.4 0 1-.5.58q-8.55-1.94-17.13-1.78c-5.55.1-14.5 2.02-16.73 7.25q-.5 1.17-1.27 1.52z" class="H"/><path d="M55.73 82.47q-10.76 13.11-9.67 30.78-3.46-14.46-.71-28.48 1.03-5.27 2.85-7.66c3.4-4.48 9.94-5.61 15.25-4.27q.59.15.19.6l-7.91 9.03z" class="D"/><path d="M128.08 85.53c1.12-3.7 1.45-6.47 1.36-9.99q-.03-1.3.94-.44 10.19 9.08 14.72 21.98a.9.9 0 0 1-.45 1.1q-8.49 4.19-18.05 3.71a.51.51 0 0 1-.49-.49q-.38-8.09 1.97-15.87zm-14.44 14.32l-19.75-5.88a.77.74 1 0 1-.52-.52q-1.94-6.53-5.49-12.36a.91.9-21.3 0 1 .6-1.36c13.82-2.7 21.44 7.82 25.84 19.38q.4 1.06-.68.74zM55.73 82.47c-.82 4.26-3.05 8.35-3.89 11.94-3.18 13.65.58 24.73 2.64 37.51a.38.38 0 0 1-.72.24q-5.05-9.57-7.7-18.91-1.09-17.67 9.67-30.78z" class="H"/><path d="M44.76 118.91c.95 2.86 2.7 6.43 4 9.73a.36.36 0 0 1-.46.46q-1.53-.6-2.09-1.61-11.37-20.4-11.9-43.82-.01-.59.51-.32c3.83 1.97 6.66 5.15 6.43 9.71q-.66 13.28 3.51 25.85z" class="D"/><path d="M23.98 93.78l2.69 1.42q.48.25.57.79 2.29 14.06 11.8 24.8l.91 2.2q.35.84-.39.3-16.37-11.88-21.3-31.51-.44-1.75 1.11-.81l4.61 2.81z" class="F"/><path d="M23.98 93.78l7.59 1.99q.51.14.58.66 1.76 12.44 6.89 24.36-9.51-10.74-11.8-24.8-.09-.54-.57-.79l-2.69-1.42z" class="D"/></svg>