<svg xmlns="http://www.w3.org/2000/svg" viewBox="0 0 165 154" xmlns:v="https://vecta.io/nano"><style><![CDATA[.B{stroke:#7b7378}.C{stroke:#8692a2}.D{fill:#c9ada7}.E{stroke:#d5ccd1}.F{stroke:#3b4359}.G{fill:#e0ebfb}.H{stroke:#8a7e88}.I{fill:#4a4e69}]]></style><g fill="none" stroke-width="2"><path vector-effect="non-scaling-stroke" d="M70.75 35.82l4.42 2.92q.42.27.87.07l7.07-3.16a.82.81 80 0 0 .48-.7q.06-1.05-.37-2.05" class="B"/><path vector-effect="non-scaling-stroke" d="M83.22 32.9q-.86-9.7 3.69-17.83a.47.47 0 0 0-.37-.7c-5.38-.52-11.35-1.15-16.39 1.29a.79.78-23.7 0 0-.39.99c1.87 4.92 2.98 10.05-.92 14.73q-.86 1.03-1.14 3.53-.05.48.41.63 1.49.48 2.64.28" class="C"/><path vector-effect="non-scaling-stroke" d="M83.22 32.9q-6.56.24-12.47 2.92" class="E"/><path vector-effect="non-scaling-stroke" d="M86.87 22.75q-.13.31.21.3c6.79-.23 15.48 1.2 21.67-2.23a.46.45-47.3 0 0-.03-.81q-8.71-3.94-18.2-5.23-.28-.04-.39.22l-3.26 7.75M25.95 66.8c4.1-20.57 14.5-38.15 32.64-49.26q.14-.09.11-.22-.02-.07-.08-.12-.08-.06-.22-.01c-17.81 6.22-30.45 17-39.41 33.43q-1.42 2.61-1.28 5.03.43 7.69 7.51 11.5a.5.5 0 0 0 .73-.35m38.64-31.65c.29-4.72 4.58-7.19 3.77-11.7q-.54-2.96-1.34-5.62a.55.55 0 0 0-.76-.34q-8.89 4.11-16.18 10.66a.19.18 60.6 0 0-.05.2c2.11 6.66 6.92 10.4 14.05 7.51q.48-.19.51-.71m47.36-12.77c-3.83 2.93-7.24 3.66-12.21 3.74-4.19.06-8.79-.58-12.88.17a1.44 1.44 0 0 0-1.18 1.52l.35 4.97a1 .99-11.3 0 0 1.31.87c12.65-4.21 27.15-5.49 39.9-.48a.26.26 0 0 0 .27-.44q-6.79-5.91-14.59-10.42-.51-.29-.97.07" class="C"/><path vector-effect="non-scaling-stroke" d="M39.84 53.74q1.53 5.78 6.06 10.38.35.37.65-.05Q56.8 49.83 71.94 40.99a.65.65 0 0 0-.01-1.13q-2.88-1.65-6.34-1.1-4.29.68-7.64 1.23" class="B"/><path vector-effect="non-scaling-stroke" d="M57.95 39.99c-5.74-1.4-7.47-4.68-10.02-9.2q-.23-.42-.59-.1c-7.09 6.44-9.89 13.48-7.5 23.05" class="C"/><path vector-effect="non-scaling-stroke" d="M57.95 39.99q-10.38 5.73-18.11 13.75" class="E"/><path vector-effect="non-scaling-stroke" d="M104.27 33.86q-2.45-.57-6.99.71a.75.75 0 0 0-.5.98c2.57 7.14 12.68 10.56 19.48 12.21q12.11 2.94 24.51 5.58" class="B"/><path vector-effect="non-scaling-stroke" d="M140.77 53.34q.77.27 1.19.24.59-.04.35-.57c-2.5-5.51-5.49-10.77-10.74-13.95q-6.24-3.78-14.06-5.1-6.96-1.18-13.24-.1" class="C"/><path vector-effect="non-scaling-stroke" d="M140.77 53.34q-2.96-2.3-5.56-4.52-13.07-11.19-30.94-14.96" class="E"/><path vector-effect="non-scaling-stroke" d="M86.32 64.37q4.25 1.41 8.46 1.72 6.81.52 7.14.57 3.67.62 7 1.65a.51.51 0 0 0 .52-.83l-4.82-5.14" class="F"/><path vector-effect="non-scaling-stroke" d="M104.62 62.34q-4.35-7.23-.85-14.7a1.13 1.12 23.8 0 0-.6-1.52q-7.27-2.96-9.59-10.37a.42.41 73.6 0 0-.51-.28q-16.27 4.6-29.51 15.05-.92.73.25.77 7.56.28 14.59 4.35 4.38 2.53 5.28 5.17 1.15 3.38 2.64 3.56" class="B"/><path vector-effect="non-scaling-stroke" d="M104.62 62.34c-6.07.16-12.38-.05-18.3 2.03" class="H"/><path vector-effect="non-scaling-stroke" d="M29.7 65.8q-1.97 7.05-2.11 15.19c-.06 3.44 5.15 6.53 7.62 8.49q.43.35.54-.2c1.63-8.18 4.76-14.32 8.63-21.57q.26-.47-.15-.83-4.79-4.25-6.85-10.55" class="B"/><path vector-effect="non-scaling-stroke" d="M37.38 56.33c-.95-3.36-1.01-5.6-1.04-8.49q-.01-1.02-.47-.11Q31.68 56 29.7 65.8" class="C"/><path vector-effect="non-scaling-stroke" d="M37.38 56.33L29.7 65.8" class="E"/><path vector-effect="non-scaling-stroke" d="M110.72 63.22q2.03 3.42 4.18 6.39 1.34 1.84 3.7 3.25 7.62 4.56 12.97 10.98 1.05 1.27 1.21-.37.73-7.58-.35-14.05" class="F"/><path vector-effect="non-scaling-stroke" d="M132.43 69.42c-.59-3.18-2.17-10.69-4.75-12.11-4.44-2.43-8.8-5.28-13.49-6.92q-3.43-1.19-6.88-2.23-.51-.15-.7.34-3.69 9.82 4.11 14.72" class="B"/><path vector-effect="non-scaling-stroke" d="M132.43 69.42q-10.61-5.02-21.71-6.2" class="H"/><path vector-effect="non-scaling-stroke" d="M142.99 57.15q-7.4-2.17-15.07-3.52-.76-.14-.09.25c3.99 2.34 9.12 4.77 12.27 8.26q1.63 1.81 3.12 5.61 2.15 5.51 4.8 10.64 1.1 2.12 1-.27-.39-9.47-4.23-19.32-.5-1.27-1.8-1.65M60.52 75.09c6.65-4.38 13.82-7.65 21.5-9.82q.46-.13.35-.6C80.24 55.96 67.8 53.78 59.91 54.5q-.47.04-.81.38-6.03 6.14-11.88 14.33-2.43 3.4-3.78 6.5-.3.68.37.35 7.63-3.77 15.77-.86.5.18.94-.11M19.9 95.87q1.33.62 4.3.8.56.04.55-.52l-.34-18.64" class="B"/><path vector-effect="non-scaling-stroke" d="M24.41 77.51l.9-6.21a1.25 1.25 0 0 0-.74-1.32q-7.11-3.09-9.35-10.46-.26-.82-.54-.01-4.8 13.7-3.61 28.48c.28 3.42 6.02 6.63 8.83 7.88" class="C"/><path vector-effect="non-scaling-stroke" d="M24.41 77.51c-.71 1.78-1.67 3.01-2.08 4.91q-1.4 6.51-2.43 13.45" class="E"/><path vector-effect="non-scaling-stroke" d="M135.56 70.9q.93 8.84-.25 16.63a1.61 1.57 36.9 0 0 .15.96l5.56 11.01a.62.62 0 0 0 .96.18c3.14-2.78 9.43-11 6.51-15.4-.63-.95-4.42-8.22-4.59-8.28" class="F"/><path vector-effect="non-scaling-stroke" d="M143.9 76c-2.89-5.98-3.12-11.78-9.94-14.72a.26.26 0 0 0-.36.3l1.96 9.32" class="B"/><path vector-effect="non-scaling-stroke" d="M143.9 76q-.02.15-.07.26-.07.19-.23.08l-8.04-5.44" class="H"/><path vector-effect="non-scaling-stroke" d="M79.8 82.41c16.19-5.99 27.73 8.69 31.19 22.73q.12.48.61.58l3.06.64a.97.97 0 0 0 1.17-.99q-.31-7.76 2.09-15.13 2.01-6.17 1.19-12.43a1.86 1.86 0 0 0-.85-1.34c-14.12-9.05-30.47-10.06-46.03-4.24a.76.76 0 0 0-.32 1.2l7.41 8.85a.44.43-29 0 0 .48.13m-31.71 21.81c6.86-12.04 24.18-8.35 34.69-6.71a.41.41 0 0 0 .45-.56q-4.87-12.69-14.58-22.22-.38-.38-.92-.33c-2.89.23-8.66 6-9.85 7.23q-9.14 9.35-10.95 22.19-.45 3.24 1.16.4m-8.85 11.82c.85 6.53 4.79 14.16 7.71 19.95q.53 1.06.77-.1.06-.27-.08-1.01c-1.99-10.9-4.86-21.1-2.91-32.66.47-2.75 1.57-5.84 2.3-8.77.43-1.78 1.73-3.52 1.62-5.75" class="F"/><path vector-effect="non-scaling-stroke" d="M48.65 87.7l8.34-9.47a.44.43-61.8 0 0-.21-.71q-7.01-1.96-12.97 2.29-2.92 2.08-3.49 3.94-4.91 16.02-1.08 32.29" class="B"/><path vector-effect="non-scaling-stroke" d="M48.65 87.7q-9.47 12.01-9.07 27.36.01.37.19.69.12.21.14.44.03.39-.27.15l-.4-.3" class="H"/><path vector-effect="non-scaling-stroke" d="M119.77 106.44c5.97.17 12.09-.94 17.42-3.64a1.29 1.28 67.3 0 0 .63-1.56q-4.45-12.93-14.83-21.77a.34.34 0 0 0-.56.28c.23 4.42-.36 7.07-1.77 12.02q-1.96 6.88-1.43 14.15.03.51.54.52M81.19 85.31l5.9 13.08q.17.39.58.51l19 5.38a.61.6 87.5 0 0 .73-.8c-3.61-9.58-8.97-18.09-19.88-19.5q-3.2-.41-6.09.73-.43.17-.24.6" class="F"/><path vector-effect="non-scaling-stroke" d="M37.47 127.93q1.32 2.75 3.46 4.88.53.52.65.55 1.19.21.67-.82-8.72-17.23-7.43-36.62a5.18 5.16-67 0 0-1.67-4.15l-3.65-3.34q-1.67-1.52-1.61.73.49 19.93 9.58 38.77m-5.09-3.16c-3.95-10.2-5.11-15.59-6.68-24.07a.77.76.6 0 0-.61-.62l-4.55-.94" class="B"/><path vector-effect="non-scaling-stroke" d="M20.54 99.14q-4.88-1.38-7.43-3.59-1.7-1.48-1.16.71 4.83 19.48 21 31.28.5.37.47-.25-.06-1.24-1.04-2.52" class="C"/><path vector-effect="non-scaling-stroke" d="M20.54 99.14q2.11 14.58 11.84 25.63" class="E"/></g><path fill="#2c3848" d="M76.73 102.88c-9.2-2.01-22.49-2.59-24.97 9.37-1.79 8.65 1.11 20.84 3.64 29.36.66 2.24-1.03 5.39-3.64 4.16-11.29-5.35-21.7-11.86-30.32-20.47C-1.02 102.89.62 66.05 17.33 41.32 49.43-6.22 120.2-2.44 146.79 48.66q7.11 13.67 8.37 31.59c1.7 24.25-20.54 34.56-41.57 32q-4.39-.54-13.49-3.29-11.56-3.49-23.37-6.08zm-5.98-67.06l4.42 2.92q.42.27.87.07l7.07-3.16a.82.81 80 0 0 .48-.7q.06-1.05-.37-2.05-.86-9.7 3.69-17.83a.47.47 0 0 0-.37-.7c-5.38-.52-11.35-1.15-16.39 1.29a.79.78-23.7 0 0-.39.99c1.87 4.92 2.98 10.05-.92 14.73q-.86 1.03-1.14 3.53-.05.48.41.63 1.49.48 2.64.28zm16.12-13.07q-.13.31.21.3c6.79-.23 15.48 1.2 21.67-2.23a.46.45-47.3 0 0-.03-.81q-8.71-3.94-18.2-5.23-.28-.04-.39.22l-3.26 7.75zM25.95 66.8c4.1-20.57 14.5-38.15 32.64-49.26q.14-.09.11-.22-.02-.07-.08-.12-.08-.06-.22-.01c-17.81 6.22-30.45 17-39.41 33.43q-1.42 2.61-1.28 5.03.43 7.69 7.51 11.5a.5.5 0 0 0 .73-.35zm38.64-31.65c.29-4.72 4.58-7.19 3.77-11.7q-.54-2.96-1.34-5.62a.55.55 0 0 0-.76-.34q-8.89 4.11-16.18 10.66a.19.18 60.6 0 0-.05.2c2.11 6.66 6.92 10.4 14.05 7.51q.48-.19.51-.71zm47.36-12.77c-3.83 2.93-7.24 3.66-12.21 3.74-4.19.06-8.79-.58-12.88.17a1.44 1.44 0 0 0-1.18 1.52l.35 4.97a1 .99-11.3 0 0 1.31.87c12.65-4.21 27.15-5.49 39.9-.48a.26.26 0 0 0 .27-.44q-6.79-5.91-14.59-10.42-.51-.29-.97.07zM39.84 53.74q1.53 5.78 6.06 10.38.35.37.65-.05Q56.8 49.83 71.94 40.99a.65.65 0 0 0-.01-1.13q-2.88-1.65-6.34-1.1-4.29.68-7.64 1.23c-5.74-1.4-7.47-4.68-10.02-9.2q-.23-.42-.59-.1c-7.09 6.44-9.89 13.48-7.5 23.05zm64.43-19.88q-2.45-.57-6.99.71a.75.75 0 0 0-.5.98c2.57 7.14 12.68 10.56 19.48 12.21q12.11 2.94 24.51 5.58.77.27 1.19.24.59-.04.35-.57c-2.5-5.51-5.49-10.77-10.74-13.95q-6.24-3.78-14.06-5.1-6.96-1.18-13.24-.1zM86.32 64.37q4.25 1.41 8.46 1.72 6.81.52 7.14.57 3.67.62 7 1.65a.51.51 0 0 0 .52-.83l-4.82-5.14q-4.35-7.23-.85-14.7a1.13 1.12 23.8 0 0-.6-1.52q-7.27-2.96-9.59-10.37a.42.41 73.6 0 0-.51-.28q-16.27 4.6-29.51 15.05-.92.73.25.77 7.56.28 14.59 4.35 4.38 2.53 5.28 5.17 1.15 3.38 2.64 3.56zM29.7 65.8q-1.97 7.05-2.11 15.19c-.06 3.44 5.15 6.53 7.62 8.49q.43.35.54-.2c1.63-8.18 4.76-14.32 8.63-21.57q.26-.47-.15-.83-4.79-4.25-6.85-10.55c-.95-3.36-1.01-5.6-1.04-8.49q-.01-1.02-.47-.11Q31.68 56 29.7 65.8zm81.02-2.58q2.03 3.42 4.18 6.39 1.34 1.84 3.7 3.25 7.62 4.56 12.97 10.98 1.05 1.27 1.21-.37.73-7.58-.35-14.05c-.59-3.18-2.17-10.69-4.75-12.11-4.44-2.43-8.8-5.28-13.49-6.92q-3.43-1.19-6.88-2.23-.51-.15-.7.34-3.69 9.82 4.11 14.72zm32.27-6.07q-7.4-2.17-15.07-3.52-.76-.14-.09.25c3.99 2.34 9.12 4.77 12.27 8.26q1.63 1.81 3.12 5.61 2.15 5.51 4.8 10.64 1.1 2.12 1-.27-.39-9.47-4.23-19.32-.5-1.27-1.8-1.65zM60.52 75.09c6.65-4.38 13.82-7.65 21.5-9.82q.46-.13.35-.6C80.24 55.96 67.8 53.78 59.91 54.5q-.47.04-.81.38-6.03 6.14-11.88 14.33-2.43 3.4-3.78 6.5-.3.68.37.35 7.63-3.77 15.77-.86.5.18.94-.11zM19.9 95.87q1.33.62 4.3.8.56.04.55-.52l-.34-18.64.9-6.21a1.25 1.25 0 0 0-.74-1.32q-7.11-3.09-9.35-10.46-.26-.82-.54-.01-4.8 13.7-3.61 28.48c.28 3.42 6.02 6.63 8.83 7.88zM135.56 70.9q.93 8.84-.25 16.63a1.61 1.57 36.9 0 0 .15.96l5.56 11.01a.62.62 0 0 0 .96.18c3.14-2.78 9.43-11 6.51-15.4-.63-.95-4.42-8.22-4.59-8.28-2.89-5.98-3.12-11.78-9.94-14.72a.26.26 0 0 0-.36.3l1.96 9.32zM79.8 82.41c16.19-5.99 27.73 8.69 31.19 22.73q.12.48.61.58l3.06.64a.97.97 0 0 0 1.17-.99q-.31-7.76 2.09-15.13 2.01-6.17 1.19-12.43a1.86 1.86 0 0 0-.85-1.34c-14.12-9.05-30.47-10.06-46.03-4.24a.76.76 0 0 0-.32 1.2l7.41 8.85a.44.43-29 0 0 .48.13zm-31.71 21.81c6.86-12.04 24.18-8.35 34.69-6.71a.41.41 0 0 0 .45-.56q-4.87-12.69-14.58-22.22-.38-.38-.92-.33c-2.89.23-8.66 6-9.85 7.23q-9.14 9.35-10.95 22.19-.45 3.24 1.16.4zm-8.85 11.82c.85 6.53 4.79 14.16 7.71 19.95q.53 1.06.77-.1.06-.27-.08-1.01c-1.99-10.9-4.86-21.1-2.91-32.66.47-2.75 1.57-5.84 2.3-8.77.43-1.78 1.73-3.52 1.62-5.75l8.34-9.47a.44.43-61.8 0 0-.21-.71q-7.01-1.96-12.97 2.29-2.92 2.08-3.49 3.94-4.91 16.02-1.08 32.29zm80.53-9.6c5.97.17 12.09-.94 17.42-3.64a1.29 1.28 67.3 0 0 .63-1.56q-4.45-12.93-14.83-21.77a.34.34 0 0 0-.56.28c.23 4.42-.36 7.07-1.77 12.02q-1.96 6.88-1.43 14.15.03.51.54.52zM81.19 85.31l5.9 13.08q.17.39.58.51l19 5.38a.61.6 87.5 0 0 .73-.8c-3.61-9.58-8.97-18.09-19.88-19.5q-3.2-.41-6.09.73-.43.17-.24.6zm-43.72 42.62q1.32 2.75 3.46 4.88.53.52.65.55 1.19.21.67-.82-8.72-17.23-7.43-36.62a5.18 5.16-67 0 0-1.67-4.15l-3.65-3.34q-1.67-1.52-1.61.73.49 19.93 9.58 38.77zm-5.09-3.16c-3.95-10.2-5.11-15.59-6.68-24.07a.77.76.6 0 0-.61-.62l-4.55-.94q-4.88-1.38-7.43-3.59-1.7-1.48-1.16.71 4.83 19.48 21 31.28.5.37.47-.25-.06-1.24-1.04-2.52z"/><path d="M83.22 32.9q-6.56.24-12.47 2.92-1.15.2-2.64-.28-.46-.15-.41-.63.28-2.5 1.14-3.53c3.9-4.68 2.79-9.81.92-14.73a.79.78-23.7 0 1 .39-.99c5.04-2.44 11.01-1.81 16.39-1.29a.47.47 0 0 1 .37.7q-4.55 8.13-3.69 17.83zm3.65-10.15L90.13 15q.11-.26.39-.22 9.49 1.29 18.2 5.23a.46.45-47.3 0 1 .03.81c-6.19 3.43-14.88 2-21.67 2.23q-.34.01-.21-.3zm-28.28-5.21C40.45 28.65 30.05 46.23 25.95 66.8a.5.5 0 0 1-.73.35q-7.08-3.81-7.51-11.5-.14-2.42 1.28-5.03c8.96-16.43 21.6-27.21 39.41-33.43q.14-.05.22.01.06.05.08.12.03.13-.11.22zm9.77 5.91c.81 4.51-3.48 6.98-3.77 11.7q-.03.52-.51.71c-7.13 2.89-11.94-.85-14.05-7.51a.19.18 60.6 0 1 .05-.2q7.29-6.55 16.18-10.66a.55.55 0 0 1 .76.34q.8 2.66 1.34 5.62zm31.38 2.67c4.97-.08 8.38-.81 12.21-3.74q.46-.36.97-.07 7.8 4.51 14.59 10.42a.26.26 0 0 1-.27.44c-12.75-5.01-27.25-3.73-39.9.48a1 .99-11.3 0 1-1.31-.87l-.35-4.97a1.44 1.44 0 0 1 1.18-1.52c4.09-.75 8.69-.11 12.88-.17zM57.95 39.99q-10.38 5.73-18.11 13.75c-2.39-9.57.41-16.61 7.5-23.05q.36-.32.59.1c2.55 4.52 4.28 7.8 10.02 9.2z" class="G"/><path d="M83.22 32.9q.43 1 .37 2.05a.82.81 80 0 1-.48.7l-7.07 3.16q-.45.2-.87-.07l-4.42-2.92q5.91-2.68 12.47-2.92z" class="D"/><path d="M140.77 53.34q-2.96-2.3-5.56-4.52-13.07-11.19-30.94-14.96 6.28-1.08 13.24.1 7.82 1.32 14.06 5.1c5.25 3.18 8.24 8.44 10.74 13.95q.24.53-.35.57-.42.03-1.19-.24z" class="G"/><path d="M104.27 33.86q17.87 3.77 30.94 14.96 2.6 2.22 5.56 4.52-12.4-2.64-24.51-5.58c-6.8-1.65-16.91-5.07-19.48-12.21a.75.75 0 0 1 .5-.98q4.54-1.28 6.99-.71zm.35 28.48c-6.07.16-12.38-.05-18.3 2.03q-1.49-.18-2.64-3.56-.9-2.64-5.28-5.17-7.03-4.07-14.59-4.35-1.17-.04-.25-.77Q76.8 40.07 93.07 35.47a.42.41 73.6 0 1 .51.28q2.32 7.41 9.59 10.37a1.13 1.12 23.8 0 1 .6 1.52q-3.5 7.47.85 14.7zm-64.78-8.6q7.73-8.02 18.11-13.75 3.35-.55 7.64-1.23 3.46-.55 6.34 1.1a.65.65 0 0 1 .01 1.13Q56.8 49.83 46.55 64.07q-.3.42-.65.05-4.53-4.6-6.06-10.38z" class="D"/><path d="M37.38 56.33L29.7 65.8q1.98-9.8 6.17-18.07.46-.91.47.11c.03 2.89.09 5.13 1.04 8.49z" class="G"/><path d="M132.43 69.42q-10.61-5.02-21.71-6.2-7.8-4.9-4.11-14.72.19-.49.7-.34 3.45 1.04 6.88 2.23c4.69 1.64 9.05 4.49 13.49 6.92 2.58 1.42 4.16 8.93 4.75 12.11zm10.56-12.27q1.3.38 1.8 1.65 3.84 9.85 4.23 19.32.1 2.39-1 .27-2.65-5.13-4.8-10.64-1.49-3.8-3.12-5.61c-3.15-3.49-8.28-5.92-12.27-8.26q-.67-.39.09-.25 7.67 1.35 15.07 3.52zm-60.97 8.12c-7.68 2.17-14.85 5.44-21.5 9.82q-.44.29-.94.11-8.14-2.91-15.77.86-.67.33-.37-.35 1.35-3.1 3.78-6.5 5.85-8.19 11.88-14.33.34-.34.81-.38c7.89-.72 20.33 1.46 22.46 10.17q.11.47-.35.6zm-44.64-8.94q2.06 6.3 6.85 10.55.41.36.15.83c-3.87 7.25-7 13.39-8.63 21.57q-.11.55-.54.2c-2.47-1.96-7.68-5.05-7.62-8.49q.14-8.14 2.11-15.19l7.68-9.47z" class="D"/><path d="M24.41 77.51c-.71 1.78-1.67 3.01-2.08 4.91q-1.4 6.51-2.43 13.45c-2.81-1.25-8.55-4.46-8.83-7.88q-1.19-14.78 3.61-28.48.28-.81.54.01 2.24 7.37 9.35 10.46a1.25 1.25 0 0 1 .74 1.32l-.9 6.21z" class="G"/><path d="M143.9 76q-.02.15-.07.26-.07.19-.23.08l-8.04-5.44-1.96-9.32a.26.26 0 0 1 .36-.3c6.82 2.94 7.05 8.74 9.94 14.72z" class="D"/><path d="M104.62 62.34l4.82 5.14a.51.51 0 0 1-.52.83q-3.33-1.03-7-1.65-.33-.05-7.14-.57-4.21-.31-8.46-1.72c5.92-2.08 12.23-1.87 18.3-2.03zm6.1.88q11.1 1.18 21.71 6.2 1.08 6.47.35 14.05-.16 1.64-1.21.37-5.35-6.42-12.97-10.98-2.36-1.41-3.7-3.25-2.15-2.97-4.18-6.39zm.27 41.92c-3.46-14.04-15-28.72-31.19-22.73a.44.43-29 0 1-.48-.13l-7.41-8.85a.76.76 0 0 1 .32-1.2c15.56-5.82 31.91-4.81 46.03 4.24a1.86 1.86 0 0 1 .85 1.34q.82 6.26-1.19 12.43-2.4 7.37-2.09 15.13a.97.97 0 0 1-1.17.99l-3.06-.64q-.49-.1-.61-.58zm24.57-34.24l8.04 5.44q.16.11.23-.08.05-.11.07-.26c.17.06 3.96 7.33 4.59 8.28 2.92 4.4-3.37 12.62-6.51 15.4a.62.62 0 0 1-.96-.18l-5.56-11.01a1.61 1.57 36.9 0 1-.15-.96q1.18-7.79.25-16.63zM82.78 97.51c-10.51-1.64-27.83-5.33-34.69 6.71q-1.61 2.84-1.16-.4 1.81-12.84 10.95-22.19c1.19-1.23 6.96-7 9.85-7.23q.54-.05.92.33 9.71 9.53 14.58 22.22a.41.41 0 0 1-.45.56z" class="I"/><path d="M48.65 87.7q-9.47 12.01-9.07 27.36.01.37.19.69.12.21.14.44.03.39-.27.15l-.4-.3q-3.83-16.27 1.08-32.29.57-1.86 3.49-3.94 5.96-4.25 12.97-2.29a.44.43-61.8 0 1 .21.71l-8.34 9.47zM24.41 77.51l.34 18.64q.01.56-.55.52-2.97-.18-4.3-.8 1.03-6.94 2.43-13.45c.41-1.9 1.37-3.13 2.08-4.91z" class="D"/><path d="M137.19 102.8c-5.33 2.7-11.45 3.81-17.42 3.64q-.51-.01-.54-.52-.53-7.27 1.43-14.15c1.41-4.95 2-7.6 1.77-12.02a.34.34 0 0 1 .56-.28q10.38 8.84 14.83 21.77a1.29 1.28 67.3 0 1-.63 1.56zm-50.1-4.41l-5.9-13.08q-.19-.43.24-.6 2.89-1.14 6.09-.73c10.91 1.41 16.27 9.92 19.88 19.5a.61.6 87.5 0 1-.73.8l-19-5.38q-.41-.12-.58-.51z" class="I"/><path d="M37.47 127.93q-9.09-18.84-9.58-38.77-.06-2.25 1.61-.73l3.65 3.34a5.18 5.16-67 0 1 1.67 4.15q-1.29 19.39 7.43 36.62.52 1.03-.67.82-.12-.03-.65-.55-2.14-2.13-3.46-4.88z" class="D"/><path d="M48.65 87.7c.11 2.23-1.19 3.97-1.62 5.75l-2.3 8.77c-1.95 11.56.92 21.76 2.91 32.66q.14.74.08 1.01-.24 1.16-.77.1c-2.92-5.79-6.86-13.42-7.71-19.95l.4.3q.3.24.27-.15-.02-.23-.14-.44-.18-.32-.19-.69-.4-15.35 9.07-27.36z" class="I"/><path d="M20.54 99.14q2.11 14.58 11.84 25.63.98 1.28 1.04 2.52.03.62-.47.25-16.17-11.8-21-31.28-.54-2.19 1.16-.71 2.55 2.21 7.43 3.59z" class="G"/><path d="M20.54 99.14l4.55.94a.77.76.6 0 1 .61.62c1.57 8.48 2.73 13.87 6.68 24.07q-9.73-11.05-11.84-25.63z" class="D"/></svg>