<svg xmlns="http://www.w3.org/2000/svg" viewBox="0 0 1920 1080" xmlns:v="https://vecta.io/nano"><style><![CDATA[.B{fill:#353f5a}.C{stroke:#94949f}.D{stroke:#797572}.E{stroke:#9a9fad}.F{fill:#f2e9e4}.G{stroke:#f9f4f2}.H{stroke:#1b202d}.I{fill:#fff}.J{stroke:gray}.K{stroke:#dad5d3}.L{stroke:#616161}.M{fill:#c1c1c1}]]></style><g fill="none" stroke-width="2"><path vector-effect="non-scaling-stroke" d="M1902.17 15.38a.34.34 0 0 0 .24.58l10.2.05a.34.34 0 0 0 .24-.58l-5.07-5.18a.34.34 0 0 0-.48 0l-5.13 5.13" class="E"/><path vector-effect="non-scaling-stroke" d="M1882.21 1057.01a.79.79 0 0 0 .79-.79V34.8a.79.79 0 0 0-.79-.79H12.81a.79.79 0 0 0-.79.79v1021.42a.79.79 0 0 0 .79.79h1869.4" class="G"/><path stroke="#e0e0e0" vector-effect="non-scaling-stroke" d="M1896.67 1001.99a1.04 1.04 0 0 0 1.04 1.04l19.51.01a1.04 1.04 0 0 0 1.04-1.04V532a1.04 1.04 0 0 0-1.04-1.04l-19.51.01a1.04 1.04 0 0 0-1.04 1.04v469.98"/><path vector-effect="non-scaling-stroke" d="M1912.68 1064.8a.43.43 0 0 0-.3-.74l-9.82.05a.43.43 0 0 0-.3.74l4.94 4.64a.43.43 0 0 0 .59 0l4.89-4.69" class="E"/><path vector-effect="non-scaling-stroke" d="M1021.02 171.43a2.89 2.89 0 0 0-5.78 0 2.89 2.89 0 0 0 5.78 0m-52.81 30.23l5.24 6.19q.33.39.83.39l5.71.02q.65 0 .21-.48l-6.47-7.02q-.29-.32.08-.53c8.01-4.5 9.18-15.05 6.07-22.86-3.36-8.45-16.17-9.97-22.51-4.36-4.19 3.71-5.19 11.09-4.27 16.36q2.11 12.1 14.34 11.94a.98.97-20.4 0 1 .77.35m-254.84-26.54q.87-1.29 1.27-2.9.13-.49-.34-.69-5.45-2.34-11.04-1.44c-5 .8-8.02 5.29-6.87 10.13 1.14 4.74 6.3 6.59 10.28 8.48 2.24 1.06 4.21 2.4 3.54 4.98-1.46 5.67-10.67 2.61-13.99 1.21q-.55-.24-.54.36l.09 3.99q.01.53.5.71c5.82 2.12 16.17 2.6 18.61-4.57q1.48-4.33-.95-7.54-1.28-1.69-5.2-3.66c-2.44-1.22-10.69-4.06-6.53-8.45 2.58-2.73 7.5-1.12 10.61.05a.42.42 0 0 0 .56-.27q.05-.19 0-.39" class="D"/><path vector-effect="non-scaling-stroke" d="M798.25 195.15q1.59-1.26 1.62-3.65.17-11.47-.32-20.88" class="K"/><path vector-effect="non-scaling-stroke" d="M799.55 170.62q-5.11-1.21-5.5.5" class="D"/><path vector-effect="non-scaling-stroke" d="M794.05 171.12q-.28 9.67-.19 18.46c.02 2.05-.55 3.63-1.26 5.48" class="C"/><path vector-effect="non-scaling-stroke" d="M792.6 195.06c-4.8 3.33-12.43 2.31-12.39-4.81q.06-9.73.06-19.47 0-.52-.53-.52h-4.44q-.44 0-.44.43-.01 9.17.01 18.3.03 11.82 11.59 12.39 8.29.41 11.79-6.23" class="D"/><path vector-effect="non-scaling-stroke" d="M792.6 195.06q1.8-2.32 1.93-5.31.36-8.8-.48-18.63" class="H"/><path vector-effect="non-scaling-stroke" d="M799.55 170.62q-.36 10.09-.39 19.38-.01 2.51-.91 5.15" class="L"/><path vector-effect="non-scaling-stroke" d="M857.77 200.76l.27-11.51a1.14 1.02-35.9 0 1 .1-.45l2.41-5.4" class="K"/><path vector-effect="non-scaling-stroke" d="M860.55 183.4l6.93-12.67q.25-.46-.28-.47l-4.63-.01q-.39 0-.58.36l-6.72 12.88a.39.39 0 0 1-.69 0l-6.63-12.76q-.23-.46-.75-.46l-4.42-.03q-.62 0-.32.55l9.37 17.38q.25.46.25.99l.03 11.14q0 .61.61.6l5.05-.14" class="D"/><path vector-effect="non-scaling-stroke" d="M860.55 183.4q-2.73 3.96-2.99 5.35-.62 3.34.21 12.01" class="L"/><path vector-effect="non-scaling-stroke" d="M1049.19 190.93a.34.34 0 0 0 .35.33l3.18-.03a.34.34 0 0 0 .34-.32l1.05-20.3a.34.34 0 0 0-.34-.36l-5.19.01a.34.34 0 0 0-.34.36l.95 20.31" class="D"/><path vector-effect="non-scaling-stroke" d="M743.22 180.07q.04.85.29 1.25.26.43.74.28l.7-.21" class="C"/><path vector-effect="non-scaling-stroke" d="M744.95 181.39l1.15.13q.51.05.5.56c-.01 3.99-.85 12.97.9 16.21 1.99 3.69 7.1 3.38 10.6 2.41q.54-.15.53-.71l-.08-2.82q-.02-.62-.61-.45-4.16 1.19-6.28-1.3" class="D"/><path vector-effect="non-scaling-stroke" d="M751.66 195.42v-14.04" class="C"/><path vector-effect="non-scaling-stroke" d="M751.66 181.38l6.33.08q.44 0 .43-.44l-.02-2.82a.46.45 89.3 0 0-.45-.45l-5.86-.01q-.35 0-.45-.33l-.1-.29" class="D"/><path vector-effect="non-scaling-stroke" d="M751.54 177.12q.7-1.25.16-3.29" class="C"/><path vector-effect="non-scaling-stroke" d="M751.7 173.83q.15-.22.19-.58.07-.64-.58-.66l-2.09-.06q-.51-.01-.69.47l-1.64 4.41a.87.86 3.1 0 1-.61.54q-2.52.61-3.06 2.12" class="D"/><path vector-effect="non-scaling-stroke" d="M751.7 173.83q-1.05 1.21-.16 3.29m.12 4.26q-1.22 7.02 0 14.04m-6.71-14.03q-1.14.16-1.73-1.32" class="H"/><path vector-effect="non-scaling-stroke" d="M731.03 177.3c-13.38-1.64-15.61 21.31-3.26 23.65q5.59 1.06 10.89-.93.49-.18.49-.71l-.03-3.09q0-.49-.47-.31c-5.58 2.16-12.99 2.94-13.81-4.92q-.05-.51.46-.51l14.45-.01q.44 0 .49-.44 1.2-11.45-9.21-12.73" class="D"/><path vector-effect="non-scaling-stroke" d="M807.09 178.31l.05 8.4" class="C"/><path vector-effect="non-scaling-stroke" d="M807.14 186.71l.08 9.03" class="D"/><path vector-effect="non-scaling-stroke" d="M807.22 195.74l-.01 9.77" class="C"/><path vector-effect="non-scaling-stroke" d="M807.21 205.51l-.12 5.26q-.01.46.45.47l4.45.02q.5 0 .49-.5l-.23-12.06q-.01-.51.37-.18c6.56 5.62 13.49 2.48 15.29-5.3 1.14-4.94.37-12.46-4.85-15.06q-5.54-2.77-10.46 2.28-.55.56-.71-.21l-.42-1.97q-.08-.36-.44-.41-3.28-.49-3.94.46" class="D"/><path vector-effect="non-scaling-stroke" d="M807.21 205.51l.01-9.77m-.08-9.03l.18.87q.06.3.16.01.04-.13.02-.26-.1-.6-.1-.71l-.31-8.31" class="H"/><path vector-effect="non-scaling-stroke" d="M888.4 196.07q3.16-4.92.97-10.96" class="K"/><path vector-effect="non-scaling-stroke" d="M889.37 185.11q-2.18-6.93-9.12-7.79c-17.05-2.11-16.61 26.94 1.03 23.77q4.48-.81 7.12-5.02" class="D"/><path vector-effect="non-scaling-stroke" d="M889.37 185.11q.73 5.88-.97 10.96" class="L"/><path vector-effect="non-scaling-stroke" d="M928.1 181.29l-.56-3.06q-.09-.46-.56-.47l-2.69-.02q-.48 0-.48.47l-.02 22.43q-.01.36.35.36h4.07q.48 0 .49-.48c.04-3.91-.98-12.88 1.23-15.89q2.27-3.09 6.97-2.45.48.07.53-.42l.35-3.88q.04-.52-.48-.59c-4.58-.56-5.66 1.31-8.66 4.18q-.43.41-.54-.18m-32.23 8.85c.01 2.4-.65 4.93.73 7.49 2.93 5.43 10.44 4.33 14.37.63q.58-.54.7.25l.28 1.89q.09.6.7.6h3.1q.51 0 .51-.5v-22.25q0-.5-.51-.5h-4.23q-.49 0-.47.5.18 5.24-.03 12.49-.18 6.17-5.53 6.32c-2.9.08-4.81-1.3-4.83-4.32q-.06-7.23.04-14.49.01-.49-.49-.49l-4.16-.01q-.43 0-.42.43.21 5.99.24 11.96" class="D"/><path vector-effect="non-scaling-stroke" d="M992.49 192.18q.96-7.27-.01-14.48" class="C"/><path vector-effect="non-scaling-stroke" d="M992.48 177.7l-4.38.07q-.49.01-.49.5.04 6.43.03 12.84c0 5.33.55 9.26 6.35 10.11q5.32.77 8.91-2.98a.45.44-26.7 0 1 .77.25l.21 1.75q.09.76.85.76h3.03q.51.01.51-.51l-.03-22.24q0-.51-.5-.5h-4.02q-.62 0-.61.62.06 6.02 0 11.99-.08 7.6-7.56 6.56-1.85-.26-2.56-2.4-.15-.47-.5-2.34" class="D"/><path vector-effect="non-scaling-stroke" d="M992.48 177.7q-.71 7.2.01 14.48" class="H"/><path vector-effect="non-scaling-stroke" d="M1020.72 200.72l-.02-22.94" class="C"/><path vector-effect="non-scaling-stroke" d="M1020.7 177.78l-4.45.03q-.58.01-.58.58l-.14 22.14q0 .43.43.41l4.76-.22" class="D"/><path vector-effect="non-scaling-stroke" d="M1020.7 177.78q-1.26 11.39.02 22.94" class="H"/><path vector-effect="non-scaling-stroke" d="M1037.19 182.2c-3.69 4.65-7.21 9.78-10.54 14.7q-1.09 1.62-.82 3.69.05.41.46.41h16.77q.55 0 .55-.56l-.05-2.93q0-.55-.55-.55l-10.39-.02q-.75 0-.33-.61 4.94-7.18 10.2-14.11c1-1.33.85-2.45.75-4q-.03-.47-.5-.47h-15.72q-.48 0-.47.48l.05 3.07q.01.44.45.44l9.92.01q.57 0 .22.45m17.17 16.02a3.28 3.28 0 0 0-6.56 0 3.28 3.28 0 0 0 6.56 0" class="D"/><path vector-effect="non-scaling-stroke" d="M732.34 302.58a1.48 1.48 0 1 0-2.96 0 1.48 1.48 0 1 0 2.96 0m-25.44 16.05c4.85-3.13 5.65-11.72 1-15.42-2.49-2-6.68-1.98-9.39-.34q-2.26 1.37-3.05 4.31c-1.58 5.79.58 11.97 7.6 11.96q.5 0 .79.42c1.42 2.03 2.68 4.21 5.6 3.3q.63-.2.16-.67l-2.79-2.78q-.45-.44.08-.78m49.95-12.99l7.98 12.78a1.79 1.78 29.2 0 0 3.3-.93l.09-15.02q.01-.51-.5-.5l-1.12.02q-.65.02-.65.66l.12 12.09a.4.4 0 0 1-.74.21l-7.78-12.65a1.75 1.75 0 0 0-3.24.9l-.17 15.08a.67.67 0 0 0 .63.68l1 .05q.82.04.81-.78l-.22-12.44a.27.26-61.6 0 1 .49-.15m-34.39 10.1q-2.14 2.3-5 .77a.95.94 14.4 0 1-.5-.83l-.04-8.97q0-.71-.71-.7h-1.41q-.59.01-.6.6-.05 3.75-.03 7.5c.04 5.18 4.48 6.43 8.36 3.95q.5-.33.79.2.5.92 1.61.75.62-.09.62-.72l-.03-11.66q0-.64-.64-.63l-1.57.03q-.4.01-.41.41l-.13 8.52a1.14 1.13-23.6 0 1-.31.78m9.6-9.31a.43.43 0 0 0-.43-.43h-1.58a.43.43 0 0 0-.43.43v12.12a.43.43 0 0 0 .43.43h1.58a.43.43 0 0 0 .43-.43v-12.12m9.02 2.4l-6.16 8.6a.99.99 0 0 0 .8 1.57l8.17.01a.75.75 0 0 0 .75-.79l-.02-.55q-.03-.66-.69-.67l-5.31-.04a.4.39-71.5 0 1-.31-.63l6.16-8.46a1.2 1.2 0 0 0-.98-1.91l-7.5.03a.93.92-87.9 0 0-.91.85q-.1 1.18 1.16 1.08 2.31-.16 4.58.27.63.13.26.64m39.15 9.13q.22 1.23 1.49 1.04.52-.08.51-.6c-.05-4.17 2.03-14.21-6-12.4-1.03.23-2.47.01-3.2 1.35a.81.81 0 0 0 1.01 1.13q2.51-1.02 4.97-.3a1.46 1.46 0 0 1-.34 2.86c-12.97.6-5.76 12.47.8 6.66q.61-.54.76.26m13.98-7.57c.22 2.7.56 4.95.07 7.96q-.09.6.52.62l1.41.04q.53.02.53-.52c-.01-2.66-.88-9.06 1.71-10.32q2.08-1.02 3.7.66a1.17 1.13 23.8 0 1 .33.8l.01 8.74q.01.62.63.62l1.09.01q.71 0 .7-.71l-.13-9.73a1.6 1.59 19.6 0 0-.57-1.2q-3.75-3.16-7.43.12-.29.26-.58 0-3.63-3.27-7.38-.09-.43.36-.52-.2-.2-1.42-1.66-1.19-.59.09-.6.69l-.01 11.81q0 .46.47.47l1.47.04q.52.01.52-.52-.04-3.89.23-7.73c.23-3.43 5.18-4.21 5.49-.37m17.09 2.57l7.43.04q.46.01.53-.45c1.21-7.99-9.68-9.33-10.93-1.29-1 6.5 3.67 8.69 9.28 7.63q1.61-.3 1.2-1.96-.13-.5-.61-.32c-2.93 1.09-7.76 1-7.37-3.23q.04-.43.47-.42m-115.97 85.33q1.14 1.47 4.17 1.47 235.12 0 470.25 0 1.94 0 3-1.5" class="C"/><path vector-effect="non-scaling-stroke" d="M1172.75 398.26c.59-1.07 1.23-2.17 1.24-3.45q.04-25.47-.01-50.36a4.47 4.47 0 0 0-4.47-4.46l-471.23.01a4.28 4.28 0 0 0-4.28 4.28q0 25.17 0 50.72 0 1.53 1.33 3.29" class="G"/><path vector-effect="non-scaling-stroke" d="M1172.75 398.26q-2.18.96-5.5.96-233.87 0-467.75.01-2.04 0-4.17-.94" class="E"/><path vector-effect="non-scaling-stroke" d="M812.5 454.94l-.03 9.41q0 .64.63.64h1.32q.66 0 .66-.66l.01-9.87q0-.44.45-.45l2.24-.04q.5-.01.49-.51l-.02-.9a.59.58-1.4 0 0-.61-.57q-1.15.06-1.54.01a1.6 1.47 45.4 0 1-.1-3.06l2.55-.11a.94.94 0 0 0 .25-1.83q-3.59-1.18-5.95 1.54-.35.4-.27.94.45 2.84-2.25 3.37a.44.44 0 0 0-.03.86l1.6.43q.61.17.6.8m-58.02-2.21l.03-5.25q0-.54-.53-.53l-1.3.02q-.58.01-.58.6l-.03 16.75q0 .52.5.64 1.38.32 1.64-.91a.38.37-66.5 0 1 .58-.23c11.33 7.61 12.29-17.55.2-10.79q-.51.29-.51-.3m124.66-4.14a1.46 1.46 0 0 0-2.92 0 1.46 1.46 0 0 0 2.92 0m-180.4 3.46l7.71 12.46a1.89 1.89 0 0 0 3.5-.99l.02-15.04q0-.49-.49-.52l-1.36-.06q-.51-.03-.51.48l.04 12.36a.29.29 0 0 1-.54.15l-7.76-12.41a1.84 1.84 0 0 0-3.4.97l.02 14.89q0 .62.62.63l1.16.02q.5.01.49-.49l-.11-12.27a.33.33 0 0 1 .61-.18m133.42 9.2a.23.23 0 0 1-.43 0l-4.29-12.79a.77.75 79.9 0 0-.73-.52l-1.39.03q-.74.01-.49.7l5.46 15.34a1.74 1.74 0 0 0 3.28 0l5.43-15.29a.57.57 0 0 0-.53-.76h-1.25q-.6 0-.79.56l-4.27 12.73m-100.45-8.39q-.54-1.04-1.66-.87-.62.09-.61.71l.03 11.66q0 .65.65.64l1.3-.02q.59 0 .56-.59c-.09-2.32-.88-9.27 1.86-10.25 2.8-1.01 3.76.7 3.76 3.21q0 3.51.03 7.05 0 .6.6.59h1.23q.62 0 .6-.62c-.1-3.21-1.31-10.03 3.24-10.42a2.29 2.28-2.2 0 1 2.47 2.28l-.04 8.01q-.01.76.76.76h1.06q.66-.01.67-.67c.03-2.79.71-9.16-1.04-11.21-1.77-2.08-4.91-1.35-7.04.18q-.44.31-.86-.04-3.35-2.76-6.8-.22-.49.36-.77-.18m-8.79 11.15l.44.78a1 .99-59.6 0 0 1.86-.49l.01-11.68a.61.61 0 0 0-.61-.61l-1.39-.01q-.64-.01-.64.64.06 3.43.1 6.85c.06 4.17-6.08 5.51-6.16.7q-.06-3.78.01-7.61a.56.55-90 0 0-.56-.57l-1.44.01q-.51 0-.54.51-.53 7.91.15 9.97c1.15 3.47 5.83 3.15 8.13 1.38q.4-.3.64.13m46.57-5.02l7.3.01q.55 0 .63-.54c1.24-8-9.77-9.23-10.92-1.21-.9 6.27 3.93 9.33 9.55 7.63q1.47-.44.94-1.88-.14-.38-.54-.3c-2.98.63-7.17 1.25-7.54-3.07q-.06-.64.58-.64m13.57-5.51l-.07-.85a.64.64 0 0 0-.6-.58l-.8-.05a.66.66 0 0 0-.71.66l-.03 11.86q0 .43.42.44l1.5.06q.64.02.63-.61c-.08-3.51-1.25-10.87 4.62-10.35q.47.04.51-.42l.09-1q.06-.55-.49-.65-2.74-.49-4.16 1.72a.5.5 0 0 1-.91-.23m25.246 3.848a5.42 5.42 0 0 0-5.486-5.353l-1.02.012a5.42 5.42 0 0 0-5.353 5.486l.028 2.28a5.42 5.42 0 0 0 5.486 5.353l1.02-.012a5.42 5.42 0 0 0 5.353-5.486l-.028-2.28m34.984 1.662l7.44.01q.44 0 .51-.44c1.32-8.07-9.85-9.47-10.93-1.05-.84 6.6 3.73 8.31 9.33 7.35 1.02-.17 1.4-.89 1.33-1.85q-.04-.56-.58-.41c-3.06.84-7.77 1.23-7.54-3.2q.03-.41.44-.41m13.5-5.34q0-.82-.29-1.36a.99.99 0 0 0-1.86.47l-.03 11.67q0 .56.57.56h1.28q.63.01.61-.63c-.1-3.06-1.16-10.99 4.31-10.3a1.074 1.074 0 0 0 .27-2.13q-2.75-.36-4.1 1.93a.41.41 0 0 1-.76-.21m10.65.36q2.38-.36 4.68.34a.58.58 0 0 0 .74-.44l.15-.8q.1-.51-.39-.67c-3.42-1.14-10.18-1.05-8.05 4.84a.78.74-88.6 0 0 .38.42l5.25 2.56a1.54 1.54 0 0 1-.8 2.92l-4.9-.4q-.41-.04-.45.38-.18 1.76 1.68 1.9c3.65.27 9.54.09 7.24-5.67a1.16 1.12-89.1 0 0-.59-.63l-5.26-2.41a1.23 1.23 0 0 1 .32-2.34m11.491-1.568a.43.43 0 0 0-.429-.431l-1.58-.003a.43.43 0 0 0-.431.429l-.021 12.1a.43.43 0 0 0 .429.431l1.58.003a.43.43 0 0 0 .431-.429l.021-12.1m15.249 4.948a5.43 5.43 0 0 0-5.43-5.43h-1.02a5.43 5.43 0 0 0-5.43 5.43v2.3a5.43 5.43 0 0 0 5.43 5.43h1.02a5.43 5.43 0 0 0 5.43-5.43v-2.3m5.62-4.58q-.42-1.1-1.67-.83-.54.12-.54.68l.01 11.75q0 .57.56.57l1.3.02q.64.01.62-.63c-.08-2.97-1.33-13.11 5.33-9.94a1.47 1.46 12.9 0 1 .84 1.32l.03 8.5q0 .72.72.74l1.02.02q.65.01.66-.64.07-4.14-.03-8.28c-.11-4.7-4.99-5.19-8.07-3.04q-.54.39-.78-.24m18.49 7.69a1.41 1.41 0 0 1-.56 2.61q-2.83.34-5.5-.53-.61-.2-.56.44l.09.97q.05.61.64.74c3.87.85 10.56.66 8.2-5.27q-.2-.51-.7-.74l-5.18-2.38a1.24 1.24 0 0 1 .26-2.34q2.42-.52 4.67.35a.58.58 0 0 0 .78-.41l.17-.69a.73.73 0 0 0-.49-.86c-2.21-.68-6.33-.97-7.84 1.3-2.59 3.9 3.86 5.52 6.02 6.81M767.7 486.25q-32.33.02-64.7 0c-5.71-.01-8.71.64-8.73 7q-.07 23.13.03 46.25.03 6.25 5.95 6.25 246.96.04 493.92-.02c4.46 0 7.45-1.11 7.49-5.98q.22-23.25.06-46.5c-.03-5.35-2.03-6.96-7.36-6.95q-33.09.05-66.15-.24" class="C"/><path vector-effect="non-scaling-stroke" d="M1128.21 486.06l-360.51.19" class="G"/><path vector-effect="non-scaling-stroke" d="M1128.21 486.06q-.05.32-.1.65" class="E"/><path vector-effect="non-scaling-stroke" d="M1128.11 486.71q-.29 27.79.01 56.04c.01.92.36 1.5.59 2.41" class="G"/><path vector-effect="non-scaling-stroke" d="M1128.71 545.16l-360.79.01" class="E"/><path vector-effect="non-scaling-stroke" d="M767.92 545.17l-.26-58.41" class="G"/><path vector-effect="non-scaling-stroke" d="M767.66 486.76q.16-.35.04-.51" class="E"/><path vector-effect="non-scaling-stroke" d="M767.66 486.76q-32.94.01-65.9-.23-7-.05-7 7.23.03 22.75.13 45.49.03 5.92 5.87 5.94 33.48.15 67.16-.02m360.79-.01q33.43.19 66.87-.21 5.63-.06 5.64-5.46.03-21.86.01-43.73c0-5.46-.36-9.1-6.74-9.04q-19.2.18-66.38-.01M815.5 599.01l2.14-.02q.63 0 .62-.63l-.01-.73q-.01-.62-.62-.62l-2.22-.01q-.61 0-.5-.6l.35-1.83q.11-.58.69-.61l2.58-.15a.93.93 0 0 0 .23-1.82q-3.63-1.12-5.89 1.55a1.42 1.42 0 0 0-.31 1.19q.52 2.73-2.13 3.04a.52.52 0 0 0-.02 1.03l1.68.29a.51.51 0 0 1 .43.5l-.04 9.77q0 .63.63.63h1.3a.66.65 0 0 0 .66-.65l-.06-9.84q0-.49.49-.49m-61.03-1.31l.04-5.09q.01-.65-.65-.65h-1.19q-.61 0-.61.62l-.02 16.39a1.01 1.01 0 0 0 1.1 1.01q1.01-.09 1.05-.93a.43.43 0 0 1 .72-.3c.74.68 1.25 1.12 2.28 1.29 10.16 1.62 7.83-18.24-2.15-12.02q-.58.36-.57-.32m87.52-.94l-.33 12.55a.66.66 0 0 0 .65.68l1.37.02q.71.01.7-.69l-.08-15.69q0-.67-.67-.68l-2.39-.02q-.62 0-.83.57l-4.56 12.33a.37.37 0 0 1-.7-.01l-4.2-12.04a2.11 2.11 0 0 0-4.11.7v14.9q0 .55.54.57l1.34.06q.51.03.51-.48l.04-12.24a.28.28 0 0 1 .55-.09l4.08 11.79a1.61 1.61 0 0 0 3.04.02l4.45-12.36a.31.31 0 0 1 .6.11m6.16 4.12c-.9 7.53 4.31 9.89 10.86 9.07q1.81-.22 1.26-2.25a.4.4 0 0 0-.55-.26c-12.01 5.24-12.23-16.96-.18-11.9a.57.57 0 0 0 .76-.34l.33-.98q.23-.68-.46-.88-10.78-3-12.02 7.54m26.38 8.87q6.59-4.85 3.15-13.08-1.3-3.14-4.16-3.67-10.05-1.89-10.6 7.97-.5 8.86 8.03 9.25.51.02.82.43c1.58 2.01 2.44 4.01 5.51 3.26q.59-.14.17-.57l-2.96-3.02q-.31-.31.04-.57m-166.82-3.79a.28.28 0 0 1-.52.15l-7.97-12.77a1.7 1.7 0 0 0-3.14.88l-.15 15.1q-.01.65.64.65l1.06.01q.62 0 .61-.61l-.13-12.36a.3.3 0 0 1 .55-.16l7.84 12.64a1.87 1.86-60.8 0 0 3.45-.98v-14.92q0-.61-.61-.62l-1.13-.02q-.61-.01-.6.59l.1 12.42m15.3 3.25q.49 1.16 1.88.72a.5.49-8.9 0 0 .35-.47V597.5q0-.49-.49-.49h-1.69q-.48 0-.48.49c.04 2.9 1.13 10.12-2.81 10.65q-2.97.4-3.08-2.4-.15-4.02-.22-8.1-.01-.66-.67-.65l-1.25.03q-.57.01-.59.57-.31 6.89.05 9.14c.67 4.09 5.52 4.13 8.16 2.24q.57-.41.84.23m8.71-11.34q-.6-1.11-1.81-.87-.56.11-.56.68l.02 11.65q0 .68.68.68l1.36-.02q.57-.01.56-.57-.07-3.73.11-7.41c.19-3.85 5.45-4.67 5.47.14q.01 3.55 0 7.15-.01.71.7.71l1.23-.01a.63.62 89.1 0 0 .62-.65q-.13-3.79.13-7.56c.24-3.46 5.48-4.22 5.5-.27q.02 3.92-.03 7.86-.01.61.6.61l1.23.01q.66.01.68-.65.09-4.05-.02-8.09c-.15-4.86-4.75-5.6-7.96-2.98q-.44.35-.87 0-3.4-2.74-6.87-.23-.49.35-.77-.18m37.81 6.13h7.43q.41 0 .48-.4c1.34-8.13-9.78-9.34-11.04-1.36-1.01 6.35 3.85 8.88 9.35 7.67q1.68-.37 1.25-1.92-.13-.46-.59-.34c-2.93.75-7.58 1.15-7.36-3.2q.03-.45.48-.45m13.53-5.52l-.07-.86a.63.63 0 0 0-.61-.59l-.82-.03q-.72-.02-.72.69l.04 11.61q0 .67.67.68l1.24.02q.62.01.6-.61c-.13-3.55-1.23-10.73 4.63-10.3a.48.47 5 0 0 .51-.42l.12-1.06a.55.54-81.6 0 0-.44-.6q-2.81-.55-4.28 1.69a.47.47 0 0 1-.87-.22m25.246 3.838a5.42 5.42 0 0 0-5.486-5.353l-1.02.012a5.42 5.42 0 0 0-5.353 5.486l.028 2.3a5.42 5.42 0 0 0 5.486 5.353l1.02-.012a5.42 5.42 0 0 0 5.353-5.486l-.028-2.3M767.71 631.53q-.66-.31-1.46-.31-31.62.02-63.25.02c-5.68 0-8.71.68-8.73 7.02q-.06 22.35-.01 44.71c.01 5.16 1.26 7.76 6.75 7.77q32.82.06 65.66 0 .11 0 .19-.09l.24-.25q.12-.12-.05-.12-32.66-.02-65.29-.03c-7.57 0-6.88-4.22-6.9-10.42q-.08-18.9-.09-37.79c-.01-6.25-.54-10.25 6.98-10.26q32.89-.07 65.8-.03" class="C"/><path vector-effect="non-scaling-stroke" d="M767.55 631.75c.04.71.32 1.21.33 1.85q.33 28.3-.04 56.75" class="G"/><path vector-effect="non-scaling-stroke" d="M767.84 690.35q.42.42 1.66.42 178 .07 356-.02 2.93 0 2.08-.42" class="D"/><path vector-effect="non-scaling-stroke" d="M1127.58 690.33q-.01-.19.19-.24a.29.29 0 0 0 .23-.28l.02-58.05a.76.76 0 0 0-.76-.76H768.55q-.3 0-.51.21l-.33.32" class="G"/><path vector-effect="non-scaling-stroke" d="M1127.58 690.33l-359.74.02" class="J"/><path vector-effect="non-scaling-stroke" d="M767.55 631.75q.13.52.16-.22" class="E"/><path vector-effect="non-scaling-stroke" d="M1201.22 684.25c-.01 4.57-2.84 6-6.97 6q-32.51.01-65.31.01a.11.11 0 0 0-.07.19q.26.22.63.23 30.5.09 61 .07c6.27 0 11.34.63 11.32-6.99q-.04-23.26-.1-46.51c-.01-5.04-3.39-5.98-7.88-5.99q-32.64-.05-65.28-.01-.09 0-.07.09l.08.29q.03.11.15.11 30.32-.04 60.63.04c7 .02 11.88-1.25 11.89 7.2q.02 22.66-.02 45.27m-34.5-24.46a.58.58 0 0 1-.5-.5l-.64-5.14a.58.58 0 0 0-1.16 0l-.64 5.14a.58.58 0 0 1-.5.5l-5.14.64a.58.58 0 0 0 0 1.16l5.14.64a.58.58 0 0 1 .5.5l.64 5.14a.58.58 0 0 0 1.16 0l.64-5.14a.58.58 0 0 1 .5-.5l5.14-.64a.58.58 0 0 0 0-1.16l-5.14-.64m-428.54 1.14a.91.91 0 0 0-.91-.91h-12.46a.91.91 0 0 0-.91.91v.1a.91.91 0 0 0 .91.91h12.46a.91.91 0 0 0 .91-.91v-.1m77.33 84.08l2.13-.02q.64 0 .62-.63l-.02-.86q-.02-.47-.49-.47l-1.43-.02a1.54 1.54 0 0 1-.05-3.07l2.25-.11a.95.95 0 0 0 .23-1.85q-3.62-1.13-5.87 1.56a1.45 1.45 0 0 0-.32 1.19q.53 2.75-2.14 3.03a.52.52 0 0 0-.04 1.03l1.73.32a.5.49-85.2 0 1 .41.49l-.04 9.64q0 .75.76.75h1.18q.66 0 .66-.66l-.05-9.84q0-.48.48-.48m-61.05-1.27l.05-5.26q.01-.54-.53-.53l-1.32.03a.6.6 0 0 0-.59.6l-.04 16.47a1.07 1.07 0 0 0 2.12.23l.06-.28a.44.43 28 0 1 .73-.22c.71.71 1.15 1.1 2.18 1.27 10.13 1.7 8.18-18.17-2.13-12.01q-.54.33-.53-.3m75.16-2.72a.43.43 0 0 1 .43.43l-.11 14.09a.43.43 0 0 0 .43.44l1.79.03a.43.43 0 0 0 .44-.43l-.05-14.13a.43.43 0 0 1 .43-.43l4.38-.02a.43.43 0 0 0 .43-.43l-.02-1.23a.43.43 0 0 0-.43-.43l-11.99.01a.43.43 0 0 0-.43.4l-.09 1.2a.43.43 0 0 0 .43.46l4.36.04m-130.84 2.01l7.57 12.29a1.95 1.95 0 0 0 3.61-1.02l-.01-14.71q0-.61-.61-.62l-1.12-.02q-.6-.02-.6.58v12a.35.35 0 0 1-.65.19l-7.7-12.3a1.73 1.72 29.3 0 0-3.19.89l-.15 15q-.01.64.63.66l.93.02q.76.02.75-.74l-.11-12.03a.35.35 0 0 1 .65-.19m148.049-3.477a.26.26 0 0 0-.153-.334l-1.593-.593a.26.26 0 0 0-.334.153l-6.177 16.609a.26.26 0 0 0 .153.334l1.593.593a.26.26 0 0 0 .334-.153l6.177-16.609m5.821 7.177a.43.43 0 0 1-.43-.43l-.03-4.87a.43.43 0 0 1 .43-.43h6.4a.43.43 0 0 0 .43-.46l-.09-1.18a.43.43 0 0 0-.43-.39l-8.74-.03a.43.43 0 0 0-.43.43l.03 16.18a.43.43 0 0 0 .43.43l1.57.02a.43.43 0 0 0 .43-.43v-6.32a.43.43 0 0 1 .43-.43l5.93.05a.43.43 0 0 0 .43-.49l-.17-1.27a.43.43 0 0 0-.42-.37l-5.77-.01m-69.63-2.22l-.01-.86a.63.62 90 0 0-.61-.62l-.84-.02q-.69-.02-.69.67l.05 11.64q0 .65.65.66l1.21.02q.62.01.6-.61c-.16-3.52-1.26-10.47 4.39-10.32q.45.01.66-.39.47-.93-.03-1.45-.45-.45-1.39-.33-1.99.26-3.33 1.84-.65.77-.66-.23m-60.06 10.66q.61 1.22 1.92.76.34-.12.34-.48v-11.96q0-.48-.48-.48l-1.52-.01q-.59 0-.58.58c.03 2.53.95 9.61-2.38 10.44-2.91.73-3.8-.77-3.76-3.42q.04-3.53.01-7.08 0-.52-.52-.52l-1.47.02a.64.64 0 0 0-.63.63c-.11 5.27-1.67 14.03 6.11 12.35 1-.22 1.3-.58 2.19-1.07q.5-.28.77.24m16.39-10.85q-3.48-2.84-6.99-.16-.49.38-.69-.2-.43-1.24-1.8-.93-.42.09-.42.52l.03 11.82q0 .65.65.64l1.29-.04q.61-.02.57-.62-.22-3.82.06-7.59c.22-2.78 2.96-3.59 5.05-2.21a.95.93-74.3 0 1 .42.77l.14 9.12q0 .54.54.54l1.26.02a.59.59 0 0 0 .6-.61q-.13-3.64.11-7.26c.25-3.86 5.49-4.49 5.5-.89q.01 4.13.12 8.25.01.51.51.5h1.37q.56-.01.56-.56c-.01-4.08 2-14.16-5.75-12.38q-.88.2-2.33 1.29-.4.31-.8-.02m30.19 5.68h7.41q.39 0 .46-.39c1.41-8.15-9.85-9.51-10.98-1.12-.86 6.36 3.86 8.54 9.32 7.44q1.71-.35 1.22-2.02-.14-.47-.6-.32c-2.83.92-7.89.98-7.29-3.19q.06-.4.46-.4m38.763-1.712a5.41 5.41 0 0 0-5.485-5.334l-1 .014a5.41 5.41 0 0 0-5.334 5.485l.032 2.32a5.41 5.41 0 0 0 5.485 5.334l1-.014a5.41 5.41 0 0 0 5.334-5.485l-.032-2.32M767.45 777.27q-33.46-.07-66.96 0c-6.65.01-6.2 4.89-6.22 10.42q-.08 21.17 0 42.37c.02 6.91 4.19 6.68 10.09 6.69q31.07.05 62.14 0 .23 0 .34-.16.25-.33-.17-.33-32.84-.01-65.66.01-6.05.01-6.08-6.02-.13-22.87-.38-45.75-.08-6.74 6.95-6.75 33.03-.01 66.03-.02" class="C"/><path vector-effect="non-scaling-stroke" d="M767.53 777.73q.47 1.77.47 2.27.05 27.95-.07 56.36" class="G"/><path vector-effect="non-scaling-stroke" d="M767.93 836.36q-.27.06.53.32.28.09.6.09 178.59.06 357.19.03 1.35 0 1.74-.44" class="D"/><path vector-effect="non-scaling-stroke" d="M1127.99 836.36l.82.34" class="G"/><path vector-effect="non-scaling-stroke" d="M1128.81 836.7q32.33.15 64.67.01c4.8-.02 8.27-.74 8.28-6.22q.07-23.01-.05-46.03c-.02-4.04-1.31-7.2-5.71-7.2q-33.5-.05-67-.01-.93 0-.19.37.25.12.69.12 32.75-.01 65.5.14 6.21.03 6.22 6.63.04 21.63.01 43.25c-.01 4.79-.38 8.38-5.98 8.4q-32.86.1-67.07.09" class="C"/><path vector-effect="non-scaling-stroke" d="M1128.18 836.25l-.08-58.64q0-.59-.59-.59L768.42 777q-.2 0-.33.15-.31.37-.64.12" class="G"/><path vector-effect="non-scaling-stroke" d="M1128.18 836.25q.31.22.63.45" class="E"/><path vector-effect="non-scaling-stroke" d="M1127.99 836.36H767.93" class="J"/><path vector-effect="non-scaling-stroke" d="M767.53 777.73l-.08-.46" class="E"/><path vector-effect="non-scaling-stroke" d="M1166.71 805.8a.58.58 0 0 1-.5-.51l-.65-5.13a.58.58 0 0 0-1.15.01l-.62 5.13a.58.58 0 0 1-.51.5l-5.13.65a.58.58 0 0 0 .01 1.15l5.13.62a.58.58 0 0 1 .5.51l.65 5.13a.58.58 0 0 0 1.15-.01l.62-5.13a.58.58 0 0 1 .51-.5l5.13-.65a.58.58 0 0 0-.01-1.15l-5.13-.62m-428.51 1.15a.92.92 0 0 0-.92-.92h-12.56a.92.92 0 0 0-.92.92v.08a.92.92 0 0 0 .92.92h12.56a.92.92 0 0 0 .92-.92v-.08m73.82 81.21l-1.7.78a.48.48 0 0 0 .13.92l1.51.2a.65.64 4.5 0 1 .56.65l-.08 9.62q0 .65.64.66l1.47.01q.56 0 .55-.55l-.07-9.71q0-.73.73-.74l1.93-.03a.65.65 0 0 0 .64-.67l-.03-.65a.65.65 0 0 0-.65-.63l-2.24-.02q-.61 0-.5-.6l.34-1.93a.76.76 0 0 1 .94-.6q1.89.49 3.15-.76a.6.59-56.8 0 0-.2-.98q-3.72-1.45-6.22 1.26a.99.94 69 0 0-.25.6l-.14 2.44q-.03.52-.51.73m18.22 1.87l2.02-.05a.99.99 0 0 0-.03-1.98l-1.47.01a1.45 1.45 0 0 1-.37-2.86q1.37-.36 2.79-.31a.89.89 0 0 0 .41-1.69c-3.67-1.75-6.35.43-6.46 4.32a.76.75 78 0 1-.43.67l-1.75.84a.47.46-53.7 0 0 .13.88l1.5.2a.53.52-86.3 0 1 .45.52l-.05 9.72q0 .57.57.61l1.54.11q.67.05.67-.62v-9.89q0-.47.48-.48m13.697-6.456a.69.69 0 0 0-.694-.686l-.82.004a.69.69 0 0 0-.686.694l.087 16.56a.69.69 0 0 0 .694.686l.82-.004a.69.69 0 0 0 .686-.694l-.087-16.56m-89.467 4.936l.05-5.03q0-.54-.54-.53l-1.32.02a.63.62-90 0 0-.61.62l-.03 16.66q0 .54.51.69 1.36.42 1.61-.84a.49.48 24.9 0 1 .77-.28q1.33 1.01 1.83 1.14c10.07 2.65 9.14-17.8-1.62-12.07q-.65.35-.65-.38m95.945-5.068a.48.48 0 0 0-.479-.481l-1.16-.002a.48.48 0 0 0-.481.479l-.03 16.98a.48.48 0 0 0 .479.481l1.16.002a.48.48 0 0 0 .481-.479l.03-16.98m42.415 5.098l.05-4.99q0-.59-.58-.59l-1.28-.01q-.53-.01-.53.53l-.05 16.8q0 .65.65.72 1.04.1 1.53-.84.27-.52.76-.18c3.71 2.56 7.52.96 8.45-3.35 1.08-5.05-2.21-11.55-8.28-7.69q-.73.46-.72-.4m15.12-5.08a.52.52 0 0 0-.52-.52h-1.42a.52.52 0 0 0-.52.52v17a.52.52 0 0 0 .52.52h1.42a.52.52 0 0 0 .52-.52v-17m35.08 9.78l-.01-9.74q0-.53-.52-.53l-1.24-.01q-.54 0-.55.54l-.14 16.9q0 .59.58.59h1.21a.62.62 0 0 0 .62-.6l.16-3.95a1.13 1.13 0 0 1 2.05-.6c1.28 1.83 3.11 5.9 5.87 5.06q.54-.17.2-.62l-4.72-6.21q-.33-.44.05-.84l4.3-4.54q.44-.46-.18-.61c-2.74-.7-5.29 3.69-7.17 5.38q-.51.47-.51-.22m-105.24-8.63a1.42 1.42 0 0 0-2.84 0 1.42 1.42 0 0 0 2.84 0m27.34-.02a1.41 1.41 0 1 0-2.82 0 1.41 1.41 0 1 0 2.82 0m-157.91 12.48l-7.9-12.57a1.82 1.81-61.1 0 0-3.35.97l.02 14.87q0 .6.6.62l1.16.03q.5.01.49-.49l-.13-12.49a.29.29 0 0 1 .53-.15l7.84 12.64a1.87 1.87 0 0 0 3.46-.98v-14.93q0-.61-.6-.62l-1.11-.02q-.57-.01-.57.56l.03 12.43q0 .88-.47.13m24.53-8.21q-.69-1.05-1.9-.86-.44.08-.43.53l.1 11.86q0 .61.62.6l1.26-.01q.62-.01.59-.62c-.11-3.07-1.1-8.97 2.36-10.52a2.14 2.14 0 0 1 3.02 1.89l.24 8.8q.01.41.42.43l1.43.05a.62.61-89.1 0 0 .64-.63c-.05-3.24-1.29-10.26 3.49-10.39a2.03 2.03 0 0 1 2.08 2.01l.07 8.35q0 .62.61.63l1.32.03q.56.01.56-.56c0-2.89.8-9.4-1.14-11.46-1.82-1.91-4.82-1.2-7.02.22q-.43.28-.84-.03-3.31-2.59-6.71-.17-.46.33-.77-.15m51.32.63l-.06-.76q-.06-.72-.78-.72h-.69q-.7 0-.69.7v11.69q0 .54.54.56l1.52.06q.5.02.51-.48c.01-3.54-1.44-10.74 4.49-10.48q.68.03.71-.65l.04-.77q.02-.56-.53-.67-2.73-.53-4.17 1.74a.48.48 0 0 1-.89-.22m135.21 3.52c-2.37-.01-5.87.43-7 2.8-.98 2.08-.15 4.56 2.24 5.21q2.71.75 5.27-.86a.49.48-47.3 0 1 .47-.02l1.75.9q.7.37.75-.42c.37-6.69 2.28-15.33-8.73-12.1a.94.94 0 0 0 .15 1.83c2.01.23 4.21-1.56 6.02.79a1.16 1.16 0 0 1-.92 1.87m9.97-4.4l-1.8-.74a.79.78 11 0 0-1.09.73l.08 11.74q.01.52.52.59l1.45.19q.78.1.79-.68c.01-2.84-1.4-12.56 4.77-10.15a1.82 1.81-79.3 0 1 1.16 1.71l-.06 8.23a.71.7-87.9 0 0 .66.72l1.28.07a.68.68 0 0 0 .72-.68c.02-5.17 2.16-15.43-7.69-11.71q-.39.15-.79-.02m-205.24 11.58q.42 1.23 1.91.72.3-.11.3-.43v-11.86a.61.61 0 0 0-.6-.61l-1.39-.01a.61.6 90 0 0-.61.62c.04 2.91 1.37 13.24-5.21 10.1a1.66 1.64-77.2 0 1-.94-1.51l.04-8.7q0-.51-.5-.5l-1.52.01q-.65.01-.64.67c.03 2.68-.81 10.97 2.39 12.1q3.19 1.12 5.98-.85.56-.4.79.25m46.3-5.2l7.64.01q.39 0 .46-.38c1.37-8.13-9.88-9.59-10.92-1.13-.73 5.92 3.82 9.07 9.26 7.46q1.61-.47 1.28-1.93-.12-.49-.6-.37c-3.16.78-7.38 1.23-7.54-3.21q-.02-.45.42-.45m39.038-1.609a5.38 5.38 0 0 0-5.342-5.417l-.98-.007a5.38 5.38 0 0 0-5.417 5.342l-.017 2.42a5.38 5.38 0 0 0 5.342 5.417l.98.007a5.38 5.38 0 0 0 5.417-5.342l.017-2.42m29.112-4.831a.55.55 0 0 0-.55-.55h-1.24a.55.55 0 0 0-.55.55v11.84a.55.55 0 0 0 .55.55h1.24a.55.55 0 0 0 .55-.55v-11.84m27.32.01a.55.55 0 0 0-.55-.55h-1.06a.55.55 0 0 0-.55.55v11.82a.55.55 0 0 0 .55.55h1.06a.55.55 0 0 0 .55-.55v-11.82m6.46.2q-.5-.93-1.59-.77-.62.09-.62.71l.02 11.62a.62.62 0 0 0 .58.62l1.31.09a.63.63 0 0 0 .67-.66c-.11-2.5-.76-8.73 1.61-10.06q2.15-1.2 3.95.45.43.38.43.96l.1 8.62q.01.64.64.65l1.35.02q.53.01.53-.51.04-3.99.01-8.03c-.03-5.03-4.48-5.53-8.18-3.47q-.52.29-.81-.24m-11.59 5.797a.8.8 0 0 0-.776-.823l-4.258-.126a.8.8 0 0 0-.823.776l-.002.08a.8.8 0 0 0 .776.823l4.258.126a.8.8 0 0 0 .823-.776l.002-.08m-91.63 87.253q212.54.07 425.07-.04c5.05-.01 8.74-.74 8.74-6.52q0-22.31-.1-44.62c-.02-4.18-.6-8.33-5.48-8.34q-34.02-.08-68.05-.01" class="C"/><path vector-effect="non-scaling-stroke" d="M1128.2 922.28q-8.71-.12-17.45-.13-205.17-.24-410.34-.02c-4.88.01-6.27 3.21-6.27 7.72q-.03 22.61-.01 45.23c0 4.87 2.31 6.76 7.21 6.77q33.35.05 66.68-.04" class="G"/><path vector-effect="non-scaling-stroke" d="M1128.2 922.28q-.05.22-.1.43" class="E"/><path vector-effect="non-scaling-stroke" d="M1128.1 922.71l.36 58.4" class="G"/><path vector-effect="non-scaling-stroke" d="M1128.46 981.11q-179.42.03-358.84.05-2.26 0-1.6.65" class="E"/><path vector-effect="non-scaling-stroke" d="M1128.46 981.11q31.69.25 63.34.08c4.9-.03 9.45.24 9.45-6.17q-.03-22.76.03-45.52.03-6.88-7.29-6.78-14.31.2-65.89-.01" class="C"/><path vector-effect="non-scaling-stroke" d="M975.783 182.315a8.04 8.04 0 0 0-8.082-7.998l-1.32.007a8.04 8.04 0 0 0-7.998 8.082l.034 6.4a8.04 8.04 0 0 0 8.082 7.998l1.32-.007a8.04 8.04 0 0 0 7.998-8.082l-.034-6.4M725.67 187.02l9.02-.04a.73.73 0 0 0 .73-.73v-.12a5.13 5.12 89.8 0 0-5.14-5.11h-.24a5.13 5.12 89.8 0 0-5.1 5.15v.12a.73.73 0 0 0 .73.73m97.345-.552a4.92 4.92 0 0 0-4.894-4.946l-.76-.004a4.92 4.92 0 0 0-4.946 4.894l-.029 5.6a4.92 4.92 0 0 0 4.894 4.946l.76.004a4.92 4.92 0 0 0 4.946-4.894l.029-5.6m60.775 7.552c2.2-4.69.96-14.31-6.57-12.42-5.39 1.35-4.74 9.22-2.99 13.03 1.82 3.94 7.89 2.96 9.56-.61" class="D"/><path vector-effect="non-scaling-stroke" d="M708.155 308.652a4.74 4.74 0 0 0-4.673-4.806l-.82-.012a4.74 4.74 0 0 0-4.806 4.673l-.051 3.64a4.74 4.74 0 0 0 4.673 4.806l.82.012a4.74 4.74 0 0 0 4.806-4.673l.051-3.64M779.05 313c-1.51-.33-4.19-.26-4.85 1.5q-.34.93.04 1.68c1.32 2.55 6.72.15 5.48-2.64q-.2-.44-.67-.54m31.96-1.71l5.88-.08a.25.25 0 0 0 .25-.25v-.14a3.11 3.09 89.3 0 0-3.13-3.07h-.2a3.11 3.09 89.3 0 0-3.05 3.15v.14a.25.25 0 0 0 .25.25" class="C"/><path vector-effect="non-scaling-stroke" d="M756.21 362.62a1.39 1.39 0 1 0-2.78 0 1.39 1.39 0 1 0 2.78 0" class="J"/><path vector-effect="non-scaling-stroke" d="M719.58 366.81c-1.89 6.01.6 12.34 7.52 12.38a1.04 1.02 73.7 0 1 .84.47c1.28 2.02 2.72 4.07 5.46 3.24q.61-.19.17-.65l-2.94-3.06q-.42-.44.12-.71c4.21-2.09 4.95-7.77 3.64-11.65-1.73-5.13-7.65-6.79-11.94-3.79q-2.16 1.51-2.87 3.77" class="E"/><path vector-effect="non-scaling-stroke" d="M782.37 364.48l-.04 13.83" class="G"/><path vector-effect="non-scaling-stroke" d="M782.33 378.31q.09.9 1.8.63.48-.08.69-.52.32-.65-.3-1.19" class="J"/><path vector-effect="non-scaling-stroke" d="M784.52 377.23q.86-7.19.24-14.31" class="E"/><path vector-effect="non-scaling-stroke" d="M784.76 362.92l-.03-.36a1.04 1.04 0 0 0-1.66-.73l-4.81 3.63q-.5.38-.03.79l.63.54a.7.7 0 0 0 .93-.01l2.58-2.3" class="J"/><path vector-effect="non-scaling-stroke" d="M784.76 362.92q-.85-.25-.9 1.09-.22 5.39.66 13.22" class="H"/><path vector-effect="non-scaling-stroke" d="M782.33 378.31q.88-6.64.04-13.83" class="D"/><path vector-effect="non-scaling-stroke" d="M747.29 377.96q.04.85.91 1.06a1.02 1.02 0 0 0 1.26-.99v-11.55q0-.48-.48-.48h-1.45a.59.59 0 0 0-.59.61q.1 3.65.01 7.29c-.1 3.9-6.17 5.15-6.09-.05q.06-3.59 0-7.2-.01-.65-.65-.65h-1.39q-.59 0-.59.59c-.04 2.85-.6 8.59.76 10.8 1.63 2.65 5.37 2.05 7.67.28q.59-.45.63.29m8.72-11.57a.39.39 0 0 0-.39-.39h-1.56a.39.39 0 0 0-.39.39v12.2a.39.39 0 0 0 .39.39h1.56a.39.39 0 0 0 .39-.39v-12.2m6.15 9.98l6.05-8.4a1.24 1.23 18.4 0 0-.98-1.95q-3.2-.07-7.24-.01-1.19.02-.62 1.54.17.44.64.44l5.24.04a.27.27 0 0 1 .22.42l-6.65 9.22a.83.83 0 0 0 .67 1.32l8.38.01q.63.01.63-.62l.01-.75q.01-.63-.63-.63h-5.4q-.76 0-.32-.63m-30.032-7.843a4.75 4.75 0 0 0-4.808-4.692l-.84.01a4.75 4.75 0 0 0-4.692 4.808l.044 3.62a4.75 4.75 0 0 0 4.808 4.692l.84-.01a4.75 4.75 0 0 0 4.692-4.808l-.044-3.62" class="E"/><path vector-effect="non-scaling-stroke" d="M761.087 456.874a2.9 2.9 0 0 0-2.905-2.895l-.72.001a2.9 2.9 0 0 0-2.895 2.905l.006 3.3a2.9 2.9 0 0 0 2.905 2.895l.72-.001a2.9 2.9 0 0 0 2.895-2.905l-.006-3.3m8.213.366h5.64a.28.28 0 0 0 .28-.27v-.18a2.96 2.91-89.9 0 0-2.91-2.97h-.38a2.96 2.91-89.9 0 0-2.91 2.95v.18a.28.28 0 0 0 .28.29m36.564-.04a3.16 3.16 0 0 0-3.104-3.215l-.56-.01a3.16 3.16 0 0 0-3.215 3.104l-.049 2.8a3.16 3.16 0 0 0 3.104 3.215l.56.01a3.16 3.16 0 0 0 3.215-3.104l.049-2.8m37.236.1l5.68-.12a.27.27 0 0 0 .26-.28v-.17a3.02 2.92 88.7 0 0-2.99-2.95h-.38a3.02 2.92 88.7 0 0-2.85 3.09v.17a.27.27 0 0 0 .28.26m48.58-.14a3.17 3.17 0 0 0-3.17-3.17h-.56a3.17 3.17 0 0 0-3.17 3.17v2.74a3.17 3.17 0 0 0 3.17 3.17h.56a3.17 3.17 0 0 0 3.17-3.17v-2.74" class="C"/><path vector-effect="non-scaling-stroke" d="M949.77 515.07l-7.66 8.02a1.13 1.13 0 0 0 .82 1.91h9.95a.63.62 90 0 0 .62-.63v-.77q-.01-.65-.65-.65l-7.35-.04a.35.34 24.3 0 1-.23-.6q4.96-4.39 6.18-6.07c5.09-6.99-3.27-10.79-8.72-6.87q-.53.37-.14.89l.46.62a.6.59 52.6 0 0 .85.12q2.79-2.19 5.81-.54a.91.9-75.4 0 1 .47.81l-.05 2.92q-.01.51-.36.88" class="E"/><path vector-effect="non-scaling-stroke" d="M1166.68 514.84a.57.57 0 0 1-.51-.49l-.62-5.1a.57.57 0 0 0-1.13.01l-.59 5.09a.57.57 0 0 1-.49.51l-5.1.62a.57.57 0 0 0 .01 1.13l5.09.59a.57.57 0 0 1 .51.49l.62 5.1a.57.57 0 0 0 1.13-.01l.59-5.09a.57.57 0 0 1 .49-.51l5.1-.62a.57.57 0 0 0-.01-1.13l-5.09-.59m-428.62 1.14a.95.95 0 0 0-.95-.95h-12.34a.95.95 0 0 0-.95.95v.06a.95.95 0 0 0 .95.95h12.34a.95.95 0 0 0 .95-.95v-.06m23.003 85.896a2.93 2.93 0 0 0-2.961-2.899l-.66.007a2.93 2.93 0 0 0-2.899 2.961l.034 3.24a2.93 2.93 0 0 0 2.961 2.899l.66-.007a2.93 2.93 0 0 0 2.899-2.96l-.034-3.24m114.894-2.293a4.75 4.75 0 0 0-4.783-4.717l-.84.006a4.75 4.75 0 0 0-4.717 4.783l.025 3.6a4.75 4.75 0 0 0 4.783 4.717l.84-.006a4.75 4.75 0 0 0 4.717-4.783l-.025-3.6M769.35 602.23l5.56-.08a.28.28 0 0 0 .27-.29v-.19a2.91 2.88 89.1 0 0-2.93-2.86h-.36a2.91 2.88 89.1 0 0-2.83 2.96v.19a.28.28 0 0 0 .29.27m36.506-.034a3.14 3.14 0 0 0-3.079-3.2l-.58-.011a3.14 3.14 0 0 0-3.2 3.079l-.054 2.82a3.14 3.14 0 0 0 3.079 3.2l.58.011a3.14 3.14 0 0 0 3.2-3.079l.054-2.819" class="C"/><path vector-effect="non-scaling-stroke" d="M949.59 669.45q.94-8.06-.09-16.97" class="E"/><path vector-effect="non-scaling-stroke" d="M949.5 652.48q-3.8 1.5-6.1 4.1-.32.36-.04.74.38.54.91.52.42-.02 1.03-.67.7-.75 1.63-1.3.56-.34.55.32l-.19 12.96q0 .56.53.71 1.92.57 1.77-.41" class="J"/><path vector-effect="non-scaling-stroke" d="M949.5 652.48q-1.95 9.28.09 16.97" class="H"/><path vector-effect="non-scaling-stroke" d="M761.022 747.826a2.88 2.88 0 0 0-2.91-2.85l-.72.008a2.88 2.88 0 0 0-2.85 2.91l.035 3.32a2.88 2.88 0 0 0 2.91 2.85l.72-.007a2.88 2.88 0 0 0 2.85-2.91l-.035-3.32m8.278.403l5.6-.06a.28.28 0 0 0 .28-.29l-.01-.17a2.93 2.89 89.3 0 0-2.92-2.89h-.38a2.93 2.89 89.3 0 0-2.85 2.97v.17a.28.28 0 0 0 .28.27m36.54-.06a3.19 3.19 0 0 0-3.19-3.19h-.54a3.19 3.19 0 0 0-3.19 3.19v2.74a3.19 3.19 0 0 0 3.19 3.19h.54a3.19 3.19 0 0 0 3.19-3.19v-2.74" class="C"/><path vector-effect="non-scaling-stroke" d="M949.64 815.41q.75-8.18 0-16.23" class="E"/><path vector-effect="non-scaling-stroke" d="M949.64 799.18q-1.03-.86-2.33.16-1.99 1.55-3.97 3.15-.58.47.03.89l.54.38q.47.33.89-.07l2.05-1.91q.61-.56.6.27l-.14 13.17q-.01.5.47.63 2 .58 1.86-.44" class="J"/><path vector-effect="non-scaling-stroke" d="M949.64 799.18q-2.37 8.25 0 16.23m-2.017-1.48a3.91.23 90.4 0 0 .257-3.908 3.91.23 90.4 0 0-.203-3.912 3.91.23 90.4 0 0-.257 3.908 3.91.23 90.4 0 0 .203 3.911" class="H"/><path vector-effect="non-scaling-stroke" d="M761.05 892.85a2.87 2.87 0 0 0-2.87-2.87h-.72a2.87 2.87 0 0 0-2.87 2.87v3.36a2.87 2.87 0 0 0 2.87 2.87h.72a2.87 2.87 0 0 0 2.87-2.87v-3.36m138.353.016a2.93 2.93 0 0 0-2.961-2.899l-.6.006a2.93 2.93 0 0 0-2.899 2.961l.034 3.26a2.93 2.93 0 0 0 2.961 2.899l.6-.006a2.93 2.93 0 0 0 2.899-2.961l-.034-3.26m17.857 6.184a1.38 1.38 0 0 0 1.3-.87l.56-1.44a1.38 1.38 0 0 0-1.45-1.87l-2.65.32a1.38 1.38 0 0 0-1.17 1.04l-.27 1.1a1.38 1.38 0 0 0 1.33 1.71l2.35.01m-147.94-5.81l5.6-.08a.27.27 0 0 0 .27-.27v-.17a2.94 2.88 89.2 0 0-2.92-2.9h-.38a2.94 2.88 89.2 0 0-2.84 2.98v.17a.27.27 0 0 0 .27.27m36.526-.034a3.15 3.15 0 0 0-3.089-3.21l-.56-.011a3.15 3.15 0 0 0-3.21 3.089l-.053 2.779a3.15 3.15 0 0 0 3.089 3.21l.56.011a3.15 3.15 0 0 0 3.21-3.089l.053-2.779" class="C"/><path vector-effect="non-scaling-stroke" d="M953.3 948.99a5.16 5.16 0 0 0-5.16-5.16h-.76a5.16 5.16 0 0 0-5.16 5.16v6.82a5.16 5.16 0 0 0 5.16 5.16h.76a5.16 5.16 0 0 0 5.16-5.16v-6.82m-215.38 2.73a.47.47 0 0 0-.47-.47h-12.9a.47.47 0 0 0-.47.47v.58a.47.47 0 0 0 .47.47h12.9a.47.47 0 0 0 .47-.47v-.58" class="E"/><path vector-effect="non-scaling-stroke" d="M1166.68 950.85a.57.57 0 0 1-.5-.49l-.61-5.05a.57.57 0 0 0-1.13 0l-.59 5.05a.57.57 0 0 1-.49.5l-5.05.61a.57.57 0 0 0 0 1.13l5.05.59a.57.57 0 0 1 .5.49l.61 5.05a.57.57 0 0 0 1.13 0l.59-5.05a.57.57 0 0 1 .49-.5l5.05-.61a.57.57 0 0 0 0-1.13l-5.05-.59" class="C"/><path vector-effect="non-scaling-stroke" d="M950.764 948.768a2.93 2.93 0 0 0-2.95-2.909l-.34.002a2.93 2.93 0 0 0-2.909 2.95l.051 7.36a2.93 2.93 0 0 0 2.95 2.909l.34-.002a2.93 2.93 0 0 0 2.909-2.95l-.051-7.36" class="E"/></g><path d="M0 0h1920v1080H0V0zm1902.17 15.38a.34.34 0 0 0 .24.58l10.2.05a.34.34 0 0 0 .24-.58l-5.07-5.18a.34.34 0 0 0-.48 0l-5.13 5.13zm-19.96 1041.63a.79.79 0 0 0 .79-.79V34.8a.79.79 0 0 0-.79-.79H12.81a.79.79 0 0 0-.79.79v1021.42a.79.79 0 0 0 .79.79h1869.4zm14.46-55.02a1.04 1.04 0 0 0 1.04 1.04l19.51.01a1.04 1.04 0 0 0 1.04-1.04V532a1.04 1.04 0 0 0-1.04-1.04l-19.51.01a1.04 1.04 0 0 0-1.04 1.04v469.98zm16.01 62.81a.43.43 0 0 0-.3-.74l-9.82.05a.43.43 0 0 0-.3.74l4.94 4.64a.43.43 0 0 0 .59 0l4.89-4.69z" class="I"/><path d="M1902.17 15.38l5.13-5.13a.34.34 0 0 1 .48 0l5.07 5.18a.34.34 0 0 1-.24.58l-10.2-.05a.34.34 0 0 1-.24-.58z" class="B"/><path d="M1882.21 1057.01H12.81a.79.79 0 0 1-.79-.79V34.8a.79.79 0 0 1 .79-.79h1869.4a.79.79 0 0 1 .79.79v1021.42a.79.79 0 0 1-.79.79zm-861.19-885.58a2.89 2.89 0 0 0-5.78 0 2.89 2.89 0 0 0 5.78 0zm-52.81 30.23l5.24 6.19q.33.39.83.39l5.71.02q.65 0 .21-.48l-6.47-7.02q-.29-.32.08-.53c8.01-4.5 9.18-15.05 6.07-22.86-3.36-8.45-16.17-9.97-22.51-4.36-4.19 3.71-5.19 11.09-4.27 16.36q2.11 12.1 14.34 11.94a.98.97-20.4 0 1 .77.35zm-254.84-26.54q.87-1.29 1.27-2.9.13-.49-.34-.69-5.45-2.34-11.04-1.44c-5 .8-8.02 5.29-6.87 10.13 1.14 4.74 6.3 6.59 10.28 8.48 2.24 1.06 4.21 2.4 3.54 4.98-1.46 5.67-10.67 2.61-13.99 1.21q-.55-.24-.54.36l.09 3.99q.01.53.5.71c5.82 2.12 16.17 2.6 18.61-4.57q1.48-4.33-.95-7.54-1.28-1.69-5.2-3.66c-2.44-1.22-10.69-4.06-6.53-8.45 2.58-2.73 7.5-1.12 10.61.05a.42.42 0 0 0 .56-.27q.05-.19 0-.39zm84.88 20.03q1.59-1.26 1.62-3.65.17-11.47-.32-20.88-5.11-1.21-5.5.5-.28 9.67-.19 18.46c.02 2.05-.55 3.63-1.26 5.48-4.8 3.33-12.43 2.31-12.39-4.81q.06-9.73.06-19.47 0-.52-.53-.52h-4.44q-.44 0-.44.43-.01 9.17.01 18.3.03 11.82 11.59 12.39 8.29.41 11.79-6.23zm59.52 5.61l.27-11.51a1.14 1.02-35.9 0 1 .1-.45l2.41-5.4 6.93-12.67q.25-.46-.28-.47l-4.63-.01q-.39 0-.58.36l-6.72 12.88a.39.39 0 0 1-.69 0l-6.63-12.76q-.23-.46-.75-.46l-4.42-.03q-.62 0-.32.55l9.37 17.38q.25.46.25.99l.03 11.14q0 .61.61.6l5.05-.14zm191.42-9.83a.34.34 0 0 0 .35.33l3.18-.03a.34.34 0 0 0 .34-.32l1.05-20.3a.34.34 0 0 0-.34-.36l-5.19.01a.34.34 0 0 0-.34.36l.95 20.31zm-305.97-10.86q.04.85.29 1.25.26.43.74.28l.7-.21 1.15.13q.51.05.5.56c-.01 3.99-.85 12.97.9 16.21 1.99 3.69 7.1 3.38 10.6 2.41q.54-.15.53-.71l-.08-2.82q-.02-.62-.61-.45-4.16 1.19-6.28-1.3v-14.04l6.33.08q.44 0 .43-.44l-.02-2.82a.46.45 89.3 0 0-.45-.45l-5.86-.01q-.35 0-.45-.33l-.1-.29q.7-1.25.16-3.29.15-.22.19-.58.07-.64-.58-.66l-2.09-.06q-.51-.01-.69.47l-1.64 4.41a.87.86 3.1 0 1-.61.54q-2.52.61-3.06 2.12zm-12.19-2.77c-13.38-1.64-15.61 21.31-3.26 23.65q5.59 1.06 10.89-.93.49-.18.49-.71l-.03-3.09q0-.49-.47-.31c-5.58 2.16-12.99 2.94-13.81-4.92q-.05-.51.46-.51l14.45-.01q.44 0 .49-.44 1.2-11.45-9.21-12.73zm76.06 1.01l.05 8.4.08 9.03-.01 9.77-.12 5.26q-.01.46.45.47l4.45.02q.5 0 .49-.5l-.23-12.06q-.01-.51.37-.18c6.56 5.62 13.49 2.48 15.29-5.3 1.14-4.94.37-12.46-4.85-15.06q-5.54-2.77-10.46 2.28-.55.56-.71-.21l-.42-1.97q-.08-.36-.44-.41-3.28-.49-3.94.46zm81.31 17.76q3.16-4.92.97-10.96-2.18-6.93-9.12-7.79c-17.05-2.11-16.61 26.94 1.03 23.77q4.48-.81 7.12-5.02zm39.7-14.78l-.56-3.06q-.09-.46-.56-.47l-2.69-.02q-.48 0-.48.47l-.02 22.43q-.01.36.35.36h4.07q.48 0 .49-.48c.04-3.91-.98-12.88 1.23-15.89q2.27-3.09 6.97-2.45.48.07.53-.42l.35-3.88q.04-.52-.48-.59c-4.58-.56-5.66 1.31-8.66 4.18q-.43.41-.54-.18zm-32.23 8.85c.01 2.4-.65 4.93.73 7.49 2.93 5.43 10.44 4.33 14.37.63q.58-.54.7.25l.28 1.89q.09.6.7.6h3.1q.51 0 .51-.5v-22.25q0-.5-.51-.5h-4.23q-.49 0-.47.5.18 5.24-.03 12.49-.18 6.17-5.53 6.32c-2.9.08-4.81-1.3-4.83-4.32q-.06-7.23.04-14.49.01-.49-.49-.49l-4.16-.01q-.43 0-.42.43.21 5.99.24 11.96zm96.62 2.04q.96-7.27-.01-14.48l-4.38.07q-.49.01-.49.5.04 6.43.03 12.84c0 5.33.55 9.26 6.35 10.11q5.32.77 8.91-2.98a.45.44-26.7 0 1 .77.25l.21 1.75q.09.76.85.76h3.03q.51.01.51-.51l-.03-22.24q0-.51-.5-.5h-4.02q-.62 0-.61.62.06 6.02 0 11.99-.08 7.6-7.56 6.56-1.85-.26-2.56-2.4-.15-.47-.5-2.34zm28.23 8.54l-.02-22.94-4.45.03q-.58.01-.58.58l-.14 22.14q0 .43.43.41l4.76-.22zm16.47-18.52c-3.69 4.65-7.21 9.78-10.54 14.7q-1.09 1.62-.82 3.69.05.41.46.41h16.77q.55 0 .55-.56l-.05-2.93q0-.55-.55-.55l-10.39-.02q-.75 0-.33-.61 4.94-7.18 10.2-14.11c1-1.33.85-2.45.75-4q-.03-.47-.5-.47h-15.72q-.48 0-.47.48l.05 3.07q.01.44.45.44l9.92.01q.57 0 .22.45zm17.17 16.02a3.28 3.28 0 0 0-6.56 0 3.28 3.28 0 0 0 6.56 0zM732.34 302.58a1.48 1.48 0 1 0-2.96 0 1.48 1.48 0 1 0 2.96 0zm-25.44 16.05c4.85-3.13 5.65-11.72 1-15.42-2.49-2-6.68-1.98-9.39-.34q-2.26 1.37-3.05 4.31c-1.58 5.79.58 11.97 7.6 11.96q.5 0 .79.42c1.42 2.03 2.68 4.21 5.6 3.3q.63-.2.16-.67l-2.79-2.78q-.45-.44.08-.78zm49.95-12.99l7.98 12.78a1.79 1.78 29.2 0 0 3.3-.93l.09-15.02q.01-.51-.5-.5l-1.12.02q-.65.02-.65.66l.12 12.09a.4.4 0 0 1-.74.21l-7.78-12.65a1.75 1.75 0 0 0-3.24.9l-.17 15.08a.67.67 0 0 0 .63.68l1 .05q.82.04.81-.78l-.22-12.44a.27.26-61.6 0 1 .49-.15zm-34.39 10.1q-2.14 2.3-5 .77a.95.94 14.4 0 1-.5-.83l-.04-8.97q0-.71-.71-.7h-1.41q-.59.01-.6.6-.05 3.75-.03 7.5c.04 5.18 4.48 6.43 8.36 3.95q.5-.33.79.2.5.92 1.61.75.62-.09.62-.72l-.03-11.66q0-.64-.64-.63l-1.57.03q-.4.01-.41.41l-.13 8.52a1.14 1.13-23.6 0 1-.31.78zm9.6-9.31a.43.43 0 0 0-.43-.43h-1.58a.43.43 0 0 0-.43.43v12.12a.43.43 0 0 0 .43.43h1.58a.43.43 0 0 0 .43-.43v-12.12zm9.02 2.4l-6.16 8.6a.99.99 0 0 0 .8 1.57l8.17.01a.75.75 0 0 0 .75-.79l-.02-.55q-.03-.66-.69-.67l-5.31-.04a.4.39-71.5 0 1-.31-.63l6.16-8.46a1.2 1.2 0 0 0-.98-1.91l-7.5.03a.93.92-87.9 0 0-.91.85q-.1 1.18 1.16 1.08 2.31-.16 4.58.27.63.13.26.64zm39.15 9.13q.22 1.23 1.49 1.04.52-.08.51-.6c-.05-4.17 2.03-14.21-6-12.4-1.03.23-2.47.01-3.2 1.35a.81.81 0 0 0 1.01 1.13q2.51-1.02 4.97-.3a1.46 1.46 0 0 1-.34 2.86c-12.97.6-5.76 12.47.8 6.66q.61-.54.76.26zm13.98-7.57c.22 2.7.56 4.95.07 7.96q-.09.6.52.62l1.41.04q.53.02.53-.52c-.01-2.66-.88-9.06 1.71-10.32q2.08-1.02 3.7.66a1.17 1.13 23.8 0 1 .33.8l.01 8.74q.01.62.63.62l1.09.01q.71 0 .7-.71l-.13-9.73a1.6 1.59 19.6 0 0-.57-1.2q-3.75-3.16-7.43.12-.29.26-.58 0-3.63-3.27-7.38-.09-.43.36-.52-.2-.2-1.42-1.66-1.19-.59.09-.6.69l-.01 11.81q0 .46.47.47l1.47.04q.52.01.52-.52-.04-3.89.23-7.73c.23-3.43 5.18-4.21 5.49-.37zm17.09 2.57l7.43.04q.46.01.53-.45c1.21-7.99-9.68-9.33-10.93-1.29-1 6.5 3.67 8.69 9.28 7.63q1.61-.3 1.2-1.96-.13-.5-.61-.32c-2.93 1.09-7.76 1-7.37-3.23q.04-.43.47-.42zm-115.97 85.33q1.14 1.47 4.17 1.47 235.12 0 470.25 0 1.94 0 3-1.5c.59-1.07 1.23-2.17 1.24-3.45q.04-25.47-.01-50.36a4.47 4.47 0 0 0-4.47-4.46l-471.23.01a4.28 4.28 0 0 0-4.28 4.28q0 25.17 0 50.72 0 1.53 1.33 3.29zm117.17 56.65l-.03 9.41q0 .64.63.64h1.32q.66 0 .66-.66l.01-9.87q0-.44.45-.45l2.24-.04q.5-.01.49-.51l-.02-.9a.59.58-1.4 0 0-.61-.57q-1.15.06-1.54.01a1.6 1.47 45.4 0 1-.1-3.06l2.55-.11a.94.94 0 0 0 .25-1.83q-3.59-1.18-5.95 1.54-.35.4-.27.94.45 2.84-2.25 3.37a.44.44 0 0 0-.03.86l1.6.43q.61.17.6.8zm-58.02-2.21l.03-5.25q0-.54-.53-.53l-1.3.02q-.58.01-.58.6l-.03 16.75q0 .52.5.64 1.38.32 1.64-.91a.38.37-66.5 0 1 .58-.23c11.33 7.61 12.29-17.55.2-10.79q-.51.29-.51-.3zm124.66-4.14a1.46 1.46 0 0 0-2.92 0 1.46 1.46 0 0 0 2.92 0zm-180.4 3.46l7.71 12.46a1.89 1.89 0 0 0 3.5-.99l.02-15.04q0-.49-.49-.52l-1.36-.06q-.51-.03-.51.48l.04 12.36a.29.29 0 0 1-.54.15l-7.76-12.41a1.84 1.84 0 0 0-3.4.97l.02 14.89q0 .62.62.63l1.16.02q.5.01.49-.49l-.11-12.27a.33.33 0 0 1 .61-.18zm133.42 9.2a.23.23 0 0 1-.43 0l-4.29-12.79a.77.75 79.9 0 0-.73-.52l-1.39.03q-.74.01-.49.7l5.46 15.34a1.74 1.74 0 0 0 3.28 0l5.43-15.29a.57.57 0 0 0-.53-.76h-1.25q-.6 0-.79.56l-4.27 12.73zm-100.45-8.39q-.54-1.04-1.66-.87-.62.09-.61.71l.03 11.66q0 .65.65.64l1.3-.02q.59 0 .56-.59c-.09-2.32-.88-9.27 1.86-10.25 2.8-1.01 3.76.7 3.76 3.21q0 3.51.03 7.05 0 .6.6.59h1.23q.62 0 .6-.62c-.1-3.21-1.31-10.03 3.24-10.42a2.29 2.28-2.2 0 1 2.47 2.28l-.04 8.01q-.01.76.76.76h1.06q.66-.01.67-.67c.03-2.79.71-9.16-1.04-11.21-1.77-2.08-4.91-1.35-7.04.18q-.44.31-.86-.04-3.35-2.76-6.8-.22-.49.36-.77-.18zm-8.79 11.15l.44.78a1 .99-59.6 0 0 1.86-.49l.01-11.68a.61.61 0 0 0-.61-.61l-1.39-.01q-.64-.01-.64.64.06 3.43.1 6.85c.06 4.17-6.08 5.51-6.16.7q-.06-3.78.01-7.61a.56.55-90 0 0-.56-.57l-1.44.01q-.51 0-.54.51-.53 7.91.15 9.97c1.15 3.47 5.83 3.15 8.13 1.38q.4-.3.64.13zm46.57-5.02l7.3.01q.55 0 .63-.54c1.24-8-9.77-9.23-10.92-1.21-.9 6.27 3.93 9.33 9.55 7.63q1.47-.44.94-1.88-.14-.38-.54-.3c-2.98.63-7.17 1.25-7.54-3.07q-.06-.64.58-.64zm13.57-5.51l-.07-.85a.64.64 0 0 0-.6-.58l-.8-.05a.66.66 0 0 0-.71.66l-.03 11.86q0 .43.42.44l1.5.06q.64.02.63-.61c-.08-3.51-1.25-10.87 4.62-10.35q.47.04.51-.42l.09-1q.06-.55-.49-.65-2.74-.49-4.16 1.72a.5.5 0 0 1-.91-.23zm25.246 3.848a5.42 5.42 0 0 0-5.486-5.353l-1.02.012a5.42 5.42 0 0 0-5.353 5.486l.028 2.28a5.42 5.42 0 0 0 5.486 5.353l1.02-.012a5.42 5.42 0 0 0 5.353-5.486l-.028-2.28zm34.984 1.662l7.44.01q.44 0 .51-.44c1.32-8.07-9.85-9.47-10.93-1.05-.84 6.6 3.73 8.31 9.33 7.35 1.02-.17 1.4-.89 1.33-1.85q-.04-.56-.58-.41c-3.06.84-7.77 1.23-7.54-3.2q.03-.41.44-.41zm13.5-5.34q0-.82-.29-1.36a.99.99 0 0 0-1.86.47l-.03 11.67q0 .56.57.56h1.28q.63.01.61-.63c-.1-3.06-1.16-10.99 4.31-10.3a1.07 1.07 0 0 0 .27-2.13q-2.75-.36-4.1 1.93a.41.41 0 0 1-.76-.21zm10.65.36q2.38-.36 4.68.34a.58.58 0 0 0 .74-.44l.15-.8q.1-.51-.39-.67c-3.42-1.14-10.18-1.05-8.05 4.84a.78.74-88.6 0 0 .38.42l5.25 2.56a1.54 1.54 0 0 1-.8 2.92l-4.9-.4q-.41-.04-.45.38-.18 1.76 1.68 1.9c3.65.27 9.54.09 7.24-5.67a1.16 1.12-89.1 0 0-.59-.63l-5.26-2.41a1.23 1.23 0 0 1 .32-2.34zm11.491-1.568a.43.43 0 0 0-.429-.431l-1.58-.003a.43.43 0 0 0-.431.429l-.021 12.1a.43.43 0 0 0 .429.431l1.58.003a.43.43 0 0 0 .431-.429l.021-12.1zm15.249 4.948a5.43 5.43 0 0 0-5.43-5.43h-1.02a5.43 5.43 0 0 0-5.43 5.43v2.3a5.43 5.43 0 0 0 5.43 5.43h1.02a5.43 5.43 0 0 0 5.43-5.43v-2.3zm5.62-4.58q-.42-1.1-1.67-.83-.54.12-.54.68l.01 11.75q0 .57.56.57l1.3.02q.64.01.62-.63c-.08-2.97-1.33-13.11 5.33-9.94a1.47 1.46 12.9 0 1 .84 1.32l.03 8.5q0 .72.72.74l1.02.02q.65.01.66-.64.07-4.14-.03-8.28c-.11-4.7-4.99-5.19-8.07-3.04q-.54.39-.78-.24zm18.49 7.69a1.41 1.41 0 0 1-.56 2.61q-2.83.34-5.5-.53-.61-.2-.56.44l.09.97q.05.61.64.74c3.87.85 10.56.66 8.2-5.27q-.2-.51-.7-.74l-5.18-2.38a1.24 1.24 0 0 1 .26-2.34q2.42-.52 4.67.35a.58.58 0 0 0 .78-.41l.17-.69a.73.73 0 0 0-.49-.86c-2.21-.68-6.33-.97-7.84 1.3-2.59 3.9 3.86 5.52 6.02 6.81zM767.7 486.25q-32.33.02-64.7 0c-5.71-.01-8.71.64-8.73 7q-.07 23.13.03 46.25.03 6.25 5.95 6.25 246.96.04 493.92-.02c4.46 0 7.45-1.11 7.49-5.98q.22-23.25.06-46.5c-.03-5.35-2.03-6.96-7.36-6.95q-33.09.05-66.15-.24l-360.51.19zm47.8 112.76l2.14-.02q.63 0 .62-.63l-.01-.73q-.01-.62-.62-.62l-2.22-.01q-.61 0-.5-.6l.35-1.83q.11-.58.69-.61l2.58-.15a.93.93 0 0 0 .23-1.82q-3.63-1.12-5.89 1.55a1.42 1.42 0 0 0-.31 1.19q.52 2.73-2.13 3.04a.52.52 0 0 0-.02 1.03l1.68.29a.51.51 0 0 1 .43.5l-.04 9.77q0 .63.63.63h1.3a.66.65 0 0 0 .66-.65l-.06-9.84q0-.49.49-.49zm-61.03-1.31l.04-5.09q.01-.65-.65-.65h-1.19q-.61 0-.61.62l-.02 16.39a1.01 1.01 0 0 0 1.1 1.01q1.01-.09 1.05-.93a.43.43 0 0 1 .72-.3c.74.68 1.25 1.12 2.28 1.29 10.16 1.62 7.83-18.24-2.15-12.02q-.58.36-.57-.32zm87.52-.94l-.33 12.55a.66.66 0 0 0 .65.68l1.37.02q.71.01.7-.69l-.08-15.69q0-.67-.67-.68l-2.39-.02q-.62 0-.83.57l-4.56 12.33a.37.37 0 0 1-.7-.01l-4.2-12.04a2.11 2.11 0 0 0-4.11.7v14.9q0 .55.54.57l1.34.06q.51.03.51-.48l.04-12.24a.28.28 0 0 1 .55-.09l4.08 11.79a1.61 1.61 0 0 0 3.04.02l4.45-12.36a.31.31 0 0 1 .6.11zm6.16 4.12c-.9 7.53 4.31 9.89 10.86 9.07q1.81-.22 1.26-2.25a.4.4 0 0 0-.55-.26c-12.01 5.24-12.23-16.96-.18-11.9a.57.57 0 0 0 .76-.34l.33-.98q.23-.68-.46-.88-10.78-3-12.02 7.54zm26.38 8.87q6.59-4.85 3.15-13.08-1.3-3.14-4.16-3.67-10.05-1.89-10.6 7.97-.5 8.86 8.03 9.25.51.02.82.43c1.58 2.01 2.44 4.01 5.51 3.26q.59-.14.17-.57l-2.96-3.02q-.31-.31.04-.57zm-166.82-3.79a.28.28 0 0 1-.52.15l-7.97-12.77a1.7 1.7 0 0 0-3.14.88l-.15 15.1q-.01.65.64.65l1.06.01q.62 0 .61-.61l-.13-12.36a.3.3 0 0 1 .55-.16l7.84 12.64a1.87 1.86-60.8 0 0 3.45-.98v-14.92q0-.61-.61-.62l-1.13-.02q-.61-.01-.6.59l.1 12.42zm15.3 3.25q.49 1.16 1.88.72a.5.49-8.9 0 0 .35-.47V597.5q0-.49-.49-.49h-1.69q-.48 0-.48.49c.04 2.9 1.13 10.12-2.81 10.65q-2.97.4-3.08-2.4-.15-4.02-.22-8.1-.01-.66-.67-.65l-1.25.03q-.57.01-.59.57-.31 6.89.05 9.14c.67 4.09 5.52 4.13 8.16 2.24q.57-.41.84.23zm8.71-11.34q-.6-1.11-1.81-.87-.56.11-.56.68l.02 11.65q0 .68.68.68l1.36-.02q.57-.01.56-.57-.07-3.73.11-7.41c.19-3.85 5.45-4.67 5.47.14q.01 3.55 0 7.15-.01.71.7.71l1.23-.01a.63.62 89.1 0 0 .62-.65q-.13-3.79.13-7.56c.24-3.46 5.48-4.22 5.5-.27q.02 3.92-.03 7.86-.01.61.6.61l1.23.01q.66.01.68-.65.09-4.05-.02-8.09c-.15-4.86-4.75-5.6-7.96-2.98q-.44.35-.87 0-3.4-2.74-6.87-.23-.49.35-.77-.18zm37.81 6.13h7.43q.41 0 .48-.4c1.34-8.13-9.78-9.34-11.04-1.36-1.01 6.35 3.85 8.88 9.35 7.67q1.68-.37 1.25-1.92-.13-.46-.59-.34c-2.93.75-7.58 1.15-7.36-3.2q.03-.45.48-.45zm13.53-5.52l-.07-.86a.63.63 0 0 0-.61-.59l-.82-.03q-.72-.02-.72.69l.04 11.61q0 .67.67.68l1.24.02q.62.01.6-.61c-.13-3.55-1.23-10.73 4.63-10.3a.48.47 5 0 0 .51-.42l.12-1.06a.55.54-81.6 0 0-.44-.6q-2.81-.55-4.28 1.69a.47.47 0 0 1-.87-.22zm25.246 3.838a5.42 5.42 0 0 0-5.486-5.353l-1.02.012a5.42 5.42 0 0 0-5.353 5.486l.028 2.3a5.42 5.42 0 0 0 5.486 5.353l1.02-.012a5.42 5.42 0 0 0 5.353-5.486l-.028-2.3zM767.71 631.53q-.66-.31-1.46-.31-31.62.02-63.25.02c-5.68 0-8.71.68-8.73 7.02q-.06 22.35-.01 44.71c.01 5.16 1.26 7.76 6.75 7.77q32.82.06 65.66 0 .11 0 .19-.09l.24-.25q.12-.12-.05-.12-32.66-.02-65.29-.03c-7.57 0-6.88-4.22-6.9-10.42q-.08-18.9-.09-37.79c-.01-6.25-.54-10.25 6.98-10.26q32.89-.07 65.8-.03c.04.71.32 1.21.33 1.85q.33 28.3-.04 56.75.42.42 1.66.42 178 .07 356-.02 2.93 0 2.08-.42-.01-.19.19-.24a.29.29 0 0 0 .23-.28l.02-58.05a.76.76 0 0 0-.76-.76H768.55q-.3 0-.51.21l-.33.32zm433.51 52.72c-.01 4.57-2.84 6-6.97 6q-32.51.01-65.31.01a.11.11 0 0 0-.07.19q.26.22.63.23 30.5.09 61 .07c6.27 0 11.34.63 11.32-6.99q-.04-23.26-.1-46.51c-.01-5.04-3.39-5.98-7.88-5.99q-32.64-.05-65.28-.01-.09 0-.07.09l.08.29q.03.11.15.11 30.32-.04 60.63.04c7 .02 11.88-1.25 11.89 7.2q.02 22.66-.02 45.27zm-34.5-24.46a.58.58 0 0 1-.5-.5l-.64-5.14a.58.58 0 0 0-1.16 0l-.64 5.14a.58.58 0 0 1-.5.5l-5.14.64a.58.58 0 0 0 0 1.16l5.14.64a.58.58 0 0 1 .5.5l.64 5.14a.58.58 0 0 0 1.16 0l.64-5.14a.58.58 0 0 1 .5-.5l5.14-.64a.58.58 0 0 0 0-1.16l-5.14-.64zm-428.54 1.14a.91.91 0 0 0-.91-.91h-12.46a.91.91 0 0 0-.91.91v.1a.91.91 0 0 0 .91.91h12.46a.91.91 0 0 0 .91-.91v-.1zm77.33 84.08l2.13-.02q.64 0 .62-.63l-.02-.86q-.02-.47-.49-.47l-1.43-.02a1.54 1.54 0 0 1-.05-3.07l2.25-.11a.95.95 0 0 0 .23-1.85q-3.62-1.13-5.87 1.56a1.45 1.45 0 0 0-.32 1.19q.53 2.75-2.14 3.03a.52.52 0 0 0-.04 1.03l1.73.32a.5.49-85.2 0 1 .41.49l-.04 9.64q0 .75.76.75h1.18q.66 0 .66-.66l-.05-9.84q0-.48.48-.48zm-61.05-1.27l.05-5.26q.01-.54-.53-.53l-1.32.03a.6.6 0 0 0-.59.6l-.04 16.47a1.07 1.07 0 0 0 2.12.23l.06-.28a.44.43 28 0 1 .73-.22c.71.71 1.15 1.1 2.18 1.27 10.13 1.7 8.18-18.17-2.13-12.01q-.54.33-.53-.3zm75.16-2.72a.43.43 0 0 1 .43.43l-.11 14.09a.43.43 0 0 0 .43.44l1.79.03a.43.43 0 0 0 .44-.43l-.05-14.13a.43.43 0 0 1 .43-.43l4.38-.02a.43.43 0 0 0 .43-.43l-.02-1.23a.43.43 0 0 0-.43-.43l-11.99.01a.43.43 0 0 0-.43.4l-.09 1.2a.43.43 0 0 0 .43.46l4.36.04zm-130.84 2.01l7.57 12.29a1.95 1.95 0 0 0 3.61-1.02l-.01-14.71q0-.61-.61-.62l-1.12-.02q-.6-.02-.6.58v12a.35.35 0 0 1-.65.19l-7.7-12.3a1.73 1.72 29.3 0 0-3.19.89l-.15 15q-.01.64.63.66l.93.02q.76.02.75-.74l-.11-12.03a.35.35 0 0 1 .65-.19zm148.049-3.477a.26.26 0 0 0-.153-.334l-1.593-.593a.26.26 0 0 0-.334.153l-6.177 16.609a.26.26 0 0 0 .153.334l1.593.593a.26.26 0 0 0 .334-.153l6.177-16.609zm5.821 7.177a.43.43 0 0 1-.43-.43l-.03-4.87a.43.43 0 0 1 .43-.43h6.4a.43.43 0 0 0 .43-.46l-.09-1.18a.43.43 0 0 0-.43-.39l-8.74-.03a.43.43 0 0 0-.43.43l.03 16.18a.43.43 0 0 0 .43.43l1.57.02a.43.43 0 0 0 .43-.43v-6.32a.43.43 0 0 1 .43-.43l5.93.05a.43.43 0 0 0 .43-.49l-.17-1.27a.43.43 0 0 0-.42-.37l-5.77-.01zm-69.63-2.22l-.01-.86a.63.62 90 0 0-.61-.62l-.84-.02q-.69-.02-.69.67l.05 11.64q0 .65.65.66l1.21.02q.62.01.6-.61c-.16-3.52-1.26-10.47 4.39-10.32q.45.01.66-.39.47-.93-.03-1.45-.45-.45-1.39-.33-1.99.26-3.33 1.84-.65.77-.66-.23zm-60.06 10.66q.61 1.22 1.92.76.34-.12.34-.48v-11.96q0-.48-.48-.48l-1.52-.01q-.59 0-.58.58c.03 2.53.95 9.61-2.38 10.44-2.91.73-3.8-.77-3.76-3.42q.04-3.53.01-7.08 0-.52-.52-.52l-1.47.02a.64.64 0 0 0-.63.63c-.11 5.27-1.67 14.03 6.11 12.35 1-.22 1.3-.58 2.19-1.07q.5-.28.77.24zm16.39-10.85q-3.48-2.84-6.99-.16-.49.38-.69-.2-.43-1.24-1.8-.93-.42.09-.42.52l.03 11.82q0 .65.65.64l1.29-.04q.61-.02.57-.62-.22-3.82.06-7.59c.22-2.78 2.96-3.59 5.05-2.21a.95.93-74.3 0 1 .42.77l.14 9.12q0 .54.54.54l1.26.02a.59.59 0 0 0 .6-.61q-.13-3.64.11-7.26c.25-3.86 5.49-4.49 5.5-.89q.01 4.13.12 8.25.01.51.51.5h1.37q.56-.01.56-.56c-.01-4.08 2-14.16-5.75-12.38q-.88.2-2.33 1.29-.4.31-.8-.02zm30.19 5.68h7.41q.39 0 .46-.39c1.41-8.15-9.85-9.51-10.98-1.12-.86 6.36 3.86 8.54 9.32 7.44q1.71-.35 1.22-2.02-.14-.47-.6-.32c-2.83.92-7.89.98-7.29-3.19q.06-.4.46-.4zm38.763-1.712a5.41 5.41 0 0 0-5.485-5.334l-1 .014a5.41 5.41 0 0 0-5.334 5.485l.032 2.32a5.41 5.41 0 0 0 5.485 5.334l1-.014a5.41 5.41 0 0 0 5.334-5.485l-.032-2.32zM767.45 777.27q-33.46-.07-66.96 0c-6.65.01-6.2 4.89-6.22 10.42q-.08 21.17 0 42.37c.02 6.91 4.19 6.68 10.09 6.69q31.07.05 62.14 0 .23 0 .34-.16.25-.33-.17-.33-32.84-.01-65.66.01-6.05.01-6.08-6.02-.13-22.87-.38-45.75-.08-6.74 6.95-6.75 33.03-.01 66.03-.02.47 1.77.47 2.27.05 27.95-.07 56.36-.27.06.53.32.28.09.6.09 178.59.06 357.19.03 1.35 0 1.74-.44l.82.34q32.33.15 64.67.01c4.8-.02 8.27-.74 8.28-6.22q.07-23.01-.05-46.03c-.02-4.04-1.31-7.2-5.71-7.2q-33.5-.05-67-.01-.93 0-.19.37.25.12.69.12 32.75-.01 65.5.14 6.21.03 6.22 6.63.04 21.63.01 43.25c-.01 4.79-.38 8.38-5.98 8.4q-32.86.1-67.07.09l-.08-58.64q0-.59-.59-.59L768.42 777q-.2 0-.33.15-.31.37-.64.12zm399.26 28.53a.58.58 0 0 1-.5-.51l-.65-5.13a.58.58 0 0 0-1.15.01l-.62 5.13a.58.58 0 0 1-.51.5l-5.13.65a.58.58 0 0 0 .01 1.15l5.13.62a.58.58 0 0 1 .5.51l.65 5.13a.58.58 0 0 0 1.15-.01l.62-5.13a.58.58 0 0 1 .51-.5l5.13-.65a.58.58 0 0 0-.01-1.15l-5.13-.62zm-428.51 1.15a.92.92 0 0 0-.92-.92h-12.56a.92.92 0 0 0-.92.92v.08a.92.92 0 0 0 .92.92h12.56a.92.92 0 0 0 .92-.92v-.08zm73.82 81.21l-1.7.78a.48.48 0 0 0 .13.92l1.51.2a.65.64 4.5 0 1 .56.65l-.08 9.62q0 .65.64.66l1.47.01q.56 0 .55-.55l-.07-9.71q0-.73.73-.74l1.93-.03a.65.65 0 0 0 .64-.67l-.03-.65a.65.65 0 0 0-.65-.63l-2.24-.02q-.61 0-.5-.6l.34-1.93a.76.76 0 0 1 .94-.6q1.89.49 3.15-.76a.6.59-56.8 0 0-.2-.98q-3.72-1.45-6.22 1.26a.99.94 69 0 0-.25.6l-.14 2.44q-.03.52-.51.73zm18.22 1.87l2.02-.05a.99.99 0 0 0-.03-1.98l-1.47.01a1.45 1.45 0 0 1-.37-2.86q1.37-.36 2.79-.31a.89.89 0 0 0 .41-1.69c-3.67-1.75-6.35.43-6.46 4.32a.76.75 78 0 1-.43.67l-1.75.84a.47.46-53.7 0 0 .13.88l1.5.2a.53.52-86.3 0 1 .45.52l-.05 9.72q0 .57.57.61l1.54.11q.67.05.67-.62v-9.89q0-.47.48-.48zm13.697-6.456a.69.69 0 0 0-.694-.686l-.82.004a.69.69 0 0 0-.686.694l.087 16.56a.69.69 0 0 0 .694.686l.82-.004a.69.69 0 0 0 .686-.694l-.087-16.56zm-89.467 4.936l.05-5.03q0-.54-.54-.53l-1.32.02a.63.62-90 0 0-.61.62l-.03 16.66q0 .54.51.69 1.36.42 1.61-.84a.49.48 24.9 0 1 .77-.28q1.33 1.01 1.83 1.14c10.07 2.65 9.14-17.8-1.62-12.07q-.65.35-.65-.38zm95.945-5.068a.48.48 0 0 0-.479-.481l-1.16-.002a.48.48 0 0 0-.481.479l-.03 16.98a.48.48 0 0 0 .479.481l1.16.002a.48.48 0 0 0 .481-.479l.03-16.98zm42.415 5.098l.05-4.99q0-.59-.58-.59l-1.28-.01q-.53-.01-.53.53l-.05 16.8q0 .65.65.72 1.04.1 1.53-.84.27-.52.76-.18c3.71 2.56 7.52.96 8.45-3.35 1.08-5.05-2.21-11.55-8.28-7.69q-.73.46-.72-.4zm15.12-5.08a.52.52 0 0 0-.52-.52h-1.42a.52.52 0 0 0-.52.52v17a.52.52 0 0 0 .52.52h1.42a.52.52 0 0 0 .52-.52v-17zm35.08 9.78l-.01-9.74q0-.53-.52-.53l-1.24-.01q-.54 0-.55.54l-.14 16.9q0 .59.58.59h1.21a.62.62 0 0 0 .62-.6l.16-3.95a1.13 1.13 0 0 1 2.05-.6c1.28 1.83 3.11 5.9 5.87 5.06q.54-.17.2-.62l-4.72-6.21q-.33-.44.05-.84l4.3-4.54q.44-.46-.18-.61c-2.74-.7-5.29 3.69-7.17 5.38q-.51.47-.51-.22zm-105.24-8.63a1.42 1.42 0 0 0-2.84 0 1.42 1.42 0 0 0 2.84 0zm27.34-.02a1.41 1.41 0 1 0-2.82 0 1.41 1.41 0 1 0 2.82 0zm-157.91 12.48l-7.9-12.57a1.82 1.81-61.1 0 0-3.35.97l.02 14.87q0 .6.6.62l1.16.03q.5.01.49-.49l-.13-12.49a.29.29 0 0 1 .53-.15l7.84 12.64a1.87 1.87 0 0 0 3.46-.98v-14.93q0-.61-.6-.62l-1.11-.02q-.57-.01-.57.56l.03 12.43q0 .88-.47.13zm24.53-8.21q-.69-1.05-1.9-.86-.44.08-.43.53l.1 11.86q0 .61.62.6l1.26-.01q.62-.01.59-.62c-.11-3.07-1.1-8.97 2.36-10.52a2.14 2.14 0 0 1 3.02 1.89l.24 8.8q.01.41.42.43l1.43.05a.62.61-89.1 0 0 .64-.63c-.05-3.24-1.29-10.26 3.49-10.39a2.03 2.03 0 0 1 2.08 2.01l.07 8.35q0 .62.61.63l1.32.03q.56.01.56-.56c0-2.89.8-9.4-1.14-11.46-1.82-1.91-4.82-1.2-7.02.22q-.43.28-.84-.03-3.31-2.59-6.71-.17-.46.33-.77-.15zm51.32.63l-.06-.76q-.06-.72-.78-.72h-.69q-.7 0-.69.7v11.69q0 .54.54.56l1.52.06q.5.02.51-.48c.01-3.54-1.44-10.74 4.49-10.48q.68.03.71-.65l.04-.77q.02-.56-.53-.67-2.73-.53-4.17 1.74a.48.48 0 0 1-.89-.22zm135.21 3.52c-2.37-.01-5.87.43-7 2.8-.98 2.08-.15 4.56 2.24 5.21q2.71.75 5.27-.86a.49.48-47.3 0 1 .47-.02l1.75.9q.7.37.75-.42c.37-6.69 2.28-15.33-8.73-12.1a.94.94 0 0 0 .15 1.83c2.01.23 4.21-1.56 6.02.79a1.16 1.16 0 0 1-.92 1.87zm9.97-4.4l-1.8-.74a.79.78 11 0 0-1.09.73l.08 11.74q.01.52.52.59l1.45.19q.78.1.79-.68c.01-2.84-1.4-12.56 4.77-10.15a1.82 1.81-79.3 0 1 1.16 1.71l-.06 8.23a.71.7-87.9 0 0 .66.72l1.28.07a.68.68 0 0 0 .72-.68c.02-5.17 2.16-15.43-7.69-11.71q-.39.15-.79-.02zm-205.24 11.58q.42 1.23 1.91.72.3-.11.3-.43v-11.86a.61.61 0 0 0-.6-.61l-1.39-.01a.61.6 90 0 0-.61.62c.04 2.91 1.37 13.24-5.21 10.1a1.66 1.64-77.2 0 1-.94-1.51l.04-8.7q0-.51-.5-.5l-1.52.01q-.65.01-.64.67c.03 2.68-.81 10.97 2.39 12.1q3.19 1.12 5.98-.85.56-.4.79.25zm46.3-5.2l7.64.01q.39 0 .46-.38c1.37-8.13-9.88-9.59-10.92-1.13-.73 5.92 3.82 9.07 9.26 7.46q1.61-.47 1.28-1.93-.12-.49-.6-.37c-3.16.78-7.38 1.23-7.54-3.21q-.02-.45.42-.45zm39.038-1.609a5.38 5.38 0 0 0-5.342-5.417l-.98-.007a5.38 5.38 0 0 0-5.417 5.342l-.017 2.42a5.38 5.38 0 0 0 5.342 5.417l.98.007a5.38 5.38 0 0 0 5.417-5.342l.017-2.42zm29.112-4.831a.55.55 0 0 0-.55-.55h-1.24a.55.55 0 0 0-.55.55v11.84a.55.55 0 0 0 .55.55h1.24a.55.55 0 0 0 .55-.55v-11.84zm27.32.01a.55.55 0 0 0-.55-.55h-1.06a.55.55 0 0 0-.55.55v11.82a.55.55 0 0 0 .55.55h1.06a.55.55 0 0 0 .55-.55v-11.82zm6.46.2q-.5-.93-1.59-.77-.62.09-.62.71l.02 11.62a.62.62 0 0 0 .58.62l1.31.09a.63.63 0 0 0 .67-.66c-.11-2.5-.76-8.73 1.61-10.06q2.15-1.2 3.95.45.43.38.43.96l.1 8.62q.01.64.64.65l1.35.02q.53.01.53-.51.04-3.99.01-8.03c-.03-5.03-4.48-5.53-8.18-3.47q-.52.29-.81-.24zm-11.59 5.797a.8.8 0 0 0-.776-.823l-4.258-.126a.8.8 0 0 0-.823.776l-.002.08a.8.8 0 0 0 .776.823l4.258.126a.8.8 0 0 0 .823-.776l.002-.08zm-91.63 87.253q212.54.07 425.07-.04c5.05-.01 8.74-.74 8.74-6.52q0-22.31-.1-44.62c-.02-4.18-.6-8.33-5.48-8.34q-34.02-.08-68.05-.01-8.71-.12-17.45-.13-205.17-.24-410.34-.02c-4.88.01-6.27 3.21-6.27 7.72q-.03 22.61-.01 45.23c0 4.87 2.31 6.76 7.21 6.77q33.35.05 66.68-.04z" class="F"/><circle cx="1018.13" cy="171.43" r="2.89"/><path d="M973.45 207.85l-5.24-6.19a.98.97-20.4 0 0-.77-.35q-12.23.16-14.34-11.94c-.92-5.27.08-12.65 4.27-16.36 6.34-5.61 19.15-4.09 22.51 4.36 3.11 7.81 1.94 18.36-6.07 22.86q-.37.21-.08.53l6.47 7.02q.44.48-.21.48l-5.71-.02q-.5 0-.83-.39zm2.333-25.535a8.04 8.04 0 0 0-8.082-7.998l-1.32.007a8.04 8.04 0 0 0-7.998 8.082l.034 6.4a8.04 8.04 0 0 0 8.082 7.998l1.32-.007a8.04 8.04 0 0 0 7.998-8.082l-.034-6.4zM713.37 175.12q.05.2 0 .39a.42.42 0 0 1-.56.27c-3.11-1.17-8.03-2.78-10.61-.05-4.16 4.39 4.09 7.23 6.53 8.45q3.92 1.97 5.2 3.66 2.43 3.21.95 7.54c-2.44 7.17-12.79 6.69-18.61 4.57q-.49-.18-.5-.71l-.09-3.99q-.01-.6.54-.36c3.32 1.4 12.53 4.46 13.99-1.21.67-2.58-1.3-3.92-3.54-4.98-3.98-1.89-9.14-3.74-10.28-8.48-1.15-4.84 1.87-9.33 6.87-10.13q5.59-.9 11.04 1.44.47.2.34.69-.4 1.61-1.27 2.9zm79.23 19.94q1.8-2.32 1.93-5.31.36-8.8-.48-18.63.39-1.71 5.5-.5-.36 10.09-.39 19.38-.01 2.51-.91 5.15-3.5 6.64-11.79 6.23-11.56-.57-11.59-12.39-.02-9.13-.01-18.3 0-.43.44-.43h4.44q.53 0 .53.52 0 9.74-.06 19.47c-.04 7.12 7.59 8.14 12.39 4.81zm67.95-11.66q-2.73 3.96-2.99 5.35-.62 3.34.21 12.01l-5.05.14q-.61.01-.61-.6l-.03-11.14q0-.53-.25-.99l-9.37-17.38q-.3-.55.32-.55l4.42.03q.52 0 .75.46l6.63 12.76a.39.39 0 0 0 .69 0l6.72-12.88q.19-.36.58-.36l4.63.01q.53.01.28.47l-6.93 12.67zm188.64 7.53l-.95-20.31a.34.34 0 0 1 .34-.36l5.19-.01a.34.34 0 0 1 .34.36l-1.05 20.3a.34.34 0 0 1-.34.32l-3.18.03a.34.34 0 0 1-.35-.33z"/><path d="M799.55 170.62q.49 9.41.32 20.88-.03 2.39-1.62 3.65.9-2.64.91-5.15.03-9.29.39-19.38z" class="M"/><path d="M794.05 171.12q.84 9.83.48 18.63-.13 2.99-1.93 5.31c.71-1.85 1.28-3.43 1.26-5.48q-.09-8.79.19-18.46z" class="B"/><path d="M751.7 173.83q-1.05 1.21-.16 3.29l.1.29q.1.33.45.33l5.86.01a.46.45 89.3 0 1 .45.45l.02 2.82q.01.44-.43.44l-6.33-.08q-1.22 7.02 0 14.04 2.12 2.49 6.28 1.3.59-.17.61.45l.08 2.82q.01.56-.53.71c-3.5.97-8.61 1.28-10.6-2.41-1.75-3.24-.91-12.22-.9-16.21q.01-.51-.5-.56l-1.15-.13q-1.14.16-1.73-1.32.54-1.51 3.06-2.12a.87.86 3.1 0 0 .61-.54l1.64-4.41q.18-.48.69-.47l2.09.06q.65.02.58.66-.04.36-.19.58z"/><path d="M751.7 173.83q.54 2.04-.16 3.29-.89-2.08.16-3.29z" class="B"/><rect x="-8.7" y="-11.24" transform="matrix(.999986 -.005236 .005236 .999986 967.1 185.56)" width="17.4" height="22.48" rx="8.04" class="F"/><path d="M727.77 200.95c-12.35-2.34-10.12-25.29 3.26-23.65q10.41 1.28 9.21 12.73-.05.44-.49.44l-14.45.01q-.51 0-.46.51c.82 7.86 8.23 7.08 13.81 4.92q.47-.18.47.31l.03 3.09q0 .53-.49.71-5.3 1.99-10.89.93zm-2.1-13.93l9.02-.04a.73.73 0 0 0 .73-.73v-.12a5.13 5.12 89.8 0 0-5.14-5.11h-.24a5.13 5.12 89.8 0 0-5.1 5.15v.12a.73.73 0 0 0 .73.73zm81.54 18.49l.01-9.77-.08-9.03.18.87q.06.3.16.01.04-.13.02-.26-.1-.6-.1-.71l-.31-8.31q.66-.95 3.94-.46.36.05.44.41l.42 1.97q.16.77.71.21 4.92-5.05 10.46-2.28c5.22 2.6 5.99 10.12 4.85 15.06-1.8 7.78-8.73 10.92-15.29 5.3q-.38-.33-.37.18l.23 12.06q.01.5-.49.5l-4.45-.02q-.46-.01-.45-.47l.12-5.26zm15.805-19.042a4.92 4.92 0 0 0-4.894-4.946l-.76-.004a4.92 4.92 0 0 0-4.946 4.894l-.029 5.6a4.92 4.92 0 0 0 4.894 4.946l.76.004a4.92 4.92 0 0 0 4.946-4.894l.029-5.6zm66.355-1.358q.73 5.88-.97 10.96-2.64 4.21-7.12 5.02c-17.64 3.17-18.08-25.88-1.03-23.77q6.94.86 9.12 7.79zm-5.58 8.91c2.2-4.69.96-14.31-6.57-12.42-5.39 1.35-4.74 9.22-2.99 13.03 1.82 3.94 7.89 2.96 9.56-.61zm44.85-12.55c3-2.87 4.08-4.74 8.66-4.18q.52.07.48.59l-.35 3.88q-.05.49-.53.42-4.7-.64-6.97 2.45c-2.21 3.01-1.19 11.98-1.23 15.89q-.01.48-.49.48h-4.07q-.36 0-.35-.36l.02-22.43q0-.47.48-.47l2.69.02q.47.01.56.47l.56 3.06q.11.59.54.18zm-32.77 8.67q-.03-5.97-.24-11.96-.01-.43.42-.43l4.16.01q.5 0 .49.49-.1 7.26-.04 14.49c.02 3.02 1.93 4.4 4.83 4.32q5.35-.15 5.53-6.32.21-7.25.03-12.49-.02-.5.47-.5h4.23q.51 0 .51.5v22.25q0 .5-.51.5h-3.1q-.61 0-.7-.6l-.28-1.89q-.12-.79-.7-.25c-3.93 3.7-11.44 4.8-14.37-.63-1.38-2.56-.72-5.09-.73-7.49zm96.61-12.44q-.71 7.2.01 14.48.35 1.87.5 2.34.71 2.14 2.56 2.4 7.48 1.04 7.56-6.56.06-5.97 0-11.99-.01-.62.61-.62h4.02q.5-.01.5.5l.03 22.24q0 .52-.51.51h-3.03q-.76 0-.85-.76l-.21-1.75a.45.44-26.7 0 0-.77-.25q-3.59 3.75-8.91 2.98c-5.8-.85-6.35-4.78-6.35-10.11q.01-6.41-.03-12.84 0-.49.49-.5l4.38-.07z"/><path d="M992.48 177.7q.97 7.21.01 14.48-.72-7.28-.01-14.48z" class="B"/><path d="M1020.7 177.78q-1.26 11.39.02 22.94l-4.76.22q-.43.02-.43-.41l.14-22.14q0-.57.58-.58l4.45-.03z"/><path d="M1020.7 177.78l.02 22.94q-1.28-11.55-.02-22.94z" class="B"/><path d="M1026.65 196.9c3.33-4.92 6.85-10.05 10.54-14.7q.35-.45-.22-.45l-9.92-.01q-.44 0-.45-.44l-.05-3.07q-.01-.48.47-.48h15.72q.47 0 .5.47c.1 1.55.25 2.67-.75 4q-5.26 6.93-10.2 14.11-.42.61.33.61l10.39.02q.55 0 .55.55l.05 2.93q0 .56-.55.56h-16.77q-.41 0-.46-.41-.27-2.07.82-3.69z"/><path d="M807.09 178.31l.31 8.31q0 .11.1.71.02.13-.02.26-.1.29-.16-.01l-.18-.87-.05-8.4zm-63.87 1.76q.59 1.48 1.73 1.32l-.7.21q-.48.15-.74-.28-.25-.4-.29-1.25z" class="B"/><path d="M725.67 187.02a.73.73 0 0 1-.73-.73v-.12a5.13 5.12 89.8 0 1 5.1-5.15h.24a5.13 5.12 89.8 0 1 5.14 5.11v.12a.73.73 0 0 1-.73.73l-9.02.04z" class="F"/><path d="M751.66 181.38v14.04q-1.22-7.02 0-14.04z" class="B"/><g class="F"><rect x="-5.3" y="-7.72" transform="matrix(.999986 .005236 -.005236 .999986 817.7 189.24)" width="10.6" height="15.44" rx="4.92"/><path d="M877.22 181.6c7.53-1.89 8.77 7.73 6.57 12.42-1.67 3.57-7.74 4.55-9.56.61-1.75-3.81-2.4-11.68 2.99-13.03z"/></g><path d="M860.55 183.4l-2.41 5.4a1.14 1.02-35.9 0 0-.1.45l-.27 11.51q-.83-8.67-.21-12.01.26-1.39 2.99-5.35zm28.82 1.71q2.19 6.04-.97 10.96 1.7-5.08.97-10.96z" class="M"/><circle cx="1051.08" cy="198.22" r="3.28"/><g class="B"><path d="M807.22 195.74l-.01 9.77.01-9.77z"/><circle cx="730.86" cy="302.58" r="1.48"/><path d="M706.82 319.41l2.79 2.78q.47.47-.16.67c-2.92.91-4.18-1.27-5.6-3.3q-.29-.42-.79-.42c-7.02.01-9.18-6.17-7.6-11.96q.79-2.94 3.05-4.31c2.71-1.64 6.9-1.66 9.39.34 4.65 3.7 3.85 12.29-1 15.42q-.53.34-.08.78zm1.335-10.758a4.74 4.74 0 0 0-4.673-4.806l-.82-.012a4.74 4.74 0 0 0-4.806 4.673l-.051 3.64a4.74 4.74 0 0 0 4.673 4.806l.82.012a4.74 4.74 0 0 0 4.806-4.673l.051-3.64zm48.695-3.012a.27.26-61.6 0 0-.49.15l.22 12.44q.01.82-.81.78l-1-.05a.67.67 0 0 1-.63-.68l.17-15.08a1.75 1.75 0 0 1 3.24-.9l7.78 12.65a.4.4 0 0 0 .74-.21l-.12-12.09q0-.64.65-.66l1.12-.02q.51-.01.5.5l-.09 15.02a1.79 1.78 29.2 0 1-3.3.93l-7.98-12.78z"/></g><rect x="-5.15" y="-6.56" transform="matrix(.999903 .013962 -.013962 .999903 702.98 310.4)" width="10.3" height="13.12" rx="4.74" class="F"/><g class="B"><path d="M722.77 314.96l.13-8.52q.01-.4.41-.41l1.57-.03q.64-.01.64.63l.03 11.66q0 .63-.62.72-1.11.17-1.61-.75-.29-.53-.79-.2c-3.88 2.48-8.32 1.23-8.36-3.95q-.02-3.75.03-7.5.01-.59.6-.6h1.41q.71-.01.71.7l.04 8.97a.95.94 14.4 0 0 .5.83q2.86 1.53 5-.77a1.14 1.13-23.6 0 0 .31-.78z"/><rect x="729.62" y="306" width="2.44" height="12.98" rx=".43"/><path d="M740.82 308.19q-2.27-.43-4.58-.27-1.26.1-1.16-1.08a.93.92-87.9 0 1 .91-.85l7.5-.03a1.2 1.2 0 0 1 .98 1.91l-6.16 8.46a.4.39-71.5 0 0 .31.63l5.31.04q.66.01.69.67l.02.55a.75.75 0 0 1-.75.79l-8.17-.01a.99.99 0 0 1-.8-1.57l6.16-8.6q.37-.51-.26-.64zm38.65 9.51c-6.56 5.81-13.77-6.06-.8-6.66a1.46 1.46 0 0 0 .34-2.86q-2.46-.72-4.97.3a.81.81 0 0 1-1.01-1.13c.73-1.34 2.17-1.12 3.2-1.35 8.03-1.81 5.95 8.23 6 12.4q.01.52-.51.6-1.27.19-1.49-1.04-.15-.8-.76-.26zm-.42-4.7c-1.51-.33-4.19-.26-4.85 1.5q-.34.93.04 1.68c1.32 2.55 6.72.15 5.48-2.64q-.2-.44-.67-.54zm15.23 5.35c.49-3.01.15-5.26-.07-7.96-.31-3.84-5.26-3.06-5.49.37q-.27 3.84-.23 7.73 0 .53-.52.52l-1.47-.04q-.47-.01-.47-.47l.01-11.81q.01-.6.6-.69 1.46-.23 1.66 1.19.09.56.52.2 3.75-3.18 7.38.09.29.26.58 0 3.68-3.28 7.43-.12a1.6 1.59 19.6 0 1 .57 1.2l.13 9.73q.01.71-.7.71l-1.09-.01q-.62 0-.63-.62l-.01-8.74a1.17 1.13 23.8 0 0-.33-.8q-1.62-1.68-3.7-.66c-2.59 1.26-1.72 7.66-1.71 10.32q0 .54-.53.52l-1.41-.04q-.61-.02-.52-.62zm16.55-4.97c-.39 4.23 4.44 4.32 7.37 3.23q.48-.18.61.32.41 1.66-1.2 1.96c-5.61 1.06-10.28-1.13-9.28-7.63 1.25-8.04 12.14-6.7 10.93 1.29q-.07.46-.53.45l-7.43-.04q-.43-.01-.47.42zm.18-2.09l5.88-.08a.25.25 0 0 0 .25-.25v-.14a3.11 3.09 89.3 0 0-3.13-3.07h-.2a3.11 3.09 89.3 0 0-3.05 3.15v.14a.25.25 0 0 0 .25.25z"/></g><path d="M811.01 311.29a.25.25 0 0 1-.25-.25v-.14a3.11 3.09 89.3 0 1 3.05-3.15h.2a3.11 3.09 89.3 0 1 3.13 3.07v.14a.25.25 0 0 1-.25.25l-5.88.08zm-31.29 2.25c1.24 2.79-4.16 5.19-5.48 2.64q-.38-.75-.04-1.68c.66-1.76 3.34-1.83 4.85-1.5q.47.1.67.54z" class="F"/><path d="M1172.75 398.26q-2.18.96-5.5.96-233.87 0-467.75.01-2.04 0-4.17-.94Q694 396.53 694 395q0-25.55 0-50.72a4.28 4.28 0 0 1 4.28-4.28l471.23-.01a4.47 4.47 0 0 1 4.47 4.46q.05 24.89.01 50.36c-.01 1.28-.65 2.38-1.24 3.45zm-416.54-35.64a1.39 1.39 0 1 0-2.78 0 1.39 1.39 0 1 0 2.78 0zm-36.63 4.19c-1.89 6.01.6 12.34 7.52 12.38a1.04 1.02 73.7 0 1 .84.47c1.28 2.02 2.72 4.07 5.46 3.24q.61-.19.17-.65l-2.94-3.06q-.42-.44.12-.71c4.21-2.09 4.95-7.77 3.64-11.65-1.73-5.13-7.65-6.79-11.94-3.79q-2.16 1.51-2.87 3.77zm62.79-2.33l-.04 13.83q.09.9 1.8.63.48-.08.69-.52.32-.65-.3-1.19.86-7.19.24-14.31l-.03-.36a1.04 1.04 0 0 0-1.66-.73l-4.81 3.63q-.5.38-.03.79l.63.54a.7.7 0 0 0 .93-.01l2.58-2.3zm-35.08 13.48q.04.85.91 1.06a1.02 1.02 0 0 0 1.26-.99v-11.55q0-.48-.48-.48h-1.45a.59.59 0 0 0-.59.61q.1 3.65.01 7.29c-.1 3.9-6.17 5.15-6.09-.05q.06-3.59 0-7.2-.01-.65-.65-.65h-1.39q-.59 0-.59.59c-.04 2.85-.6 8.59.76 10.8 1.63 2.65 5.37 2.05 7.67.28q.59-.45.63.29zm8.72-11.57a.39.39 0 0 0-.39-.39h-1.56a.39.39 0 0 0-.39.39v12.2a.39.39 0 0 0 .39.39h1.56a.39.39 0 0 0 .39-.39v-12.2zm6.15 9.98l6.05-8.4a1.24 1.23 18.4 0 0-.98-1.95q-3.2-.07-7.24-.01-1.19.02-.62 1.54.17.44.64.44l5.24.04a.27.27 0 0 1 .22.42l-6.65 9.22a.83.83 0 0 0 .67 1.32l8.38.01q.63.01.63-.62l.01-.75q.01-.63-.63-.63h-5.4q-.76 0-.32-.63z" class="I"/><circle cx="754.82" cy="362.62" r="1.39"/><path d="M722.45 363.04c4.29-3 10.21-1.34 11.94 3.79 1.31 3.88.57 9.56-3.64 11.65q-.54.27-.12.71l2.94 3.06q.44.46-.17.65c-2.74.83-4.18-1.22-5.46-3.24a1.04 1.02 73.7 0 0-.84-.47c-6.92-.04-9.41-6.37-7.52-12.38q.71-2.26 2.87-3.77zm9.678 5.487a4.75 4.75 0 0 0-4.808-4.692l-.84.01a4.75 4.75 0 0 0-4.692 4.808l.044 3.62a4.75 4.75 0 0 0 4.808 4.692l.84-.01a4.75 4.75 0 0 0 4.692-4.808l-.044-3.62z" class="B"/><path d="M784.76 362.92q-.85-.25-.9 1.09-.22 5.39.66 13.22.62.54.3 1.19-.21.44-.69.52-1.71.27-1.8-.63.88-6.64.04-13.83l-2.58 2.3a.7.7 0 0 1-.93.01l-.63-.54q-.47-.41.03-.79l4.81-3.63a1.04 1.04 0 0 1 1.66.73l.03.36z"/><path d="M784.76 362.92q.62 7.12-.24 14.31-.88-7.83-.66-13.22.05-1.34.9-1.09z" class="B"/><rect x="-5.17" y="-6.56" transform="matrix(.999925 -.012217 .012217 .999925 726.98 370.4)" width="10.34" height="13.12" rx="4.75" class="I"/><path d="M782.37 364.48q.84 7.19-.04 13.83l.04-13.83z" class="F"/><g class="B"><path d="M746.66 377.67c-2.3 1.77-6.04 2.37-7.67-.28-1.36-2.21-.8-7.95-.76-10.8q0-.59.59-.59h1.39q.64 0 .65.65.06 3.61 0 7.2c-.08 5.2 5.99 3.95 6.09.05q.09-3.64-.01-7.29a.59.59 0 0 1 .59-.61h1.45q.48 0 .48.48v11.55a1.02 1.02 0 0 1-1.26.99q-.87-.21-.91-1.06-.04-.74-.63-.29z"/><rect x="753.67" y="366" width="2.34" height="12.98" rx=".39"/><path d="M762.48 377h5.4q.64 0 .63.63l-.01.75q0 .63-.63.62l-8.38-.01a.83.83 0 0 1-.67-1.32l6.65-9.22a.27.27 0 0 0-.22-.42l-5.24-.04q-.47 0-.64-.44-.57-1.52.62-1.54 4.04-.06 7.24.01a1.24 1.23 18.4 0 1 .98 1.95l-6.05 8.4q-.44.63.32.63zm-67.15 21.29q2.13.94 4.17.94 233.88-.01 467.75-.01 3.32 0 5.5-.96-1.06 1.5-3 1.5-235.13 0-470.25 0-3.03 0-4.17-1.47zm116.57 55.85l-1.6-.43a.44.44 0 0 1 .03-.86q2.7-.53 2.25-3.37-.08-.54.27-.94 2.36-2.72 5.95-1.54a.94.94 0 0 1-.25 1.83l-2.55.11a1.6 1.47 45.4 0 0 .1 3.06q.39.05 1.54-.01a.59.58-1.4 0 1 .61.57l.02.9q.01.5-.49.51l-2.24.04q-.45.01-.45.45l-.01 9.87q0 .66-.66.66h-1.32q-.63 0-.63-.64l.03-9.41q.01-.63-.6-.8zm-56.91-1.11c12.09-6.76 11.13 18.4-.2 10.79a.38.37-66.5 0 0-.58.23q-.26 1.23-1.64.91-.5-.12-.5-.64l.03-16.75q0-.59.58-.6l1.3-.02q.53-.01.53.53l-.03 5.25q0 .59.51.3zm6.097 3.844a2.9 2.9 0 0 0-2.905-2.895l-.72.001a2.9 2.9 0 0 0-2.895 2.905l.006 3.3a2.9 2.9 0 0 0 2.905 2.895l.72-.001a2.9 2.9 0 0 0 2.895-2.905l-.006-3.3z"/><circle cx="877.68" cy="448.59" r="1.46"/><path d="M698.74 452.05a.33.33 0 0 0-.61.18l.11 12.27q.01.5-.49.49l-1.16-.02q-.62-.01-.62-.63l-.02-14.89a1.84 1.84 0 0 1 3.4-.97l7.76 12.41a.29.29 0 0 0 .54-.15l-.04-12.36q0-.51.51-.48l1.36.06q.49.03.49.52l-.02 15.04a1.89 1.89 0 0 1-3.5.99l-7.71-12.46zm133.42 9.2l4.27-12.73q.19-.56.79-.56h1.25a.57.57 0 0 1 .53.76l-5.43 15.29a1.74 1.74 0 0 1-3.28 0l-5.46-15.34q-.25-.69.49-.7l1.39-.03a.77.75 79.9 0 1 .73.52l4.29 12.79a.23.23 0 0 0 .43 0zm-99.68-8.21q3.45-2.54 6.8.22.42.35.86.04c2.13-1.53 5.27-2.26 7.04-.18 1.75 2.05 1.07 8.42 1.04 11.21q-.01.66-.67.67h-1.06q-.77 0-.76-.76l.04-8.01a2.29 2.28-2.2 0 0-2.47-2.28c-4.55.39-3.34 7.21-3.24 10.42q.02.62-.6.62h-1.23q-.6.01-.6-.59-.03-3.54-.03-7.05c0-2.51-.96-4.22-3.76-3.21-2.74.98-1.95 7.93-1.86 10.25q.03.59-.56.59l-1.3.02q-.65.01-.65-.64l-.03-11.66q-.01-.62.61-.71 1.12-.17 1.66.87.28.54.77.18zm-10.2 10.84c-2.3 1.77-6.98 2.09-8.13-1.38q-.68-2.06-.15-9.97.03-.51.54-.51l1.44-.01a.56.55-90 0 1 .56.57q-.07 3.83-.01 7.61c.08 4.81 6.22 3.47 6.16-.7q-.04-3.42-.1-6.85 0-.65.64-.64l1.39.01a.61.61 0 0 1 .61.61l-.01 11.68a1 .99-59.6 0 1-1.86.49l-.44-.78q-.24-.43-.64-.13zm46.63-4.25c.37 4.32 4.56 3.7 7.54 3.07q.4-.08.54.3.53 1.44-.94 1.88c-5.62 1.7-10.45-1.36-9.55-7.63 1.15-8.02 12.16-6.79 10.92 1.21q-.08.54-.63.54l-7.3-.01q-.64 0-.58.64zm.39-2.39h5.64a.28.28 0 0 0 .28-.27v-.18a2.96 2.91-89.9 0 0-2.91-2.97h-.38a2.96 2.91-89.9 0 0-2.91 2.95v.18a.28.28 0 0 0 .28.29zm14.67-3.53q1.42-2.21 4.16-1.72.55.1.49.65l-.09 1q-.04.46-.51.42c-5.87-.52-4.7 6.84-4.62 10.35q.01.63-.63.61l-1.5-.06q-.42-.01-.42-.44l.03-11.86a.66.66 0 0 1 .71-.66l.8.05a.64.64 0 0 1 .6.58l.07.85a.5.5 0 0 0 .91.23zm24.364 5.898a5.42 5.42 0 0 1-5.353 5.486l-1.02.012a5.42 5.42 0 0 1-5.486-5.353l-.028-2.28a5.42 5.42 0 0 1 5.353-5.486l1.02-.012a5.42 5.42 0 0 1 5.486 5.353l.028 2.28zm-2.47-2.407a3.16 3.16 0 0 0-3.104-3.215l-.56-.01a3.16 3.16 0 0 0-3.215 3.104l-.049 2.8a3.16 3.16 0 0 0 3.104 3.215l.56.01a3.16 3.16 0 0 0 3.215-3.104l.049-2.8zm36.986 2.199c-.23 4.43 4.48 4.04 7.54 3.2q.54-.15.58.41c.07.96-.31 1.68-1.33 1.85-5.6.96-10.17-.75-9.33-7.35 1.08-8.42 12.25-7.02 10.93 1.05q-.07.44-.51.44l-7.44-.01q-.41 0-.44.41zm.25-2.1l5.68-.12a.27.27 0 0 0 .26-.28v-.17a3.02 2.92 88.7 0 0-2.99-2.95h-.38a3.02 2.92 88.7 0 0-2.85 3.09v.17a.27.27 0 0 0 .28.26zm13.69-3.65a.41.41 0 0 0 .76.21q1.35-2.29 4.1-1.93a1.074 1.074 0 0 1-.27 2.13c-5.47-.69-4.41 7.24-4.31 10.3q.02.64-.61.63h-1.28q-.57 0-.57-.56l.03-11.67a.99.99 0 0 1 1.86-.47q.29.54.29 1.36zm10.65.36a1.23 1.23 0 0 0-.32 2.34l5.26 2.41a1.16 1.12-89.1 0 1 .59.63c2.3 5.76-3.59 5.94-7.24 5.67q-1.86-.14-1.68-1.9.04-.42.45-.38l4.9.4a1.54 1.54 0 0 0 .8-2.92l-5.25-2.56a.78.74-88.6 0 1-.38-.42c-2.13-5.89 4.63-5.98 8.05-4.84q.49.16.39.67l-.15.8a.58.58 0 0 1-.74.44q-2.3-.7-4.68-.34z"/><rect x="-1.22" y="-6.48" transform="matrix(.999998 .001745 -.001745 .999998 877.7 458.49)" width="2.44" height="12.96" rx=".43"/><path d="M894.18 459.69a5.43 5.43 0 0 1-5.43 5.43h-1.02a5.43 5.43 0 0 1-5.43-5.43v-2.3a5.43 5.43 0 0 1 5.43-5.43h1.02a5.43 5.43 0 0 1 5.43 5.43v2.3zm-2.5-2.53a3.17 3.17 0 0 0-3.17-3.17h-.56a3.17 3.17 0 0 0-3.17 3.17v2.74a3.17 3.17 0 0 0 3.17 3.17h.56a3.17 3.17 0 0 0 3.17-3.17v-2.74zm8.9-4.11c3.08-2.15 7.96-1.66 8.07 3.04q.1 4.14.03 8.28-.01.65-.66.64l-1.02-.02q-.72-.02-.72-.74l-.03-8.5a1.47 1.46 12.9 0 0-.84-1.32c-6.66-3.17-5.41 6.97-5.33 9.94q.02.64-.62.63l-1.3-.02q-.56 0-.56-.57l-.01-11.75q0-.56.54-.68 1.25-.27 1.67.83.24.63.78.24zm17.71 7.45c-2.16-1.29-8.61-2.91-6.02-6.81 1.51-2.27 5.63-1.98 7.84-1.3a.73.73 0 0 1 .49.86l-.17.69a.58.58 0 0 1-.78.41q-2.25-.87-4.67-.35a1.24 1.24 0 0 0-.26 2.34l5.18 2.38q.5.23.7.74c2.36 5.93-4.33 6.12-8.2 5.27q-.59-.13-.64-.74l-.09-.97q-.05-.64.56-.44 2.67.87 5.5.53a1.41 1.41 0 0 0 .56-2.61z"/></g><g class="F"><path d="M769.3 457.24a.28.28 0 0 1-.28-.29v-.18a2.96 2.91-89.9 0 1 2.91-2.95h.38a2.96 2.91-89.9 0 1 2.91 2.97v.18a.28.28 0 0 1-.28.27h-5.64zm73.8.06a.27.27 0 0 1-.28-.26v-.17a3.02 2.92 88.7 0 1 2.85-3.09h.38a3.02 2.92 88.7 0 1 2.99 2.95v.17a.27.27 0 0 1-.26.28l-5.68.12z"/><rect x="-3.26" y="-4.55" transform="matrix(.999998 -.001745 .001745 .999998 757.83 458.53)" width="6.52" height="9.1" rx="2.9"/><rect x="-3.44" y="-4.56" transform="matrix(.999848 .017452 -.017452 .999848 802.4 458.54)" width="6.88" height="9.12" rx="3.16"/><rect x="884.78" y="453.99" width="6.9" height="9.08" rx="3.17"/></g><path d="M1128.21 486.06q-.05.32-.1.65-.29 27.79.01 56.04c.01.92.36 1.5.59 2.41l-360.79.01-.26-58.41q.16-.35.04-.51l360.51-.19zm-178.44 29.01l-7.66 8.02a1.13 1.13 0 0 0 .82 1.91h9.95a.63.62 90 0 0 .62-.63v-.77q-.01-.65-.65-.65l-7.35-.04a.35.34 24.3 0 1-.23-.6q4.96-4.39 6.18-6.07c5.09-6.99-3.27-10.79-8.72-6.87q-.53.37-.14.89l.46.62a.6.59 52.6 0 0 .85.12q2.79-2.19 5.81-.54a.91.9-75.4 0 1 .47.81l-.05 2.92q-.01.51-.36.88z" class="I"/><path d="M767.7 486.25q.12.16-.04.51-32.94.01-65.9-.23-7-.05-7 7.23.03 22.75.13 45.49.03 5.92 5.87 5.94 33.48.15 67.16-.02l360.79-.01q33.43.19 66.87-.21 5.63-.06 5.64-5.46.03-21.86.01-43.73c0-5.46-.36-9.1-6.74-9.04q-19.2.18-66.38-.01.05-.33.1-.65 33.06.29 66.15.24c5.33-.01 7.33 1.6 7.36 6.95q.16 23.25-.06 46.5c-.04 4.87-3.03 5.98-7.49 5.98q-246.96.06-493.92.02-5.92 0-5.95-6.25-.1-23.12-.03-46.25c.02-6.36 3.02-7.01 8.73-7q32.37.02 64.7 0z" class="B"/><path d="M1128.11 486.71q47.18.19 66.38.01c6.38-.06 6.74 3.58 6.74 9.04q.02 21.87-.01 43.73-.01 5.4-5.64 5.46-33.44.4-66.87.21c-.23-.91-.58-1.49-.59-2.41q-.3-28.25-.01-56.04zm38.57 28.13a.57.57 0 0 1-.51-.49l-.62-5.1a.57.57 0 0 0-1.13.01l-.59 5.09a.57.57 0 0 1-.49.51l-5.1.62a.57.57 0 0 0 .01 1.13l5.09.59a.57.57 0 0 1 .51.49l.62 5.1a.57.57 0 0 0 1.13-.01l.59-5.09a.57.57 0 0 1 .49-.51l5.1-.62a.57.57 0 0 0-.01-1.13l-5.09-.59zm-399.02-28.08l.26 58.41q-33.68.17-67.16.02-5.84-.02-5.87-5.94-.1-22.74-.13-45.49 0-7.28 7-7.23 32.96.24 65.9.23zm-29.6 29.22a.95.95 0 0 0-.95-.95h-12.34a.95.95 0 0 0-.95.95v.06a.95.95 0 0 0 .95.95h12.34a.95.95 0 0 0 .95-.95v-.06z" class="F"/><g class="B"><path d="M950.13 514.19l.05-2.92a.91.9-75.4 0 0-.47-.81q-3.02-1.65-5.81.54a.6.59 52.6 0 1-.85-.12l-.46-.62q-.39-.52.14-.89c5.45-3.92 13.81-.12 8.72 6.87q-1.22 1.68-6.18 6.07a.35.34 24.3 0 0 .23.6l7.35.04q.64 0 .65.65v.77a.63.62-90 0 1-.62.63h-9.95a1.13 1.13 0 0 1-.82-1.91l7.66-8.02q.35-.37.36-.88zm216.55.65l5.09.59a.57.57 0 0 1 .01 1.13l-5.1.62a.57.57 0 0 0-.49.51l-.59 5.09a.57.57 0 0 1-1.13.01l-.62-5.1a.57.57 0 0 0-.51-.49l-5.09-.59a.57.57 0 0 1-.01-1.13l5.1-.62a.57.57 0 0 0 .49-.51l.59-5.09a.57.57 0 0 1 1.13-.01l.62 5.1a.57.57 0 0 0 .51.49z"/><rect x="723.82" y="515.03" width="14.24" height="1.96" rx=".95"/></g><path d="M1896.67 1001.99V532.01a1.04 1.04 0 0 1 1.04-1.04l19.51-.01a1.04 1.04 0 0 1 1.04 1.04v470a1.04 1.04 0 0 1-1.04 1.04l-19.51-.01a1.04 1.04 0 0 1-1.04-1.04z" class="M"/><path d="M815.01 599.5l.06 9.84a.66.65 0 0 1-.66.65h-1.3q-.63 0-.63-.63l.04-9.77a.51.51 0 0 0-.43-.5l-1.68-.29a.52.52 0 0 1 .02-1.03q2.65-.31 2.13-3.04a1.42 1.42 0 0 1 .31-1.19q2.26-2.67 5.89-1.55a.93.93 0 0 1-.23 1.82l-2.58.15q-.58.03-.69.61l-.35 1.83q-.11.6.5.6l2.22.01q.61 0 .62.62l.01.73q.01.63-.62.63l-2.14.02q-.49 0-.49.49zm-59.97-1.48c9.98-6.22 12.31 13.64 2.15 12.02-1.03-.17-1.54-.61-2.28-1.29a.43.43 0 0 0-.72.3q-.04.84-1.05.93a1.01 1.01 0 0 1-1.1-1.01l.02-16.39q0-.62.61-.62h1.19q.66 0 .65.65l-.04 5.09q-.01.68.57.32zm6.023 3.856a2.93 2.93 0 0 0-2.961-2.899l-.66.007a2.93 2.93 0 0 0-2.899 2.961l.034 3.24a2.93 2.93 0 0 0 2.961 2.899l.66-.007a2.93 2.93 0 0 0 2.899-2.96l-.034-3.24zm80.327-5.226l-4.45 12.36a1.61 1.61 0 0 1-3.04-.02l-4.08-11.79a.28.28 0 0 0-.55.09l-.04 12.24q0 .51-.51.48l-1.34-.06q-.54-.02-.54-.57v-14.9a2.11 2.11 0 0 1 4.11-.7l4.2 12.04a.37.37 0 0 0 .7.01l4.56-12.33q.21-.57.83-.57l2.39.02q.67.01.67.68l.08 15.69q.01.7-.7.69l-1.37-.02a.66.66 0 0 1-.65-.68l.33-12.55a.31.31 0 0 0-.6-.11zm6.76 4.23q1.24-10.54 12.02-7.54.69.2.46.88l-.33.98a.57.57 0 0 1-.76.34c-12.05-5.06-11.83 17.14.18 11.9a.4.4 0 0 1 .55.26q.55 2.03-1.26 2.25c-6.55.82-11.76-1.54-10.86-9.07zm26.34 9.44l2.96 3.02q.42.43-.17.57c-3.07.75-3.93-1.25-5.51-3.26q-.31-.41-.82-.43-8.53-.39-8.03-9.25.55-9.86 10.6-7.97 2.86.53 4.16 3.67 3.44 8.23-3.15 13.08-.35.26-.04.57zm1.467-10.736a4.75 4.75 0 0 0-4.783-4.717l-.84.006a4.75 4.75 0 0 0-4.717 4.783l.025 3.6a4.75 4.75 0 0 0 4.783 4.717l.84-.006a4.75 4.75 0 0 0 4.717-4.783l-.025-3.6zM707.71 605.96l-.1-12.42q-.01-.6.6-.59l1.13.02q.61.01.61.62v14.92a1.87 1.86-60.8 0 1-3.45.98l-7.84-12.64a.3.3 0 0 0-.55.16l.13 12.36q.01.61-.61.61l-1.06-.01q-.65 0-.64-.65l.15-15.1a1.7 1.7 0 0 1 3.14-.88l7.97 12.77a.28.28 0 0 0 .52-.15z" class="B"/><rect x="-5.17" y="-6.55" transform="matrix(.999976 -.006981 .006981 .999976 870.8 601.42)" width="10.34" height="13.1" rx="4.75" class="F"/><path d="M722.17 608.98c-2.64 1.89-7.49 1.85-8.16-2.24q-.36-2.25-.05-9.14.02-.56.59-.57l1.25-.03q.66-.01.67.65.07 4.08.22 8.1.11 2.8 3.08 2.4c3.94-.53 2.85-7.75 2.81-10.65q0-.49.48-.49h1.69q.49 0 .49.49v11.96a.5.49-8.9 0 1-.35.47q-1.39.44-1.88-.72-.27-.64-.84-.23zm10.32-10.93q3.47-2.51 6.87.23.43.35.87 0c3.21-2.62 7.81-1.88 7.96 2.98q.11 4.04.02 8.09-.02.66-.68.65l-1.23-.01q-.61 0-.6-.61.05-3.94.03-7.86c-.02-3.95-5.26-3.19-5.5.27q-.26 3.77-.13 7.56a.63.62 89.1 0 1-.62.65l-1.23.01q-.71 0-.7-.71.01-3.6 0-7.15c-.02-4.81-5.28-3.99-5.47-.14q-.18 3.68-.11 7.41.01.56-.56.57l-1.36.02q-.68 0-.68-.68l-.02-11.65q0-.57.56-.68 1.21-.24 1.81.87.28.53.77.18zm36.56 6.4c-.22 4.35 4.43 3.95 7.36 3.2q.46-.12.59.34.43 1.55-1.25 1.92c-5.5 1.21-10.36-1.32-9.35-7.67 1.26-7.98 12.38-6.77 11.04 1.36q-.07.4-.48.4h-7.43q-.45 0-.48.45zm.3-2.22l5.56-.08a.28.28 0 0 0 .27-.29v-.19a2.91 2.88 89.1 0 0-2.93-2.86h-.36a2.91 2.88 89.1 0 0-2.83 2.96v.19a.28.28 0 0 0 .29.27zm14.58-3.53q1.47-2.24 4.28-1.69a.55.54-81.6 0 1 .44.6l-.12 1.06a.48.47 5 0 1-.51.42c-5.86-.43-4.76 6.75-4.63 10.3q.02.62-.6.61l-1.24-.02q-.67-.01-.67-.68l-.04-11.61q0-.71.72-.69l.82.03a.63.63 0 0 1 .61.59l.07.86a.47.47 0 0 0 .87.22zm24.404 5.918a5.42 5.42 0 0 1-5.353 5.486l-1.02.012a5.42 5.42 0 0 1-5.486-5.353l-.028-2.3a5.42 5.42 0 0 1 5.353-5.486l1.02-.012a5.42 5.42 0 0 1 5.486 5.353l.028 2.3zm-2.477-2.421a3.14 3.14 0 0 0-3.079-3.2l-.58-.011a3.14 3.14 0 0 0-3.2 3.079l-.054 2.82a3.14 3.14 0 0 0 3.079 3.2l.58.011a3.14 3.14 0 0 0 3.2-3.079l.054-2.819z" class="B"/><g class="F"><path d="M769.35 602.23a.28.28 0 0 1-.29-.27v-.19a2.91 2.88 89.1 0 1 2.83-2.96h.36a2.91 2.88 89.1 0 1 2.93 2.86v.19a.28.28 0 0 1-.27.29l-5.56.08z"/><rect x="-3.26" y="-4.55" transform="matrix(.999945 -.010472 .010472 .999945 757.82 603.53)" width="6.52" height="9.1" rx="2.93"/><rect x="-3.43" y="-4.55" transform="matrix(.999816 .019197 -.019197 .999816 802.4 603.54)" width="6.86" height="9.1" rx="3.14"/></g><path d="M1127.58 690.33l-359.74.02q.37-28.45.04-56.75c-.01-.64-.29-1.14-.33-1.85q.13.52.16-.22l.33-.32q.21-.21.51-.21h358.71a.76.76 0 0 1 .76.76l-.02 58.05a.29.29 0 0 1-.23.28q-.2.05-.19.24zm-177.99-20.88q.94-8.06-.09-16.97-3.8 1.5-6.1 4.1-.32.36-.04.74.38.54.91.52.42-.02 1.03-.67.7-.75 1.63-1.3.56-.34.55.32l-.19 12.96q0 .56.53.71 1.92.57 1.77-.41z" class="I"/><path d="M767.71 631.53q-.03.74-.16.22-32.91-.04-65.8.03c-7.52.01-6.99 4.01-6.98 10.26q.01 18.89.09 37.79c.02 6.2-.67 10.42 6.9 10.42q32.63.01 65.29.03.17 0 .05.12l-.24.25q-.08.09-.19.09-32.84.06-65.66 0c-5.49-.01-6.74-2.61-6.75-7.77q-.05-22.36.01-44.71c.02-6.34 3.05-7.02 8.73-7.02q31.63 0 63.25-.02.8 0 1.46.31zm426.54 58.72c4.13 0 6.96-1.43 6.97-6q.04-22.61.02-45.27c-.01-8.45-4.89-7.18-11.89-7.2q-30.31-.08-60.63-.04-.12 0-.15-.11l-.08-.29q-.02-.09.07-.09 32.64-.04 65.28.01c4.49.01 7.87.95 7.88 5.99q.06 23.25.1 46.51c.02 7.62-5.05 6.99-11.32 6.99q-30.5.02-61-.07-.37-.01-.63-.23a.11.11 0 0 1 .07-.19q32.8 0 65.31-.01z" class="B"/><path d="M949.5 652.48q-1.95 9.28.09 16.97.15.98-1.77.41-.53-.15-.53-.71l.19-12.96q.01-.66-.55-.32-.93.55-1.63 1.3-.61.65-1.03.67-.53.02-.91-.52-.28-.38.04-.74 2.3-2.6 6.1-4.1z"/><g class="B"><path d="M949.5 652.48q1.03 8.91.09 16.97-2.04-7.69-.09-16.97zm217.22 7.31l5.14.64a.58.58 0 0 1 0 1.16l-5.14.64a.58.58 0 0 0-.5.5l-.64 5.14a.58.58 0 0 1-1.16 0l-.64-5.14a.58.58 0 0 0-.5-.5l-5.14-.64a.58.58 0 0 1 0-1.16l5.14-.64a.58.58 0 0 0 .5-.5l.64-5.14a.58.58 0 0 1 1.16 0l.64 5.14a.58.58 0 0 0 .5.5z"/><rect x="723.9" y="660.02" width="14.28" height="1.92" rx=".91"/></g><path d="M767.84 690.35l359.74-.02q.85.42-2.08.42-178 .09-356 .02-1.24 0-1.66-.42z"/><g class="B"><path d="M815.03 745.49l.05 9.84q0 .66-.66.66h-1.18q-.76 0-.76-.75l.04-9.64a.5.49-85.2 0 0-.41-.49l-1.73-.32a.52.52 0 0 1 .04-1.03q2.67-.28 2.14-3.03a1.45 1.45 0 0 1 .32-1.19q2.25-2.69 5.87-1.56a.95.95 0 0 1-.23 1.85l-2.25.11a1.54 1.54 0 0 0 .05 3.07l1.43.02q.47 0 .49.47l.02.86q.02.63-.62.63l-2.13.02q-.48 0-.48.48zm-60.04-1.45c10.31-6.16 12.26 13.71 2.13 12.01-1.03-.17-1.47-.56-2.18-1.27a.44.43 28 0 0-.73.22l-.06.28a1.07 1.07 0 0 1-2.12-.23l.04-16.47a.6.6 0 0 1 .59-.6l1.32-.03q.54-.01.53.53l-.05 5.26q-.01.63.53.3zm6.032 3.786a2.88 2.88 0 0 0-2.91-2.85l-.72.008a2.88 2.88 0 0 0-2.85 2.91l.035 3.32a2.88 2.88 0 0 0 2.91 2.85l.72-.007a2.88 2.88 0 0 0 2.85-2.91l-.035-3.32zm68.598-6.806l-4.36-.04a.43.43 0 0 1-.43-.46l.09-1.2a.43.43 0 0 1 .43-.4l11.99-.01a.43.43 0 0 1 .43.43l.02 1.23a.43.43 0 0 1-.43.43l-4.38.02a.43.43 0 0 0-.43.43l.05 14.13a.43.43 0 0 1-.44.43l-1.79-.03a.43.43 0 0 1-.43-.44l.11-14.09a.43.43 0 0 0-.43-.43zm-131.49 2.2l.11 12.03q.01.76-.75.74l-.93-.02q-.64-.02-.63-.66l.15-15a1.73 1.72 29.3 0 1 3.19-.89l7.7 12.3a.35.35 0 0 0 .65-.19v-12q0-.6.6-.58l1.12.02q.61.01.61.62l.01 14.71a1.95 1.95 0 0 1-3.61 1.02l-7.57-12.29a.35.35 0 0 0-.65.19z"/><rect x="-1.11" y="-9.12" transform="matrix(.937282 .348572 -.348572 .937282 842.7 747.47)" width="2.22" height="18.24" rx=".26"/><path d="M852.65 746.73l5.77.01a.43.43 0 0 1 .42.37l.17 1.27a.43.43 0 0 1-.43.49l-5.93-.05a.43.43 0 0 0-.43.43v6.32a.43.43 0 0 1-.43.43l-1.57-.02a.43.43 0 0 1-.43-.43l-.03-16.18a.43.43 0 0 1 .43-.43l8.74.03a.43.43 0 0 1 .43.39l.09 1.18a.43.43 0 0 1-.43.46h-6.4a.43.43 0 0 0-.43.43l.03 4.87a.43.43 0 0 0 .43.43zm-68.97-1.99q1.34-1.58 3.33-1.84.94-.12 1.39.33.5.52.03 1.45-.21.4-.66.39c-5.65-.15-4.55 6.8-4.39 10.32q.02.62-.6.61l-1.21-.02q-.65-.01-.65-.66l-.05-11.64q0-.69.69-.67l.84.02a.63.62 90 0 1 .61.62l.01.86q.01 1 .66.23zm-61.49 10.19c-.89.49-1.19.85-2.19 1.07-7.78 1.68-6.22-7.08-6.11-12.35a.64.64 0 0 1 .63-.63l1.47-.02q.52 0 .52.52.03 3.55-.01 7.08c-.04 2.65.85 4.15 3.76 3.42 3.33-.83 2.41-7.91 2.38-10.44q-.01-.58.58-.58l1.52.01q.48 0 .48.48v11.96q0 .36-.34.48-1.31.46-1.92-.76-.27-.52-.77-.24zm17.96-10.59q1.45-1.09 2.33-1.29c7.75-1.78 5.74 8.3 5.75 12.38q0 .55-.56.56h-1.37q-.5.01-.51-.5-.11-4.12-.12-8.25c-.01-3.6-5.25-2.97-5.5.89q-.24 3.62-.11 7.26a.59.59 0 0 1-.6.61l-1.26-.02q-.54 0-.54-.54l-.14-9.12a.95.93-74.3 0 0-.42-.77c-2.09-1.38-4.83-.57-5.05 2.21q-.28 3.77-.06 7.59.04.6-.57.62l-1.29.04q-.65.01-.65-.64l-.03-11.82q0-.43.42-.52 1.37-.31 1.8.93.2.58.69.2 3.51-2.68 6.99.16.4.33.8.02zm28.93 6.06c-.6 4.17 4.46 4.11 7.29 3.19q.46-.15.6.32.49 1.67-1.22 2.02c-5.46 1.1-10.18-1.08-9.32-7.44 1.13-8.39 12.39-7.03 10.98 1.12q-.07.39-.46.39h-7.41q-.4 0-.46.4zm.22-2.17l5.6-.06a.28.28 0 0 0 .28-.29l-.01-.17a2.93 2.89 89.3 0 0-2.92-2.89h-.38a2.93 2.89 89.3 0 0-2.85 2.97v.17a.28.28 0 0 0 .28.27zm39.036 2.377a5.41 5.41 0 0 1-5.334 5.485l-1 .014a5.41 5.41 0 0 1-5.485-5.334l-.032-2.32a5.41 5.41 0 0 1 5.334-5.485l1-.014a5.41 5.41 0 0 1 5.485 5.334l.032 2.32zm-2.496-2.437a3.19 3.19 0 0 0-3.19-3.19h-.54a3.19 3.19 0 0 0-3.19 3.19v2.74a3.19 3.19 0 0 0 3.19 3.19h.54a3.19 3.19 0 0 0 3.19-3.19v-2.74z"/></g><g class="F"><path d="M769.3 748.23a.28.28 0 0 1-.28-.27v-.17a2.93 2.89 89.3 0 1 2.85-2.97h.38a2.93 2.89 89.3 0 1 2.92 2.89l.01.17a.28.28 0 0 1-.28.29l-5.6.06z"/><rect x="-3.24" y="-4.54" transform="matrix(.999945 -.010472 .010472 .999945 757.8 749.52)" width="6.48" height="9.08" rx="2.88"/><rect x="798.92" y="744.98" width="6.92" height="9.12" rx="3.19"/></g><path d="M1128.18 836.25q.31.22.63.45l-.82-.34H767.93q.12-28.41.07-56.36 0-.5-.47-2.27l-.08-.46q.33.25.64-.12.13-.15.33-.15l359.09.02q.59 0 .59.59l.08 58.64zm-178.54-20.84q.75-8.18 0-16.23-1.03-.86-2.33.16-1.99 1.55-3.97 3.15-.58.47.03.89l.54.38q.47.33.89-.07l2.05-1.91q.61-.56.6.27l-.14 13.17q-.01.5.47.63 2 .58 1.86-.44z" class="I"/><path d="M767.45 777.27l.08.46q-33 .01-66.03.02-7.03.01-6.95 6.75.25 22.88.38 45.75.03 6.03 6.08 6.02 32.82-.02 65.66-.01.42 0 .17.33-.11.16-.34.16-31.07.05-62.14 0c-5.9-.01-10.07.22-10.09-6.69q-.08-21.2 0-42.37c.02-5.53-.43-10.41 6.22-10.42q33.5-.07 66.96 0zm361.36 59.43q-.32-.23-.63-.45 34.21.01 67.07-.09c5.6-.02 5.97-3.61 5.98-8.4q.03-21.62-.01-43.25-.01-6.6-6.22-6.63-32.75-.15-65.5-.14-.44 0-.69-.12-.74-.37.19-.37 33.5-.04 67 .01c4.4 0 5.69 3.16 5.71 7.2q.12 23.02.05 46.03c-.01 5.48-3.48 6.2-8.28 6.22q-32.34.14-64.67-.01z" class="B"/><path d="M949.64 799.18q-2.37 8.25 0 16.23.14 1.02-1.86.44-.48-.13-.47-.63l.14-13.17q.01-.83-.6-.27l-2.05 1.91q-.42.4-.89.07l-.54-.38q-.61-.42-.03-.89 1.98-1.6 3.97-3.15 1.3-1.02 2.33-.16zm-2.017 14.75a3.91.23 90.4 0 0 .257-3.908 3.91.23 90.4 0 0-.203-3.912 3.91.23 90.4 0 0-.257 3.908 3.91.23 90.4 0 0 .203 3.911z"/><g class="B"><path d="M949.64 799.18q.75 8.05 0 16.23-2.37-7.98 0-16.23zm217.07 6.62l5.13.62a.58.58 0 0 1 .01 1.15l-5.13.65a.58.58 0 0 0-.51.5l-.62 5.13a.58.58 0 0 1-1.15.01l-.65-5.13a.58.58 0 0 0-.5-.51l-5.13-.62a.58.58 0 0 1-.01-1.15l5.13-.65a.58.58 0 0 0 .51-.5l.62-5.13a.58.58 0 0 1 1.15-.01l.65 5.13a.58.58 0 0 0 .5.51z"/><rect x="723.8" y="806.03" width="14.4" height="1.92" rx=".92"/><ellipse cx="0" cy="0" transform="matrix(-.006981 .999976 -.999976 -.006981 947.65 810.02)" rx="3.91" ry=".23"/></g><path d="M767.93 836.36h360.06q-.39.44-1.74.44-178.6.03-357.19-.03-.32 0-.6-.09-.8-.26-.53-.32z"/><g class="B"><path d="M812.53 887.43l.14-2.44a.99.94 69 0 1 .25-.6q2.5-2.71 6.22-1.26a.6.59-56.8 0 1 .2.98q-1.26 1.25-3.15.76a.76.76 0 0 0-.94.6l-.34 1.93q-.11.6.5.6l2.24.02a.65.65 0 0 1 .65.63l.03.65a.65.65 0 0 1-.64.67l-1.93.03q-.73.01-.73.74l.07 9.71q.01.55-.55.55l-1.47-.01q-.64-.01-.64-.66l.08-9.62a.65.64 4.5 0 0-.56-.65l-1.51-.2a.48.48 0 0 1-.13-.92l1.7-.78q.48-.21.51-.73zm17.23 3.08v9.89q0 .67-.67.62l-1.54-.11q-.57-.04-.57-.61l.05-9.72a.53.52-86.3 0 0-.45-.52l-1.5-.2a.47.46-53.7 0 1-.13-.88l1.75-.84a.76.75 78 0 0 .43-.67c.11-3.89 2.79-6.07 6.46-4.32a.89.89 0 0 1-.41 1.69q-1.42-.05-2.79.31a1.45 1.45 0 0 0 .37 2.86l1.47-.01a.99.99 0 0 1 .03 1.98l-2.02.05q-.48.01-.48.48z"/><rect x="-1.1" y="-8.97" transform="matrix(.999986 -.005236 .005236 .999986 842.88 891.86)" width="2.2" height="17.94" rx=".69"/><path d="M755.12 888.89c10.76-5.73 11.69 14.72 1.62 12.07q-.5-.13-1.83-1.14a.49.48 24.9 0 0-.77.28q-.25 1.26-1.61.84-.51-.15-.51-.69l.03-16.66a.63.62-90 0 1 .61-.62l1.32-.02q.54-.01.54.53l-.05 5.03q0 .73.65.38zm5.93 3.96a2.87 2.87 0 0 0-2.87-2.87h-.72a2.87 2.87 0 0 0-2.87 2.87v3.36a2.87 2.87 0 0 0 2.87 2.87h.72a2.87 2.87 0 0 0 2.87-2.87v-3.36z"/><rect x="-1.06" y="-8.97" transform="matrix(.999998 .001745 -.001745 .999998 849.34 891.93)" width="2.12" height="17.94" rx=".48"/><path d="M893.55 888.94c6.07-3.86 9.36 2.64 8.28 7.69-.93 4.31-4.74 5.91-8.45 3.35q-.49-.34-.76.18-.49.94-1.53.84-.65-.07-.65-.72l.05-16.8q0-.54.53-.53l1.28.01q.58 0 .58.59l-.05 4.99q-.01.86.72.4zm5.853 3.926a2.93 2.93 0 0 0-2.961-2.899l-.6.006a2.93 2.93 0 0 0-2.899 2.961l.034 3.26a2.93 2.93 0 0 0 2.961 2.899l.6-.006a2.93 2.93 0 0 0 2.899-2.961l-.034-3.26z"/><rect x="905.49" y="882.94" width="2.46" height="18.04" rx=".52"/><path d="M943.54 893.46c1.88-1.69 4.43-6.08 7.17-5.38q.62.15.18.61l-4.3 4.54q-.38.4-.05.84l4.72 6.21q.34.45-.2.62c-2.76.84-4.59-3.23-5.87-5.06a1.13 1.13 0 0 0-2.05.6l-.16 3.95a.62.62 0 0 1-.62.6h-1.21q-.58 0-.58-.59l.14-16.9q.01-.54.55-.54l1.24.01q.52 0 .52.53l.01 9.74q0 .69.51.22z"/><circle cx="836.37" cy="884.61" r="1.42"/><circle cx="863.72" cy="884.59" r="1.41"/><path d="M707.69 896.94l-.03-12.43q0-.57.57-.56l1.11.02q.6.01.6.62v14.93a1.87 1.87 0 0 1-3.46.98l-7.84-12.64a.29.29 0 0 0-.53.15l.13 12.49q.01.5-.49.49l-1.16-.03q-.6-.02-.6-.62l-.02-14.87a1.82 1.81-61.1 0 1 3.35-.97l7.9 12.57q.47.75.47-.13zm24.83-7.93q3.4-2.42 6.71.17.41.31.84.03c2.2-1.42 5.2-2.13 7.02-.22 1.94 2.06 1.14 8.57 1.14 11.46q0 .57-.56.56l-1.32-.03q-.61-.01-.61-.63l-.07-8.35a2.03 2.03 0 0 0-2.08-2.01c-4.78.13-3.54 7.15-3.49 10.39a.62.61-89.1 0 1-.64.63l-1.43-.05q-.41-.02-.42-.43l-.24-8.8a2.14 2.14 0 0 0-3.02-1.89c-3.46 1.55-2.47 7.45-2.36 10.52q.03.61-.59.62l-1.26.01q-.62.01-.62-.6l-.1-11.86q-.01-.45.43-.53 1.21-.19 1.9.86.31.48.77.15zm51.44.7q1.44-2.27 4.17-1.74.55.11.53.67l-.04.77q-.03.68-.71.65c-5.93-.26-4.48 6.94-4.49 10.48q-.01.5-.51.48l-1.52-.06q-.54-.02-.54-.56v-11.69q-.01-.7.69-.7h.69q.72 0 .78.72l.06.76a.48.48 0 0 0 .89.22zm134.32 3.3a1.16 1.16 0 0 0 .92-1.87c-1.81-2.35-4.01-.56-6.02-.79a.94.94 0 0 1-.15-1.83c11.01-3.23 9.1 5.41 8.73 12.1q-.05.79-.75.42l-1.75-.9a.49.48-47.3 0 0-.47.02q-2.56 1.61-5.27.86c-2.39-.65-3.22-3.13-2.24-5.21 1.13-2.37 4.63-2.81 7-2.8zm-1.02 6.04a1.38 1.38 0 0 0 1.3-.87l.56-1.44a1.38 1.38 0 0 0-1.45-1.87l-2.65.32a1.38 1.38 0 0 0-1.17 1.04l-.27 1.1a1.38 1.38 0 0 0 1.33 1.71l2.35.01zm11.78-10.42c9.85-3.72 7.71 6.54 7.69 11.71a.68.68 0 0 1-.72.68l-1.28-.07a.71.7-87.9 0 1-.66-.72l.06-8.23a1.82 1.81-79.3 0 0-1.16-1.71c-6.17-2.41-4.76 7.31-4.77 10.15q-.01.78-.79.68l-1.45-.19q-.51-.07-.52-.59l-.08-11.74a.79.78 11 0 1 1.09-.73l1.8.74q.4.17.79.02zm-206.82 11.31q-2.79 1.97-5.98.85c-3.2-1.13-2.36-9.42-2.39-12.1q-.01-.66.64-.67l1.52-.01q.5-.01.5.5l-.04 8.7a1.66 1.64-77.2 0 0 .94 1.51c6.58 3.14 5.25-7.19 5.21-10.1a.61.6 90 0 1 .61-.62l1.39.01a.61.61 0 0 1 .6.61v11.86q0 .32-.3.43-1.49.51-1.91-.72-.23-.65-.79-.25zm46.67-4.5c.16 4.44 4.38 3.99 7.54 3.21q.48-.12.6.37.33 1.46-1.28 1.93c-5.44 1.61-9.99-1.54-9.26-7.46 1.04-8.46 12.29-7 10.92 1.13q-.07.38-.46.38l-7.64-.01q-.44 0-.42.45zm.43-2.2l5.6-.08a.27.27 0 0 0 .27-.27v-.17a2.94 2.88 89.2 0 0-2.92-2.9h-.38a2.94 2.88 89.2 0 0-2.84 2.98v.17a.27.27 0 0 0 .27.27zm39.011 2.561a5.38 5.38 0 0 1-5.417 5.342l-.98-.007a5.38 5.38 0 0 1-5.342-5.417l.017-2.42a5.38 5.38 0 0 1 5.417-5.342l.98.007a5.38 5.38 0 0 1 5.342 5.417l-.017 2.42zm-2.485-2.595a3.15 3.15 0 0 0-3.089-3.21l-.56-.011a3.15 3.15 0 0 0-3.21 3.089l-.053 2.779a3.15 3.15 0 0 0 3.089 3.21l.56.011a3.15 3.15 0 0 0 3.21-3.089l.053-2.779z"/><rect x="835.12" y="888" width="2.34" height="12.94" rx=".55"/><rect x="862.62" y="888.01" width="2.16" height="12.92" rx=".55"/><path d="M872.05 889c3.7-2.06 8.15-1.56 8.18 3.47q.03 4.04-.01 8.03 0 .52-.53.51l-1.35-.02q-.63-.01-.64-.65l-.1-8.62q0-.58-.43-.96-1.8-1.65-3.95-.45c-2.37 1.33-1.72 7.56-1.61 10.06a.63.63 0 0 1-.67.66l-1.31-.09a.62.62 0 0 1-.58-.62l-.02-11.62q0-.62.62-.71 1.09-.16 1.59.77.29.53.81.24z"/></g><g class="F"><path d="M769.32 893.24a.27.27 0 0 1-.27-.27v-.17a2.94 2.88 89.2 0 1 2.84-2.98h.38a2.94 2.88 89.2 0 1 2.92 2.9v.17a.27.27 0 0 1-.27.27l-5.6.08z"/><rect x="754.59" y="889.98" width="6.46" height="9.1" rx="2.87"/><rect x="-3.43" y="-4.54" transform="matrix(.999816 .019197 -.019197 .999816 802.39 894.53)" width="6.86" height="9.08" rx="3.15"/><rect x="-3.23" y="-4.56" transform="matrix(.999945 -.010472 .010472 .999945 896.19 894.53)" width="6.46" height="9.12" rx="2.93"/></g><rect x="-2.93" y="-.84" transform="matrix(.99956 .029666 -.029666 .99956 856.72 894.51)" width="5.86" height="1.68" rx=".8" class="B"/><path d="M917.26 899.05l-2.35-.01a1.38 1.38 0 0 1-1.33-1.71l.27-1.1a1.38 1.38 0 0 1 1.17-1.04l2.65-.32a1.38 1.38 0 0 1 1.45 1.87l-.56 1.44a1.38 1.38 0 0 1-1.3.87z" class="F"/><path d="M1128.2 922.28q-.05.22-.1.43l.36 58.4q-179.42.03-358.84.05-2.26 0-1.6.65-33.33.09-66.68.04c-4.9-.01-7.21-1.9-7.21-6.77q-.02-22.62.01-45.23c0-4.51 1.39-7.71 6.27-7.72q205.17-.22 410.34.02 8.74.01 17.45.13zm-174.9 26.71a5.16 5.16 0 0 0-5.16-5.16h-.76a5.16 5.16 0 0 0-5.16 5.16v6.82a5.16 5.16 0 0 0 5.16 5.16h.76a5.16 5.16 0 0 0 5.16-5.16v-6.82zm-215.38 2.73a.47.47 0 0 0-.47-.47h-12.9a.47.47 0 0 0-.47.47v.58a.47.47 0 0 0 .47.47h12.9a.47.47 0 0 0 .47-.47v-.58z" class="I"/><path d="M1128.2 922.28q34.03-.07 68.05.01c4.88.01 5.46 4.16 5.48 8.34q.1 22.31.1 44.62c0 5.78-3.69 6.51-8.74 6.52q-212.53.11-425.07.04-.66-.65 1.6-.65 179.42-.02 358.84-.05 31.69.25 63.34.08c4.9-.03 9.45.24 9.45-6.17q-.03-22.76.03-45.52.03-6.88-7.29-6.78-14.31.2-65.89-.01.05-.21.1-.43z" class="B"/><path d="M1128.1 922.71q51.58.21 65.89.01 7.32-.1 7.29 6.78-.06 22.76-.03 45.52c0 6.41-4.55 6.14-9.45 6.17q-31.65.17-63.34-.08l-.36-58.4zm38.58 28.14a.57.57 0 0 1-.5-.49l-.61-5.05a.57.57 0 0 0-1.13 0l-.59 5.05a.57.57 0 0 1-.49.5l-5.05.61a.57.57 0 0 0 0 1.13l5.05.59a.57.57 0 0 1 .5.49l.61 5.05a.57.57 0 0 0 1.13 0l.59-5.05a.57.57 0 0 1 .49-.5l5.05-.61a.57.57 0 0 0 0-1.13l-5.05-.59z" class="F"/><path d="M953.3 955.81a5.16 5.16 0 0 1-5.16 5.16h-.76a5.16 5.16 0 0 1-5.16-5.16v-6.82a5.16 5.16 0 0 1 5.16-5.16h.76a5.16 5.16 0 0 1 5.16 5.16v6.82zm-2.536-7.042a2.93 2.93 0 0 0-2.95-2.909l-.34.002a2.93 2.93 0 0 0-2.909 2.95l.051 7.36a2.93 2.93 0 0 0 2.95 2.909l.34-.002a2.93 2.93 0 0 0 2.909-2.95l-.051-7.36zm215.916 2.082l5.05.59a.57.57 0 0 1 0 1.13l-5.05.61a.57.57 0 0 0-.49.5l-.59 5.05a.57.57 0 0 1-1.13 0l-.61-5.05a.57.57 0 0 0-.5-.49l-5.05-.59a.57.57 0 0 1 0-1.13l5.05-.61a.57.57 0 0 0 .49-.5l.59-5.05a.57.57 0 0 1 1.13 0l.61 5.05a.57.57 0 0 0 .5.49z" class="B"/><rect x="-3.1" y="-6.61" transform="matrix(.999976 -.006981 .006981 .999976 947.69 952.47)" width="6.2" height="13.22" rx="2.93" class="I"/><g class="B"><rect x="724.08" y="951.25" width="13.84" height="1.52" rx=".47"/><path d="M1912.68 1064.8l-4.89 4.69a.43.43 0 0 1-.59 0l-4.94-4.64a.43.43 0 0 1 .3-.74l9.82-.05a.43.43 0 0 1 .3.74z"/></g></svg>