<svg xmlns="http://www.w3.org/2000/svg" viewBox="0 0 400 380" xmlns:v="https://vecta.io/nano"><style><![CDATA[.B{fill:#7c6063}.C{stroke-width:2}.D{fill:#f9efea}.E{stroke:#bba8a7}.F{fill:#aed6b8}]]></style><g fill="none" class="C"><path vector-effect="non-scaling-stroke" d="M45.53 23.48q-1.21 2.3 1.68 4.53m13.59-.05q-.52 1.47-.01 3.27.06.2.26.14l.94-.26q.2-.06.18-.27-.3-2.65 1.17-4.98.39-.63-.65-1.32m1.96 4.59q-.04 6-1.19 11.36-.34 1.58-1.77 3.64-1.37 1.95-2.1 4.27m-26-30.05q.93.93.78 1.72-.1.52-.62.63c-3.58.79-6.56 5.71-8.6 8.56q-.32.44-.1.94c.28.59.85 1.1 1.04 1.62.64 1.71.98 3.55 2.77 4.66q.34.21.43.61l1.59 6.84q.16.66.83.68 1.67.05 1.56 1.66-.03.43.33.65 1.79 1.11 2.73 2.94a.87.86-44.1 0 0 1.53.02q.51-.92-.57-2.29-.16-.19.06-.33l.3-.19q.16-.1.27.07l2.56 4.2q.28.47.82.58l2.73.6a.97.97 0 0 0 .98-1.54q-.31-.41-.36-.93a.34.34 0 0 1 .57-.28q.51.45.84 1.24a1.97 1.97 0 0 0 3.19.66q1.13-1.1 2.78-1.21.46-.03.79-.35l.4-.38a.46.45 37 0 1 .51-.07l.33.17a.57.55 38.6 0 0 .61-.06q.55-.46.46-1.02a.45.45 0 0 1 .36-.51q3.14-.57 3.43-3.74.04-.46.5-.52c3.03-.37 3.39-7.53 3.29-10.41q-.01-.38-.33-.16c-3.16 2.15-2.84 5.09-5.15 7.67-2.69 2.98-9.97 4.26-11.56-.83q-1.39-4.47.08-9.46.14-.48 0-.96c-.74-2.44-1.73-7.31-3.45-9.28a1.13 1.13 0 0 0-.83-.39q-3-.03-5.35-1.92" stroke="#b78e66"/><g class="E"><path vector-effect="non-scaling-stroke" d="M237.79 208.45l-1.5.56"/><path vector-effect="non-scaling-stroke" d="M234.28 209.59q-2.39 1.29-4.75 2.68c-3.64 2.13-7.8 2.96-11.69 4.6a.88.88 0 0 0-.14 1.54c.92.6 2.27.03 3.04-.02q5.05-.4 9.19-3.29.5-.35.59.26.05.38-.04.77-.18.84.57.42 2.03-1.16 4.12-2.14c3.28-1.53 6.76-1.65 10.15-3.93 3.09-2.08 5.61-2.65 8.84-3.84q2.1-.77 4.82-.86c1.78-.06 6.06-1.24 7.53-.53q.64.31-.06.44c-5.58 1.01-12.68 1.52-17.34 4.51q-9.24 5.92-20.11 7.82-3.95.69-7.75 1.99-.48.16-.61.65c-.58 2.16-.82 3.68.07 5.87q2.78 6.89 6.62 13.31.29.48.71.11 1.06-.94 1.89.14a.75.75 0 0 0 .9.23c4.12-1.79 8.75-1.19 9.02-7.24a1.16 1.16 0 0 1 .42-.85l.66-.57q.54-.46.37.23l-.97 4.13m1.23-.16q.57-.34 2.69-.5 4.62-.34 9.79-2.63c2.34-1.04 4.71-.98 7.15-1.91 1.76-.67 3.18-.74 4.97-1.03a1.29 1.25 12.2 0 0 .82-.51q.42-.59 1.01-.33a1.88 1.78-71.3 0 0 2.48-1.31q.8-3.26 1.42-6.77c.84-4.67 2.32-8.71 3.64-13.2a.98.97 12.7 0 0-.79-1.24l-5.37-.81a.54.54 0 0 1-.45-.65q.16-.76-.19-1.16"/></g><path vector-effect="non-scaling-stroke" d="M328.24 133.61q-3.45 4.21-5.05 9.16-.19.58.41.46 1.57-.3 2.05-2.53m19.34-18.47c.04-.83.12-1.85.55-2.59 4.4-7.57 7.31-16.08 9.67-24.55a2.77 2.73 42.6 0 0-.09-1.78l-.26-.64a.51.51 0 0 0-.95.01q-5.81 14.85-10.52 28.83-.31.93 1.47.97m20.64-1.18l-19.7 6.25m-15.92 29.84q-7.67 2.5-14.34 6.83m-15.92 34.95q-3.7.29-11.12 1.27-3.01.39-4.9 1.74" stroke="#959b8e"/><path vector-effect="non-scaling-stroke" d="M242.34 348.87q-1.08-1.93-3.28-3.33-.38-.25-.83-.18-1.34.19-1.75 1.23m-84.69 9.8q-5.43-2.32-9.19-.05m-15.59-139.3q-.02.3.1.37.09.05.25-.09 2.8-2.33 4.41-5.92m-23.02-14.23q-9.13.18-18.19.5c-5.73.21-9.83-.74-14.9-2.65-4.77-1.79-8.54-2.52-12.18-7.08-2.7-3.38-4.56-5.78-6.68-11q-2.48-6.1-5.22-12.64m118.49-93.02q-1.13.51-.88 1.48.14.51.66.47 2.48-.19 4.49-1.63.56-.4.97-.46.5-.06 1.11.16a1.17 1.13-46 0 0 .84-.03l1.64-.72q.52-.22 1.02.05c2.49 1.37 3.45-1.01 6.07-.23q1.46.43 1.44-.74m17.73 2.18q.24.33.48.42a.71.7-72.5 0 0 .92-.48c1.89-7.21 5.49-13.01 10.2-19.13q4.33-5.62 10.01-10.53" class="E"/><path vector-effect="non-scaling-stroke" d="M57.91 35.25q1.53-5.45.01-11.41-.25-1.02-.96-.25-3.72 4.07-7.84 8.19c-1.78 1.79-1.77 6.6 1.05 7.21 2.77.6 6.88-.66 7.74-3.74m-26.92-5.86q.42 1.28.97 1.8.57.54 1.6-.04 1.14-.65 1.94-1.72a.8.79-48.1 0 0-.05-1.01l-.2-.21q-.27-.28-.55-.02l-1.26 1.19a.66.65-48 0 1-.83.05l-.83-.61a.51.51 0 0 0-.79.57m23.838 18.505a2.23.46 38.4 0 0-1.462-1.746 2.23.46 38.4 0 0-2.033-1.025 2.23.46 38.4 0 0 1.462 1.746 2.23.46 38.4 0 0 2.033 1.025m-4.388-.155q-.64-.44-.89.29-.25.71.12 1.26a.61.61 0 0 0 1 0q.64-.95-.23-1.55" stroke="#b78e66"/><path vector-effect="non-scaling-stroke" d="M239.04 38.79c-6.73.28-8.96 2.36-13.96 6.37q-2.59 2.07-4.28 4.07c-5.8 6.89-9.05 12.11-11.98 20.3-.52 1.46-.57 3.28-1.21 4.87q-.18.45-.63.26-2.61-1.09-7.24-2.12-6.67-1.49-12.51-.1c-4.62 1.11-8.63 1.34-14.08 2.42q-3.06.61-6.9.72c-3.3.1-6.94 2.19-9.64 3q-6.53 1.95-12.79 4.64c-2.19.95-3.71 2.63-5.79 3.94-4.49 2.83-8.25 6.1-12.18 9.58-2.14 1.9-3.46 4.61-5.87 6.62-1.13.94-1.56 1.87-2.02 3.14a.56.56 0 0 1-.87.26c-13.16-9.88-28.4-12.36-44.35-9.23-6.32 1.24-11.55 11.61-13.44 17.09q-3.72 10.81-5.72 23.14-.65 4-.31 7.33c.23 2.24-.79 3.79-.38 6.25q.47 2.73.28 5.46-.24 3.54.11 5.38 1.72 9.08 6 17.25c1.62 3.09 4.35 5.68 6.43 8.63a5.5 5.38 87.2 0 0 1.66 1.54q5.69 3.37 12.01 5.07c5.69 1.53 12.18 1.03 18.34.95 2.14-.03 4.71-.54 7.12-.46 6.99.23 14.4-1.42 21.34-2.35q.58-.07.9.41.48.75 1.44.46a.82.81 67.2 0 1 .94.39c2.84 5.13 6.46 7.16 9.21 11.26q1.08 1.62-.8 1.12l-.5-.13q-.52-.14-.74.36-2.5 5.69-6.36 10.56a.97.96 39.6 0 0 .13 1.34l1.87 1.59a.93.92-48 0 0 1.28-.07c2.68-2.84 6.13-1.48 8.91-.15q1 .48 1.85-.23c3.42-2.86 4.6-1.4 8.01.04q.4.17.8 0l2.39-1.03q.52-.22 1.03-.01l2.95 1.22a1.04 1.03-51.5 0 0 1-.12c2.7-1.97 4.09-.74 6.75.32q.47.18.95.01c1.62-.6 2.85-1.19 4.61-.83q3.06.64 5.87 2.06a1.2 1.16 49.3 0 0 .86.08q2.48-.75 5.01-.19a1.31 1.3 34.1 0 0 1.03-.19c3.08-2.08 5.5-.45 8.4.44a1.21 1.17-50.2 0 0 .93-.1c1.92-1.08 3.27-1.46 5.66-1q3.63.71 7.21-.28.49-.14 1-.06l2.69.44q.49.08.85-.25c.83-.76 2.47-1.18 2.95-1.75q.36-.43-.02-.79m-.02-2.25q.52-.63.58-1.47.02-.4.4-.52c1.77-.57 1.16-3.41.91-4.84q-.04-.21.16-.26l.01-.01q.21-.05.26.11.73 2.18.3 4.43-.08.46-.52.61-.45.15-.51.21-1.39 1.41.4.61l6.7-3m10.62-5.4l.69-1.25q.24-.44.73-.52c4.25-.62 9.4-7.78 11.51-11.53q.25-.43.68-.69c2.24-1.31 4.51-5.7 6.16-7.94a.78.77-62.4 0 0-.37-1.19q-1.64-.57-2.38-2.05a.32.31 13.9 0 1 .54-.32q.96 1.3 2.43 2.04a.68.67 16.5 0 0 .98-.53q.18-1.74.9-3.29.19-.43-.02-.84l-1.17-2.31a.31.31 0 0 1 .4-.42l1.13.51q.86.39 1.06-.53l1.69-7.87q.14-.63-.12-1.23l-2.36-5.3a.24.23-80.8 0 1 .37-.27l.77.71q.38.35.71-.04c2.13-2.58-.5-7.78-1.67-10.78q-.79-2.05.8-.53.92.87 1.53 3.19.05.16.22.18l.4.03q.78.06.45-.66l-3.56-7.84a.71.71 0 0 1 .42-.97q.9-.3 1.14.55.48 1.77 1.2 3.44.07.17.21.31.15.15.3.29.19.19.17-.08-.03-.44-.24-.73-.28-.39-.36-.86c-.22-1.37-.07-2.44-.73-3.71-.79-1.5-2.62-4.41-1.44-6q.3-.4.33-.9l.17-3.83m5.08-2.44q8.85-3.28 15.37-10.25.34-.37.83-.47c1.21-.24 1.88-.51 2.71-1.47 10.49-12.26 8.08-29.27 1.94-42.89-1.75-3.88-3.56-9.12-6.91-13.14q-2.95-3.54-3.81-4.66c-5.57-7.2-16.2-15.12-25.23-17.56" class="E"/><path vector-effect="non-scaling-stroke" d="M331.82 123.55c3.81-7.17 7.07-15.77 7.36-23.99q.09-2.52-1.27-.39c-2.11 3.32-4.59 6.27-6.25 9.93-1.48 3.26-3.12 6.36-4.03 9.84q-1.96 7.52-3.84 15.08c-.4 1.62-1.4 3.63-1.68 5.66q-.08.56.45.36.9-.33 1.19-1.04 2.15-5.24 6.7-11.99c.5-.75.83-2.44 1.37-3.46m30.46-13.87c-6.14 2.97-11.93 8.77-15.63 14.43a1.06 1.05-79.3 0 1-.67.46q-.78.15-.94.92a.45.45 0 0 0 .6.51c4.62-1.7 10.17-2.21 13.73-3.48 10.21-3.63 14.4-10.51 18.11-20.33a.94.89-35.3 0 0 .07-.35q.06-1.88-1.17-.92-6.58 5.13-14.1 8.76m-56.65 46.7q9.11-15.25 13.89-32.39 1.44-5.15.88-11.95-.05-.57-.61-.66-.18-.03-.37-.06-.52-.09-.82.34-7.49 10.64-9.85 21.59-3.81 17.72-7.22 28.17-.23.71.52.71h.37a.24.23 11 0 0 .22-.14q1.38-2.91 2.99-5.61m56.46-27.99c-8.83-.45-20.14 1.79-27.72 7.01q-.29.21-.37.55a.2.2 0 0 0 .25.24q7.32-2.26 14.95-2.69c3.97-.23 10.27-.73 13.5-3.03q2.67-1.91-.61-2.08m-20.25 18.04c.95-.97 2.37-1.88 3.38-2.94q.71-.74.53-1.51-.14-.56-.67-.32c-10.59 4.84-20.2 9.04-28.96 18.08-1.73 1.79-3.99 2.94-5.87 4.66a.59.59 0 0 0 .08.92l.22.14q.19.13.38-.01 3.88-2.78 5.4-3.38c4.62-1.8 8.11-4.25 13.32-6.46q3.45-1.45 5.82-3.37 3.35-2.72 6.37-5.81m-68.9 29.71q-.19 2.58.34 3.56 3.16 5.89 4.76 11.89.4 1.54 1.14.13c.68-1.31.28-3.25.58-4.62 2.69-12.39 7.36-24.45 12.04-35.86q.65-1.58-.86-.78c-7.81 4.14-13.59 8.23-17.25 17.29-.87 2.15-.56 5.75-.75 8.39m44.43-6.27q1.85-.49 8.13 1.09c6 1.52 16.21-.79 21.21-5.49q4.52-4.24 6.82-9.13 1.32-2.81-1.44-1.38c-4.67 2.41-8.55 3.33-14.97 4.72-3.34.73-7.56 1.68-10.36 3.74q-.95.7-2.02 1-4.99 1.43-9.74 3.52-1.04.45-1.81 1.34a.71.71 0 0 0 .57 1.18q1.73-.08 3.61-.59m-6.27 12.63c-8.93 2.46-15.55 4.18-22.24 11.08q-2.96 3.06-5.84 6.2-.32.34.01.74.34.4.78.11l.85-.57q.37-.25.82-.29 8.08-.81 16-2.54c8.56-1.87 15.26-9.62 18.7-17.45q.22-.49.09-.97a.45.45 0 0 0-.66-.27c-2.74 1.61-5.33 3.08-8.51 3.96" stroke="#959b8e"/><path vector-effect="non-scaling-stroke" d="M276.55 209.93q-2.53 5.87-3.08 12.2c-.14 1.69-.86 2.94-1.2 4.55a.53.53 0 0 0 .79.56c6.7-4.11 10.65-10.9 4.92-18.06a.6.59-38.6 0 0-.84-.09q-.35.29-.59.84" class="E"/><path vector-effect="non-scaling-stroke" d="M164.61 220.49a1.88 1.86 33.9 0 0-2.35.45q-.59.72-1.44 1.11-.52.24-.97-.12-1.47-1.16-3.28-1.64a1.27 1.26-52.5 0 0-.95.13q-1.07.65-1.76 1.68a.56.56 0 0 1-.87.07c-1.71-1.74-4.43-4.18-6.87-1.98q-1 .89-2.12 1.67-.44.31-.93.06c-4.84-2.47-5.09-3.6-9.72.47a1.09 1.08-38.1 0 1-1.6-.19c-1.52-2.13-5.19-5.44-7.2-1.71a.89.89 0 0 0 .6 1.3c3.46.73 6.41 2.19 9.85 2.41 2.25.15 4.35.42 6.68.31 3.63-.15 7.44.43 10.76.36q7.45-.16 11.81.08 16.53.91 33.09.76c3.58-.03 7.32-.94 11.1-1.18 2.95-.18 5.46-.85 8.28-1.35a.62.61 80.3 0 0 .5-.72q-.23-1.34-1.43-2.01-.41-.23-.82 0l-2.19 1.22q-.44.25-.93.14-2.94-.62-5.71.32c-2.85.96-4.03-.43-6.62-.47-1.92-.04-3.11 1.36-5.02 1.49q-.54.04-1-.24-3.71-2.24-7.13-.11-.47.29-1.02.29h-6.47a.9.9 0 0 1-.54-.18q-4.61-3.31-9.77-.79-.51.25-1.01-.02l-2.95-1.61m91.47 92.95c-1.54-10.81-6-21.81-10.72-31.93m-3.4-7.44q-5.65-12.07-11.09-24.35-1.1-2.49-4.4-7.93c-3.32-5.48-5.81-10.97-8.57-16.6q-.24-.49-.76-.32c-6.52 2.21-13.45 2.12-20.35 2.64q-6.06.46-12.09.3-19.97-.51-39.95-.45-2.73.01-6-.3c-5.05-.47-9.2-.19-13.96-2.32a1.22 1.22 0 0 0-1.45.37c-5.98 7.84-13.75 15.49-18.62 22.81q-7.32 10.99-12.29 23.31c-2.85 7.08-4.11 14.52-5.78 21.9-1.54 6.85-3.03 13.13-2.96 20.68.06 6.01 1.62 12.71 2.5 19.1.45 3.3 1.4 5.33 3.63 7.52 2.76 2.72 6.2 2.16 9.42.71a.92.92 0 0 1 1.27.61l.53 2.08q.13.47.56.67l3.54 1.7a1.23 1.21-42.8 0 0 .98.03q2.01-.82 3.38-2.5.85-1.03 1.44.16a.73.73 0 0 1 .02.61q-1.06 2.54 1.3 3.8 7.07 3.75 13.81-.46c1.55-.97 2.4.74 3.36 1.25 2.85 1.52 7.35.46 10.32-.33q1.8-.48 3.38-2.82a.28.28 0 0 1 .45-.01c4.02 5.34 12.13 3.07 16.45-.26a.78.76-46.4 0 1 .89-.03q4.75 3.23 8.85 2.48 1.36-.25 3.04-1.76c1.76-1.59 4.28-2.51 3.89-5.47q-.08-.61.51-.43 6.26 1.98 11.82-.85c3.34-1.7 6.19-5.35 8.77-8.36q.37-.43.88-.17c1.43.75 2.53 1.76 4.06 1.89 3.55.29 7.45-2.36 9.54-4.81a1.73 1.72-58.9 0 1 1.94-.48q3.04 1.17 6.27.94c3.45-.24 3.59-2.81 4.45-5.24a1.02 1.02 0 0 1 1.43-.57c1.55.79 2.85 1.61 4.57 1.86q9.56 1.41 13.95-6.7.74-1.36 2.24-1 4.65 1.13 7.78-1.18" stroke="#be8c82"/><path vector-effect="non-scaling-stroke" d="M253.15 349.3q1.13-2.18 1.71.21.15.62.99 1 .57.26 1.31.14 3.05-.53 6.32-2.57a1.16 1.16 0 0 0-.35-2.11q-.5-.11-.74-.35-.41-.42-.31-.86.15-.69.82-.85c.61-.14 1.15.25 1.74.44q.49.16.76-.28c1.97-3.17.09-7.15-1.53-10.13-1.04-1.9-3-3.01-3.9-5.45a1.92 1.86-81.4 0 0-.57-.8q-2.69-2.25-4.97-4.9c-1.46-1.72-3.08-2.76-4.89-4.06a2.19 2.19 0 0 0-3.26.83c-1.19 2.48-3.6 3.88-4.95 6.33-.99 1.8-1.65 3.71-3.25 3.98q-.4.06-.21.42l.14.26a.26.25 70.5 0 0 .28.14l2.93-.53a.64.64 0 0 1 .61 1.05q-1.93 2.29-4.51 3.84a1.39 1.38-12.2 0 0-.66 1.02l-.68 6.2q-.07.7.63.64c4.46-.34 4.61 3.55 8.13 5.25q3.22 1.56 6.68 3.14a1.22 1.22 0 0 0 1.72-1.22q-.06-.66.01-.78m-68.64-2.3l-1.4 7.39q-.25 1.33 1.1 1.22 11.5-.95 20.59-2.01c3.51-.41 7.8.01 11.83-.85q1.9-.41 4.31-.28 6.52.36 10.86-4.89.34-.4.31-.93-.1-1.91 1.49-2.95.44-.29.56-.79.86-3.42 1.27-6.93c.12-1.08-.57-1.88.31-3.04q.26-.34.31-.76l.59-5.1a.84.83 88.5 0 0-.97-.93q-4.59.77-8.4-1.64a.7.7 0 0 0-1.06.45c-1.4 6.63-6.86 5.26-11.76 4.15a.94.93-60.3 0 0-.87.24c-3.18 3.06-8.45 6.63-12.56 4.32q-.41-.24-.89-.18-1.9.21-2.71 1.17c-4.51 5.34-9.52 8.56-16.64 8.39-3.14-.07-4.21 3.54-5.8 4.67q-6.31 4.53-13.29.06-.44-.29-.9-.05c-5.66 2.92-10.91 4.55-16.76 1.18q-.46-.26-.93-.01-5.32 2.87-11.39 2.42a.43.42-23.6 0 0-.3.75l1.11.89q.76.61 1.73.57c3.09-.13 5.93.42 9.38.33q3.11-.09 6.15.83.5.15 1 .02.94-.23 1.84 0 .53.14.74.64c1.15 2.66 3.54 5.5 6.73 4.27q.42-.17.85-.01 1.11.41 2.3.16 9.22-1.91 18.47-3.72.5-.1.33-.58l-.48-1.32q-.19-.55.25-.94l.27-.23q.37-.33.48-.81l1.22-5.12q.05-.23.28-.22l.33.02q.15.01.12.15m53.05-18.24a.42.42 0 0 0 .79.21l1.77-3.17a.42.42 0 0 0-.49-.6l-1.71.54a.42.42 0 0 0-.3.39l-.06 2.63m-108.62 21.88q-.43-.9-1.06-1.05-1.83-.44-.61.99.43.51 1.5.38.31-.04.17-.32m131.58-245.99q-.56.08-.62-.4c-.38-2.69-.18-6.02-.6-8.98q-1.07-7.4-1.63-14.85a.6.6 0 0 0-.6-.56h-.29q-.29 0-.26.29c.53 5.72 1.34 11.49.66 17.24a.81.8-72.1 0 0 .4.79q1.73 1 1.03 2.91a.38.38 0 0 1-.65.12l-.21-.24q-.43-.5-.57.14-.07.32-.24.62a.54.54 0 0 1-1-.22l-2.26-19.52a.38.38 0 0 0-.42-.33l-.3.03q-.17.02-.14.19c1.08 8.53 2.6 17.9 1.26 26.43-.16 1.04-.75 1.62-1.27 2.48q-.21.35.18.49l.3.1a.52.51 24.1 0 0 .62-.23q1.28-2.18 1.39-4.74.01-.16.16-.16.15 0 .3 0 .17 0 .21.18l.65 3.3a.69.68-20.3 0 0 1.01.46c3.28-1.86 4.78-8.24 5.15-11.71q1.04-9.79 1.93-19.6.02-.16-.09-.27l-.28-.27a.37.36 25.8 0 0-.62.21l-2.7 25.59q-.04.45-.5.51m8.84-18q-.85.25-1.57.77-.69.51.16.64 1.64.23 1.99-.81.28-.85-.58-.6m-24.89 64.19c.34-1.27.47-3.06-1.32-3.05q-.95.01-1.81.87a1.47 1.46-40.6 0 0-.15 1.9q.58.8 1.53 1.17a1.32 1.31-71.8 0 0 1.75-.89m-187.49-.86a.63.63 0 0 0 .99.07q.48-.52.45-1.19-.04-.65-.69-.77-.59-.1-1.11.2-.56.33-.19.87l.55.82m165.67 48.68q.2.17.41.27.34.16.84.03c5.49-1.42 7.71-3.77 10.45-8.59q1.08-1.89 1.06-4c-.07-9.32-3.08-15.69-6.22-23.45q-.66-1.63-2.32-4.14c-1.82-2.75-2.96-8.11-6.86-8.02q-8.21.18-14.89 7.12c-3.51 3.64-.05 7.3.22 10.76q.26 3.38 2.22 7 2.99 5.5 2.94 12.35c-.03 4.31 3.44 7.43 6.72 9.63 1.56 1.05 2.9.76 4.67.76q.44 0 .76.28m-115.49-31.32q.02.28-.25.19-9.13-2.86-16.61-8.71-.29-.23-.34.13-.02.15.08.28 1.43 1.73 3.87 3.08 5.93 3.3 12.06 6.21c1.77.83 3.56 1.02 5.46 1.34a.31.31 0 0 0 .3-.48q-.76-1.11-2.04-1.85c-6.89-4-14.3-7.25-18.6-14.35a.43.42-30 0 0-.57-.15l-.22.13q-.14.09-.06.24c3.73 6.67 10.48 10.2 16.76 13.4q.13.06.14.2l.02.34m-41.66-7.72q-.6.18-1.01.63a.23.23 0 0 0 .25.37l1.51-.62a.35.33-53.2 0 0-.08-.66q-.06 0-.22.12a.58.03-16.6 0 1-.45.16m43.42 12.37l4.74 1.03q.28.06.34-.22l.06-.29q.05-.24-.18-.32c-2.93-.94-6.13-1.25-8.75-2.18q-2.72-.97-5.37-2.1-.45-.2-.92-.07c-1.96.5-5.08-1.53-7.08-2.14q-.11-.04-.15.07l-.1.27a.29.29 0 0 0 .15.37l10.36 4.81q.4.18.83.15.36-.02.65.12 4.54 2.19 9.05 4.33.39.18.59-.2l.12-.23q.08-.15-.06-.23-2.19-1.32-4.64-2.06-.21-.06-.36-.23-.22-.23-.02-.56.25-.42.74-.32m-24.52 2.39l-.41.68q-.39.62.29.34.6-.24.61-.87a.27.27 0 0 0-.49-.15m164.62 5.77q-.01.59.52.72.59.15.31-.4l-1.03-2.03a.28.28 0 0 0-.51.21q.15.44.46.81.26.3.25.69m-75.301 6.375a2.41 2.25 17.5 0 0-1.622-2.871 2.41 2.25 17.5 0 0-2.975 1.421 2.41 2.25 17.5 0 0 1.622 2.871 2.41 2.25 17.5 0 0 2.975-1.421m76.591-2.755l-.34.41q-.4.47.05.89.32.3.82.27a.52.52 0 0 0 .46-.68q-.18-.52-.59-.91a.27.27 0 0 0-.4.02m-15.33 18.21q-.16.3-.12.68.05.43.36.13l.88-.89q.36-.36-.05-.65-.33-.23-.72-.06-.09.04-.14.12-.06.08-.08.17-.11.46-.13.5m28.124 23.546a1.47.33 124.2 0 0 1.099-1.03 1.47.33 124.2 0 0 .553-1.401 1.47.33 124.2 0 0-1.099 1.03 1.47.33 124.2 0 0-.553 1.401m4.656 2.574l1.61-3.32q.07-.14-.01-.27-.07-.11-.14-.22a.3.3 0 0 0-.5-.03q-1.23 1.67-1.29 3.76a.17.17 0 0 0 .33.08" class="E"/><path vector-effect="non-scaling-stroke" d="M197.27 231.32c-1.55-3.24-5.87-2.41-4.92 1.45q.92 3.74 1.42 7.04a1.77 1.77 0 0 0 2.85 1.12c2.12-1.67 6.21-5.05 6.47-7.93q.18-1.94-1.4-2.19c-1.14-.19-2.33.64-3.51.93a.8.79-20 0 1-.91-.42m-63.79 13.47a.58.58 0 0 1-1.04 0c-1.03-2-5.29-4.96-6.33-1-.82 3.11 4.06 11.15 6.28 13.35a1.31 1.31 0 0 0 2.01-.21q3.36-5.07 6.7-10.1c1.27-1.9 1.42-5.13-1.21-5.88-2.43-.7-5.41 1.83-6.41 3.84m73.74 64.74l1.28 4.57q.04.16.2.13l.29-.05q.54-.09.49-.65c-.28-3.25-1.17-5.89-.47-9.24 1.39-6.75.7-15.71-2.48-21.95-1.38-2.71-2.26-5.41-4.2-7.76q-2.48-2.99-4.98-5.97c-3.77-4.51-6.61-9.3-9.6-14.24q-.28-.47.07-.9 1.03-1.25 2.25-2.33.18-.16.25-.36.09-.28.08-.46a.53.52-11.2 0 0-.71-.47c-11.05 4.23-22.38 7.12-33.49 11.05q-1.16.41-.85 1.6l.08.27a.72.71-13.3 0 0 .85.52l7.79-1.69a1.13 1.11 66.7 0 1 1.18.48q2.47 3.72 4.73 7.62c4 6.87 5.01 14.71 8.85 21.72 3.87 7.07 6.55 15.67 14.08 20.03 1.7.98 3.73.79 5.67 1.12q.51.09.83.49.4.51.77 1.03.24.34.49.45.36.16.76.04.5-.14.34-.64l-.45-1.44a.84.83 67.7 0 1 .41-.99l1-.53a.81.81 0 0 1 1.15.47l.75 2.33a.49.48-32.5 0 0 .82.18q.24-.26.29-.73.18-1.48-.18-2.64-.29-.91.59-1.26l.36-.15a.53.53 0 0 1 .71.35M223 258.68c-1.61-1.19-3.56-3.99-5.81-1.96a1.3 1.28 71.9 0 0-.41.82c-.33 3.86 3.11 10.71 4.47 14.49q.65 1.82 2.07 1.2a1.45 1.41.8 0 0 .71-.67c1.37-2.64 7.98-12.92 4.81-15.27-1.91-1.42-3.42.6-4.96 1.44q-.46.26-.88-.05m-85.27 29.82a.61.61 0 0 1-1.08 0c-.93-1.81-2.59-5.58-5.25-4.19a2.42 2.39-14.8 0 0-1.29 2.19q.19 7.82 3.35 15.02a1.91 1.9 73.7 0 0 2.04 1.12q1.44-.23 2.47-1.93 3.42-5.68 6.17-11.73.65-1.43.39-2.57-.29-1.24-1.57-1.2-3.58.1-5.23 3.29m99.67 4.08c-1.15-1.25-3.02-4.22-5.11-2.63a1.9 1.88-24.8 0 0-.71 1.9q.47 2.2.32 4.39-.14 1.93 2.06 6.84.54 1.22 1.28 1.93a1.44 1.44 0 0 0 2.18-.22l6.74-9.66a2.2 2.2 0 0 0 .25-2.05c-1-2.6-4.37-1.44-5.98-.37a.8.8 0 0 1-1.03-.13m-127.49 21.49q-1.84-3.27-5.62-2.57a1.45 1.44-8.6 0 0-1.17 1.58q.72 6.38 3.74 11.98a1.46 1.45 53.9 0 0 2.29.36c2.58-2.48 8.21-7.92 8.73-11.72a1.79 1.78-77.4 0 0-1.23-1.95c-2.93-.93-3.8 1.05-5.86 2.52a.61.61 0 0 1-.88-.2m54.27-.44c-1.33-1.65-3.29-3.19-5.36-1.71q-.41.29-.46.78c-.47 4.44 2.47 7.57 3.87 11.63a1.7 1.7 0 0 0 2.96.48l6.81-8.89a1.7 1.7 0 0 0-.35-2.41q-3.31-2.38-6.36.22a.78.78 0 0 1-1.11-.1" stroke="#be8c82"/><path vector-effect="non-scaling-stroke" d="M180.97 291.98c1.75 2.04 3.61 5.46 4.39 8.02 1.26 4.13 6.22 8.76 9.02 11.11a1.36 1.32 65.4 0 0 .85.33c1.84.05 3.26.35 4.98-.45q3.02-1.38 5.94-3.14.43-.26.58-.74c3.3-10.52-.07-23.22-5.52-31.09-2.88-4.16-8.27-9.95-11.41-15.34q-1.95-3.34-3.58-6.75-.3-.61-.93-.38l-19.08 6.87a.58.57 60.8 0 0-.25.9c3.48 4.36 7.22 8.78 8.66 14.32.52 1.99 1.6 3.19 2.24 5.13 1.22 3.72 3.12 6.38 3.7 10.31q.07.51.41.9m46.88 55.65q-.47 1.58.91.67 1.94-1.28 1.71-4.23-.05-.57-.62-.58-.16 0-.32.01-.47.01-.6.46l-1.08 3.67m-2.64-3.03q-.64 3.11-2.27 5.86a.24.24 0 0 0 .13.35l.4.15a.18.17-69.7 0 0 .23-.11l2.26-5.8q.13-.34-.21-.44l-.36-.11q-.15-.05-.18.1m-1.16.62l-.23-.12q-.08-.04-.14.04-1.29 1.62-1.81 3.6-.05.18.12.23l.29.1a.26.26 0 0 0 .33-.17q.55-1.89 1.47-3.59.03-.06-.03-.09m-38.13 7.47q.64-3.03 1.24-4.95.05-.16-.11-.29-.25-.19-.43.07-1.84 2.58-1.21 5.18.27 1.14.51-.01m6.74-4.77q.5.11.8-.16.3-.28-.11-.33-1.1-.16-2.09.36-.57.3.03.54.55.21.82-.19.21-.29.55-.22m27.5 1.83a.13.13 0 0 0-.17-.16q-.81.3-.67 1.33.02.12.09.17.1.08.23.08.18-.01.22-.17l.3-1.25m1.1.03q-.27.55-.31 1.19a.37.36 74.3 0 0 .58.33q.91-.67.51-1.52-.39-.81-.78 0" class="E"/></g><path d="M45.53 23.48q-1.21 2.3 1.68 4.53l.52 1.23q.21.51.59.11l10.14-10.62a.48.48 0 0 1 .82.25l1.52 8.98q-.52 1.47-.01 3.27.06.2.26.14l.94-.26q.2-.06.18-.27-.3-2.65 1.17-4.98.39-.63-.65-1.32 1.29-.49 2.04 1.15c.49 1.07-.05 2.28-.08 3.44q-.04 6-1.19 11.36-.34 1.58-1.77 3.64-1.37 1.95-2.1 4.27-7.67 6.52-18.75 5.13c-2.3-.29-5.78-2.55-7.44-4.22q-6.27-6.3-7.59-15.2a1.41 1.39-76.8 0 0-.56-.92l-3.16-2.3a.76.75-53.6 0 1-.16-1.07q5.26-6.8 11.66-11.47.93.93.78 1.72-.1.52-.62.63c-3.58.79-6.56 5.71-8.6 8.56q-.32.44-.1.94c.28.59.85 1.1 1.04 1.62.64 1.71.98 3.55 2.77 4.66q.34.21.43.61l1.59 6.84q.16.66.83.68 1.67.05 1.56 1.66-.03.43.33.65 1.79 1.11 2.73 2.94a.87.86-44.1 0 0 1.53.02q.51-.92-.57-2.29-.16-.19.06-.33l.3-.19q.16-.1.27.07l2.56 4.2q.28.47.82.58l2.73.6a.97.97 0 0 0 .98-1.54q-.31-.41-.36-.93a.34.34 0 0 1 .57-.28q.51.45.84 1.24a1.97 1.97 0 0 0 3.19.66q1.13-1.1 2.78-1.21.46-.03.79-.35l.4-.38a.46.45 37 0 1 .51-.07l.33.17a.57.55 38.6 0 0 .61-.06q.55-.46.46-1.02a.45.45 0 0 1 .36-.51q3.14-.57 3.43-3.74.04-.46.5-.52c3.03-.37 3.39-7.53 3.29-10.41q-.01-.38-.33-.16c-3.16 2.15-2.84 5.09-5.15 7.67-2.69 2.98-9.97 4.26-11.56-.83q-1.39-4.47.08-9.46.14-.48 0-.96c-.74-2.44-1.73-7.31-3.45-9.28a1.13 1.13 0 0 0-.83-.39q-3-.03-5.35-1.92 6.54-.52 9.41 5.24zm12.38 11.77q1.53-5.45.01-11.41-.25-1.02-.96-.25-3.72 4.07-7.84 8.19c-1.78 1.79-1.77 6.6 1.05 7.21 2.77.6 6.88-.66 7.74-3.74z" class="B"/><path d="M36.12 18.24q2.35 1.89 5.35 1.92a1.13 1.13 0 0 1 .83.39c1.72 1.97 2.71 6.84 3.45 9.28q.14.48 0 .96-1.47 4.99-.08 9.46c1.59 5.09 8.87 3.81 11.56.83 2.31-2.58 1.99-5.52 5.15-7.67q.32-.22.33.16c.1 2.88-.26 10.04-3.29 10.41q-.46.06-.5.52-.29 3.17-3.43 3.74a.45.45 0 0 0-.36.51q.09.56-.46 1.02a.57.55 38.6 0 1-.61.06l-.33-.17a.46.45 37 0 0-.51.07l-.4.38q-.33.32-.79.35-1.65.11-2.78 1.21a1.97 1.97 0 0 1-3.19-.66q-.33-.79-.84-1.24a.34.34 0 0 0-.57.28q.05.52.36.93a.97.97 0 0 1-.98 1.54l-2.73-.6q-.54-.11-.82-.58l-2.56-4.2q-.11-.17-.27-.07l-.3.19q-.22.14-.06.33 1.08 1.37.57 2.29a.87.86-44.1 0 1-1.53-.02q-.94-1.83-2.73-2.94-.36-.22-.33-.65.11-1.61-1.56-1.66-.67-.02-.83-.68l-1.59-6.84q-.09-.4-.43-.61c-1.79-1.11-2.13-2.95-2.77-4.66-.19-.52-.76-1.03-1.04-1.62q-.22-.5.1-.94c2.04-2.85 5.02-7.77 8.6-8.56q.52-.11.62-.63.15-.79-.78-1.72 1.57.2 2.53-.11zm-5.13 11.15q.42 1.28.97 1.8.57.54 1.6-.04 1.14-.65 1.94-1.72a.8.79-48.1 0 0-.05-1.01l-.2-.21q-.27-.28-.55-.02l-1.26 1.19a.66.65-48 0 1-.83.05l-.83-.61a.51.51 0 0 0-.79.57zm23.838 18.505a2.23.46 38.4 0 0-1.462-1.746 2.23.46 38.4 0 0-2.033-1.025 2.23.46 38.4 0 0 1.462 1.746 2.23.46 38.4 0 0 2.033 1.025zm-4.388-.155q-.64-.44-.89.29-.25.71.12 1.26a.61.61 0 0 0 1 0q.64-.95-.23-1.55zm-4.91-24.26l1.68 4.53q-2.89-2.23-1.68-4.53zm12.38 11.77c-.86 3.08-4.97 4.34-7.74 3.74-2.82-.61-2.83-5.42-1.05-7.21q4.12-4.12 7.84-8.19.71-.77.96.25 1.52 5.96-.01 11.41zm4.78-10.71q1.04.69.65 1.32-1.47 2.33-1.17 4.98.02.21-.18.27l-.94.26q-.2.06-.26-.14-.51-1.8.01-3.27l1.89-3.42z" fill="#f1bc68"/><path d="M30.99 29.39a.51.51 0 0 1 .79-.57l.83.61a.66.65-48 0 0 .83-.05l1.26-1.19q.28-.26.55.02l.2.21a.8.79-48.1 0 1 .05 1.01q-.8 1.07-1.94 1.72-1.03.58-1.6.04-.55-.52-.97-1.8z" class="B"/><path fill="#f1bc68" d="M64.65 29.13q3.38 10.49-5.06 19.27.73-2.32 2.1-4.27 1.43-2.06 1.77-3.64 1.15-5.36 1.19-11.36z"/><path d="M237.79 208.45l-1.5.56q.08-.17.09-.32.03-.41-.38-.4-1.58.04-1.72 1.3-2.39 1.29-4.75 2.68c-3.64 2.13-7.8 2.96-11.69 4.6a.88.88 0 0 0-.14 1.54c.92.6 2.27.03 3.04-.02q5.05-.4 9.19-3.29.5-.35.59.26.05.38-.04.77-.18.84.57.42 2.03-1.16 4.12-2.14c3.28-1.53 6.76-1.65 10.15-3.93 3.09-2.08 5.61-2.65 8.84-3.84q2.1-.77 4.82-.86c1.78-.06 6.06-1.24 7.53-.53q.64.31-.06.44c-5.58 1.01-12.68 1.52-17.34 4.51q-9.24 5.92-20.11 7.82-3.95.69-7.75 1.99-.48.16-.61.65c-.58 2.16-.82 3.68.07 5.87q2.78 6.89 6.62 13.31.29.48.71.11 1.06-.94 1.89.14a.75.75 0 0 0 .9.23c4.12-1.79 8.75-1.19 9.02-7.24a1.16 1.16 0 0 1 .42-.85l.66-.57q.54-.46.37.23l-.97 4.13q-.28 1.04.08 1.01 1.9-.18 1.15-1.17.57-.34 2.69-.5 4.62-.34 9.79-2.63c2.34-1.04 4.71-.98 7.15-1.91 1.76-.67 3.18-.74 4.97-1.03a1.29 1.25 12.2 0 0 .82-.51q.42-.59 1.01-.33a1.88 1.78-71.3 0 0 2.48-1.31q.8-3.26 1.42-6.77c.84-4.67 2.32-8.71 3.64-13.2a.98.97 12.7 0 0-.79-1.24l-5.37-.81a.54.54 0 0 1-.45-.65q.16-.76-.19-1.16 3.18.47 5.88 1.98a.81.81 0 0 0 1.13-.36c.84-1.76 1.73-3.07 1.69-5.07q-.07-4.09-.16-7.62a8.4 8.39 28.6 0 0-1.21-4.12c-2.25-3.7-4.74-7.78-4.87-12.18-.19-6.73 2.21-11.57 6.02-16.93 4.43-6.24 9.55-7.92 15.71-10.98q1.72-.85.98.92c-6.01 14.25-13.3 30.93-14.01 46.37a.3.3 0 0 0 .56.17q1.85-3.11 6.48-11.49 2.54-4.63 8.48-11.97c4.02-4.97 4.31-8.56 5.84-14.34q4.06-15.32 7.98-30.68 1.03-4.02 2.7-7.29c2.21-4.33 3.93-8.16 7.37-11.71a1.2 1.19 63.1 0 1 2.04.67c2.28 16.37-7.36 34.08-14.21 47q-2.89 5.44 1.58 1.2c3.75-3.57 9.34-8.09 11.11-13.81q4.52-14.64 7.86-29.59c1.31-5.87 7.74-13.43 11.53-18.09a1.27 1.26-60 0 1 1.44-.39q.77.3.72 1.26c-.51 10.44-3.89 17.64-8.02 26.2q-2.74 5.71-5.11 10.65-3.45 4.21-5.05 9.16-.19.58.41.46 1.57-.3 2.05-2.53 1.65-1.28 2.94-2.78c5.52-6.46 11.16-7.63 13.54-16.45 2.6-9.64 6.41-18.73 10.12-27.97.52-1.31 1.43-2.84 2.02-3.86q1.95-3.4 2 .52c.14 11.24-4.43 22.23-11.28 32.07.04-.83.12-1.85.55-2.59 4.4-7.57 7.31-16.08 9.67-24.55a2.77 2.73 42.6 0 0-.09-1.78l-.26-.64a.51.51 0 0 0-.95.01q-5.81 14.85-10.52 28.83-.31.93 1.47.97l-3.87 4.91q-.06.08.01.14l.22.2a.4.4 0 0 0 .57-.05q3.2-3.86 6.33-7.81c4.74-5.98 13.17-11.25 21.49-15.69 3.43-1.83 6.2-4.15 9.12-6.46q1.74-1.38 1.12.75c-.31 1.06-.31 2.22-.87 3.35-3.82 7.73-5.6 13.87-13.48 19.48l-19.7 6.25q-2.69.22-3.88 1.93-.61.87.42.6 10.19-2.71 21.08-2.27 1.5.06 1.99 1.57a.66.66 0 0 1-.2.71q-3.99 3.23-7.96 3.61-11.58 1.11-23 3.26c-1.75.32-2.96.59-4.25 1.98q-2.84 3.07-6.03 5.76-.49.41-.26 1 .05.13.1.27a.43.42-31 0 1-.13.48l-6.06 4.87q-.18.15-.05.35l.17.25q.05.08.13.03 2.33-1.26 4.48-2.83 1.12-.82 3.45-3.63 2.5-3.03 6.42-4.61.25-.1.22.16-.06.53-.5.9c-3.77 3.18-7.58 7.01-11.81 9.53-6.53 3.88-12.26 9.52-17.59 14.88-1.71 1.71-2.64 3.71-4.07 5.69q-.2.27.1.41.13.07.29.05.12-.02.24-.13 2.11-1.94 4.42-3.63c3.4-2.48 5.93-5.52 9.17-8.12 4.28-3.42 8.43-7.52 13.21-10.47q7.95-4.92 20.22-10 .8-.34 3.14-2.19.24-.19.48-.21.33-.03.54.05a.41.41 0 0 1 .21.63q-8.4 11.86-20.61 18.96-7.67 2.5-14.34 6.83l-12.05 6.15q-1.81.93.22.83 2.55-.13 7.28-2.45 12.4-6.09 23.44-9.82c5.01-1.69 12.09-1.4 16.58-4.81 1.01-.76 2.11-.99 2.95-1.89q1.15-1.22 1.98-2.68.13-.24.33-.35.29-.17.47-.15.47.06.34.51c-4.41 15.72-14.74 24.22-31.57 22.61q-11.11-1.07-15.75-.57c-5.01.53-13.38 2.31-17.01 7.42-3.79 5.33-9.11 12.72-10.86 19q-.77 2.74.83.39c3.55-5.19 8.21-10.18 14.26-12.75q7.15-3.05 17.76-5.65 3.41-.84 6.47-4.09a1.3 1.24 72.3 0 0 .34-.7q.15-1.1.51-1.35 2.31-1.61 1.16.96c-1.07 2.41-1.77 5.24-2.86 7.48-3.31 6.79-7.07 11.85-14.35 14.45q-3.34 1.2-6.39 2.41-3.7.29-11.12 1.27-3.01.39-4.9 1.74-3.88.84-5.2 4.67-.26.75.53.7l2.24-.13a.75.75 0 0 1 .74 1.04q-.46 1.09-1.33 1.93a.73.73 0 0 0-.08.95q.19.26.47.43.25.16.67.09.76-.14.84-.14 3.01-.01.59 1.89-1.92 1.5-1.53 4.11.09.58.68.58.16 0 .33-.01 2.43-.22.73 1.52c-1.34 1.39-2.86 2.36-4.11 3.89q-2.7 3.29-6.33 4.87a1.76 1.76 0 0 0-1.05 1.5l-.67 11.21a.35.35 0 0 1-.64.17q-.53-.77-.5-1.96.11-4.74.33-9.33.04-.71-.64-.49-5.04 1.64-10.17 3.21c-2.89.88-4.79 3.11-8.31 3.23q-2.39.07-3.77.57c-5.93 2.12-11.78 2.76-17.6 6.12q-.48.28-.19.75c1.43 2.29 2.77 4.38 3.83 6.8 9.12 20.83 20.37 40.52 25.05 62.62.74 3.46-2.48 4.26-4.92 5.59q-.65.35.01.68c4.85 2.47 6.71 6.72 10.09 10.53q2.38 2.67 3.93 8.67.11.46.49.74l2.5 1.83a1.94 1.91 17.3 0 1 .78 1.46l.04.8a.45.45 0 0 1-.74.36l-1.81-1.52q-.45-.38-.76.12-1.67 2.72-1.79 5.81-.03.53-.5.75-.4.19-.85.03a1.2 1.17-50.6 0 0-1 .11c-1.69 1.04-2.36 2.62-4.57 3.41q-.48.17-.98.07-.54-.12-1.09-.04-.51.07-.63.56l-.2.83a.95.94 32 0 1-1.65.38c-1.6-1.94-4.03-1.81-5.8-2.6q-3.54-1.59-6.72-2.67-1.08-1.93-3.28-3.33-.38-.25-.83-.18-1.34.19-1.75 1.23-1.74-.18-2.25-.09-.82.15-.56.99.16.49-.07.95c-.73 1.45-1.2 2.61-2.76 3.41-1.86.96-3.18 2.16-5.29 2.47-8.06 1.19-14.45 1.25-24.7 1.61-6.73.23-13.43 2.57-20.25 3.44-4.42.56-8.82 2.14-13.45 2.68a1.66 1.61 22.7 0 0-.79.31q-1.32.97-2.89 1.42a.39.38-70 0 1-.32-.69l1.65-1.12q.09-.06.05-.17l-.1-.25a.64.63 74.3 0 0-.7-.4c-5.63 1.05-8.71-.33-12.26-4.76q-5.43-2.32-9.19-.05l-8.71-.18q-.48-.01-.8-.39-.17-.2-.37-.38-.18-.16-.45-.23c-2.73-.78-6.03-1.5-8.02-3.65a1.06 1.05 64.9 0 0-.91-.33c-5.23.65-10.08.18-13.59-3.95q-.33-.38-.82-.25c-2.72.7-4.81 2.04-7.29-.37q-1.37-1.33-2.04-2.58-.33-.6-1-.47c-4.7.93-7.68 1-10.81-3.07q-2.48-3.23-2.72-4.98c-1.28-9.34-3.88-18.19-3.04-27.95.6-7.17 2.76-14.84 4.23-22.21 2.65-13.24 7.97-25.18 15.27-36.48 4.83-7.46 12.54-15.27 18.6-23.13 1.65-2.15 1.68-4.83 3.2-7.11a1.66 1.63 16.8 0 1 1.39-.73q1.02.02 2.29-.86-.02.3.1.37.09.05.25-.09 2.8-2.33 4.41-5.92 1.95-2.57 2.95-5.81a.96.95 35 0 0-.15-.83l-7.12-9.54a2.45 2.44-23.2 0 0-2.4-.95l-16.3 2.9q-9.13.18-18.19.5c-5.73.21-9.83-.74-14.9-2.65-4.77-1.79-8.54-2.52-12.18-7.08-2.7-3.38-4.56-5.78-6.68-11q-2.48-6.1-5.22-12.64c-2.77-17.74.78-37.45 7.62-53.8 2.12-5.08 7.03-12.73 12.32-15.18 3.92-1.81 8.47-2.21 12.73-2.57 12.12-1.03 22.74 5.13 32.25 11.37q.46.3.73-.18l4.15-7.45a.99.98-80.1 0 1 .69-.49q1.68-.3 1.45-1.93-.09-.64.49-.92c2.12-.98 4.35-1.35 5.98-2.97q1.53-1.52 2.75-3.3.3-.45.83-.57 2.66-.57 2.98-3.37.05-.51.47-.8l1.43-1a.36.36 0 0 1 .53.45l-.81 1.79a.38.37 55.1 0 0-.03.19q.22 1.4.89.18 1.81-3.26 4.08-5.8a.39.38 72.9 0 1 .66.35l-.29 1.2a.31.31 0 0 0 .47.34c1.08-.7 1.02-2.24 2.81-1.82q.41.1.7-.21l2.04-2.2q.84-.91.64.32l-.18 1.05q-.11.68.57.61.29-.04.48-.34.28-.43.16-1.06-.08-.45.38-.45.7-.01 1.35.24.59.23.87-.34.6-1.2 1.76-1.84.66-.37.39.34-.2.53-.17 1.08.04.7.71.52 1.71-.47 2.08-2.2.13-.56.69-.46 1.15.19 2.01-.69a.34.33-17.8 0 1 .57.29q-.07.36-.23.64-.39.63.35.63.27-.01.51-.28 1.1-1.26 1.7-2.45a1.25 1.24 37.4 0 1 2.04-.27q1.1 1.22 3.89.33-1.13.51-.88 1.48.14.51.66.47 2.48-.19 4.49-1.63.56-.4.97-.46.5-.06 1.11.16a1.17 1.13-46 0 0 .84-.03l1.64-.72q.52-.22 1.02.05c2.49 1.37 3.45-1.01 6.07-.23q1.46.43 1.44-.74 1.58-.27 1.59-1.61.01-.51.49-.34.63.22 1.06.75a1.01 1.01 0 0 0 .93.37q2.62-.35 4.95.82.82.42.26-.31-.6-.78-1.59-1.2a.25.24-65.5 0 1-.12-.33l.13-.25q.09-.18.26-.07c2.88 1.86 6.35 4.06 9.77 4.35q.24.33.48.42a.71.7-72.5 0 0 .92-.48c1.89-7.21 5.49-13.01 10.2-19.13q4.33-5.62 10.01-10.53 1.14-.89 4.24-2.57c9.36-5.05 17.32-3.75 26.47 1.84q16.55 10.13 26.59 27.81c1.19 2.08 1.25 4.1 1.9 5.76 1.12 2.84 2.05 5.77 3.11 8.64q4.23 11.45 3.04 21.18c-1.3 10.65-13.46 20.42-22.73 24.68-3.33 1.53-6.07 3.29-9.99 3.99q-.56.11-.37.64 3.07 8.64 2.98 15.19-.06 3.8.26 6.58c.55 4.73-.2 10.47-1.71 14.91-1.65 4.89-2.81 10.97-4.86 14.52q-6.72 11.71-11.54 16.4-4.95 4.82-6.37 6.79zm1.25-169.66c-6.73.28-8.96 2.36-13.96 6.37q-2.59 2.07-4.28 4.07c-5.8 6.89-9.05 12.11-11.98 20.3-.52 1.46-.57 3.28-1.21 4.87q-.18.45-.63.26-2.61-1.09-7.24-2.12-6.67-1.49-12.51-.1c-4.62 1.11-8.63 1.34-14.08 2.42q-3.06.61-6.9.72c-3.3.1-6.94 2.19-9.64 3q-6.53 1.95-12.79 4.64c-2.19.95-3.71 2.63-5.79 3.94-4.49 2.83-8.25 6.1-12.18 9.58-2.14 1.9-3.46 4.61-5.87 6.62-1.13.94-1.56 1.87-2.02 3.14a.56.56 0 0 1-.87.26c-13.16-9.88-28.4-12.36-44.35-9.23-6.32 1.24-11.55 11.61-13.44 17.09q-3.72 10.81-5.72 23.14-.65 4-.31 7.33c.23 2.24-.79 3.79-.38 6.25q.47 2.73.28 5.46-.24 3.54.11 5.38 1.72 9.08 6 17.25c1.62 3.09 4.35 5.68 6.43 8.63a5.5 5.38 87.2 0 0 1.66 1.54q5.69 3.37 12.01 5.07c5.69 1.53 12.18 1.03 18.34.95 2.14-.03 4.71-.54 7.12-.46 6.99.23 14.4-1.42 21.34-2.35q.58-.07.9.41.48.75 1.44.46a.82.81 67.2 0 1 .94.39c2.84 5.13 6.46 7.16 9.21 11.26q1.08 1.62-.8 1.12l-.5-.13q-.52-.14-.74.36-2.5 5.69-6.36 10.56a.97.96 39.6 0 0 .13 1.34l1.87 1.59a.93.92-48 0 0 1.28-.07c2.68-2.84 6.13-1.48 8.91-.15q1 .48 1.85-.23c3.42-2.86 4.6-1.4 8.01.04q.4.17.8 0l2.39-1.03q.52-.22 1.03-.01l2.95 1.22a1.04 1.03-51.5 0 0 1-.12c2.7-1.97 4.09-.74 6.75.32q.47.18.95.01c1.62-.6 2.85-1.19 4.61-.83q3.06.64 5.87 2.06a1.2 1.16 49.3 0 0 .86.08q2.48-.75 5.01-.19a1.31 1.3 34.1 0 0 1.03-.19c3.08-2.08 5.5-.45 8.4.44a1.21 1.17-50.2 0 0 .93-.1c1.92-1.08 3.27-1.46 5.66-1q3.63.71 7.21-.28.49-.14 1-.06l2.69.44q.49.08.85-.25c.83-.76 2.47-1.18 2.95-1.75q.36-.43-.02-.79 1.01-1.25-.02-2.25.52-.63.58-1.47.02-.4.4-.52c1.77-.57 1.16-3.41.91-4.84q-.04-.21.16-.26l.01-.01q.21-.05.26.11.73 2.18.3 4.43-.08.46-.52.61-.45.15-.51.21-1.39 1.41.4.61l6.7-3q5.91-1.4 10.64-4.94.15-.11.16-.3 0-.17-.18-.16l.69-1.25q.24-.44.73-.52c4.25-.62 9.4-7.78 11.51-11.53q.25-.43.68-.69c2.24-1.31 4.51-5.7 6.16-7.94a.78.77-62.4 0 0-.37-1.19q-1.64-.57-2.38-2.05a.32.31 13.9 0 1 .54-.32q.96 1.3 2.43 2.04a.68.67 16.5 0 0 .98-.53q.18-1.74.9-3.29.19-.43-.02-.84l-1.17-2.31a.31.31 0 0 1 .4-.42l1.13.51q.86.39 1.06-.53l1.69-7.87q.14-.63-.12-1.23l-2.36-5.3a.24.23-80.8 0 1 .37-.27l.77.71q.38.35.71-.04c2.13-2.58-.5-7.78-1.67-10.78q-.79-2.05.8-.53.92.87 1.53 3.19.05.16.22.18l.4.03q.78.06.45-.66l-3.56-7.84a.71.71 0 0 1 .42-.97q.9-.3 1.14.55.48 1.77 1.2 3.44.07.17.21.31.15.15.3.29.19.19.17-.08-.03-.44-.24-.73-.28-.39-.36-.86c-.22-1.37-.07-2.44-.73-3.71-.79-1.5-2.62-4.41-1.44-6q.3-.4.33-.9l.17-3.83q2.37-.49 5.08-2.44 8.85-3.28 15.37-10.25.34-.37.83-.47c1.21-.24 1.88-.51 2.71-1.47 10.49-12.26 8.08-29.27 1.94-42.89-1.75-3.88-3.56-9.12-6.91-13.14q-2.95-3.54-3.81-4.66c-5.57-7.2-16.2-15.12-25.23-17.56-2.32-1.2-7.06-2.69-9.14-.52zm92.78 84.76c3.81-7.17 7.07-15.77 7.36-23.99q.09-2.52-1.27-.39c-2.11 3.32-4.59 6.27-6.25 9.93-1.48 3.26-3.12 6.36-4.03 9.84q-1.96 7.52-3.84 15.08c-.4 1.62-1.4 3.63-1.68 5.66q-.08.56.45.36.9-.33 1.19-1.04 2.15-5.24 6.7-11.99c.5-.75.83-2.44 1.37-3.46zm30.46-13.87c-6.14 2.97-11.93 8.77-15.63 14.43a1.06 1.05-79.3 0 1-.67.46q-.78.15-.94.92a.45.45 0 0 0 .6.51c4.62-1.7 10.17-2.21 13.73-3.48 10.21-3.63 14.4-10.51 18.11-20.33a.94.89-35.3 0 0 .07-.35q.06-1.88-1.17-.92-6.58 5.13-14.1 8.76zm-56.65 46.7q9.11-15.25 13.89-32.39 1.44-5.15.88-11.95-.05-.57-.61-.66-.18-.03-.37-.06-.52-.09-.82.34-7.49 10.64-9.85 21.59-3.81 17.72-7.22 28.17-.23.71.52.71h.37a.24.23 11 0 0 .22-.14q1.38-2.91 2.99-5.61zm56.46-27.99c-8.83-.45-20.14 1.79-27.72 7.01q-.29.21-.37.55a.2.2 0 0 0 .25.24q7.32-2.26 14.95-2.69c3.97-.23 10.27-.73 13.5-3.03q2.67-1.91-.61-2.08zm-20.25 18.04c.95-.97 2.37-1.88 3.38-2.94q.71-.74.53-1.51-.14-.56-.67-.32c-10.59 4.84-20.2 9.04-28.96 18.08-1.73 1.79-3.99 2.94-5.87 4.66a.59.59 0 0 0 .08.92l.22.14q.19.13.38-.01 3.88-2.78 5.4-3.38c4.62-1.8 8.11-4.25 13.32-6.46q3.45-1.45 5.82-3.37 3.35-2.72 6.37-5.81zm-68.9 29.71q-.19 2.58.34 3.56 3.16 5.89 4.76 11.89.4 1.54 1.14.13c.68-1.31.28-3.25.58-4.62 2.69-12.39 7.36-24.45 12.04-35.86q.65-1.58-.86-.78c-7.81 4.14-13.59 8.23-17.25 17.29-.87 2.15-.56 5.75-.75 8.39zm44.43-6.27q1.85-.49 8.13 1.09c6 1.52 16.21-.79 21.21-5.49q4.52-4.24 6.82-9.13 1.32-2.81-1.44-1.38c-4.67 2.41-8.55 3.33-14.97 4.72-3.34.73-7.56 1.68-10.36 3.74q-.95.7-2.02 1-4.99 1.43-9.74 3.52-1.04.45-1.81 1.34a.71.71 0 0 0 .57 1.18q1.73-.08 3.61-.59zm-6.27 12.63c-8.93 2.46-15.55 4.18-22.24 11.08q-2.96 3.06-5.84 6.2-.32.34.01.74.34.4.78.11l.85-.57q.37-.25.82-.29 8.08-.81 16-2.54c8.56-1.87 15.26-9.62 18.7-17.45q.22-.49.09-.97a.45.45 0 0 0-.66-.27c-2.74 1.61-5.33 3.08-8.51 3.96zm-34.55 27.43q-2.53 5.87-3.08 12.2c-.14 1.69-.86 2.94-1.2 4.55a.53.53 0 0 0 .79.56c6.7-4.11 10.65-10.9 4.92-18.06a.6.59-38.6 0 0-.84-.09q-.35.29-.59.84zm-111.94 10.56a1.88 1.86 33.9 0 0-2.35.45q-.59.72-1.44 1.11-.52.24-.97-.12-1.47-1.16-3.28-1.64a1.27 1.26-52.5 0 0-.95.13q-1.07.65-1.76 1.68a.56.56 0 0 1-.87.07c-1.71-1.74-4.43-4.18-6.87-1.98q-1 .89-2.12 1.67-.44.31-.93.06c-4.84-2.47-5.09-3.6-9.72.47a1.09 1.08-38.1 0 1-1.6-.19c-1.52-2.13-5.19-5.44-7.2-1.71a.89.89 0 0 0 .6 1.3c3.46.73 6.41 2.19 9.85 2.41 2.25.15 4.35.42 6.68.31 3.63-.15 7.44.43 10.76.36q7.45-.16 11.81.08 16.53.91 33.09.76c3.58-.03 7.32-.94 11.1-1.18 2.95-.18 5.46-.85 8.28-1.35a.62.61 80.3 0 0 .5-.72q-.23-1.34-1.43-2.01-.41-.23-.82 0l-2.19 1.22q-.44.25-.93.14-2.94-.62-5.71.32c-2.85.96-4.03-.43-6.62-.47-1.92-.04-3.11 1.36-5.02 1.49q-.54.04-1-.24-3.71-2.24-7.13-.11-.47.29-1.02.29h-6.47a.9.9 0 0 1-.54-.18q-4.61-3.31-9.77-.79-.51.25-1.01-.02l-2.95-1.61zm90.3 95.3q1.88-.88 1.17-2.35c-1.54-10.81-6-21.81-10.72-31.93q-.74-4.08-3.4-7.44-5.65-12.07-11.09-24.35-1.1-2.49-4.4-7.93c-3.32-5.48-5.81-10.97-8.57-16.6q-.24-.49-.76-.32c-6.52 2.21-13.45 2.12-20.35 2.64q-6.06.46-12.09.3-19.97-.51-39.95-.45-2.73.01-6-.3c-5.05-.47-9.2-.19-13.96-2.32a1.22 1.22 0 0 0-1.45.37c-5.98 7.84-13.75 15.49-18.62 22.81q-7.32 10.99-12.29 23.31c-2.85 7.08-4.11 14.52-5.78 21.9-1.54 6.85-3.03 13.13-2.96 20.68.06 6.01 1.62 12.71 2.5 19.1.45 3.3 1.4 5.33 3.63 7.52 2.76 2.72 6.2 2.16 9.42.71a.92.92 0 0 1 1.27.61l.53 2.08q.13.47.56.67l3.54 1.7a1.23 1.21-42.8 0 0 .98.03q2.01-.82 3.38-2.5.85-1.03 1.44.16a.73.73 0 0 1 .02.61q-1.06 2.54 1.3 3.8 7.07 3.75 13.81-.46c1.55-.97 2.4.74 3.36 1.25 2.85 1.52 7.35.46 10.32-.33q1.8-.48 3.38-2.82a.28.28 0 0 1 .45-.01c4.02 5.34 12.13 3.07 16.45-.26a.78.76-46.4 0 1 .89-.03q4.75 3.23 8.85 2.48 1.36-.25 3.04-1.76c1.76-1.59 4.28-2.51 3.89-5.47q-.08-.61.51-.43 6.26 1.98 11.82-.85c3.34-1.7 6.19-5.35 8.77-8.36q.37-.43.88-.17c1.43.75 2.53 1.76 4.06 1.89 3.55.29 7.45-2.36 9.54-4.81a1.73 1.72-58.9 0 1 1.94-.48q3.04 1.17 6.27.94c3.45-.24 3.59-2.81 4.45-5.24a1.02 1.02 0 0 1 1.43-.57c1.55.79 2.85 1.61 4.57 1.86q9.56 1.41 13.95-6.7.74-1.36 2.24-1 4.65 1.13 7.78-1.18zm-1.76 33.51q1.13-2.18 1.71.21.15.62.99 1 .57.26 1.31.14 3.05-.53 6.32-2.57a1.16 1.16 0 0 0-.35-2.11q-.5-.11-.74-.35-.41-.42-.31-.86.15-.69.82-.85c.61-.14 1.15.25 1.74.44q.49.16.76-.28c1.97-3.17.09-7.15-1.53-10.13-1.04-1.9-3-3.01-3.9-5.45a1.92 1.86-81.4 0 0-.57-.8q-2.69-2.25-4.97-4.9c-1.46-1.72-3.08-2.76-4.89-4.06a2.19 2.19 0 0 0-3.26.83c-1.19 2.48-3.6 3.88-4.95 6.33-.99 1.8-1.65 3.71-3.25 3.98q-.4.06-.21.42l.14.26a.26.25 70.5 0 0 .28.14l2.93-.53a.64.64 0 0 1 .61 1.05q-1.93 2.29-4.51 3.84a1.39 1.38-12.2 0 0-.66 1.02l-.68 6.2q-.07.7.63.64c4.46-.34 4.61 3.55 8.13 5.25q3.22 1.56 6.68 3.14a1.22 1.22 0 0 0 1.72-1.22q-.06-.66.01-.78zm-68.64-2.3l-1.4 7.39q-.25 1.33 1.1 1.22 11.5-.95 20.59-2.01c3.51-.41 7.8.01 11.83-.85q1.9-.41 4.31-.28 6.52.36 10.86-4.89.34-.4.31-.93-.1-1.91 1.49-2.95.44-.29.56-.79.86-3.42 1.27-6.93c.12-1.08-.57-1.88.31-3.04q.26-.34.31-.76l.59-5.1a.84.83 88.5 0 0-.97-.93q-4.59.77-8.4-1.64a.7.7 0 0 0-1.06.45c-1.4 6.63-6.86 5.26-11.76 4.15a.94.93-60.3 0 0-.87.24c-3.18 3.06-8.45 6.63-12.56 4.32q-.41-.24-.89-.18-1.9.21-2.71 1.17c-4.51 5.34-9.52 8.56-16.64 8.39-3.14-.07-4.21 3.54-5.8 4.67q-6.31 4.53-13.29.06-.44-.29-.9-.05c-5.66 2.92-10.91 4.55-16.76 1.18q-.46-.26-.93-.01-5.32 2.87-11.39 2.42a.43.42-23.6 0 0-.3.75l1.11.89q.76.61 1.73.57c3.09-.13 5.93.42 9.38.33q3.11-.09 6.15.83.5.15 1 .02.94-.23 1.84 0 .53.14.74.64c1.15 2.66 3.54 5.5 6.73 4.27q.42-.17.85-.01 1.11.41 2.3.16 9.22-1.91 18.47-3.72.5-.1.33-.58l-.48-1.32q-.19-.55.25-.94l.27-.23q.37-.33.48-.81l1.22-5.12q.05-.23.28-.22l.33.02q.15.01.12.15zm53.05-18.24a.42.42 0 0 0 .79.21l1.77-3.17a.42.42 0 0 0-.49-.6l-1.71.54a.42.42 0 0 0-.3.39l-.06 2.63zm-108.62 21.88q-.43-.9-1.06-1.05-1.83-.44-.61.99.43.51 1.5.38.31-.04.17-.32z" class="B"/><path d="M239.04 38.79l9.14.52c9.03 2.44 19.66 10.36 25.23 17.56q.86 1.12 3.81 4.66c3.35 4.02 5.16 9.26 6.91 13.14 6.14 13.62 8.55 30.63-1.94 42.89-.83.96-1.5 1.23-2.71 1.47q-.49.1-.83.47-6.52 6.97-15.37 10.25-5.84.33-5.08 2.44l-.17 3.83q-.03.5-.33.9c-1.18 1.59.65 4.5 1.44 6 .66 1.27.51 2.34.73 3.71q.08.47.36.86.21.29.24.73.02.27-.17.08-.15-.14-.3-.29-.14-.14-.21-.31-.72-1.67-1.2-3.44-.24-.85-1.14-.55a.71.71 0 0 0-.42.97l3.56 7.84q.33.72-.45.66l-.4-.03q-.17-.02-.22-.18-.61-2.32-1.53-3.19-1.59-1.52-.8.53c1.17 3 3.8 8.2 1.67 10.78q-.33.39-.71.04l-.77-.71a.24.23-80.8 0 0-.37.27l2.36 5.3q.26.6.12 1.23l-1.69 7.87q-.2.92-1.06.53l-1.13-.51a.31.31 0 0 0-.4.42l1.17 2.31q.21.41.02.84-.72 1.55-.9 3.29a.68.67 16.5 0 1-.98.53q-1.47-.74-2.43-2.04a.32.31 13.9 0 0-.54.32q.74 1.48 2.38 2.05a.78.77-62.4 0 1 .37 1.19c-1.65 2.24-3.92 6.63-6.16 7.94q-.43.26-.68.69c-2.11 3.75-7.26 10.91-11.51 11.53q-.49.08-.73.52l-.69 1.25-10.62 5.4-6.7 3q-1.79.8-.4-.61.06-.06.51-.21.44-.15.52-.61.43-2.25-.3-4.43-.05-.16-.26-.11l-.01.01q-.2.05-.16.26c.25 1.43.86 4.27-.91 4.84q-.38.12-.4.52-.06.84-.58 1.47-1.38.1-1.73 1.26a1.1 1.1 0 0 0 1.1 1.42q.14 0 .65-.43.38.36.02.79c-.48.57-2.12.99-2.95 1.75q-.36.33-.85.25l-2.69-.44q-.51-.08-1 .06-3.58.99-7.21.28c-2.39-.46-3.74-.08-5.66 1a1.21 1.17-50.2 0 1-.93.1c-2.9-.89-5.32-2.52-8.4-.44a1.31 1.3 34.1 0 1-1.03.19q-2.53-.56-5.01.19a1.2 1.16 49.3 0 1-.86-.08q-2.81-1.42-5.87-2.06c-1.76-.36-2.99.23-4.61.83q-.48.17-.95-.01c-2.66-1.06-4.05-2.29-6.75-.32a1.04 1.03-51.5 0 1-1 .12l-2.95-1.22q-.51-.21-1.03.01l-2.39 1.03q-.4.17-.8 0c-3.41-1.44-4.59-2.9-8.01-.04q-.85.71-1.85.23c-2.78-1.33-6.23-2.69-8.91.15a.93.92-48 0 1-1.28.07l-1.87-1.59a.97.96 39.6 0 1-.13-1.34q3.86-4.87 6.36-10.56.22-.5.74-.36l.5.13q1.88.5.8-1.12c-2.75-4.1-6.37-6.13-9.21-11.26a.82.81 67.2 0 0-.94-.39q-.96.29-1.44-.46-.32-.48-.9-.41c-6.94.93-14.35 2.58-21.34 2.35-2.41-.08-4.98.43-7.12.46-6.16.08-12.65.58-18.34-.95q-6.32-1.7-12.01-5.07a5.5 5.38 87.2 0 1-1.66-1.54c-2.08-2.95-4.81-5.54-6.43-8.63q-4.28-8.17-6-17.25-.35-1.84-.11-5.38.19-2.73-.28-5.46c-.41-2.46.61-4.01.38-6.25q-.34-3.33.31-7.33 2-12.33 5.72-23.14c1.89-5.48 7.12-15.85 13.44-17.09 15.95-3.13 31.19-.65 44.35 9.23a.56.56 0 0 0 .87-.26c.46-1.27.89-2.2 2.02-3.14 2.41-2.01 3.73-4.72 5.87-6.62 3.93-3.48 7.69-6.75 12.18-9.58 2.08-1.31 3.6-2.99 5.79-3.94q6.26-2.69 12.79-4.64c2.7-.81 6.34-2.9 9.64-3q3.84-.11 6.9-.72c5.45-1.08 9.46-1.31 14.08-2.42q5.84-1.39 12.51.1 4.63 1.03 7.24 2.12.45.19.63-.26c.64-1.59.69-3.41 1.21-4.87 2.93-8.19 6.18-13.41 11.98-20.3q1.69-2 4.28-4.07c5-4.01 7.23-6.09 13.96-6.37zm21.48 65.86q-.56.08-.62-.4c-.38-2.69-.18-6.02-.6-8.98q-1.07-7.4-1.63-14.85a.6.6 0 0 0-.6-.56h-.29q-.29 0-.26.29c.53 5.72 1.34 11.49.66 17.24a.81.8-72.1 0 0 .4.79q1.73 1 1.03 2.91a.38.38 0 0 1-.65.12l-.21-.24q-.43-.5-.57.14-.07.32-.24.62a.54.54 0 0 1-1-.22l-2.26-19.52a.38.38 0 0 0-.42-.33l-.3.03q-.17.02-.14.19c1.08 8.53 2.6 17.9 1.26 26.43-.16 1.04-.75 1.62-1.27 2.48q-.21.35.18.49l.3.1a.52.51 24.1 0 0 .62-.23q1.28-2.18 1.39-4.74.01-.16.16-.16.15 0 .3 0 .17 0 .21.18l.65 3.3a.69.68-20.3 0 0 1.01.46c3.28-1.86 4.78-8.24 5.15-11.71q1.04-9.79 1.93-19.6.02-.16-.09-.27l-.28-.27a.37.36 25.8 0 0-.62.21l-2.7 25.59q-.04.45-.5.51zm8.84-18q-.85.25-1.57.77-.69.51.16.64 1.64.23 1.99-.81.28-.85-.58-.6zm-24.89 64.19c.34-1.27.47-3.06-1.32-3.05q-.95.01-1.81.87a1.47 1.46-40.6 0 0-.15 1.9q.58.8 1.53 1.17a1.32 1.31-71.8 0 0 1.75-.89zm-187.49-.86a.63.63 0 0 0 .99.07q.48-.52.45-1.19-.04-.65-.69-.77-.59-.1-1.11.2-.56.33-.19.87l.55.82zm165.67 48.68q.2.17.41.27.34.16.84.03c5.49-1.42 7.71-3.77 10.45-8.59q1.08-1.89 1.06-4c-.07-9.32-3.08-15.69-6.22-23.45q-.66-1.63-2.32-4.14c-1.82-2.75-2.96-8.11-6.86-8.02q-8.21.18-14.89 7.12c-3.51 3.64-.05 7.3.22 10.76q.26 3.38 2.22 7 2.99 5.5 2.94 12.35c-.03 4.31 3.44 7.43 6.72 9.63 1.56 1.05 2.9.76 4.67.76q.44 0 .76.28zm-115.49-31.32q.02.28-.25.19-9.13-2.86-16.61-8.71-.29-.23-.34.13-.02.15.08.28 1.43 1.73 3.87 3.08 5.93 3.3 12.06 6.21c1.77.83 3.56 1.02 5.46 1.34a.31.31 0 0 0 .3-.48q-.76-1.11-2.04-1.85c-6.89-4-14.3-7.25-18.6-14.35a.43.42-30 0 0-.57-.15l-.22.13q-.14.09-.06.24c3.73 6.67 10.48 10.2 16.76 13.4q.13.06.14.2l.02.34zm-41.66-7.72q-.6.18-1.01.63a.23.23 0 0 0 .25.37l1.51-.62a.35.33-53.2 0 0-.08-.66q-.06 0-.22.12a.58.03-16.6 0 1-.45.16zm43.42 12.37l4.74 1.03q.28.06.34-.22l.06-.29q.05-.24-.18-.32c-2.93-.94-6.13-1.25-8.75-2.18q-2.72-.97-5.37-2.1-.45-.2-.92-.07c-1.96.5-5.08-1.53-7.08-2.14q-.11-.04-.15.07l-.1.27a.29.29 0 0 0 .15.37l10.36 4.81q.4.18.83.15.36-.02.65.12 4.54 2.19 9.05 4.33.39.18.59-.2l.12-.23q.08-.15-.06-.23-2.19-1.32-4.64-2.06-.21-.06-.36-.23-.22-.23-.02-.56.25-.42.74-.32zm-24.52 2.39l-.41.68q-.39.62.29.34.6-.24.61-.87a.27.27 0 0 0-.49-.15zm164.62 5.77q-.01.59.52.72.59.15.31-.4l-1.03-2.03a.28.28 0 0 0-.51.21q.15.44.46.81.26.3.25.69zm-75.301 6.375a2.41 2.25 17.5 0 0-1.622-2.871 2.41 2.25 17.5 0 0-2.975 1.421 2.41 2.25 17.5 0 0 1.622 2.871 2.41 2.25 17.5 0 0 2.975-1.421zm76.592-2.755l-.34.41q-.4.47.05.89.32.3.82.27a.52.52 0 0 0 .46-.68q-.18-.52-.59-.91a.27.27 0 0 0-.4.02zm-15.33 18.21q-.16.3-.12.68.05.43.36.13l.88-.89q.36-.36-.05-.65-.33-.23-.72-.06-.09.04-.14.12-.06.08-.08.17-.11.46-.13.5zM226.77 42.09q-5.68 4.91-10.01 10.53c-4.71 6.12-8.31 11.92-10.2 19.13a.71.7-72.5 0 1-.92.48q-.24-.09-.48-.42c3.71-12.09 9.83-23.87 21.61-29.72z" class="D"/><g class="B"><ellipse cx="0" cy="0" transform="matrix(.783693 .621148 -.621148 .783693 53.08 46.51)" rx="2.23" ry=".46"/><path d="M98.59 45.94q.81-.1.45.63-.54 1.11-1.79 1.15a.62.61 26.3 0 1-.38-1.11q.77-.56 1.72-.67zm-48.15 1.8q.87.6.23 1.55a.61.61 0 0 1-1 0q-.37-.55-.12-1.26.25-.73.89-.29zm51.66 2.89q-.61-.85-.88-1.86-.12-.48.29-.75.63-.41 1.02.17.89 1.33.08 2.44-.25.35-.51 0z"/><ellipse cx="0" cy="0" transform="matrix(-.498488 .866897 -.866897 -.498488 92.83 49.84)" rx="1.53" ry=".65"/><ellipse cx="0" cy="0" transform="matrix(.724172 .68962 -.68962 .724172 64.85 54.56)" rx="1.8" ry=".74"/><path d="M98.05 57.96c.34-.91 1.7-2.2 2.61-2.44q.38-.1.34.29-.26 2.23-2.52 2.66a.39.38-85.4 0 1-.43-.51z"/><ellipse cx="0" cy="0" transform="matrix(.915663 .401948 -.401948 .915663 71.91 58.06)" rx="1.87" ry=".89"/><path d="M92.39 57.37q.19.39.08.81a.4.39-68.3 0 1-.57.25q-.52-.29-.4-.94a.47.47 0 0 1 .89-.12zm-12.22 2.57a.45.44-25.3 0 1-.27.74q-1.02.14-1.79-.48-.54-.43.1-.68 1.14-.45 1.96.42z"/><ellipse cx="0" cy="0" transform="matrix(.954761 -.297375 .297375 .954761 91.79 60.97)" rx="2.02" ry=".73"/><path d="M80.86 60.8a.34.34 0 0 1 .12-.6q1.01-.27 1.83.32a.37.37 0 0 1-.14.66q-1.05.21-1.81-.38z"/><ellipse cx="0" cy="0" transform="matrix(.841511 .54024 -.54024 .841511 97.16 63.43)" rx="2.07" ry=".77"/><path d="M105.27 67.03c.8.06 2.14.53 2.65 1.18a.46.46 0 0 1-.4.74q-1.61-.12-2.52-1.44-.36-.52.27-.48zm9.9 1.92c.88-.2 1.75-.48 2.49.1a.49.49 0 0 1-.19.86q-1.32.3-2.65.06a.41.41 0 0 1-.25-.65q.21-.28.6-.37z"/><ellipse cx="0" cy="0" transform="matrix(.956814 -.290702 .290702 .956814 133.85 69.67)" rx="2.13" ry=".7"/></g><path d="M187.43 69.63q.02 1.17-1.44.74c-2.62-.78-3.58 1.6-6.07.23q-.5-.27-1.02-.05l-1.64.72a1.17 1.13-46 0 1-.84.03q-.61-.22-1.11-.16-.41.06-.97.46-2.01 1.44-4.49 1.63-.52.04-.66-.47-.25-.97.88-1.48 8.71-1.82 17.36-1.65z" class="D"/><g class="B"><ellipse cx="0" cy="0" transform="matrix(.995884 -.090633 .090633 .995884 125.13 70.42)" rx="1.97" ry=".75"/><path d="M261.02 104.14l2.7-25.59a.37.36 25.8 0 1 .62-.21l.28.27q.11.11.09.27-.89 9.81-1.93 19.6c-.37 3.47-1.87 9.85-5.15 11.71a.69.68-20.3 0 1-1.01-.46l-.65-3.3q-.04-.18-.21-.18-.15 0-.3 0-.15 0-.16.16-.11 2.56-1.39 4.74a.52.51 24.1 0 1-.62.23l-.3-.1q-.39-.14-.18-.49c.52-.86 1.11-1.44 1.27-2.48 1.34-8.53-.18-17.9-1.26-26.43q-.03-.17.14-.19l.3-.03a.38.38 0 0 1 .42.33l2.26 19.52a.54.54 0 0 0 1 .22q.17-.3.24-.62.14-.64.57-.14l.21.24a.38.38 0 0 0 .65-.12q.7-1.91-1.03-2.91a.81.8-72.1 0 1-.4-.79c.68-5.75-.13-11.52-.66-17.24q-.03-.29.26-.29h.29a.6.6 0 0 1 .6.56q.56 7.45 1.63 14.85c.42 2.96.22 6.29.6 8.98q.06.48.62.4.46-.06.5-.51zm8.34-17.49q.86-.25.58.6-.35 1.04-1.99.81-.85-.13-.16-.64.72-.52 1.57-.77z"/></g><path d="M344.99 122.23l-.13.25q-1.78-.04-1.47-.97 4.71-13.98 10.52-28.83a.51.51 0 0 1 .95-.01l.26.64a2.77 2.73 42.6 0 1 .09 1.78c-2.36 8.47-5.27 16.98-9.67 24.55-.43.74-.51 1.76-.55 2.59zm-13.17 1.32c-.54 1.02-.87 2.71-1.37 3.46q-4.55 6.75-6.7 11.99-.29.71-1.19 1.04-.53.2-.45-.36c.28-2.03 1.28-4.04 1.68-5.66q1.88-7.56 3.84-15.08c.91-3.48 2.55-6.58 4.03-9.84 1.66-3.66 4.14-6.61 6.25-9.93q1.36-2.13 1.27.39c-.29 8.22-3.55 16.82-7.36 23.99zm30.46-13.87q7.52-3.63 14.1-8.76 1.23-.96 1.17.92a.94.89-35.3 0 1-.07.35c-3.71 9.82-7.9 16.7-18.11 20.33-3.56 1.27-9.11 1.78-13.73 3.48a.45.45 0 0 1-.6-.51q.16-.77.94-.92a1.06 1.05-79.3 0 0 .67-.46c3.7-5.66 9.49-11.46 15.63-14.43zm-56.65 46.7q-1.61 2.7-2.99 5.61a.24.23 11 0 1-.22.14h-.37q-.75 0-.52-.71 3.41-10.45 7.22-28.17 2.36-10.95 9.85-21.59.3-.43.82-.34.19.03.37.06.56.09.61.66.56 6.8-.88 11.95-4.78 17.14-13.89 32.39zm59.87-35.08q-8.81 6.69-19.7 6.25l19.7-6.25zm-31.13 14.1c7.58-5.22 18.89-7.46 27.72-7.01q3.28.17.61 2.08c-3.23 2.3-9.53 2.8-13.5 3.03q-7.63.43-14.95 2.69a.2.2 0 0 1-.25-.24q.08-.34.37-.55zm-6.13-1.79l-2.59 7.09q-.48 2.23-2.05 2.53-.6.12-.41-.46 1.6-4.95 5.05-9.16zm13.6 12.82q-3.02 3.09-6.37 5.81-2.37 1.92-5.82 3.37c-5.21 2.21-8.7 4.66-13.32 6.46q-1.52.6-5.4 3.38-.19.14-.38.01l-.22-.14a.59.59 0 0 1-.08-.92c1.88-1.72 4.14-2.87 5.87-4.66 8.76-9.04 18.37-13.24 28.96-18.08q.53-.24.67.32.18.77-.53 1.51c-1.01 1.06-2.43 1.97-3.38 2.94z" class="F"/><path d="M244.47 150.84a1.32 1.31-71.8 0 1-1.75.89q-.95-.37-1.53-1.17a1.47 1.46-40.6 0 1 .15-1.9q.86-.86 1.81-.87c1.79-.01 1.66 1.78 1.32 3.05zm-187.49-.86l-.55-.82q-.37-.54.19-.87.52-.3 1.11-.2.65.12.69.77.03.67-.45 1.19a.63.63 0 0 1-.99-.07z" class="B"/><path d="M272.94 176.14c.19-2.64-.12-6.24.75-8.39 3.66-9.06 9.44-13.15 17.25-17.29q1.51-.8.86.78c-4.68 11.41-9.35 23.47-12.04 35.86-.3 1.37.1 3.31-.58 4.62q-.74 1.41-1.14-.13-1.6-6-4.76-11.89-.53-.98-.34-3.56z" class="F"/><path d="M221.89 198.38c-1.77 0-3.11.29-4.67-.76-3.28-2.2-6.75-5.32-6.72-9.63q.05-6.85-2.94-12.35-1.96-3.62-2.22-7c-.27-3.46-3.73-7.12-.22-10.76q6.68-6.94 14.89-7.12c3.9-.09 5.04 5.27 6.86 8.02q1.66 2.51 2.32 4.14c3.14 7.76 6.15 14.13 6.22 23.45q.02 2.11-1.06 4c-2.74 4.82-4.96 7.17-10.45 8.59q-.5.13-.84-.03-.21-.1-.41-.27-.32-.28-.76-.28zm-114.73-31.04l-.02-.34q-.01-.14-.14-.2c-6.28-3.2-13.03-6.73-16.76-13.4q-.08-.15.06-.24l.22-.13a.43.42-30 0 1 .57.15c4.3 7.1 11.71 10.35 18.6 14.35q1.28.74 2.04 1.85a.31.31 0 0 1-.3.48c-1.9-.32-3.69-.51-5.46-1.34q-6.13-2.91-12.06-6.21-2.44-1.35-3.87-3.08-.1-.13-.08-.28.05-.36.34-.13 7.48 5.85 16.61 8.71.27.09.25-.19z" class="B"/><path d="M317.37 169.87q-1.88.51-3.61.59a.71.71 0 0 1-.57-1.18q.77-.89 1.81-1.34 4.75-2.09 9.74-3.52 1.07-.3 2.02-1c2.8-2.06 7.02-3.01 10.36-3.74 6.42-1.39 10.3-2.31 14.97-4.72q2.76-1.43 1.44 1.38-2.3 4.89-6.82 9.13c-5 4.7-15.21 7.01-21.21 5.49q-6.28-1.58-8.13-1.09zm12.51-12.48q-6.7 4.51-14.34 6.83 6.67-4.33 14.34-6.83z" class="F"/><path d="M65.95 159.46q.16-.12.22-.12a.35.33-53.2 0 1 .08.66l-1.51.62a.23.23 0 0 1-.25-.37q.41-.45 1.01-.63a.58.03-16.6 0 0 .45-.16z" class="B"/><path d="M51.58 164.3q2.74 6.54 5.22 12.64c2.12 5.22 3.98 7.62 6.68 11 3.64 4.56 7.41 5.29 12.18 7.08 5.07 1.91 9.17 2.86 14.9 2.65q9.06-.32 18.19-.5c-11.7 3.45-25.67 5.08-36.58-1.31q-2.94-1.72-7-4.61-2.25-1.6-3.76-4.01c-4.71-7.51-8.09-12.96-9.83-22.94z" class="D"/><path d="M108.18 172.31q-.2.33.02.56.15.17.36.23 2.45.74 4.64 2.06.14.08.06.23l-.12.23q-.2.38-.59.2-4.51-2.14-9.05-4.33-.29-.14-.65-.12-.43.03-.83-.15l-10.36-4.81a.29.29 0 0 1-.15-.37l.1-.27q.04-.11.15-.07c2 .61 5.12 2.64 7.08 2.14q.47-.13.92.07 2.65 1.13 5.37 2.1c2.62.93 5.82 1.24 8.75 2.18q.23.08.18.32l-.06.29q-.06.28-.34.22l-4.74-1.03q-.49-.1-.74.32zm-23.78 2.07a.27.27 0 0 1 .49.15q-.01.63-.61.87-.68.28-.29-.34l.41-.68zm164.37 5.08q-.31-.37-.46-.81a.28.28 0 0 1 .51-.21l1.03 2.03q.28.55-.31.4-.53-.13-.52-.72.01-.39-.25-.69z" class="B"/><path d="M311.1 182.5c3.18-.88 5.77-2.35 8.51-3.96a.45.45 0 0 1 .66.27q.13.48-.09.97c-3.44 7.83-10.14 15.58-18.7 17.45q-7.92 1.73-16 2.54-.45.04-.82.29l-.85.57q-.44.29-.78-.11-.33-.4-.01-.74 2.88-3.14 5.84-6.2c6.69-6.9 13.31-8.62 22.24-11.08z" class="F"/><g class="B"><ellipse cx="0" cy="0" transform="matrix(.953717 .300706 -.300706 .953717 171.42 185.8)" rx="2.41" ry="2.25"/><path d="M250.31 183.77a.27.27 0 0 1 .4-.02q.41.39.59.91a.52.52 0 0 1-.46.68q-.5.03-.82-.27-.45-.42-.05-.89l.34-.41z"/></g><path d="M299.62 199.17q-7.71 3.43-16.02 3.01 1.89-1.35 4.9-1.74 7.42-.98 11.12-1.27z" class="F"/><path d="M235.11 201.48q.02-.09.08-.17.05-.08.14-.12.39-.17.72.06.41.29.05.65l-.88.89q-.31.3-.36-.13-.04-.38.12-.68.02-.04.13-.5z" class="B"/><path d="M268.73 203.81q.35.4.19 1.16a.54.54 0 0 0 .45.65l5.37.81a.98.97 12.7 0 1 .79 1.24c-1.32 4.49-2.8 8.53-3.64 13.2q-.62 3.51-1.42 6.77a1.88 1.78-71.3 0 1-2.48 1.31q-.59-.26-1.01.33a1.29 1.25 12.2 0 1-.82.51c-1.79.29-3.21.36-4.97 1.03-2.44.93-4.81.87-7.15 1.91q-5.17 2.29-9.79 2.63-2.12.16-2.69.5-.42.18-1.23.16l.97-4.13q.17-.69-.37-.23l-.66.57a1.16 1.16 0 0 0-.42.85c-.27 6.05-4.9 5.45-9.02 7.24a.75.75 0 0 1-.9-.23q-.83-1.08-1.89-.14-.42.37-.71-.11-3.84-6.42-6.62-13.31c-.89-2.19-.65-3.71-.07-5.87q.13-.49.61-.65 3.8-1.3 7.75-1.99 10.87-1.9 20.11-7.82c4.66-2.99 11.76-3.5 17.34-4.51q.7-.13.06-.44c-1.47-.71-5.75.47-7.53.53q-2.72.09-4.82.86c-3.23 1.19-5.75 1.76-8.84 3.84-3.39 2.28-6.87 2.4-10.15 3.93q-2.09.98-4.12 2.14-.75.42-.57-.42.09-.39.04-.77-.09-.61-.59-.26-4.14 2.89-9.19 3.29c-.77.05-2.12.62-3.04.02a.88.88 0 0 1 .14-1.54c3.89-1.64 8.05-2.47 11.69-4.6q2.36-1.39 4.75-2.68 1.15-.16 2.01-.58l1.5-.56q13.05-3.55 25.46-4.74 2.72-.27 5.48.1zm-5.626 21.716a1.47.33 124.2 0 0 1.099-1.03 1.47.33 124.2 0 0 .553-1.401 1.47.33 124.2 0 0-1.099 1.03 1.47.33 124.2 0 0-.553 1.401zm4.656 2.574l1.61-3.32q.07-.14-.01-.27-.07-.11-.14-.22a.3.3 0 0 0-.5-.03q-1.23 1.67-1.29 3.76a.17.17 0 0 0 .33.08zm8.79-18.17q.24-.55.59-.84a.6.59-38.6 0 1 .84.09c5.73 7.16 1.78 13.95-4.92 18.06a.53.53 0 0 1-.79-.56c.34-1.61 1.06-2.86 1.2-4.55q.55-6.33 3.08-12.2zm-144.78 1.47q-1.61 3.59-4.41 5.92-.16.14-.25.09-.12-.07-.1-.37l4.76-5.64z" class="D"/><path fill="#ffb7a1" d="M164.61 220.49l2.95 1.61q.5.27 1.01.02 5.16-2.52 9.77.79a.9.9 0 0 0 .54.18h6.47q.55 0 1.02-.29 3.42-2.13 7.13.11.46.28 1 .24c1.91-.13 3.1-1.53 5.02-1.49 2.59.04 3.77 1.43 6.62.47q2.77-.94 5.71-.32.49.11.93-.14l2.19-1.22q.41-.23.82 0 1.2.67 1.43 2.01a.62.61 80.3 0 1-.5.72c-2.82.5-5.33 1.17-8.28 1.35-3.78.24-7.52 1.15-11.1 1.18q-16.56.15-33.09-.76-4.36-.24-11.81-.08c-3.32.07-7.13-.51-10.76-.36-2.33.11-4.43-.16-6.68-.31-3.44-.22-6.39-1.68-9.85-2.41a.89.89 0 0 1-.6-1.3c2.01-3.73 5.68-.42 7.2 1.71a1.09 1.08-38.1 0 0 1.6.19c4.63-4.07 4.88-2.94 9.72-.47q.49.25.93-.06 1.12-.78 2.12-1.67c2.44-2.2 5.16.24 6.87 1.98a.56.56 0 0 0 .87-.07q.69-1.03 1.76-1.68a1.27 1.26-52.5 0 1 .95-.13q1.81.48 3.28 1.64.45.36.97.12.85-.39 1.44-1.11a1.88 1.86 33.9 0 1 2.35-.45z"/><g class="B"><ellipse cx="0" cy="0" transform="matrix(-.562083 .827081 -.827081 -.562083 263.93 224.31)" rx="1.47" ry=".33"/><path d="M267.76 228.1a.17.17 0 0 1-.33-.08q.06-2.09 1.29-3.76a.3.3 0 0 1 .5.03q.07.11.14.22.08.13.01.27l-1.61 3.32z"/></g><path fill="#ffb7a1" d="M241.96 274.07l3.4 7.44c4.72 10.12 9.18 21.12 10.72 31.93l-1.17 2.35q-3.13 2.31-7.78 1.18-1.5-.36-2.24 1-4.39 8.11-13.95 6.7c-1.72-.25-3.02-1.07-4.57-1.86a1.02 1.02 0 0 0-1.43.57c-.86 2.43-1 5-4.45 5.24q-3.23.23-6.27-.94a1.73 1.72-58.9 0 0-1.94.48c-2.09 2.45-5.99 5.1-9.54 4.81-1.53-.13-2.63-1.14-4.06-1.89q-.51-.26-.88.17c-2.58 3.01-5.43 6.66-8.77 8.36q-5.56 2.83-11.82.85-.59-.18-.51.43c.39 2.96-2.13 3.88-3.89 5.47q-1.68 1.51-3.04 1.76-4.1.75-8.85-2.48a.78.76-46.4 0 0-.89.03c-4.32 3.33-12.43 5.6-16.45.26a.28.28 0 0 0-.45.01q-1.58 2.34-3.38 2.82c-2.97.79-7.47 1.85-10.32.33-.96-.51-1.81-2.22-3.36-1.25q-6.74 4.21-13.81.46-2.36-1.26-1.3-3.8a.73.73 0 0 0-.02-.61q-.59-1.19-1.44-.16-1.37 1.68-3.38 2.5a1.23 1.21-42.8 0 1-.98-.03l-3.54-1.7q-.43-.2-.56-.67l-.53-2.08a.92.92 0 0 0-1.27-.61c-3.22 1.45-6.66 2.01-9.42-.71-2.23-2.19-3.18-4.22-3.63-7.52-.88-6.39-2.44-13.09-2.5-19.1-.07-7.55 1.42-13.83 2.96-20.68 1.67-7.38 2.93-14.82 5.78-21.9q4.97-12.32 12.29-23.31c4.87-7.32 12.64-14.97 18.62-22.81a1.22 1.22 0 0 1 1.45-.37c4.76 2.13 8.91 1.85 13.96 2.32q3.27.31 6 .3 19.98-.06 39.95.45 6.03.16 12.09-.3c6.9-.52 13.83-.43 20.35-2.64q.52-.17.76.32c2.76 5.63 5.25 11.12 8.57 16.6q3.3 5.44 4.4 7.93 5.44 12.28 11.09 24.35zm-44.69-42.75c-1.55-3.24-5.87-2.41-4.92 1.45q.92 3.74 1.42 7.04a1.77 1.77 0 0 0 2.85 1.12c2.12-1.67 6.21-5.05 6.47-7.93q.18-1.94-1.4-2.19c-1.14-.19-2.33.64-3.51.93a.8.79-20 0 1-.91-.42zm-63.79 13.47a.58.58 0 0 1-1.04 0c-1.03-2-5.29-4.96-6.33-1-.82 3.11 4.06 11.15 6.28 13.35a1.31 1.31 0 0 0 2.01-.21q3.36-5.07 6.7-10.1c1.27-1.9 1.42-5.13-1.21-5.88-2.43-.7-5.41 1.83-6.41 3.84zm73.74 64.74l1.28 4.57q.04.16.2.13l.29-.05q.54-.09.49-.65c-.28-3.25-1.17-5.89-.47-9.24 1.39-6.75.7-15.71-2.48-21.95-1.38-2.71-2.26-5.41-4.2-7.76q-2.48-2.99-4.98-5.97c-3.77-4.51-6.61-9.3-9.6-14.24q-.28-.47.07-.9 1.03-1.25 2.25-2.33.18-.16.25-.36.09-.28.08-.46a.53.52-11.2 0 0-.71-.47c-11.05 4.23-22.38 7.12-33.49 11.05q-1.16.41-.85 1.6l.08.27a.72.71-13.3 0 0 .85.52l7.79-1.69a1.13 1.11 66.7 0 1 1.18.48q2.47 3.72 4.73 7.62c4 6.87 5.01 14.71 8.85 21.72 3.87 7.07 6.55 15.67 14.08 20.03 1.7.98 3.73.79 5.67 1.12q.51.09.83.49.4.51.77 1.03.24.34.49.45.36.16.76.04.5-.14.34-.64l-.45-1.44a.84.83 67.7 0 1 .41-.99l1-.53a.81.81 0 0 1 1.15.47l.75 2.33a.49.48-32.5 0 0 .82.18q.24-.26.29-.73.18-1.48-.18-2.64-.29-.91.59-1.26l.36-.15a.53.53 0 0 1 .71.35zM223 258.68c-1.61-1.19-3.56-3.99-5.81-1.96a1.3 1.28 71.9 0 0-.41.82c-.33 3.86 3.11 10.71 4.47 14.49q.65 1.82 2.07 1.2a1.45 1.41.8 0 0 .71-.67c1.37-2.64 7.98-12.92 4.81-15.27-1.91-1.42-3.42.6-4.96 1.44q-.46.26-.88-.05zm-85.27 29.82a.61.61 0 0 1-1.08 0c-.93-1.81-2.59-5.58-5.25-4.19a2.42 2.39-14.8 0 0-1.29 2.19q.19 7.82 3.35 15.02a1.91 1.9 73.7 0 0 2.04 1.12q1.44-.23 2.47-1.93 3.42-5.68 6.17-11.73.65-1.43.39-2.57-.29-1.24-1.57-1.2-3.58.1-5.23 3.29zm99.67 4.08c-1.15-1.25-3.02-4.22-5.11-2.63a1.9 1.88-24.8 0 0-.71 1.9q.47 2.2.32 4.39-.14 1.93 2.06 6.84.54 1.22 1.28 1.93a1.44 1.44 0 0 0 2.18-.22l6.74-9.66a2.2 2.2 0 0 0 .25-2.05c-1-2.6-4.37-1.44-5.98-.37a.8.8 0 0 1-1.03-.13zm-127.49 21.49q-1.84-3.27-5.62-2.57a1.45 1.44-8.6 0 0-1.17 1.58q.72 6.38 3.74 11.98a1.46 1.45 53.9 0 0 2.29.36c2.58-2.48 8.21-7.92 8.73-11.72a1.79 1.78-77.4 0 0-1.23-1.95c-2.93-.93-3.8 1.05-5.86 2.52a.61.61 0 0 1-.88-.2zm54.27-.44c-1.33-1.65-3.29-3.19-5.36-1.71q-.41.29-.46.78c-.47 4.44 2.47 7.57 3.87 11.63a1.7 1.7 0 0 0 2.96.48l6.81-8.89a1.7 1.7 0 0 0-.35-2.41q-3.31-2.38-6.36.22a.78.78 0 0 1-1.11-.1z"/><path d="M198.18 231.74c1.18-.29 2.37-1.12 3.51-.93q1.58.25 1.4 2.19c-.26 2.88-4.35 6.26-6.47 7.93a1.77 1.77 0 0 1-2.85-1.12q-.5-3.3-1.42-7.04c-.95-3.86 3.37-4.69 4.92-1.45a.8.79-20 0 0 .91.42zm-64.7 13.05c1-2.01 3.98-4.54 6.41-3.84 2.63.75 2.48 3.98 1.21 5.88q-3.34 5.03-6.7 10.1a1.31 1.31 0 0 1-2.01.21c-2.22-2.2-7.1-10.24-6.28-13.35 1.04-3.96 5.3-1 6.33 1a.58.58 0 0 0 1.04 0zm73.74 64.74a.53.53 0 0 0-.71-.35l-.36.15q-.88.35-.59 1.26.36 1.16.18 2.64-.05.47-.29.73a.49.48-32.5 0 1-.82-.18l-.75-2.33a.81.81 0 0 0-1.15-.47l-1 .53a.84.83 67.7 0 0-.41.99l.45 1.44q.16.5-.34.64-.4.12-.76-.04-.25-.11-.49-.45-.37-.52-.77-1.03-.32-.4-.83-.49c-1.94-.33-3.97-.14-5.67-1.12-7.53-4.36-10.21-12.96-14.08-20.03-3.84-7.01-4.85-14.85-8.85-21.72q-2.26-3.9-4.73-7.62a1.13 1.11 66.7 0 0-1.18-.48l-7.79 1.69a.72.71-13.3 0 1-.85-.52l-.08-.27q-.31-1.19.85-1.6c11.11-3.93 22.44-6.82 33.49-11.05a.53.52-11.2 0 1 .71.47q.01.18-.08.46-.07.2-.25.36-1.22 1.08-2.25 2.33-.35.43-.07.9c2.99 4.94 5.83 9.73 9.6 14.24q2.5 2.98 4.98 5.97c1.94 2.35 2.82 5.05 4.2 7.76 3.18 6.24 3.87 15.2 2.48 21.95-.7 3.35.19 5.99.47 9.24q.05.56-.49.65l-.29.05q-.16.03-.2-.13l-1.28-4.57zm-26.25-17.55c1.75 2.04 3.61 5.46 4.39 8.02 1.26 4.13 6.22 8.76 9.02 11.11a1.36 1.32 65.4 0 0 .85.33c1.84.05 3.26.35 4.98-.45q3.02-1.38 5.94-3.14.43-.26.58-.74c3.3-10.52-.07-23.22-5.52-31.09-2.88-4.16-8.27-9.95-11.41-15.34q-1.95-3.34-3.58-6.75-.3-.61-.93-.38l-19.08 6.87a.58.57 60.8 0 0-.25.9c3.48 4.36 7.22 8.78 8.66 14.32.52 1.99 1.6 3.19 2.24 5.13 1.22 3.72 3.12 6.38 3.7 10.31q.07.51.41.9z" class="B"/><path d="M185.36 300c-.78-2.56-2.64-5.98-4.39-8.02q-.34-.39-.41-.9c-.58-3.93-2.48-6.59-3.7-10.31-.64-1.94-1.72-3.14-2.24-5.13-1.44-5.54-5.18-9.96-8.66-14.32a.58.57 60.8 0 1 .25-.9l19.08-6.87q.63-.23.93.38 1.63 3.41 3.58 6.75c3.14 5.39 8.53 11.18 11.41 15.34 5.45 7.87 8.82 20.57 5.52 31.09q-.15.48-.58.74-2.92 1.76-5.94 3.14c-1.72.8-3.14.5-4.98.45a1.36 1.32 65.4 0 1-.85-.33c-2.8-2.35-7.76-6.98-9.02-11.11z" class="D"/><path d="M223.88 258.73c1.54-.84 3.05-2.86 4.96-1.44 3.17 2.35-3.44 12.63-4.81 15.27a1.45 1.41.8 0 1-.71.67q-1.42.62-2.07-1.2c-1.36-3.78-4.8-10.63-4.47-14.49a1.3 1.28 71.9 0 1 .41-.82c2.25-2.03 4.2.77 5.81 1.96q.42.31.88.05zm-86.15 29.77q1.65-3.19 5.23-3.29 1.28-.04 1.57 1.2.26 1.14-.39 2.57-2.75 6.05-6.17 11.73-1.03 1.7-2.47 1.93a1.91 1.9 73.7 0 1-2.04-1.12q-3.16-7.2-3.35-15.02a2.42 2.39-14.8 0 1 1.29-2.19c2.66-1.39 4.32 2.38 5.25 4.19a.61.61 0 0 0 1.08 0zm99.67 4.08a.8.8 0 0 0 1.03.13c1.61-1.07 4.98-2.23 5.98.37a2.2 2.2 0 0 1-.25 2.05l-6.74 9.66a1.44 1.44 0 0 1-2.18.22q-.74-.71-1.28-1.93-2.2-4.91-2.06-6.84.15-2.19-.32-4.39a1.9 1.88-24.8 0 1 .71-1.9c2.09-1.59 3.96 1.38 5.11 2.63zm-126.61 21.69c2.06-1.47 2.93-3.45 5.86-2.52a1.79 1.78-77.4 0 1 1.23 1.95c-.52 3.8-6.15 9.24-8.73 11.72a1.46 1.45 53.9 0 1-2.29-.36q-3.02-5.6-3.74-11.98a1.45 1.44-8.6 0 1 1.17-1.58q3.78-.7 5.62 2.57a.61.61 0 0 0 .88.2zm53.39-.64a.78.78 0 0 0 1.11.1q3.05-2.6 6.36-.22a1.7 1.7 0 0 1 .35 2.41l-6.81 8.89a1.7 1.7 0 0 1-2.96-.48c-1.4-4.06-4.34-7.19-3.87-11.63q.05-.49.46-.78c2.07-1.48 4.03.06 5.36 1.71z" class="B"/><path d="M253.15 349.3q-.07.12-.01.78a1.22 1.22 0 0 1-1.72 1.22q-3.46-1.58-6.68-3.14c-3.52-1.7-3.67-5.59-8.13-5.25q-.7.06-.63-.64l.68-6.2a1.39 1.38-12.2 0 1 .66-1.02q2.58-1.55 4.51-3.84a.64.64 0 0 0-.61-1.05l-2.93.53a.26.25 70.5 0 1-.28-.14l-.14-.26q-.19-.36.21-.42c1.6-.27 2.26-2.18 3.25-3.98 1.35-2.45 3.76-3.85 4.95-6.33a2.19 2.19 0 0 1 3.26-.83c1.81 1.3 3.43 2.34 4.89 4.06q2.28 2.65 4.97 4.9a1.92 1.86-81.4 0 1 .57.8c.9 2.44 2.86 3.55 3.9 5.45 1.62 2.98 3.5 6.96 1.53 10.13q-.27.44-.76.28c-.59-.19-1.13-.58-1.74-.44q-.67.16-.82.85-.1.44.31.86.24.24.74.35a1.16 1.16 0 0 1 .35 2.11q-3.27 2.04-6.32 2.57-.74.12-1.31-.14-.84-.38-.99-1-.58-2.39-1.71-.21zm-68.64-2.3q.03-.14-.12-.15l-.33-.02q-.23-.01-.28.22l-1.22 5.12q-.11.48-.48.81l-.27.23q-.44.39-.25.94l.48 1.32q.17.48-.33.58-9.25 1.81-18.47 3.72-1.19.25-2.3-.16-.43-.16-.85.01c-3.19 1.23-5.58-1.61-6.73-4.27q-.21-.5-.74-.64-.9-.23-1.84 0-.5.13-1-.02-3.04-.92-6.15-.83c-3.45.09-6.29-.46-9.38-.33q-.97.04-1.73-.57l-1.11-.89a.43.42-23.6 0 1 .3-.75q6.07.45 11.39-2.42.47-.25.93.01c5.85 3.37 11.1 1.74 16.76-1.18q.46-.24.9.05 6.98 4.47 13.29-.06c1.59-1.13 2.66-4.74 5.8-4.67 7.12.17 12.13-3.05 16.64-8.39q.81-.96 2.71-1.17.48-.06.89.18c4.11 2.31 9.38-1.26 12.56-4.32a.94.93-60.3 0 1 .87-.24c4.9 1.11 10.36 2.48 11.76-4.15a.7.7 0 0 1 1.06-.45q3.81 2.41 8.4 1.64a.84.83 88.5 0 1 .97.93l-.59 5.1q-.05.42-.31.76c-.88 1.16-.19 1.96-.31 3.04q-.41 3.51-1.27 6.93-.12.5-.56.79-1.59 1.04-1.49 2.95.03.53-.31.93-4.34 5.25-10.86 4.89-2.41-.13-4.31.28c-4.03.86-8.32.44-11.83.85q-9.09 1.06-20.59 2.01-1.35.11-1.1-1.22l1.4-7.39zm43.34.63q-.47 1.58.91.67 1.94-1.28 1.71-4.23-.05-.57-.62-.58-.16 0-.32.01-.47.01-.6.46l-1.08 3.67zm-2.64-3.03q-.64 3.11-2.27 5.86a.24.24 0 0 0 .13.35l.4.15a.18.17-69.7 0 0 .23-.11l2.26-5.8q.13-.34-.21-.44l-.36-.11q-.15-.05-.18.1zm-1.16.62l-.23-.12q-.08-.04-.14.04-1.29 1.62-1.81 3.6-.05.18.12.23l.29.1a.26.26 0 0 0 .33-.17q.55-1.89 1.47-3.59.03-.06-.03-.09zm-38.13 7.47q.64-3.03 1.24-4.95.05-.16-.11-.29-.25-.19-.43.07-1.84 2.58-1.21 5.18.27 1.14.51-.01zm6.74-4.77q.5.11.8-.16.3-.28-.11-.33-1.1-.16-2.09.36-.57.3.03.54.55.21.82-.19.21-.29.55-.22zm27.5 1.83a.13.13 0 0 0-.17-.16q-.81.3-.67 1.33.02.12.09.17.1.08.23.08.18-.01.22-.17l.3-1.25zm1.1.03q-.27.55-.31 1.19a.37.36 74.3 0 0 .58.33q.91-.67.51-1.52-.39-.81-.78 0zm16.3-21.02l.06-2.63a.42.42 0 0 1 .3-.39l1.71-.54a.42.42 0 0 1 .49.6l-1.77 3.17a.42.42 0 0 1-.79-.21z" class="D"/><path d="M227.85 347.63l1.08-3.67q.13-.45.6-.46.16-.01.32-.01.57.01.62.58.23 2.95-1.71 4.23-1.38.91-.91-.67zm-2.64-3.03q.03-.15.18-.1l.36.11q.34.1.21.44l-2.26 5.8a.18.17-69.7 0 1-.23.11l-.4-.15a.24.24 0 0 1-.13-.35q1.63-2.75 2.27-5.86zm-1.13.71q-.92 1.7-1.47 3.59a.26.26 0 0 1-.33.17l-.29-.1q-.17-.05-.12-.23.52-1.98 1.81-3.6.06-.08.14-.04l.23.12q.06.03.03.09z" class="B"/><path d="M242.34 348.87l-5.86-2.28q.41-1.04 1.75-1.23.45-.07.83.18 2.2 1.4 3.28 3.33z" class="D"/><path d="M185.92 352.69q-.24 1.15-.51.01-.63-2.6 1.21-5.18.18-.26.43-.07.16.13.11.29-.6 1.92-1.24 4.95zm6.19-4.55q-.27.4-.82.19-.6-.24-.03-.54.99-.52 2.09-.36.41.05.11.33-.3.27-.8.16-.34-.07-.55.22z" class="B"/><path d="M128.77 350.96q-1.07.13-1.5-.38-1.22-1.43.61-.99.63.15 1.06 1.05.14.28-.17.32z" class="D"/><path d="M220.16 349.75l-.3 1.25q-.04.16-.22.17-.13 0-.23-.08-.07-.05-.09-.17-.14-1.03.67-1.33a.13.13 0 0 1 .17.16zm1.1.03q.39-.81.78 0 .4.85-.51 1.52a.37.36 74.3 0 1-.58-.33q.04-.64.31-1.19z" class="B"/><path d="M151.79 356.39q-4.51.75-9.19-.05 3.76-2.27 9.19.05z" class="D"/></svg>